G04 #@! TF.GenerationSoftware,KiCad,Pcbnew,6.0.7*
G04 #@! TF.CreationDate,2022-09-18T12:33:00+10:00*
G04 #@! TF.ProjectId,inchdigits,696e6368-6469-4676-9974-732e6b696361,1*
G04 #@! TF.SameCoordinates,Original*
G04 #@! TF.FileFunction,Legend,Bot*
G04 #@! TF.FilePolarity,Positive*
%FSLAX46Y46*%
G04 Gerber Fmt 4.6, Leading zero omitted, Abs format (unit mm)*
G04 Created by KiCad (PCBNEW 6.0.7) date 2022-09-18 12:33:00*
%MOMM*%
%LPD*%
G01*
G04 APERTURE LIST*
%ADD10C,0.300000*%
%ADD11C,0.254000*%
%ADD12C,0.150000*%
%ADD13C,0.010000*%
%ADD14C,0.120000*%
G04 APERTURE END LIST*
D10*
X101461570Y-93289784D02*
X101247284Y-93361213D01*
X100890141Y-93361213D01*
X100747284Y-93289784D01*
X100675855Y-93218356D01*
X100604427Y-93075499D01*
X100604427Y-92932642D01*
X100675855Y-92789784D01*
X100747284Y-92718356D01*
X100890141Y-92646927D01*
X101175855Y-92575499D01*
X101318713Y-92504070D01*
X101390141Y-92432642D01*
X101461570Y-92289784D01*
X101461570Y-92146927D01*
X101390141Y-92004070D01*
X101318713Y-91932642D01*
X101175855Y-91861213D01*
X100818713Y-91861213D01*
X100604427Y-91932642D01*
X99175855Y-93361213D02*
X100032998Y-93361213D01*
X99604427Y-93361213D02*
X99604427Y-91861213D01*
X99747284Y-92075499D01*
X99890141Y-92218356D01*
X100032998Y-92289784D01*
X101461570Y-95847410D02*
X101247284Y-95918839D01*
X100890141Y-95918839D01*
X100747284Y-95847410D01*
X100675855Y-95775982D01*
X100604427Y-95633125D01*
X100604427Y-95490268D01*
X100675855Y-95347410D01*
X100747284Y-95275982D01*
X100890141Y-95204553D01*
X101175855Y-95133125D01*
X101318713Y-95061696D01*
X101390141Y-94990268D01*
X101461570Y-94847410D01*
X101461570Y-94704553D01*
X101390141Y-94561696D01*
X101318713Y-94490268D01*
X101175855Y-94418839D01*
X100818713Y-94418839D01*
X100604427Y-94490268D01*
X100032998Y-94561696D02*
X99961570Y-94490268D01*
X99818713Y-94418839D01*
X99461570Y-94418839D01*
X99318713Y-94490268D01*
X99247284Y-94561696D01*
X99175855Y-94704553D01*
X99175855Y-94847410D01*
X99247284Y-95061696D01*
X100104427Y-95918839D01*
X99175855Y-95918839D01*
X101461570Y-98329811D02*
X101247284Y-98401240D01*
X100890141Y-98401240D01*
X100747284Y-98329811D01*
X100675855Y-98258383D01*
X100604427Y-98115526D01*
X100604427Y-97972669D01*
X100675855Y-97829811D01*
X100747284Y-97758383D01*
X100890141Y-97686954D01*
X101175855Y-97615526D01*
X101318713Y-97544097D01*
X101390141Y-97472669D01*
X101461570Y-97329811D01*
X101461570Y-97186954D01*
X101390141Y-97044097D01*
X101318713Y-96972669D01*
X101175855Y-96901240D01*
X100818713Y-96901240D01*
X100604427Y-96972669D01*
X100104427Y-96901240D02*
X99175855Y-96901240D01*
X99675855Y-97472669D01*
X99461570Y-97472669D01*
X99318713Y-97544097D01*
X99247284Y-97615526D01*
X99175855Y-97758383D01*
X99175855Y-98115526D01*
X99247284Y-98258383D01*
X99318713Y-98329811D01*
X99461570Y-98401240D01*
X99890141Y-98401240D01*
X100032998Y-98329811D01*
X100104427Y-98258383D01*
X101461570Y-100887437D02*
X101247284Y-100958866D01*
X100890141Y-100958866D01*
X100747284Y-100887437D01*
X100675855Y-100816009D01*
X100604427Y-100673152D01*
X100604427Y-100530295D01*
X100675855Y-100387437D01*
X100747284Y-100316009D01*
X100890141Y-100244580D01*
X101175855Y-100173152D01*
X101318713Y-100101723D01*
X101390141Y-100030295D01*
X101461570Y-99887437D01*
X101461570Y-99744580D01*
X101390141Y-99601723D01*
X101318713Y-99530295D01*
X101175855Y-99458866D01*
X100818713Y-99458866D01*
X100604427Y-99530295D01*
X99318713Y-99958866D02*
X99318713Y-100958866D01*
X99675855Y-99387437D02*
X100032998Y-100458866D01*
X99104427Y-100458866D01*
X101437142Y-103548571D02*
X101437142Y-102048571D01*
X100580000Y-103548571D02*
X101222857Y-102691428D01*
X100580000Y-102048571D02*
X101437142Y-102905714D01*
X100008571Y-102191428D02*
X99937142Y-102120000D01*
X99794285Y-102048571D01*
X99437142Y-102048571D01*
X99294285Y-102120000D01*
X99222857Y-102191428D01*
X99151428Y-102334285D01*
X99151428Y-102477142D01*
X99222857Y-102691428D01*
X100080000Y-103548571D01*
X99151428Y-103548571D01*
X101437142Y-106088571D02*
X101437142Y-104588571D01*
X100580000Y-106088571D02*
X101222857Y-105231428D01*
X100580000Y-104588571D02*
X101437142Y-105445714D01*
X99151428Y-106088571D02*
X100008571Y-106088571D01*
X99580000Y-106088571D02*
X99580000Y-104588571D01*
X99722857Y-104802857D01*
X99865714Y-104945714D01*
X100008571Y-105017142D01*
X183610000Y-99508571D02*
X183110000Y-101008571D01*
X182610000Y-99508571D01*
X181252857Y-100865714D02*
X181324285Y-100937142D01*
X181538571Y-101008571D01*
X181681428Y-101008571D01*
X181895714Y-100937142D01*
X182038571Y-100794285D01*
X182110000Y-100651428D01*
X182181428Y-100365714D01*
X182181428Y-100151428D01*
X182110000Y-99865714D01*
X182038571Y-99722857D01*
X181895714Y-99580000D01*
X181681428Y-99508571D01*
X181538571Y-99508571D01*
X181324285Y-99580000D01*
X181252857Y-99651428D01*
X179752857Y-100865714D02*
X179824285Y-100937142D01*
X180038571Y-101008571D01*
X180181428Y-101008571D01*
X180395714Y-100937142D01*
X180538571Y-100794285D01*
X180610000Y-100651428D01*
X180681428Y-100365714D01*
X180681428Y-100151428D01*
X180610000Y-99865714D01*
X180538571Y-99722857D01*
X180395714Y-99580000D01*
X180181428Y-99508571D01*
X180038571Y-99508571D01*
X179824285Y-99580000D01*
X179752857Y-99651428D01*
X182502857Y-95785714D02*
X182574285Y-95857142D01*
X182788571Y-95928571D01*
X182931428Y-95928571D01*
X183145714Y-95857142D01*
X183288571Y-95714285D01*
X183360000Y-95571428D01*
X183431428Y-95285714D01*
X183431428Y-95071428D01*
X183360000Y-94785714D01*
X183288571Y-94642857D01*
X183145714Y-94500000D01*
X182931428Y-94428571D01*
X182788571Y-94428571D01*
X182574285Y-94500000D01*
X182502857Y-94571428D01*
X181145714Y-95928571D02*
X181860000Y-95928571D01*
X181860000Y-94428571D01*
X180645714Y-95928571D02*
X180645714Y-94428571D01*
X179788571Y-95928571D02*
X180431428Y-95071428D01*
X179788571Y-94428571D02*
X180645714Y-95285714D01*
X183145714Y-98468571D02*
X183145714Y-96968571D01*
X182788571Y-96968571D01*
X182574285Y-97040000D01*
X182431428Y-97182857D01*
X182360000Y-97325714D01*
X182288571Y-97611428D01*
X182288571Y-97825714D01*
X182360000Y-98111428D01*
X182431428Y-98254285D01*
X182574285Y-98397142D01*
X182788571Y-98468571D01*
X183145714Y-98468571D01*
X181645714Y-98468571D02*
X181645714Y-96968571D01*
X180645714Y-96968571D02*
X180360000Y-96968571D01*
X180217142Y-97040000D01*
X180074285Y-97182857D01*
X180002857Y-97468571D01*
X180002857Y-97968571D01*
X180074285Y-98254285D01*
X180217142Y-98397142D01*
X180360000Y-98468571D01*
X180645714Y-98468571D01*
X180788571Y-98397142D01*
X180931428Y-98254285D01*
X181002857Y-97968571D01*
X181002857Y-97468571D01*
X180931428Y-97182857D01*
X180788571Y-97040000D01*
X180645714Y-96968571D01*
X117438571Y-103611071D02*
X117438571Y-102111071D01*
X116724285Y-102611071D02*
X116724285Y-103611071D01*
X116724285Y-102753928D02*
X116652857Y-102682500D01*
X116510000Y-102611071D01*
X116295714Y-102611071D01*
X116152857Y-102682500D01*
X116081428Y-102825357D01*
X116081428Y-103611071D01*
X114724285Y-103539642D02*
X114867142Y-103611071D01*
X115152857Y-103611071D01*
X115295714Y-103539642D01*
X115367142Y-103468214D01*
X115438571Y-103325357D01*
X115438571Y-102896785D01*
X115367142Y-102753928D01*
X115295714Y-102682500D01*
X115152857Y-102611071D01*
X114867142Y-102611071D01*
X114724285Y-102682500D01*
X114081428Y-103611071D02*
X114081428Y-102111071D01*
X113438571Y-103611071D02*
X113438571Y-102825357D01*
X113510000Y-102682500D01*
X113652857Y-102611071D01*
X113867142Y-102611071D01*
X114010000Y-102682500D01*
X114081428Y-102753928D01*
X110938571Y-103611071D02*
X110938571Y-102111071D01*
X110938571Y-103539642D02*
X111081428Y-103611071D01*
X111367142Y-103611071D01*
X111510000Y-103539642D01*
X111581428Y-103468214D01*
X111652857Y-103325357D01*
X111652857Y-102896785D01*
X111581428Y-102753928D01*
X111510000Y-102682500D01*
X111367142Y-102611071D01*
X111081428Y-102611071D01*
X110938571Y-102682500D01*
X110224285Y-103611071D02*
X110224285Y-102611071D01*
X110224285Y-102111071D02*
X110295714Y-102182500D01*
X110224285Y-102253928D01*
X110152857Y-102182500D01*
X110224285Y-102111071D01*
X110224285Y-102253928D01*
X108867142Y-102611071D02*
X108867142Y-103825357D01*
X108938571Y-103968214D01*
X109010000Y-104039642D01*
X109152857Y-104111071D01*
X109367142Y-104111071D01*
X109510000Y-104039642D01*
X108867142Y-103539642D02*
X109010000Y-103611071D01*
X109295714Y-103611071D01*
X109438571Y-103539642D01*
X109510000Y-103468214D01*
X109581428Y-103325357D01*
X109581428Y-102896785D01*
X109510000Y-102753928D01*
X109438571Y-102682500D01*
X109295714Y-102611071D01*
X109010000Y-102611071D01*
X108867142Y-102682500D01*
X108152857Y-103611071D02*
X108152857Y-102611071D01*
X108152857Y-102111071D02*
X108224285Y-102182500D01*
X108152857Y-102253928D01*
X108081428Y-102182500D01*
X108152857Y-102111071D01*
X108152857Y-102253928D01*
X107652857Y-102611071D02*
X107081428Y-102611071D01*
X107438571Y-102111071D02*
X107438571Y-103396785D01*
X107367142Y-103539642D01*
X107224285Y-103611071D01*
X107081428Y-103611071D01*
X106652857Y-103539642D02*
X106510000Y-103611071D01*
X106224285Y-103611071D01*
X106081428Y-103539642D01*
X106010000Y-103396785D01*
X106010000Y-103325357D01*
X106081428Y-103182500D01*
X106224285Y-103111071D01*
X106438571Y-103111071D01*
X106581428Y-103039642D01*
X106652857Y-102896785D01*
X106652857Y-102825357D01*
X106581428Y-102682500D01*
X106438571Y-102611071D01*
X106224285Y-102611071D01*
X106081428Y-102682500D01*
X119474285Y-106026071D02*
X119474285Y-104526071D01*
X118617142Y-106026071D02*
X119260000Y-105168928D01*
X118617142Y-104526071D02*
X119474285Y-105383214D01*
X117402857Y-105954642D02*
X117545714Y-106026071D01*
X117831428Y-106026071D01*
X117974285Y-105954642D01*
X118045714Y-105811785D01*
X118045714Y-105240357D01*
X117974285Y-105097500D01*
X117831428Y-105026071D01*
X117545714Y-105026071D01*
X117402857Y-105097500D01*
X117331428Y-105240357D01*
X117331428Y-105383214D01*
X118045714Y-105526071D01*
X116688571Y-105026071D02*
X116688571Y-106026071D01*
X116688571Y-105168928D02*
X116617142Y-105097500D01*
X116474285Y-105026071D01*
X116260000Y-105026071D01*
X116117142Y-105097500D01*
X116045714Y-105240357D01*
X116045714Y-106026071D01*
X113902857Y-105311785D02*
X113902857Y-106026071D01*
X114402857Y-104526071D02*
X113902857Y-105311785D01*
X113402857Y-104526071D01*
X112260000Y-106026071D02*
X112260000Y-105240357D01*
X112331428Y-105097500D01*
X112474285Y-105026071D01*
X112760000Y-105026071D01*
X112902857Y-105097500D01*
X112260000Y-105954642D02*
X112402857Y-106026071D01*
X112760000Y-106026071D01*
X112902857Y-105954642D01*
X112974285Y-105811785D01*
X112974285Y-105668928D01*
X112902857Y-105526071D01*
X112760000Y-105454642D01*
X112402857Y-105454642D01*
X112260000Y-105383214D01*
X111545714Y-105026071D02*
X111545714Y-106526071D01*
X111545714Y-105097500D02*
X111402857Y-105026071D01*
X111117142Y-105026071D01*
X110974285Y-105097500D01*
X110902857Y-105168928D01*
X110831428Y-105311785D01*
X110831428Y-105740357D01*
X110902857Y-105883214D01*
X110974285Y-105954642D01*
X111117142Y-106026071D01*
X111402857Y-106026071D01*
X111545714Y-105954642D01*
X109117142Y-104668928D02*
X109045714Y-104597500D01*
X108902857Y-104526071D01*
X108545714Y-104526071D01*
X108402857Y-104597500D01*
X108331428Y-104668928D01*
X108260000Y-104811785D01*
X108260000Y-104954642D01*
X108331428Y-105168928D01*
X109188571Y-106026071D01*
X108260000Y-106026071D01*
X107331428Y-104526071D02*
X107188571Y-104526071D01*
X107045714Y-104597500D01*
X106974285Y-104668928D01*
X106902857Y-104811785D01*
X106831428Y-105097500D01*
X106831428Y-105454642D01*
X106902857Y-105740357D01*
X106974285Y-105883214D01*
X107045714Y-105954642D01*
X107188571Y-106026071D01*
X107331428Y-106026071D01*
X107474285Y-105954642D01*
X107545714Y-105883214D01*
X107617142Y-105740357D01*
X107688571Y-105454642D01*
X107688571Y-105097500D01*
X107617142Y-104811785D01*
X107545714Y-104668928D01*
X107474285Y-104597500D01*
X107331428Y-104526071D01*
X106260000Y-104668928D02*
X106188571Y-104597500D01*
X106045714Y-104526071D01*
X105688571Y-104526071D01*
X105545714Y-104597500D01*
X105474285Y-104668928D01*
X105402857Y-104811785D01*
X105402857Y-104954642D01*
X105474285Y-105168928D01*
X106331428Y-106026071D01*
X105402857Y-106026071D01*
X104831428Y-104668928D02*
X104760000Y-104597500D01*
X104617142Y-104526071D01*
X104260000Y-104526071D01*
X104117142Y-104597500D01*
X104045714Y-104668928D01*
X103974285Y-104811785D01*
X103974285Y-104954642D01*
X104045714Y-105168928D01*
X104902857Y-106026071D01*
X103974285Y-106026071D01*
X182752857Y-102120000D02*
X182895714Y-102048571D01*
X183110000Y-102048571D01*
X183324285Y-102120000D01*
X183467142Y-102262857D01*
X183538571Y-102405714D01*
X183610000Y-102691428D01*
X183610000Y-102905714D01*
X183538571Y-103191428D01*
X183467142Y-103334285D01*
X183324285Y-103477142D01*
X183110000Y-103548571D01*
X182967142Y-103548571D01*
X182752857Y-103477142D01*
X182681428Y-103405714D01*
X182681428Y-102905714D01*
X182967142Y-102905714D01*
X182038571Y-103548571D02*
X182038571Y-102048571D01*
X181181428Y-103548571D01*
X181181428Y-102048571D01*
X180467142Y-103548571D02*
X180467142Y-102048571D01*
X180110000Y-102048571D01*
X179895714Y-102120000D01*
X179752857Y-102262857D01*
X179681428Y-102405714D01*
X179610000Y-102691428D01*
X179610000Y-102905714D01*
X179681428Y-103191428D01*
X179752857Y-103334285D01*
X179895714Y-103477142D01*
X180110000Y-103548571D01*
X180467142Y-103548571D01*
D11*
X94554523Y-112122857D02*
X93284523Y-112122857D01*
X93284523Y-112425238D01*
X93345000Y-112606666D01*
X93465952Y-112727619D01*
X93586904Y-112788095D01*
X93828809Y-112848571D01*
X94010238Y-112848571D01*
X94252142Y-112788095D01*
X94373095Y-112727619D01*
X94494047Y-112606666D01*
X94554523Y-112425238D01*
X94554523Y-112122857D01*
X94494047Y-113332380D02*
X94554523Y-113513809D01*
X94554523Y-113816190D01*
X94494047Y-113937142D01*
X94433571Y-113997619D01*
X94312619Y-114058095D01*
X94191666Y-114058095D01*
X94070714Y-113997619D01*
X94010238Y-113937142D01*
X93949761Y-113816190D01*
X93889285Y-113574285D01*
X93828809Y-113453333D01*
X93768333Y-113392857D01*
X93647380Y-113332380D01*
X93526428Y-113332380D01*
X93405476Y-113392857D01*
X93345000Y-113453333D01*
X93284523Y-113574285D01*
X93284523Y-113876666D01*
X93345000Y-114058095D01*
X94554523Y-115267619D02*
X94554523Y-114541904D01*
X94554523Y-114904761D02*
X93284523Y-114904761D01*
X93465952Y-114783809D01*
X93586904Y-114662857D01*
X93647380Y-114541904D01*
X121224523Y-112122857D02*
X119954523Y-112122857D01*
X119954523Y-112425238D01*
X120015000Y-112606666D01*
X120135952Y-112727619D01*
X120256904Y-112788095D01*
X120498809Y-112848571D01*
X120680238Y-112848571D01*
X120922142Y-112788095D01*
X121043095Y-112727619D01*
X121164047Y-112606666D01*
X121224523Y-112425238D01*
X121224523Y-112122857D01*
X121164047Y-113332380D02*
X121224523Y-113513809D01*
X121224523Y-113816190D01*
X121164047Y-113937142D01*
X121103571Y-113997619D01*
X120982619Y-114058095D01*
X120861666Y-114058095D01*
X120740714Y-113997619D01*
X120680238Y-113937142D01*
X120619761Y-113816190D01*
X120559285Y-113574285D01*
X120498809Y-113453333D01*
X120438333Y-113392857D01*
X120317380Y-113332380D01*
X120196428Y-113332380D01*
X120075476Y-113392857D01*
X120015000Y-113453333D01*
X119954523Y-113574285D01*
X119954523Y-113876666D01*
X120015000Y-114058095D01*
X120075476Y-114541904D02*
X120015000Y-114602380D01*
X119954523Y-114723333D01*
X119954523Y-115025714D01*
X120015000Y-115146666D01*
X120075476Y-115207142D01*
X120196428Y-115267619D01*
X120317380Y-115267619D01*
X120498809Y-115207142D01*
X121224523Y-114481428D01*
X121224523Y-115267619D01*
X171389523Y-112122857D02*
X170119523Y-112122857D01*
X170119523Y-112425238D01*
X170180000Y-112606666D01*
X170300952Y-112727619D01*
X170421904Y-112788095D01*
X170663809Y-112848571D01*
X170845238Y-112848571D01*
X171087142Y-112788095D01*
X171208095Y-112727619D01*
X171329047Y-112606666D01*
X171389523Y-112425238D01*
X171389523Y-112122857D01*
X171329047Y-113332380D02*
X171389523Y-113513809D01*
X171389523Y-113816190D01*
X171329047Y-113937142D01*
X171268571Y-113997619D01*
X171147619Y-114058095D01*
X171026666Y-114058095D01*
X170905714Y-113997619D01*
X170845238Y-113937142D01*
X170784761Y-113816190D01*
X170724285Y-113574285D01*
X170663809Y-113453333D01*
X170603333Y-113392857D01*
X170482380Y-113332380D01*
X170361428Y-113332380D01*
X170240476Y-113392857D01*
X170180000Y-113453333D01*
X170119523Y-113574285D01*
X170119523Y-113876666D01*
X170180000Y-114058095D01*
X170542857Y-115146666D02*
X171389523Y-115146666D01*
X170059047Y-114844285D02*
X170966190Y-114541904D01*
X170966190Y-115328095D01*
X146624523Y-112122857D02*
X145354523Y-112122857D01*
X145354523Y-112425238D01*
X145415000Y-112606666D01*
X145535952Y-112727619D01*
X145656904Y-112788095D01*
X145898809Y-112848571D01*
X146080238Y-112848571D01*
X146322142Y-112788095D01*
X146443095Y-112727619D01*
X146564047Y-112606666D01*
X146624523Y-112425238D01*
X146624523Y-112122857D01*
X146564047Y-113332380D02*
X146624523Y-113513809D01*
X146624523Y-113816190D01*
X146564047Y-113937142D01*
X146503571Y-113997619D01*
X146382619Y-114058095D01*
X146261666Y-114058095D01*
X146140714Y-113997619D01*
X146080238Y-113937142D01*
X146019761Y-113816190D01*
X145959285Y-113574285D01*
X145898809Y-113453333D01*
X145838333Y-113392857D01*
X145717380Y-113332380D01*
X145596428Y-113332380D01*
X145475476Y-113392857D01*
X145415000Y-113453333D01*
X145354523Y-113574285D01*
X145354523Y-113876666D01*
X145415000Y-114058095D01*
X145354523Y-114481428D02*
X145354523Y-115267619D01*
X145838333Y-114844285D01*
X145838333Y-115025714D01*
X145898809Y-115146666D01*
X145959285Y-115207142D01*
X146080238Y-115267619D01*
X146382619Y-115267619D01*
X146503571Y-115207142D01*
X146564047Y-115146666D01*
X146624523Y-115025714D01*
X146624523Y-114662857D01*
X146564047Y-114541904D01*
X146503571Y-114481428D01*
D12*
X171397142Y-102703333D02*
X171444761Y-102655714D01*
X171492380Y-102512857D01*
X171492380Y-102417619D01*
X171444761Y-102274761D01*
X171349523Y-102179523D01*
X171254285Y-102131904D01*
X171063809Y-102084285D01*
X170920952Y-102084285D01*
X170730476Y-102131904D01*
X170635238Y-102179523D01*
X170540000Y-102274761D01*
X170492380Y-102417619D01*
X170492380Y-102512857D01*
X170540000Y-102655714D01*
X170587619Y-102703333D01*
X171492380Y-103655714D02*
X171492380Y-103084285D01*
X171492380Y-103370000D02*
X170492380Y-103370000D01*
X170635238Y-103274761D01*
X170730476Y-103179523D01*
X170778095Y-103084285D01*
X161237142Y-102703333D02*
X161284761Y-102655714D01*
X161332380Y-102512857D01*
X161332380Y-102417619D01*
X161284761Y-102274761D01*
X161189523Y-102179523D01*
X161094285Y-102131904D01*
X160903809Y-102084285D01*
X160760952Y-102084285D01*
X160570476Y-102131904D01*
X160475238Y-102179523D01*
X160380000Y-102274761D01*
X160332380Y-102417619D01*
X160332380Y-102512857D01*
X160380000Y-102655714D01*
X160427619Y-102703333D01*
X160332380Y-103036666D02*
X160332380Y-103655714D01*
X160713333Y-103322380D01*
X160713333Y-103465238D01*
X160760952Y-103560476D01*
X160808571Y-103608095D01*
X160903809Y-103655714D01*
X161141904Y-103655714D01*
X161237142Y-103608095D01*
X161284761Y-103560476D01*
X161332380Y-103465238D01*
X161332380Y-103179523D01*
X161284761Y-103084285D01*
X161237142Y-103036666D01*
X188293333Y-104862380D02*
X188293333Y-105576666D01*
X188340952Y-105719523D01*
X188436190Y-105814761D01*
X188579047Y-105862380D01*
X188674285Y-105862380D01*
X187293333Y-105862380D02*
X187864761Y-105862380D01*
X187579047Y-105862380D02*
X187579047Y-104862380D01*
X187674285Y-105005238D01*
X187769523Y-105100476D01*
X187864761Y-105148095D01*
X153742380Y-95083333D02*
X153266190Y-94750000D01*
X153742380Y-94511904D02*
X152742380Y-94511904D01*
X152742380Y-94892857D01*
X152790000Y-94988095D01*
X152837619Y-95035714D01*
X152932857Y-95083333D01*
X153075714Y-95083333D01*
X153170952Y-95035714D01*
X153218571Y-94988095D01*
X153266190Y-94892857D01*
X153266190Y-94511904D01*
X153075714Y-95940476D02*
X153742380Y-95940476D01*
X152694761Y-95702380D02*
X153409047Y-95464285D01*
X153409047Y-96083333D01*
X161362380Y-95083333D02*
X160886190Y-94750000D01*
X161362380Y-94511904D02*
X160362380Y-94511904D01*
X160362380Y-94892857D01*
X160410000Y-94988095D01*
X160457619Y-95035714D01*
X160552857Y-95083333D01*
X160695714Y-95083333D01*
X160790952Y-95035714D01*
X160838571Y-94988095D01*
X160886190Y-94892857D01*
X160886190Y-94511904D01*
X160362380Y-95416666D02*
X160362380Y-96035714D01*
X160743333Y-95702380D01*
X160743333Y-95845238D01*
X160790952Y-95940476D01*
X160838571Y-95988095D01*
X160933809Y-96035714D01*
X161171904Y-96035714D01*
X161267142Y-95988095D01*
X161314761Y-95940476D01*
X161362380Y-95845238D01*
X161362380Y-95559523D01*
X161314761Y-95464285D01*
X161267142Y-95416666D01*
X135142380Y-101988095D02*
X135951904Y-101988095D01*
X136047142Y-102035714D01*
X136094761Y-102083333D01*
X136142380Y-102178571D01*
X136142380Y-102369047D01*
X136094761Y-102464285D01*
X136047142Y-102511904D01*
X135951904Y-102559523D01*
X135142380Y-102559523D01*
X136142380Y-103559523D02*
X136142380Y-102988095D01*
X136142380Y-103273809D02*
X135142380Y-103273809D01*
X135285238Y-103178571D01*
X135380476Y-103083333D01*
X135428095Y-102988095D01*
X144727142Y-102703333D02*
X144774761Y-102655714D01*
X144822380Y-102512857D01*
X144822380Y-102417619D01*
X144774761Y-102274761D01*
X144679523Y-102179523D01*
X144584285Y-102131904D01*
X144393809Y-102084285D01*
X144250952Y-102084285D01*
X144060476Y-102131904D01*
X143965238Y-102179523D01*
X143870000Y-102274761D01*
X143822380Y-102417619D01*
X143822380Y-102512857D01*
X143870000Y-102655714D01*
X143917619Y-102703333D01*
X143917619Y-103084285D02*
X143870000Y-103131904D01*
X143822380Y-103227142D01*
X143822380Y-103465238D01*
X143870000Y-103560476D01*
X143917619Y-103608095D01*
X144012857Y-103655714D01*
X144108095Y-103655714D01*
X144250952Y-103608095D01*
X144822380Y-103036666D01*
X144822380Y-103655714D01*
X153617142Y-102703333D02*
X153664761Y-102655714D01*
X153712380Y-102512857D01*
X153712380Y-102417619D01*
X153664761Y-102274761D01*
X153569523Y-102179523D01*
X153474285Y-102131904D01*
X153283809Y-102084285D01*
X153140952Y-102084285D01*
X152950476Y-102131904D01*
X152855238Y-102179523D01*
X152760000Y-102274761D01*
X152712380Y-102417619D01*
X152712380Y-102512857D01*
X152760000Y-102655714D01*
X152807619Y-102703333D01*
X153045714Y-103560476D02*
X153712380Y-103560476D01*
X152664761Y-103322380D02*
X153379047Y-103084285D01*
X153379047Y-103703333D01*
X94313333Y-89622380D02*
X94313333Y-90336666D01*
X94360952Y-90479523D01*
X94456190Y-90574761D01*
X94599047Y-90622380D01*
X94694285Y-90622380D01*
X93884761Y-89717619D02*
X93837142Y-89670000D01*
X93741904Y-89622380D01*
X93503809Y-89622380D01*
X93408571Y-89670000D01*
X93360952Y-89717619D01*
X93313333Y-89812857D01*
X93313333Y-89908095D01*
X93360952Y-90050952D01*
X93932380Y-90622380D01*
X93313333Y-90622380D01*
G36*
X109215268Y-94300158D02*
G01*
X109206689Y-94451594D01*
X109187833Y-94588283D01*
X109157837Y-94714276D01*
X109115836Y-94833625D01*
X109060969Y-94950381D01*
X108994167Y-95061179D01*
X108903363Y-95174739D01*
X108799708Y-95270211D01*
X108683887Y-95347073D01*
X108556586Y-95404797D01*
X108418489Y-95442858D01*
X108380793Y-95448666D01*
X108301752Y-95454396D01*
X108213629Y-95454583D01*
X108124236Y-95449539D01*
X108041384Y-95439578D01*
X107972887Y-95425012D01*
X107942035Y-95415364D01*
X107864730Y-95385123D01*
X107787679Y-95347617D01*
X107718200Y-95306614D01*
X107663615Y-95265879D01*
X107640916Y-95246505D01*
X107618201Y-95228662D01*
X107606779Y-95221778D01*
X107605537Y-95223424D01*
X107602728Y-95241205D01*
X107600776Y-95274370D01*
X107600045Y-95317733D01*
X107600045Y-95413689D01*
X106741896Y-95413689D01*
X106776161Y-95352974D01*
X106781355Y-95343868D01*
X106789715Y-95329249D01*
X106797288Y-95315173D01*
X106804112Y-95300540D01*
X106810227Y-95284249D01*
X106815673Y-95265198D01*
X106820487Y-95242286D01*
X106824708Y-95214413D01*
X106828377Y-95180478D01*
X106831531Y-95139379D01*
X106834211Y-95090015D01*
X106836454Y-95031286D01*
X106838299Y-94962090D01*
X106839787Y-94881326D01*
X106840955Y-94787894D01*
X106841678Y-94700721D01*
X107645200Y-94700721D01*
X107715756Y-94747089D01*
X107756417Y-94770791D01*
X107810546Y-94796639D01*
X107859689Y-94814829D01*
X107923165Y-94830551D01*
X108019331Y-94841541D01*
X108103900Y-94833365D01*
X108177219Y-94805805D01*
X108239637Y-94758642D01*
X108291502Y-94691658D01*
X108333160Y-94604633D01*
X108364962Y-94497350D01*
X108367545Y-94485009D01*
X108376000Y-94423772D01*
X108381663Y-94346692D01*
X108384576Y-94259002D01*
X108384783Y-94165934D01*
X108382330Y-94072720D01*
X108377261Y-93984594D01*
X108369619Y-93906788D01*
X108359448Y-93844533D01*
X108358167Y-93838666D01*
X108329126Y-93728121D01*
X108294610Y-93637575D01*
X108253456Y-93564953D01*
X108204499Y-93508181D01*
X108146574Y-93465184D01*
X108114620Y-93449615D01*
X108041784Y-93430722D01*
X107960443Y-93427465D01*
X107875319Y-93439389D01*
X107791133Y-93466040D01*
X107712608Y-93506962D01*
X107645200Y-93550530D01*
X107645200Y-94700721D01*
X106841678Y-94700721D01*
X106841844Y-94680692D01*
X106842491Y-94558620D01*
X106842936Y-94420576D01*
X106843218Y-94265459D01*
X106843375Y-94092168D01*
X106843448Y-93899603D01*
X106843474Y-93686662D01*
X106843493Y-93452245D01*
X106843689Y-91767378D01*
X107749017Y-91767378D01*
X107724585Y-91804067D01*
X107718318Y-91813647D01*
X107692208Y-91859981D01*
X107674469Y-91907102D01*
X107662908Y-91962251D01*
X107655331Y-92032667D01*
X107654839Y-92039650D01*
X107653062Y-92077641D01*
X107651444Y-92131576D01*
X107649999Y-92198703D01*
X107648740Y-92276271D01*
X107647680Y-92361528D01*
X107646829Y-92451724D01*
X107646203Y-92544107D01*
X107645812Y-92635925D01*
X107645670Y-92724427D01*
X107645790Y-92806862D01*
X107646183Y-92880479D01*
X107646862Y-92942526D01*
X107647841Y-92990251D01*
X107649132Y-93020904D01*
X107650747Y-93031733D01*
X107658957Y-93027333D01*
X107680647Y-93012362D01*
X107710014Y-92990448D01*
X107758879Y-92956236D01*
X107847125Y-92909714D01*
X107945916Y-92876046D01*
X108058510Y-92854231D01*
X108188164Y-92843265D01*
X108280670Y-92842219D01*
X108402011Y-92852014D01*
X108512099Y-92876174D01*
X108615389Y-92915785D01*
X108716338Y-92971932D01*
X108761503Y-93002883D01*
X108866911Y-93094115D01*
X108958538Y-93203106D01*
X109036332Y-93329726D01*
X109100241Y-93473845D01*
X109150214Y-93635332D01*
X109186198Y-93814059D01*
X109208143Y-94009895D01*
X109213900Y-94165934D01*
X109215994Y-94222711D01*
X109215268Y-94300158D01*
G37*
D13*
X109215268Y-94300158D02*
X109206689Y-94451594D01*
X109187833Y-94588283D01*
X109157837Y-94714276D01*
X109115836Y-94833625D01*
X109060969Y-94950381D01*
X108994167Y-95061179D01*
X108903363Y-95174739D01*
X108799708Y-95270211D01*
X108683887Y-95347073D01*
X108556586Y-95404797D01*
X108418489Y-95442858D01*
X108380793Y-95448666D01*
X108301752Y-95454396D01*
X108213629Y-95454583D01*
X108124236Y-95449539D01*
X108041384Y-95439578D01*
X107972887Y-95425012D01*
X107942035Y-95415364D01*
X107864730Y-95385123D01*
X107787679Y-95347617D01*
X107718200Y-95306614D01*
X107663615Y-95265879D01*
X107640916Y-95246505D01*
X107618201Y-95228662D01*
X107606779Y-95221778D01*
X107605537Y-95223424D01*
X107602728Y-95241205D01*
X107600776Y-95274370D01*
X107600045Y-95317733D01*
X107600045Y-95413689D01*
X106741896Y-95413689D01*
X106776161Y-95352974D01*
X106781355Y-95343868D01*
X106789715Y-95329249D01*
X106797288Y-95315173D01*
X106804112Y-95300540D01*
X106810227Y-95284249D01*
X106815673Y-95265198D01*
X106820487Y-95242286D01*
X106824708Y-95214413D01*
X106828377Y-95180478D01*
X106831531Y-95139379D01*
X106834211Y-95090015D01*
X106836454Y-95031286D01*
X106838299Y-94962090D01*
X106839787Y-94881326D01*
X106840955Y-94787894D01*
X106841678Y-94700721D01*
X107645200Y-94700721D01*
X107715756Y-94747089D01*
X107756417Y-94770791D01*
X107810546Y-94796639D01*
X107859689Y-94814829D01*
X107923165Y-94830551D01*
X108019331Y-94841541D01*
X108103900Y-94833365D01*
X108177219Y-94805805D01*
X108239637Y-94758642D01*
X108291502Y-94691658D01*
X108333160Y-94604633D01*
X108364962Y-94497350D01*
X108367545Y-94485009D01*
X108376000Y-94423772D01*
X108381663Y-94346692D01*
X108384576Y-94259002D01*
X108384783Y-94165934D01*
X108382330Y-94072720D01*
X108377261Y-93984594D01*
X108369619Y-93906788D01*
X108359448Y-93844533D01*
X108358167Y-93838666D01*
X108329126Y-93728121D01*
X108294610Y-93637575D01*
X108253456Y-93564953D01*
X108204499Y-93508181D01*
X108146574Y-93465184D01*
X108114620Y-93449615D01*
X108041784Y-93430722D01*
X107960443Y-93427465D01*
X107875319Y-93439389D01*
X107791133Y-93466040D01*
X107712608Y-93506962D01*
X107645200Y-93550530D01*
X107645200Y-94700721D01*
X106841678Y-94700721D01*
X106841844Y-94680692D01*
X106842491Y-94558620D01*
X106842936Y-94420576D01*
X106843218Y-94265459D01*
X106843375Y-94092168D01*
X106843448Y-93899603D01*
X106843474Y-93686662D01*
X106843493Y-93452245D01*
X106843689Y-91767378D01*
X107749017Y-91767378D01*
X107724585Y-91804067D01*
X107718318Y-91813647D01*
X107692208Y-91859981D01*
X107674469Y-91907102D01*
X107662908Y-91962251D01*
X107655331Y-92032667D01*
X107654839Y-92039650D01*
X107653062Y-92077641D01*
X107651444Y-92131576D01*
X107649999Y-92198703D01*
X107648740Y-92276271D01*
X107647680Y-92361528D01*
X107646829Y-92451724D01*
X107646203Y-92544107D01*
X107645812Y-92635925D01*
X107645670Y-92724427D01*
X107645790Y-92806862D01*
X107646183Y-92880479D01*
X107646862Y-92942526D01*
X107647841Y-92990251D01*
X107649132Y-93020904D01*
X107650747Y-93031733D01*
X107658957Y-93027333D01*
X107680647Y-93012362D01*
X107710014Y-92990448D01*
X107758879Y-92956236D01*
X107847125Y-92909714D01*
X107945916Y-92876046D01*
X108058510Y-92854231D01*
X108188164Y-92843265D01*
X108280670Y-92842219D01*
X108402011Y-92852014D01*
X108512099Y-92876174D01*
X108615389Y-92915785D01*
X108716338Y-92971932D01*
X108761503Y-93002883D01*
X108866911Y-93094115D01*
X108958538Y-93203106D01*
X109036332Y-93329726D01*
X109100241Y-93473845D01*
X109150214Y-93635332D01*
X109186198Y-93814059D01*
X109208143Y-94009895D01*
X109213900Y-94165934D01*
X109215994Y-94222711D01*
X109215268Y-94300158D01*
G36*
X108185767Y-96249068D02*
G01*
X108279890Y-96249158D01*
X108354405Y-96249498D01*
X108411811Y-96250239D01*
X108454611Y-96251535D01*
X108485304Y-96253537D01*
X108506391Y-96256396D01*
X108520373Y-96260266D01*
X108529750Y-96265298D01*
X108537022Y-96271645D01*
X108555828Y-96304362D01*
X108557275Y-96341939D01*
X108540917Y-96375178D01*
X108539557Y-96376631D01*
X108528354Y-96384992D01*
X108511252Y-96390547D01*
X108484082Y-96393840D01*
X108442678Y-96395418D01*
X108382873Y-96395822D01*
X108243511Y-96395822D01*
X108243511Y-96659589D01*
X108243436Y-96735417D01*
X108243028Y-96802083D01*
X108242046Y-96851867D01*
X108240250Y-96887784D01*
X108237399Y-96912850D01*
X108233253Y-96930081D01*
X108227571Y-96942492D01*
X108220114Y-96953100D01*
X108217824Y-96955906D01*
X108186646Y-96978548D01*
X108152266Y-96980112D01*
X108119334Y-96960267D01*
X108112355Y-96952191D01*
X108106883Y-96941593D01*
X108102863Y-96925749D01*
X108100072Y-96901773D01*
X108098288Y-96866774D01*
X108097289Y-96817864D01*
X108096852Y-96752154D01*
X108096756Y-96666756D01*
X108096756Y-96395822D01*
X107950820Y-96395822D01*
X107939720Y-96395821D01*
X107883202Y-96395596D01*
X107844358Y-96394457D01*
X107818965Y-96391657D01*
X107802804Y-96386450D01*
X107791652Y-96378089D01*
X107781289Y-96365826D01*
X107765441Y-96335138D01*
X107768543Y-96301358D01*
X107794187Y-96268822D01*
X107799129Y-96265105D01*
X107809338Y-96260269D01*
X107824764Y-96256506D01*
X107847886Y-96253683D01*
X107881183Y-96251670D01*
X107927137Y-96250333D01*
X107988228Y-96249542D01*
X108066935Y-96249163D01*
X108165740Y-96249067D01*
X108185767Y-96249068D01*
G37*
X108185767Y-96249068D02*
X108279890Y-96249158D01*
X108354405Y-96249498D01*
X108411811Y-96250239D01*
X108454611Y-96251535D01*
X108485304Y-96253537D01*
X108506391Y-96256396D01*
X108520373Y-96260266D01*
X108529750Y-96265298D01*
X108537022Y-96271645D01*
X108555828Y-96304362D01*
X108557275Y-96341939D01*
X108540917Y-96375178D01*
X108539557Y-96376631D01*
X108528354Y-96384992D01*
X108511252Y-96390547D01*
X108484082Y-96393840D01*
X108442678Y-96395418D01*
X108382873Y-96395822D01*
X108243511Y-96395822D01*
X108243511Y-96659589D01*
X108243436Y-96735417D01*
X108243028Y-96802083D01*
X108242046Y-96851867D01*
X108240250Y-96887784D01*
X108237399Y-96912850D01*
X108233253Y-96930081D01*
X108227571Y-96942492D01*
X108220114Y-96953100D01*
X108217824Y-96955906D01*
X108186646Y-96978548D01*
X108152266Y-96980112D01*
X108119334Y-96960267D01*
X108112355Y-96952191D01*
X108106883Y-96941593D01*
X108102863Y-96925749D01*
X108100072Y-96901773D01*
X108098288Y-96866774D01*
X108097289Y-96817864D01*
X108096852Y-96752154D01*
X108096756Y-96666756D01*
X108096756Y-96395822D01*
X107950820Y-96395822D01*
X107939720Y-96395821D01*
X107883202Y-96395596D01*
X107844358Y-96394457D01*
X107818965Y-96391657D01*
X107802804Y-96386450D01*
X107791652Y-96378089D01*
X107781289Y-96365826D01*
X107765441Y-96335138D01*
X107768543Y-96301358D01*
X107794187Y-96268822D01*
X107799129Y-96265105D01*
X107809338Y-96260269D01*
X107824764Y-96256506D01*
X107847886Y-96253683D01*
X107881183Y-96251670D01*
X107927137Y-96250333D01*
X107988228Y-96249542D01*
X108066935Y-96249163D01*
X108165740Y-96249067D01*
X108185767Y-96249068D01*
G36*
X119306870Y-96515041D02*
G01*
X119306622Y-96615956D01*
X119306583Y-96691617D01*
X119306328Y-96769526D01*
X119305684Y-96829536D01*
X119304480Y-96874264D01*
X119302543Y-96906326D01*
X119299703Y-96928340D01*
X119295788Y-96942924D01*
X119290626Y-96952694D01*
X119284045Y-96960267D01*
X119277077Y-96966501D01*
X119264079Y-96973801D01*
X119244931Y-96978554D01*
X119215528Y-96981292D01*
X119171762Y-96982545D01*
X119109528Y-96982845D01*
X119060582Y-96982469D01*
X118953722Y-96978041D01*
X118864494Y-96967953D01*
X118789696Y-96951365D01*
X118726125Y-96927435D01*
X118670579Y-96895321D01*
X118619854Y-96854182D01*
X118613866Y-96848330D01*
X118576999Y-96799821D01*
X118545899Y-96739013D01*
X118524417Y-96674769D01*
X118519136Y-96636026D01*
X118666353Y-96636026D01*
X118684635Y-96686961D01*
X118714305Y-96732878D01*
X118761002Y-96775287D01*
X118822392Y-96805090D01*
X118901538Y-96824226D01*
X118903028Y-96824464D01*
X118951999Y-96830256D01*
X119010693Y-96834396D01*
X119066734Y-96836004D01*
X119159867Y-96836089D01*
X119159867Y-96395822D01*
X119083667Y-96395808D01*
X119080639Y-96395817D01*
X119029519Y-96397782D01*
X118969416Y-96402507D01*
X118912708Y-96409035D01*
X118862750Y-96418331D01*
X118787998Y-96444600D01*
X118730489Y-96483899D01*
X118688988Y-96536933D01*
X118667771Y-96588200D01*
X118666353Y-96636026D01*
X118519136Y-96636026D01*
X118516400Y-96615956D01*
X118517679Y-96594739D01*
X118529991Y-96537323D01*
X118552520Y-96477413D01*
X118581750Y-96423363D01*
X118614167Y-96383532D01*
X118633708Y-96366510D01*
X118688420Y-96327322D01*
X118748723Y-96297193D01*
X118817919Y-96275232D01*
X118899311Y-96260550D01*
X118996200Y-96252259D01*
X119111889Y-96249467D01*
X119151371Y-96249066D01*
X119197082Y-96248653D01*
X119232883Y-96250457D01*
X119259974Y-96256739D01*
X119279556Y-96269759D01*
X119292830Y-96291778D01*
X119300998Y-96325055D01*
X119305260Y-96371851D01*
X119305857Y-96395822D01*
X119306817Y-96434427D01*
X119306870Y-96515041D01*
G37*
X119306870Y-96515041D02*
X119306622Y-96615956D01*
X119306583Y-96691617D01*
X119306328Y-96769526D01*
X119305684Y-96829536D01*
X119304480Y-96874264D01*
X119302543Y-96906326D01*
X119299703Y-96928340D01*
X119295788Y-96942924D01*
X119290626Y-96952694D01*
X119284045Y-96960267D01*
X119277077Y-96966501D01*
X119264079Y-96973801D01*
X119244931Y-96978554D01*
X119215528Y-96981292D01*
X119171762Y-96982545D01*
X119109528Y-96982845D01*
X119060582Y-96982469D01*
X118953722Y-96978041D01*
X118864494Y-96967953D01*
X118789696Y-96951365D01*
X118726125Y-96927435D01*
X118670579Y-96895321D01*
X118619854Y-96854182D01*
X118613866Y-96848330D01*
X118576999Y-96799821D01*
X118545899Y-96739013D01*
X118524417Y-96674769D01*
X118519136Y-96636026D01*
X118666353Y-96636026D01*
X118684635Y-96686961D01*
X118714305Y-96732878D01*
X118761002Y-96775287D01*
X118822392Y-96805090D01*
X118901538Y-96824226D01*
X118903028Y-96824464D01*
X118951999Y-96830256D01*
X119010693Y-96834396D01*
X119066734Y-96836004D01*
X119159867Y-96836089D01*
X119159867Y-96395822D01*
X119083667Y-96395808D01*
X119080639Y-96395817D01*
X119029519Y-96397782D01*
X118969416Y-96402507D01*
X118912708Y-96409035D01*
X118862750Y-96418331D01*
X118787998Y-96444600D01*
X118730489Y-96483899D01*
X118688988Y-96536933D01*
X118667771Y-96588200D01*
X118666353Y-96636026D01*
X118519136Y-96636026D01*
X118516400Y-96615956D01*
X118517679Y-96594739D01*
X118529991Y-96537323D01*
X118552520Y-96477413D01*
X118581750Y-96423363D01*
X118614167Y-96383532D01*
X118633708Y-96366510D01*
X118688420Y-96327322D01*
X118748723Y-96297193D01*
X118817919Y-96275232D01*
X118899311Y-96260550D01*
X118996200Y-96252259D01*
X119111889Y-96249467D01*
X119151371Y-96249066D01*
X119197082Y-96248653D01*
X119232883Y-96250457D01*
X119259974Y-96256739D01*
X119279556Y-96269759D01*
X119292830Y-96291778D01*
X119300998Y-96325055D01*
X119305260Y-96371851D01*
X119305857Y-96395822D01*
X119306817Y-96434427D01*
X119306870Y-96515041D01*
G36*
X109319702Y-96258478D02*
G01*
X109337663Y-96276989D01*
X109358263Y-96308071D01*
X109383095Y-96353756D01*
X109413750Y-96416078D01*
X109451820Y-96497071D01*
X109466454Y-96528454D01*
X109496203Y-96591638D01*
X109522297Y-96646244D01*
X109543292Y-96689290D01*
X109557739Y-96717793D01*
X109564191Y-96728770D01*
X109565550Y-96728189D01*
X109575542Y-96714242D01*
X109592833Y-96684704D01*
X109615430Y-96643087D01*
X109641338Y-96592903D01*
X109657311Y-96561414D01*
X109686261Y-96506061D01*
X109708749Y-96467044D01*
X109726965Y-96441566D01*
X109743096Y-96426831D01*
X109759330Y-96420042D01*
X109777857Y-96418400D01*
X109788360Y-96418875D01*
X109804476Y-96423082D01*
X109819790Y-96433946D01*
X109836388Y-96454219D01*
X109856357Y-96486654D01*
X109881783Y-96534004D01*
X109914752Y-96599022D01*
X109924485Y-96618277D01*
X109948943Y-96664946D01*
X109969178Y-96701109D01*
X109983311Y-96723497D01*
X109989460Y-96728845D01*
X109990827Y-96725573D01*
X110000202Y-96704664D01*
X110017062Y-96667725D01*
X110039979Y-96617874D01*
X110067520Y-96558226D01*
X110098255Y-96491898D01*
X110124970Y-96434677D01*
X110154593Y-96372688D01*
X110177664Y-96326949D01*
X110195643Y-96294908D01*
X110209990Y-96274014D01*
X110222166Y-96261718D01*
X110233632Y-96255466D01*
X110243042Y-96252574D01*
X110268147Y-96252425D01*
X110295290Y-96267768D01*
X110296590Y-96268753D01*
X110318674Y-96291388D01*
X110329723Y-96313613D01*
X110329769Y-96314253D01*
X110325228Y-96331915D01*
X110312364Y-96366481D01*
X110292605Y-96414826D01*
X110267381Y-96473825D01*
X110238119Y-96540355D01*
X110206250Y-96611291D01*
X110173201Y-96683507D01*
X110140401Y-96753880D01*
X110109280Y-96819285D01*
X110081265Y-96876597D01*
X110057786Y-96922692D01*
X110040272Y-96954446D01*
X110030151Y-96968733D01*
X109995743Y-96982102D01*
X109954046Y-96975741D01*
X109948681Y-96971044D01*
X109932852Y-96948893D01*
X109910650Y-96912132D01*
X109884233Y-96864415D01*
X109855760Y-96809393D01*
X109775986Y-96650150D01*
X109702799Y-96796742D01*
X109693103Y-96816032D01*
X109666125Y-96868380D01*
X109642096Y-96913170D01*
X109623332Y-96946154D01*
X109612146Y-96963089D01*
X109611000Y-96964332D01*
X109582879Y-96979619D01*
X109547817Y-96981302D01*
X109516776Y-96968733D01*
X109514350Y-96965884D01*
X109502090Y-96945259D01*
X109482352Y-96907708D01*
X109456448Y-96855880D01*
X109425685Y-96792423D01*
X109391375Y-96719985D01*
X109354825Y-96641216D01*
X109334585Y-96597093D01*
X109297812Y-96516365D01*
X109269355Y-96452687D01*
X109248331Y-96403752D01*
X109233854Y-96367257D01*
X109225039Y-96340895D01*
X109221004Y-96322361D01*
X109220862Y-96309352D01*
X109223730Y-96299561D01*
X109238387Y-96278678D01*
X109264990Y-96258377D01*
X109265745Y-96258035D01*
X109285335Y-96251034D01*
X109302790Y-96250504D01*
X109319702Y-96258478D01*
G37*
X109319702Y-96258478D02*
X109337663Y-96276989D01*
X109358263Y-96308071D01*
X109383095Y-96353756D01*
X109413750Y-96416078D01*
X109451820Y-96497071D01*
X109466454Y-96528454D01*
X109496203Y-96591638D01*
X109522297Y-96646244D01*
X109543292Y-96689290D01*
X109557739Y-96717793D01*
X109564191Y-96728770D01*
X109565550Y-96728189D01*
X109575542Y-96714242D01*
X109592833Y-96684704D01*
X109615430Y-96643087D01*
X109641338Y-96592903D01*
X109657311Y-96561414D01*
X109686261Y-96506061D01*
X109708749Y-96467044D01*
X109726965Y-96441566D01*
X109743096Y-96426831D01*
X109759330Y-96420042D01*
X109777857Y-96418400D01*
X109788360Y-96418875D01*
X109804476Y-96423082D01*
X109819790Y-96433946D01*
X109836388Y-96454219D01*
X109856357Y-96486654D01*
X109881783Y-96534004D01*
X109914752Y-96599022D01*
X109924485Y-96618277D01*
X109948943Y-96664946D01*
X109969178Y-96701109D01*
X109983311Y-96723497D01*
X109989460Y-96728845D01*
X109990827Y-96725573D01*
X110000202Y-96704664D01*
X110017062Y-96667725D01*
X110039979Y-96617874D01*
X110067520Y-96558226D01*
X110098255Y-96491898D01*
X110124970Y-96434677D01*
X110154593Y-96372688D01*
X110177664Y-96326949D01*
X110195643Y-96294908D01*
X110209990Y-96274014D01*
X110222166Y-96261718D01*
X110233632Y-96255466D01*
X110243042Y-96252574D01*
X110268147Y-96252425D01*
X110295290Y-96267768D01*
X110296590Y-96268753D01*
X110318674Y-96291388D01*
X110329723Y-96313613D01*
X110329769Y-96314253D01*
X110325228Y-96331915D01*
X110312364Y-96366481D01*
X110292605Y-96414826D01*
X110267381Y-96473825D01*
X110238119Y-96540355D01*
X110206250Y-96611291D01*
X110173201Y-96683507D01*
X110140401Y-96753880D01*
X110109280Y-96819285D01*
X110081265Y-96876597D01*
X110057786Y-96922692D01*
X110040272Y-96954446D01*
X110030151Y-96968733D01*
X109995743Y-96982102D01*
X109954046Y-96975741D01*
X109948681Y-96971044D01*
X109932852Y-96948893D01*
X109910650Y-96912132D01*
X109884233Y-96864415D01*
X109855760Y-96809393D01*
X109775986Y-96650150D01*
X109702799Y-96796742D01*
X109693103Y-96816032D01*
X109666125Y-96868380D01*
X109642096Y-96913170D01*
X109623332Y-96946154D01*
X109612146Y-96963089D01*
X109611000Y-96964332D01*
X109582879Y-96979619D01*
X109547817Y-96981302D01*
X109516776Y-96968733D01*
X109514350Y-96965884D01*
X109502090Y-96945259D01*
X109482352Y-96907708D01*
X109456448Y-96855880D01*
X109425685Y-96792423D01*
X109391375Y-96719985D01*
X109354825Y-96641216D01*
X109334585Y-96597093D01*
X109297812Y-96516365D01*
X109269355Y-96452687D01*
X109248331Y-96403752D01*
X109233854Y-96367257D01*
X109225039Y-96340895D01*
X109221004Y-96322361D01*
X109220862Y-96309352D01*
X109223730Y-96299561D01*
X109238387Y-96278678D01*
X109264990Y-96258377D01*
X109265745Y-96258035D01*
X109285335Y-96251034D01*
X109302790Y-96250504D01*
X109319702Y-96258478D01*
G36*
X119306059Y-92223011D02*
G01*
X119306362Y-92370216D01*
X119306548Y-92534349D01*
X119306642Y-92716352D01*
X119306671Y-92917165D01*
X119306661Y-93137732D01*
X119306636Y-93378992D01*
X119306622Y-93641889D01*
X119306622Y-93684040D01*
X119306646Y-93944668D01*
X119306685Y-94183796D01*
X119306708Y-94402360D01*
X119306687Y-94601295D01*
X119306593Y-94781535D01*
X119306395Y-94944015D01*
X119306063Y-95089670D01*
X119305569Y-95219434D01*
X119304883Y-95334243D01*
X119303976Y-95435030D01*
X119302817Y-95522730D01*
X119301378Y-95598279D01*
X119299629Y-95662611D01*
X119297540Y-95716661D01*
X119295083Y-95761363D01*
X119292227Y-95797652D01*
X119288943Y-95826463D01*
X119285202Y-95848731D01*
X119280974Y-95865390D01*
X119276229Y-95877375D01*
X119270939Y-95885621D01*
X119265073Y-95891062D01*
X119258602Y-95894634D01*
X119251497Y-95897270D01*
X119243728Y-95899906D01*
X119235266Y-95903477D01*
X119230908Y-95905145D01*
X119222395Y-95907111D01*
X119209694Y-95908911D01*
X119191885Y-95910555D01*
X119168049Y-95912047D01*
X119137266Y-95913397D01*
X119098617Y-95914611D01*
X119051182Y-95915697D01*
X118994043Y-95916661D01*
X118926279Y-95917511D01*
X118846971Y-95918253D01*
X118755199Y-95918897D01*
X118650044Y-95919447D01*
X118530587Y-95919913D01*
X118395908Y-95920300D01*
X118245088Y-95920616D01*
X118077206Y-95920869D01*
X117891345Y-95921066D01*
X117686583Y-95921213D01*
X117462002Y-95921318D01*
X117216682Y-95921389D01*
X116949704Y-95921432D01*
X116911321Y-95921437D01*
X116645922Y-95921480D01*
X116402050Y-95921525D01*
X116178783Y-95921548D01*
X115975196Y-95921524D01*
X115790367Y-95921430D01*
X115623373Y-95921243D01*
X115473290Y-95920939D01*
X115339196Y-95920494D01*
X115220166Y-95919885D01*
X115115279Y-95919089D01*
X115023610Y-95918080D01*
X114944237Y-95916837D01*
X114876237Y-95915335D01*
X114818686Y-95913551D01*
X114770662Y-95911461D01*
X114731240Y-95909042D01*
X114699499Y-95906270D01*
X114674514Y-95903121D01*
X114655364Y-95899572D01*
X114641123Y-95895598D01*
X114630871Y-95891178D01*
X114623682Y-95886286D01*
X114618635Y-95880900D01*
X114614805Y-95874996D01*
X114611271Y-95868549D01*
X114607108Y-95861537D01*
X114606025Y-95859687D01*
X114603813Y-95854180D01*
X114601786Y-95845868D01*
X114599938Y-95833809D01*
X114598261Y-95817063D01*
X114596745Y-95794687D01*
X114595383Y-95765740D01*
X114594167Y-95729280D01*
X114593089Y-95684367D01*
X114592140Y-95630057D01*
X114591312Y-95565410D01*
X114590597Y-95489484D01*
X114589987Y-95401338D01*
X114589942Y-95392493D01*
X114881378Y-95392493D01*
X114885260Y-95393765D01*
X114908520Y-95395791D01*
X114950874Y-95397626D01*
X115010132Y-95399227D01*
X115084107Y-95400549D01*
X115170610Y-95401548D01*
X115267452Y-95402180D01*
X115372445Y-95402400D01*
X116070651Y-95402400D01*
X117225090Y-95402400D01*
X117224456Y-95326200D01*
X117225574Y-95284160D01*
X117231304Y-95248334D01*
X117243890Y-95210772D01*
X117265568Y-95162577D01*
X117268789Y-95155897D01*
X117294188Y-95106359D01*
X117320996Y-95058369D01*
X117343917Y-95021466D01*
X117348485Y-95014834D01*
X117370516Y-94983593D01*
X117402693Y-94938654D01*
X117443457Y-94882147D01*
X117491245Y-94816204D01*
X117544498Y-94742957D01*
X117601655Y-94664536D01*
X117661155Y-94583072D01*
X117721437Y-94500698D01*
X117780940Y-94419544D01*
X117838105Y-94341742D01*
X117891370Y-94269423D01*
X117939174Y-94204718D01*
X117979957Y-94149759D01*
X118012158Y-94106676D01*
X118034216Y-94077602D01*
X118044571Y-94064667D01*
X118049044Y-94060351D01*
X118053236Y-94058312D01*
X118056643Y-94060926D01*
X118059325Y-94069986D01*
X118061341Y-94087285D01*
X118062748Y-94114614D01*
X118063605Y-94153765D01*
X118063970Y-94206533D01*
X118063903Y-94274707D01*
X118063460Y-94360082D01*
X118062702Y-94464449D01*
X118061685Y-94589600D01*
X118061308Y-94634300D01*
X118060169Y-94755395D01*
X118058972Y-94856688D01*
X118057636Y-94940262D01*
X118056077Y-95008204D01*
X118054215Y-95062599D01*
X118051966Y-95105532D01*
X118049248Y-95139089D01*
X118045979Y-95165355D01*
X118042078Y-95186416D01*
X118037461Y-95204357D01*
X118029192Y-95230770D01*
X118005583Y-95292772D01*
X117979685Y-95345573D01*
X117954535Y-95382645D01*
X117953339Y-95384075D01*
X117951168Y-95388424D01*
X117953328Y-95392026D01*
X117961644Y-95394951D01*
X117977940Y-95397269D01*
X118004041Y-95399051D01*
X118041771Y-95400367D01*
X118092956Y-95401286D01*
X118159420Y-95401878D01*
X118242987Y-95402215D01*
X118345483Y-95402365D01*
X118468732Y-95402400D01*
X119000296Y-95402400D01*
X118961523Y-95344783D01*
X118955432Y-95335893D01*
X118944976Y-95321069D01*
X118935579Y-95307422D01*
X118927183Y-95293765D01*
X118919733Y-95278911D01*
X118913173Y-95261670D01*
X118907446Y-95240855D01*
X118902495Y-95215280D01*
X118898266Y-95183755D01*
X118894701Y-95145093D01*
X118891744Y-95098107D01*
X118889340Y-95041608D01*
X118887431Y-94974409D01*
X118885962Y-94895322D01*
X118884876Y-94803160D01*
X118884118Y-94696734D01*
X118883630Y-94574857D01*
X118883358Y-94436341D01*
X118883243Y-94279999D01*
X118883231Y-94104642D01*
X118883265Y-93909082D01*
X118883289Y-93692133D01*
X118883280Y-93569513D01*
X118883243Y-93364447D01*
X118883227Y-93180116D01*
X118883288Y-93015334D01*
X118883484Y-92868916D01*
X118883870Y-92739674D01*
X118884505Y-92626422D01*
X118885444Y-92527975D01*
X118886745Y-92443144D01*
X118888464Y-92370744D01*
X118890659Y-92309589D01*
X118893385Y-92258492D01*
X118896701Y-92216267D01*
X118900662Y-92181727D01*
X118905325Y-92153686D01*
X118910747Y-92130958D01*
X118916986Y-92112356D01*
X118924097Y-92096693D01*
X118932138Y-92082784D01*
X118941166Y-92069441D01*
X118951236Y-92055479D01*
X118962407Y-92039711D01*
X119002197Y-91981867D01*
X117942314Y-91981867D01*
X117980311Y-92044966D01*
X117994993Y-92070005D01*
X118009531Y-92097586D01*
X118021627Y-92125700D01*
X118031532Y-92156551D01*
X118039494Y-92192344D01*
X118045761Y-92235283D01*
X118050582Y-92287574D01*
X118054206Y-92351419D01*
X118056881Y-92429025D01*
X118058857Y-92522594D01*
X118060382Y-92634333D01*
X118061704Y-92766445D01*
X118062613Y-92886434D01*
X118063020Y-93003063D01*
X118062767Y-93098531D01*
X118061857Y-93172556D01*
X118060293Y-93224855D01*
X118058079Y-93255149D01*
X118055220Y-93263156D01*
X118052161Y-93259858D01*
X118034006Y-93238408D01*
X118004275Y-93201889D01*
X117964639Y-93152442D01*
X117916771Y-93092207D01*
X117862343Y-93023327D01*
X117803027Y-92947943D01*
X117740495Y-92868196D01*
X117676421Y-92786228D01*
X117612475Y-92704180D01*
X117550331Y-92624194D01*
X117491661Y-92548411D01*
X117438137Y-92478973D01*
X117391430Y-92418021D01*
X117353214Y-92367696D01*
X117325161Y-92330140D01*
X117308943Y-92307495D01*
X117263635Y-92235212D01*
X117223661Y-92155463D01*
X117202130Y-92087188D01*
X117198827Y-92029844D01*
X117204116Y-91981867D01*
X116072356Y-91982117D01*
X116111867Y-92012722D01*
X116121248Y-92020089D01*
X116184183Y-92074438D01*
X116252997Y-92142259D01*
X116329596Y-92225516D01*
X116415888Y-92326178D01*
X116433052Y-92346847D01*
X116473833Y-92396409D01*
X116523588Y-92457326D01*
X116580955Y-92527898D01*
X116644569Y-92606424D01*
X116713069Y-92691204D01*
X116785090Y-92780537D01*
X116859270Y-92872722D01*
X116874517Y-92891702D01*
X116934246Y-92966060D01*
X117008653Y-93058848D01*
X117081131Y-93149388D01*
X117150314Y-93235978D01*
X117214841Y-93316918D01*
X117273347Y-93390506D01*
X117324470Y-93455044D01*
X117366847Y-93508829D01*
X117399115Y-93550162D01*
X117419910Y-93577342D01*
X117427869Y-93588668D01*
X117426111Y-93592771D01*
X117413230Y-93613334D01*
X117388885Y-93649561D01*
X117354247Y-93699824D01*
X117310486Y-93762492D01*
X117258775Y-93835936D01*
X117200284Y-93918527D01*
X117136184Y-94008636D01*
X117067646Y-94104631D01*
X116995843Y-94204885D01*
X116921944Y-94307768D01*
X116847121Y-94411650D01*
X116772545Y-94514901D01*
X116699387Y-94615892D01*
X116628819Y-94712994D01*
X116562011Y-94804577D01*
X116500135Y-94889011D01*
X116444361Y-94964667D01*
X116395862Y-95029916D01*
X116355807Y-95083128D01*
X116325369Y-95122673D01*
X116304944Y-95148026D01*
X116258899Y-95202295D01*
X116208612Y-95258775D01*
X116161815Y-95308669D01*
X116070651Y-95402400D01*
X115372445Y-95402400D01*
X115441356Y-95402349D01*
X115539607Y-95402091D01*
X115629030Y-95401637D01*
X115707333Y-95401010D01*
X115772223Y-95400235D01*
X115821411Y-95399335D01*
X115852604Y-95398334D01*
X115863511Y-95397257D01*
X115862322Y-95394037D01*
X115852176Y-95376452D01*
X115835040Y-95350158D01*
X115826540Y-95337691D01*
X115817329Y-95323622D01*
X115809233Y-95309351D01*
X115802185Y-95293479D01*
X115796117Y-95274609D01*
X115790961Y-95251341D01*
X115786651Y-95222278D01*
X115783119Y-95186021D01*
X115780297Y-95141170D01*
X115778118Y-95086328D01*
X115776514Y-95020097D01*
X115775419Y-94941077D01*
X115774765Y-94847871D01*
X115774484Y-94739079D01*
X115774509Y-94613303D01*
X115774772Y-94469145D01*
X115775206Y-94305207D01*
X115775745Y-94120089D01*
X115776279Y-93941232D01*
X115776805Y-93782374D01*
X115777350Y-93643316D01*
X115777945Y-93522665D01*
X115778619Y-93419028D01*
X115779403Y-93331011D01*
X115780326Y-93257223D01*
X115781419Y-93196269D01*
X115782712Y-93146757D01*
X115784235Y-93107293D01*
X115786019Y-93076484D01*
X115788092Y-93052938D01*
X115790486Y-93035260D01*
X115793230Y-93022059D01*
X115796356Y-93011940D01*
X115799892Y-93003511D01*
X115803791Y-92995375D01*
X115823438Y-92958544D01*
X115842225Y-92928391D01*
X115843272Y-92926908D01*
X115857602Y-92904659D01*
X115863511Y-92891702D01*
X115862504Y-92891249D01*
X115845305Y-92889803D01*
X115808656Y-92888480D01*
X115754962Y-92887316D01*
X115686630Y-92886347D01*
X115606064Y-92885611D01*
X115515670Y-92885142D01*
X115417853Y-92884978D01*
X114972195Y-92884978D01*
X114969120Y-94061845D01*
X114966045Y-95238711D01*
X114939407Y-95297622D01*
X114927485Y-95322183D01*
X114910246Y-95352434D01*
X114897074Y-95369560D01*
X114889076Y-95377591D01*
X114881378Y-95392493D01*
X114589942Y-95392493D01*
X114589474Y-95300029D01*
X114589050Y-95184617D01*
X114588706Y-95054160D01*
X114588434Y-94907716D01*
X114588227Y-94744344D01*
X114588076Y-94563101D01*
X114587972Y-94363048D01*
X114587908Y-94143241D01*
X114587876Y-93902739D01*
X114587867Y-93640602D01*
X114587867Y-91449031D01*
X114626249Y-91410649D01*
X114653355Y-91386911D01*
X114680253Y-91375111D01*
X114716560Y-91372267D01*
X114768489Y-91372267D01*
X114768489Y-91460206D01*
X114770427Y-91510102D01*
X114789199Y-91620523D01*
X114826217Y-91721987D01*
X114879369Y-91813152D01*
X114946546Y-91892673D01*
X115025638Y-91959205D01*
X115114534Y-92011406D01*
X115211125Y-92047930D01*
X115313300Y-92067434D01*
X115418950Y-92068573D01*
X115525964Y-92050005D01*
X115632232Y-92010384D01*
X115729219Y-91952516D01*
X115814293Y-91877684D01*
X115883015Y-91789615D01*
X115933918Y-91690616D01*
X115965535Y-91582993D01*
X115976400Y-91469054D01*
X115976400Y-91372267D01*
X117596753Y-91372267D01*
X117807897Y-91372280D01*
X118012020Y-91372330D01*
X118195686Y-91372430D01*
X118359991Y-91372592D01*
X118506029Y-91372829D01*
X118634894Y-91373153D01*
X118747683Y-91373575D01*
X118845488Y-91374109D01*
X118929404Y-91374767D01*
X119000527Y-91375561D01*
X119059950Y-91376504D01*
X119108768Y-91377608D01*
X119148077Y-91378884D01*
X119178969Y-91380347D01*
X119202541Y-91382007D01*
X119219886Y-91383878D01*
X119232099Y-91385972D01*
X119240275Y-91388300D01*
X119245508Y-91390876D01*
X119251504Y-91394445D01*
X119258279Y-91397978D01*
X119264478Y-91401488D01*
X119270126Y-91405918D01*
X119275247Y-91412208D01*
X119279869Y-91421301D01*
X119284015Y-91434139D01*
X119287713Y-91451662D01*
X119290987Y-91474813D01*
X119293863Y-91504534D01*
X119296367Y-91541765D01*
X119298524Y-91587449D01*
X119300360Y-91642527D01*
X119301900Y-91707941D01*
X119303170Y-91784633D01*
X119304195Y-91873544D01*
X119305001Y-91975617D01*
X119305034Y-91981867D01*
X119305614Y-92091792D01*
X119306059Y-92223011D01*
G37*
X119306059Y-92223011D02*
X119306362Y-92370216D01*
X119306548Y-92534349D01*
X119306642Y-92716352D01*
X119306671Y-92917165D01*
X119306661Y-93137732D01*
X119306636Y-93378992D01*
X119306622Y-93641889D01*
X119306622Y-93684040D01*
X119306646Y-93944668D01*
X119306685Y-94183796D01*
X119306708Y-94402360D01*
X119306687Y-94601295D01*
X119306593Y-94781535D01*
X119306395Y-94944015D01*
X119306063Y-95089670D01*
X119305569Y-95219434D01*
X119304883Y-95334243D01*
X119303976Y-95435030D01*
X119302817Y-95522730D01*
X119301378Y-95598279D01*
X119299629Y-95662611D01*
X119297540Y-95716661D01*
X119295083Y-95761363D01*
X119292227Y-95797652D01*
X119288943Y-95826463D01*
X119285202Y-95848731D01*
X119280974Y-95865390D01*
X119276229Y-95877375D01*
X119270939Y-95885621D01*
X119265073Y-95891062D01*
X119258602Y-95894634D01*
X119251497Y-95897270D01*
X119243728Y-95899906D01*
X119235266Y-95903477D01*
X119230908Y-95905145D01*
X119222395Y-95907111D01*
X119209694Y-95908911D01*
X119191885Y-95910555D01*
X119168049Y-95912047D01*
X119137266Y-95913397D01*
X119098617Y-95914611D01*
X119051182Y-95915697D01*
X118994043Y-95916661D01*
X118926279Y-95917511D01*
X118846971Y-95918253D01*
X118755199Y-95918897D01*
X118650044Y-95919447D01*
X118530587Y-95919913D01*
X118395908Y-95920300D01*
X118245088Y-95920616D01*
X118077206Y-95920869D01*
X117891345Y-95921066D01*
X117686583Y-95921213D01*
X117462002Y-95921318D01*
X117216682Y-95921389D01*
X116949704Y-95921432D01*
X116911321Y-95921437D01*
X116645922Y-95921480D01*
X116402050Y-95921525D01*
X116178783Y-95921548D01*
X115975196Y-95921524D01*
X115790367Y-95921430D01*
X115623373Y-95921243D01*
X115473290Y-95920939D01*
X115339196Y-95920494D01*
X115220166Y-95919885D01*
X115115279Y-95919089D01*
X115023610Y-95918080D01*
X114944237Y-95916837D01*
X114876237Y-95915335D01*
X114818686Y-95913551D01*
X114770662Y-95911461D01*
X114731240Y-95909042D01*
X114699499Y-95906270D01*
X114674514Y-95903121D01*
X114655364Y-95899572D01*
X114641123Y-95895598D01*
X114630871Y-95891178D01*
X114623682Y-95886286D01*
X114618635Y-95880900D01*
X114614805Y-95874996D01*
X114611271Y-95868549D01*
X114607108Y-95861537D01*
X114606025Y-95859687D01*
X114603813Y-95854180D01*
X114601786Y-95845868D01*
X114599938Y-95833809D01*
X114598261Y-95817063D01*
X114596745Y-95794687D01*
X114595383Y-95765740D01*
X114594167Y-95729280D01*
X114593089Y-95684367D01*
X114592140Y-95630057D01*
X114591312Y-95565410D01*
X114590597Y-95489484D01*
X114589987Y-95401338D01*
X114589942Y-95392493D01*
X114881378Y-95392493D01*
X114885260Y-95393765D01*
X114908520Y-95395791D01*
X114950874Y-95397626D01*
X115010132Y-95399227D01*
X115084107Y-95400549D01*
X115170610Y-95401548D01*
X115267452Y-95402180D01*
X115372445Y-95402400D01*
X116070651Y-95402400D01*
X117225090Y-95402400D01*
X117224456Y-95326200D01*
X117225574Y-95284160D01*
X117231304Y-95248334D01*
X117243890Y-95210772D01*
X117265568Y-95162577D01*
X117268789Y-95155897D01*
X117294188Y-95106359D01*
X117320996Y-95058369D01*
X117343917Y-95021466D01*
X117348485Y-95014834D01*
X117370516Y-94983593D01*
X117402693Y-94938654D01*
X117443457Y-94882147D01*
X117491245Y-94816204D01*
X117544498Y-94742957D01*
X117601655Y-94664536D01*
X117661155Y-94583072D01*
X117721437Y-94500698D01*
X117780940Y-94419544D01*
X117838105Y-94341742D01*
X117891370Y-94269423D01*
X117939174Y-94204718D01*
X117979957Y-94149759D01*
X118012158Y-94106676D01*
X118034216Y-94077602D01*
X118044571Y-94064667D01*
X118049044Y-94060351D01*
X118053236Y-94058312D01*
X118056643Y-94060926D01*
X118059325Y-94069986D01*
X118061341Y-94087285D01*
X118062748Y-94114614D01*
X118063605Y-94153765D01*
X118063970Y-94206533D01*
X118063903Y-94274707D01*
X118063460Y-94360082D01*
X118062702Y-94464449D01*
X118061685Y-94589600D01*
X118061308Y-94634300D01*
X118060169Y-94755395D01*
X118058972Y-94856688D01*
X118057636Y-94940262D01*
X118056077Y-95008204D01*
X118054215Y-95062599D01*
X118051966Y-95105532D01*
X118049248Y-95139089D01*
X118045979Y-95165355D01*
X118042078Y-95186416D01*
X118037461Y-95204357D01*
X118029192Y-95230770D01*
X118005583Y-95292772D01*
X117979685Y-95345573D01*
X117954535Y-95382645D01*
X117953339Y-95384075D01*
X117951168Y-95388424D01*
X117953328Y-95392026D01*
X117961644Y-95394951D01*
X117977940Y-95397269D01*
X118004041Y-95399051D01*
X118041771Y-95400367D01*
X118092956Y-95401286D01*
X118159420Y-95401878D01*
X118242987Y-95402215D01*
X118345483Y-95402365D01*
X118468732Y-95402400D01*
X119000296Y-95402400D01*
X118961523Y-95344783D01*
X118955432Y-95335893D01*
X118944976Y-95321069D01*
X118935579Y-95307422D01*
X118927183Y-95293765D01*
X118919733Y-95278911D01*
X118913173Y-95261670D01*
X118907446Y-95240855D01*
X118902495Y-95215280D01*
X118898266Y-95183755D01*
X118894701Y-95145093D01*
X118891744Y-95098107D01*
X118889340Y-95041608D01*
X118887431Y-94974409D01*
X118885962Y-94895322D01*
X118884876Y-94803160D01*
X118884118Y-94696734D01*
X118883630Y-94574857D01*
X118883358Y-94436341D01*
X118883243Y-94279999D01*
X118883231Y-94104642D01*
X118883265Y-93909082D01*
X118883289Y-93692133D01*
X118883280Y-93569513D01*
X118883243Y-93364447D01*
X118883227Y-93180116D01*
X118883288Y-93015334D01*
X118883484Y-92868916D01*
X118883870Y-92739674D01*
X118884505Y-92626422D01*
X118885444Y-92527975D01*
X118886745Y-92443144D01*
X118888464Y-92370744D01*
X118890659Y-92309589D01*
X118893385Y-92258492D01*
X118896701Y-92216267D01*
X118900662Y-92181727D01*
X118905325Y-92153686D01*
X118910747Y-92130958D01*
X118916986Y-92112356D01*
X118924097Y-92096693D01*
X118932138Y-92082784D01*
X118941166Y-92069441D01*
X118951236Y-92055479D01*
X118962407Y-92039711D01*
X119002197Y-91981867D01*
X117942314Y-91981867D01*
X117980311Y-92044966D01*
X117994993Y-92070005D01*
X118009531Y-92097586D01*
X118021627Y-92125700D01*
X118031532Y-92156551D01*
X118039494Y-92192344D01*
X118045761Y-92235283D01*
X118050582Y-92287574D01*
X118054206Y-92351419D01*
X118056881Y-92429025D01*
X118058857Y-92522594D01*
X118060382Y-92634333D01*
X118061704Y-92766445D01*
X118062613Y-92886434D01*
X118063020Y-93003063D01*
X118062767Y-93098531D01*
X118061857Y-93172556D01*
X118060293Y-93224855D01*
X118058079Y-93255149D01*
X118055220Y-93263156D01*
X118052161Y-93259858D01*
X118034006Y-93238408D01*
X118004275Y-93201889D01*
X117964639Y-93152442D01*
X117916771Y-93092207D01*
X117862343Y-93023327D01*
X117803027Y-92947943D01*
X117740495Y-92868196D01*
X117676421Y-92786228D01*
X117612475Y-92704180D01*
X117550331Y-92624194D01*
X117491661Y-92548411D01*
X117438137Y-92478973D01*
X117391430Y-92418021D01*
X117353214Y-92367696D01*
X117325161Y-92330140D01*
X117308943Y-92307495D01*
X117263635Y-92235212D01*
X117223661Y-92155463D01*
X117202130Y-92087188D01*
X117198827Y-92029844D01*
X117204116Y-91981867D01*
X116072356Y-91982117D01*
X116111867Y-92012722D01*
X116121248Y-92020089D01*
X116184183Y-92074438D01*
X116252997Y-92142259D01*
X116329596Y-92225516D01*
X116415888Y-92326178D01*
X116433052Y-92346847D01*
X116473833Y-92396409D01*
X116523588Y-92457326D01*
X116580955Y-92527898D01*
X116644569Y-92606424D01*
X116713069Y-92691204D01*
X116785090Y-92780537D01*
X116859270Y-92872722D01*
X116874517Y-92891702D01*
X116934246Y-92966060D01*
X117008653Y-93058848D01*
X117081131Y-93149388D01*
X117150314Y-93235978D01*
X117214841Y-93316918D01*
X117273347Y-93390506D01*
X117324470Y-93455044D01*
X117366847Y-93508829D01*
X117399115Y-93550162D01*
X117419910Y-93577342D01*
X117427869Y-93588668D01*
X117426111Y-93592771D01*
X117413230Y-93613334D01*
X117388885Y-93649561D01*
X117354247Y-93699824D01*
X117310486Y-93762492D01*
X117258775Y-93835936D01*
X117200284Y-93918527D01*
X117136184Y-94008636D01*
X117067646Y-94104631D01*
X116995843Y-94204885D01*
X116921944Y-94307768D01*
X116847121Y-94411650D01*
X116772545Y-94514901D01*
X116699387Y-94615892D01*
X116628819Y-94712994D01*
X116562011Y-94804577D01*
X116500135Y-94889011D01*
X116444361Y-94964667D01*
X116395862Y-95029916D01*
X116355807Y-95083128D01*
X116325369Y-95122673D01*
X116304944Y-95148026D01*
X116258899Y-95202295D01*
X116208612Y-95258775D01*
X116161815Y-95308669D01*
X116070651Y-95402400D01*
X115372445Y-95402400D01*
X115441356Y-95402349D01*
X115539607Y-95402091D01*
X115629030Y-95401637D01*
X115707333Y-95401010D01*
X115772223Y-95400235D01*
X115821411Y-95399335D01*
X115852604Y-95398334D01*
X115863511Y-95397257D01*
X115862322Y-95394037D01*
X115852176Y-95376452D01*
X115835040Y-95350158D01*
X115826540Y-95337691D01*
X115817329Y-95323622D01*
X115809233Y-95309351D01*
X115802185Y-95293479D01*
X115796117Y-95274609D01*
X115790961Y-95251341D01*
X115786651Y-95222278D01*
X115783119Y-95186021D01*
X115780297Y-95141170D01*
X115778118Y-95086328D01*
X115776514Y-95020097D01*
X115775419Y-94941077D01*
X115774765Y-94847871D01*
X115774484Y-94739079D01*
X115774509Y-94613303D01*
X115774772Y-94469145D01*
X115775206Y-94305207D01*
X115775745Y-94120089D01*
X115776279Y-93941232D01*
X115776805Y-93782374D01*
X115777350Y-93643316D01*
X115777945Y-93522665D01*
X115778619Y-93419028D01*
X115779403Y-93331011D01*
X115780326Y-93257223D01*
X115781419Y-93196269D01*
X115782712Y-93146757D01*
X115784235Y-93107293D01*
X115786019Y-93076484D01*
X115788092Y-93052938D01*
X115790486Y-93035260D01*
X115793230Y-93022059D01*
X115796356Y-93011940D01*
X115799892Y-93003511D01*
X115803791Y-92995375D01*
X115823438Y-92958544D01*
X115842225Y-92928391D01*
X115843272Y-92926908D01*
X115857602Y-92904659D01*
X115863511Y-92891702D01*
X115862504Y-92891249D01*
X115845305Y-92889803D01*
X115808656Y-92888480D01*
X115754962Y-92887316D01*
X115686630Y-92886347D01*
X115606064Y-92885611D01*
X115515670Y-92885142D01*
X115417853Y-92884978D01*
X114972195Y-92884978D01*
X114969120Y-94061845D01*
X114966045Y-95238711D01*
X114939407Y-95297622D01*
X114927485Y-95322183D01*
X114910246Y-95352434D01*
X114897074Y-95369560D01*
X114889076Y-95377591D01*
X114881378Y-95392493D01*
X114589942Y-95392493D01*
X114589474Y-95300029D01*
X114589050Y-95184617D01*
X114588706Y-95054160D01*
X114588434Y-94907716D01*
X114588227Y-94744344D01*
X114588076Y-94563101D01*
X114587972Y-94363048D01*
X114587908Y-94143241D01*
X114587876Y-93902739D01*
X114587867Y-93640602D01*
X114587867Y-91449031D01*
X114626249Y-91410649D01*
X114653355Y-91386911D01*
X114680253Y-91375111D01*
X114716560Y-91372267D01*
X114768489Y-91372267D01*
X114768489Y-91460206D01*
X114770427Y-91510102D01*
X114789199Y-91620523D01*
X114826217Y-91721987D01*
X114879369Y-91813152D01*
X114946546Y-91892673D01*
X115025638Y-91959205D01*
X115114534Y-92011406D01*
X115211125Y-92047930D01*
X115313300Y-92067434D01*
X115418950Y-92068573D01*
X115525964Y-92050005D01*
X115632232Y-92010384D01*
X115729219Y-91952516D01*
X115814293Y-91877684D01*
X115883015Y-91789615D01*
X115933918Y-91690616D01*
X115965535Y-91582993D01*
X115976400Y-91469054D01*
X115976400Y-91372267D01*
X117596753Y-91372267D01*
X117807897Y-91372280D01*
X118012020Y-91372330D01*
X118195686Y-91372430D01*
X118359991Y-91372592D01*
X118506029Y-91372829D01*
X118634894Y-91373153D01*
X118747683Y-91373575D01*
X118845488Y-91374109D01*
X118929404Y-91374767D01*
X119000527Y-91375561D01*
X119059950Y-91376504D01*
X119108768Y-91377608D01*
X119148077Y-91378884D01*
X119178969Y-91380347D01*
X119202541Y-91382007D01*
X119219886Y-91383878D01*
X119232099Y-91385972D01*
X119240275Y-91388300D01*
X119245508Y-91390876D01*
X119251504Y-91394445D01*
X119258279Y-91397978D01*
X119264478Y-91401488D01*
X119270126Y-91405918D01*
X119275247Y-91412208D01*
X119279869Y-91421301D01*
X119284015Y-91434139D01*
X119287713Y-91451662D01*
X119290987Y-91474813D01*
X119293863Y-91504534D01*
X119296367Y-91541765D01*
X119298524Y-91587449D01*
X119300360Y-91642527D01*
X119301900Y-91707941D01*
X119303170Y-91784633D01*
X119304195Y-91873544D01*
X119305001Y-91975617D01*
X119305034Y-91981867D01*
X119305614Y-92091792D01*
X119306059Y-92223011D01*
G36*
X115484562Y-91012850D02*
G01*
X115567313Y-91040053D01*
X115642406Y-91085484D01*
X115714298Y-91151302D01*
X115752846Y-91195567D01*
X115792256Y-91253961D01*
X115817446Y-91314586D01*
X115830861Y-91383865D01*
X115834948Y-91468222D01*
X115834669Y-91514307D01*
X115832460Y-91555450D01*
X115826894Y-91587582D01*
X115816586Y-91618122D01*
X115800148Y-91654489D01*
X115786200Y-91681728D01*
X115727665Y-91767429D01*
X115655619Y-91836617D01*
X115571947Y-91887741D01*
X115478531Y-91919250D01*
X115445434Y-91926225D01*
X115404960Y-91933094D01*
X115371999Y-91934919D01*
X115337698Y-91931947D01*
X115293200Y-91924426D01*
X115241934Y-91912002D01*
X115151434Y-91874112D01*
X115072345Y-91819836D01*
X115006528Y-91751770D01*
X114955840Y-91672511D01*
X114922140Y-91584654D01*
X114907286Y-91490795D01*
X114913136Y-91393530D01*
X114939399Y-91297220D01*
X114984418Y-91208494D01*
X115045373Y-91133419D01*
X115120184Y-91073641D01*
X115206768Y-91030809D01*
X115303043Y-91006571D01*
X115406928Y-91002576D01*
X115484562Y-91012850D01*
G37*
X115484562Y-91012850D02*
X115567313Y-91040053D01*
X115642406Y-91085484D01*
X115714298Y-91151302D01*
X115752846Y-91195567D01*
X115792256Y-91253961D01*
X115817446Y-91314586D01*
X115830861Y-91383865D01*
X115834948Y-91468222D01*
X115834669Y-91514307D01*
X115832460Y-91555450D01*
X115826894Y-91587582D01*
X115816586Y-91618122D01*
X115800148Y-91654489D01*
X115786200Y-91681728D01*
X115727665Y-91767429D01*
X115655619Y-91836617D01*
X115571947Y-91887741D01*
X115478531Y-91919250D01*
X115445434Y-91926225D01*
X115404960Y-91933094D01*
X115371999Y-91934919D01*
X115337698Y-91931947D01*
X115293200Y-91924426D01*
X115241934Y-91912002D01*
X115151434Y-91874112D01*
X115072345Y-91819836D01*
X115006528Y-91751770D01*
X114955840Y-91672511D01*
X114922140Y-91584654D01*
X114907286Y-91490795D01*
X114913136Y-91393530D01*
X114939399Y-91297220D01*
X114984418Y-91208494D01*
X115045373Y-91133419D01*
X115120184Y-91073641D01*
X115206768Y-91030809D01*
X115303043Y-91006571D01*
X115406928Y-91002576D01*
X115484562Y-91012850D01*
G36*
X114361893Y-96247892D02*
G01*
X114373301Y-96254029D01*
X114383850Y-96264691D01*
X114395136Y-96278811D01*
X114399589Y-96284772D01*
X114405588Y-96295268D01*
X114410167Y-96309093D01*
X114413519Y-96328998D01*
X114415833Y-96357732D01*
X114417301Y-96398045D01*
X114418113Y-96452687D01*
X114418460Y-96524407D01*
X114418534Y-96615956D01*
X114418511Y-96674486D01*
X114418292Y-96753573D01*
X114417683Y-96814516D01*
X114416492Y-96860062D01*
X114414529Y-96892963D01*
X114411603Y-96915968D01*
X114407523Y-96931826D01*
X114402097Y-96943286D01*
X114395136Y-96953100D01*
X114364708Y-96977493D01*
X114329765Y-96980372D01*
X114292784Y-96961282D01*
X114288600Y-96957807D01*
X114280424Y-96949279D01*
X114274364Y-96937728D01*
X114269981Y-96919896D01*
X114266839Y-96892524D01*
X114264502Y-96852354D01*
X114262531Y-96796128D01*
X114260489Y-96720589D01*
X114254845Y-96501458D01*
X113989556Y-96742099D01*
X113915722Y-96808875D01*
X113850542Y-96866991D01*
X113798348Y-96911949D01*
X113757273Y-96944871D01*
X113725455Y-96966879D01*
X113701026Y-96979094D01*
X113682124Y-96982639D01*
X113666883Y-96978636D01*
X113653439Y-96968207D01*
X113639927Y-96952474D01*
X113633682Y-96943991D01*
X113628050Y-96933413D01*
X113623839Y-96919255D01*
X113620887Y-96898803D01*
X113619032Y-96869342D01*
X113618113Y-96828161D01*
X113617968Y-96772544D01*
X113618435Y-96699779D01*
X113619352Y-96607151D01*
X113622667Y-96292199D01*
X113649318Y-96270633D01*
X113675383Y-96254441D01*
X113708241Y-96251670D01*
X113742772Y-96270623D01*
X113747084Y-96274208D01*
X113755216Y-96282737D01*
X113761245Y-96294329D01*
X113765606Y-96312235D01*
X113768734Y-96339706D01*
X113771063Y-96379994D01*
X113773029Y-96436351D01*
X113775067Y-96512029D01*
X113780711Y-96731878D01*
X113961334Y-96568084D01*
X114048072Y-96489451D01*
X114123843Y-96421058D01*
X114185980Y-96365708D01*
X114236078Y-96322338D01*
X114275735Y-96289881D01*
X114306548Y-96267273D01*
X114330114Y-96253448D01*
X114348030Y-96247343D01*
X114361893Y-96247892D01*
G37*
X114361893Y-96247892D02*
X114373301Y-96254029D01*
X114383850Y-96264691D01*
X114395136Y-96278811D01*
X114399589Y-96284772D01*
X114405588Y-96295268D01*
X114410167Y-96309093D01*
X114413519Y-96328998D01*
X114415833Y-96357732D01*
X114417301Y-96398045D01*
X114418113Y-96452687D01*
X114418460Y-96524407D01*
X114418534Y-96615956D01*
X114418511Y-96674486D01*
X114418292Y-96753573D01*
X114417683Y-96814516D01*
X114416492Y-96860062D01*
X114414529Y-96892963D01*
X114411603Y-96915968D01*
X114407523Y-96931826D01*
X114402097Y-96943286D01*
X114395136Y-96953100D01*
X114364708Y-96977493D01*
X114329765Y-96980372D01*
X114292784Y-96961282D01*
X114288600Y-96957807D01*
X114280424Y-96949279D01*
X114274364Y-96937728D01*
X114269981Y-96919896D01*
X114266839Y-96892524D01*
X114264502Y-96852354D01*
X114262531Y-96796128D01*
X114260489Y-96720589D01*
X114254845Y-96501458D01*
X113989556Y-96742099D01*
X113915722Y-96808875D01*
X113850542Y-96866991D01*
X113798348Y-96911949D01*
X113757273Y-96944871D01*
X113725455Y-96966879D01*
X113701026Y-96979094D01*
X113682124Y-96982639D01*
X113666883Y-96978636D01*
X113653439Y-96968207D01*
X113639927Y-96952474D01*
X113633682Y-96943991D01*
X113628050Y-96933413D01*
X113623839Y-96919255D01*
X113620887Y-96898803D01*
X113619032Y-96869342D01*
X113618113Y-96828161D01*
X113617968Y-96772544D01*
X113618435Y-96699779D01*
X113619352Y-96607151D01*
X113622667Y-96292199D01*
X113649318Y-96270633D01*
X113675383Y-96254441D01*
X113708241Y-96251670D01*
X113742772Y-96270623D01*
X113747084Y-96274208D01*
X113755216Y-96282737D01*
X113761245Y-96294329D01*
X113765606Y-96312235D01*
X113768734Y-96339706D01*
X113771063Y-96379994D01*
X113773029Y-96436351D01*
X113775067Y-96512029D01*
X113780711Y-96731878D01*
X113961334Y-96568084D01*
X114048072Y-96489451D01*
X114123843Y-96421058D01*
X114185980Y-96365708D01*
X114236078Y-96322338D01*
X114275735Y-96289881D01*
X114306548Y-96267273D01*
X114330114Y-96253448D01*
X114348030Y-96247343D01*
X114361893Y-96247892D01*
G36*
X117886734Y-96249083D02*
G01*
X117963831Y-96249275D01*
X118022777Y-96249860D01*
X118066364Y-96251051D01*
X118097383Y-96253064D01*
X118118625Y-96256112D01*
X118132882Y-96260409D01*
X118142945Y-96266172D01*
X118151606Y-96273612D01*
X118153391Y-96275293D01*
X118160635Y-96282832D01*
X118166277Y-96291850D01*
X118170517Y-96304984D01*
X118173556Y-96324872D01*
X118175594Y-96354151D01*
X118176830Y-96395458D01*
X118177465Y-96451431D01*
X118177700Y-96524707D01*
X118177734Y-96617923D01*
X118177697Y-96690713D01*
X118177448Y-96768889D01*
X118176812Y-96829103D01*
X118175615Y-96873982D01*
X118173684Y-96906152D01*
X118170846Y-96928239D01*
X118166927Y-96942870D01*
X118161755Y-96952670D01*
X118155156Y-96960267D01*
X118151822Y-96963444D01*
X118143300Y-96969554D01*
X118131298Y-96974229D01*
X118113087Y-96977659D01*
X118085940Y-96980036D01*
X118047129Y-96981552D01*
X117993924Y-96982398D01*
X117923598Y-96982765D01*
X117833422Y-96982845D01*
X117791314Y-96982833D01*
X117710167Y-96982651D01*
X117647675Y-96982098D01*
X117601109Y-96980982D01*
X117567741Y-96979113D01*
X117544844Y-96976298D01*
X117529688Y-96972346D01*
X117519546Y-96967066D01*
X117511689Y-96960267D01*
X117496963Y-96938667D01*
X117489111Y-96909467D01*
X117494610Y-96885560D01*
X117511689Y-96858667D01*
X117516668Y-96854059D01*
X117526443Y-96847772D01*
X117540559Y-96843146D01*
X117562054Y-96839930D01*
X117593968Y-96837870D01*
X117639342Y-96836712D01*
X117701213Y-96836202D01*
X117782622Y-96836089D01*
X118030978Y-96836089D01*
X118030978Y-96678045D01*
X117869801Y-96678045D01*
X117833983Y-96677899D01*
X117768359Y-96676176D01*
X117721118Y-96671741D01*
X117689383Y-96663637D01*
X117670277Y-96650906D01*
X117660923Y-96632592D01*
X117658445Y-96607738D01*
X117659242Y-96587482D01*
X117664494Y-96565656D01*
X117677288Y-96550304D01*
X117700628Y-96540309D01*
X117737517Y-96534553D01*
X117790959Y-96531919D01*
X117863958Y-96531289D01*
X118032105Y-96531289D01*
X118028719Y-96466378D01*
X118025334Y-96401467D01*
X117777617Y-96398418D01*
X117715026Y-96397539D01*
X117646565Y-96396095D01*
X117595661Y-96394164D01*
X117559408Y-96391514D01*
X117534901Y-96387910D01*
X117519235Y-96383121D01*
X117509506Y-96376913D01*
X117503491Y-96370510D01*
X117490482Y-96338828D01*
X117494043Y-96303142D01*
X117513818Y-96272084D01*
X117517069Y-96269161D01*
X117526049Y-96262810D01*
X117538153Y-96257957D01*
X117556159Y-96254403D01*
X117582847Y-96251946D01*
X117620997Y-96250385D01*
X117673386Y-96249518D01*
X117742794Y-96249146D01*
X117832001Y-96249067D01*
X117886734Y-96249083D01*
G37*
X117886734Y-96249083D02*
X117963831Y-96249275D01*
X118022777Y-96249860D01*
X118066364Y-96251051D01*
X118097383Y-96253064D01*
X118118625Y-96256112D01*
X118132882Y-96260409D01*
X118142945Y-96266172D01*
X118151606Y-96273612D01*
X118153391Y-96275293D01*
X118160635Y-96282832D01*
X118166277Y-96291850D01*
X118170517Y-96304984D01*
X118173556Y-96324872D01*
X118175594Y-96354151D01*
X118176830Y-96395458D01*
X118177465Y-96451431D01*
X118177700Y-96524707D01*
X118177734Y-96617923D01*
X118177697Y-96690713D01*
X118177448Y-96768889D01*
X118176812Y-96829103D01*
X118175615Y-96873982D01*
X118173684Y-96906152D01*
X118170846Y-96928239D01*
X118166927Y-96942870D01*
X118161755Y-96952670D01*
X118155156Y-96960267D01*
X118151822Y-96963444D01*
X118143300Y-96969554D01*
X118131298Y-96974229D01*
X118113087Y-96977659D01*
X118085940Y-96980036D01*
X118047129Y-96981552D01*
X117993924Y-96982398D01*
X117923598Y-96982765D01*
X117833422Y-96982845D01*
X117791314Y-96982833D01*
X117710167Y-96982651D01*
X117647675Y-96982098D01*
X117601109Y-96980982D01*
X117567741Y-96979113D01*
X117544844Y-96976298D01*
X117529688Y-96972346D01*
X117519546Y-96967066D01*
X117511689Y-96960267D01*
X117496963Y-96938667D01*
X117489111Y-96909467D01*
X117494610Y-96885560D01*
X117511689Y-96858667D01*
X117516668Y-96854059D01*
X117526443Y-96847772D01*
X117540559Y-96843146D01*
X117562054Y-96839930D01*
X117593968Y-96837870D01*
X117639342Y-96836712D01*
X117701213Y-96836202D01*
X117782622Y-96836089D01*
X118030978Y-96836089D01*
X118030978Y-96678045D01*
X117869801Y-96678045D01*
X117833983Y-96677899D01*
X117768359Y-96676176D01*
X117721118Y-96671741D01*
X117689383Y-96663637D01*
X117670277Y-96650906D01*
X117660923Y-96632592D01*
X117658445Y-96607738D01*
X117659242Y-96587482D01*
X117664494Y-96565656D01*
X117677288Y-96550304D01*
X117700628Y-96540309D01*
X117737517Y-96534553D01*
X117790959Y-96531919D01*
X117863958Y-96531289D01*
X118032105Y-96531289D01*
X118028719Y-96466378D01*
X118025334Y-96401467D01*
X117777617Y-96398418D01*
X117715026Y-96397539D01*
X117646565Y-96396095D01*
X117595661Y-96394164D01*
X117559408Y-96391514D01*
X117534901Y-96387910D01*
X117519235Y-96383121D01*
X117509506Y-96376913D01*
X117503491Y-96370510D01*
X117490482Y-96338828D01*
X117494043Y-96303142D01*
X117513818Y-96272084D01*
X117517069Y-96269161D01*
X117526049Y-96262810D01*
X117538153Y-96257957D01*
X117556159Y-96254403D01*
X117582847Y-96251946D01*
X117620997Y-96250385D01*
X117673386Y-96249518D01*
X117742794Y-96249146D01*
X117832001Y-96249067D01*
X117886734Y-96249083D01*
G36*
X113209803Y-96278811D02*
G01*
X113214752Y-96285495D01*
X113220596Y-96296066D01*
X113225057Y-96310153D01*
X113228321Y-96330478D01*
X113230574Y-96359765D01*
X113232002Y-96400737D01*
X113232792Y-96456117D01*
X113233129Y-96528628D01*
X113233200Y-96620994D01*
X113233171Y-96686911D01*
X113232939Y-96765228D01*
X113232319Y-96825496D01*
X113231126Y-96870393D01*
X113229179Y-96902602D01*
X113226294Y-96924800D01*
X113222288Y-96939669D01*
X113216979Y-96949889D01*
X113210183Y-96958138D01*
X113205668Y-96962795D01*
X113197438Y-96969282D01*
X113186078Y-96974194D01*
X113168810Y-96977749D01*
X113142855Y-96980167D01*
X113105436Y-96981667D01*
X113053773Y-96982467D01*
X112985089Y-96982787D01*
X112896606Y-96982845D01*
X112876931Y-96982838D01*
X112789906Y-96982572D01*
X112722254Y-96981806D01*
X112671299Y-96980392D01*
X112634367Y-96978180D01*
X112608783Y-96975022D01*
X112591871Y-96970769D01*
X112580957Y-96965271D01*
X112570464Y-96955285D01*
X112557203Y-96924168D01*
X112558386Y-96888280D01*
X112574550Y-96856733D01*
X112576739Y-96854457D01*
X112585427Y-96848189D01*
X112598769Y-96843523D01*
X112619752Y-96840227D01*
X112651363Y-96838068D01*
X112696590Y-96836814D01*
X112758420Y-96836231D01*
X112839839Y-96836089D01*
X113086445Y-96836089D01*
X113086445Y-96678045D01*
X112924006Y-96678045D01*
X112888338Y-96677964D01*
X112832568Y-96677167D01*
X112793430Y-96675162D01*
X112766976Y-96671521D01*
X112749259Y-96665812D01*
X112736329Y-96657607D01*
X112732686Y-96654423D01*
X112714278Y-96623448D01*
X112713644Y-96587112D01*
X112731183Y-96553493D01*
X112731245Y-96553424D01*
X112740916Y-96544798D01*
X112754209Y-96538742D01*
X112774917Y-96534811D01*
X112806828Y-96532556D01*
X112853734Y-96531531D01*
X112919424Y-96531289D01*
X113087571Y-96531289D01*
X113084186Y-96466378D01*
X113080800Y-96401467D01*
X112838723Y-96398414D01*
X112813707Y-96398086D01*
X112732087Y-96396606D01*
X112669768Y-96394222D01*
X112624154Y-96390227D01*
X112592652Y-96383913D01*
X112572667Y-96374574D01*
X112561604Y-96361503D01*
X112556869Y-96343992D01*
X112555867Y-96321335D01*
X112555873Y-96318970D01*
X112557027Y-96298939D01*
X112561824Y-96283146D01*
X112572632Y-96271090D01*
X112591817Y-96262267D01*
X112621745Y-96256175D01*
X112664783Y-96252311D01*
X112723299Y-96250174D01*
X112799657Y-96249260D01*
X112896226Y-96249067D01*
X113186406Y-96249067D01*
X113209803Y-96278811D01*
G37*
X113209803Y-96278811D02*
X113214752Y-96285495D01*
X113220596Y-96296066D01*
X113225057Y-96310153D01*
X113228321Y-96330478D01*
X113230574Y-96359765D01*
X113232002Y-96400737D01*
X113232792Y-96456117D01*
X113233129Y-96528628D01*
X113233200Y-96620994D01*
X113233171Y-96686911D01*
X113232939Y-96765228D01*
X113232319Y-96825496D01*
X113231126Y-96870393D01*
X113229179Y-96902602D01*
X113226294Y-96924800D01*
X113222288Y-96939669D01*
X113216979Y-96949889D01*
X113210183Y-96958138D01*
X113205668Y-96962795D01*
X113197438Y-96969282D01*
X113186078Y-96974194D01*
X113168810Y-96977749D01*
X113142855Y-96980167D01*
X113105436Y-96981667D01*
X113053773Y-96982467D01*
X112985089Y-96982787D01*
X112896606Y-96982845D01*
X112876931Y-96982838D01*
X112789906Y-96982572D01*
X112722254Y-96981806D01*
X112671299Y-96980392D01*
X112634367Y-96978180D01*
X112608783Y-96975022D01*
X112591871Y-96970769D01*
X112580957Y-96965271D01*
X112570464Y-96955285D01*
X112557203Y-96924168D01*
X112558386Y-96888280D01*
X112574550Y-96856733D01*
X112576739Y-96854457D01*
X112585427Y-96848189D01*
X112598769Y-96843523D01*
X112619752Y-96840227D01*
X112651363Y-96838068D01*
X112696590Y-96836814D01*
X112758420Y-96836231D01*
X112839839Y-96836089D01*
X113086445Y-96836089D01*
X113086445Y-96678045D01*
X112924006Y-96678045D01*
X112888338Y-96677964D01*
X112832568Y-96677167D01*
X112793430Y-96675162D01*
X112766976Y-96671521D01*
X112749259Y-96665812D01*
X112736329Y-96657607D01*
X112732686Y-96654423D01*
X112714278Y-96623448D01*
X112713644Y-96587112D01*
X112731183Y-96553493D01*
X112731245Y-96553424D01*
X112740916Y-96544798D01*
X112754209Y-96538742D01*
X112774917Y-96534811D01*
X112806828Y-96532556D01*
X112853734Y-96531531D01*
X112919424Y-96531289D01*
X113087571Y-96531289D01*
X113084186Y-96466378D01*
X113080800Y-96401467D01*
X112838723Y-96398414D01*
X112813707Y-96398086D01*
X112732087Y-96396606D01*
X112669768Y-96394222D01*
X112624154Y-96390227D01*
X112592652Y-96383913D01*
X112572667Y-96374574D01*
X112561604Y-96361503D01*
X112556869Y-96343992D01*
X112555867Y-96321335D01*
X112555873Y-96318970D01*
X112557027Y-96298939D01*
X112561824Y-96283146D01*
X112572632Y-96271090D01*
X112591817Y-96262267D01*
X112621745Y-96256175D01*
X112664783Y-96252311D01*
X112723299Y-96250174D01*
X112799657Y-96249260D01*
X112896226Y-96249067D01*
X113186406Y-96249067D01*
X113209803Y-96278811D01*
G36*
X108885406Y-96254949D02*
G01*
X108911127Y-96270647D01*
X108937778Y-96292227D01*
X108937778Y-96939684D01*
X108911127Y-96961264D01*
X108879767Y-96978739D01*
X108843966Y-96979575D01*
X108812528Y-96959082D01*
X108808652Y-96954416D01*
X108803186Y-96944949D01*
X108798979Y-96931267D01*
X108795867Y-96910748D01*
X108793687Y-96880768D01*
X108792276Y-96838704D01*
X108791471Y-96781932D01*
X108791107Y-96707830D01*
X108791022Y-96613773D01*
X108791022Y-96292227D01*
X108817673Y-96270647D01*
X108841386Y-96255877D01*
X108864400Y-96249067D01*
X108885406Y-96254949D01*
G37*
X108885406Y-96254949D02*
X108911127Y-96270647D01*
X108937778Y-96292227D01*
X108937778Y-96939684D01*
X108911127Y-96961264D01*
X108879767Y-96978739D01*
X108843966Y-96979575D01*
X108812528Y-96959082D01*
X108808652Y-96954416D01*
X108803186Y-96944949D01*
X108798979Y-96931267D01*
X108795867Y-96910748D01*
X108793687Y-96880768D01*
X108792276Y-96838704D01*
X108791471Y-96781932D01*
X108791107Y-96707830D01*
X108791022Y-96613773D01*
X108791022Y-96292227D01*
X108817673Y-96270647D01*
X108841386Y-96255877D01*
X108864400Y-96249067D01*
X108885406Y-96254949D01*
G36*
X107509734Y-96271645D02*
G01*
X107515366Y-96277835D01*
X107520456Y-96286041D01*
X107524543Y-96297817D01*
X107527721Y-96315276D01*
X107530087Y-96340530D01*
X107531738Y-96375690D01*
X107532769Y-96422869D01*
X107533277Y-96484177D01*
X107533359Y-96561727D01*
X107533109Y-96657631D01*
X107532625Y-96774000D01*
X107532557Y-96788175D01*
X107531971Y-96849937D01*
X107530648Y-96893620D01*
X107528103Y-96923001D01*
X107523848Y-96941855D01*
X107517396Y-96953959D01*
X107508262Y-96963089D01*
X107474804Y-96980506D01*
X107439856Y-96977604D01*
X107408953Y-96953100D01*
X107399944Y-96939897D01*
X107392492Y-96921361D01*
X107388124Y-96895333D01*
X107386069Y-96856787D01*
X107385556Y-96800700D01*
X107385556Y-96678045D01*
X106888845Y-96678045D01*
X106888845Y-96812871D01*
X106888772Y-96848662D01*
X106888009Y-96894992D01*
X106885833Y-96925526D01*
X106881536Y-96944557D01*
X106874412Y-96956374D01*
X106863755Y-96965271D01*
X106831504Y-96980341D01*
X106796217Y-96977673D01*
X106765486Y-96953100D01*
X106760831Y-96946845D01*
X106754895Y-96936321D01*
X106750364Y-96922391D01*
X106747048Y-96902317D01*
X106744759Y-96873360D01*
X106743308Y-96832780D01*
X106742505Y-96777840D01*
X106742162Y-96705799D01*
X106742089Y-96613920D01*
X106742089Y-96304485D01*
X106769798Y-96276776D01*
X106801177Y-96254533D01*
X106834406Y-96251844D01*
X106866267Y-96271645D01*
X106874553Y-96281415D01*
X106881965Y-96297307D01*
X106886302Y-96321275D01*
X106888338Y-96358148D01*
X106888845Y-96412756D01*
X106888845Y-96531289D01*
X107385556Y-96531289D01*
X107385556Y-96415776D01*
X107385994Y-96364078D01*
X107387958Y-96329554D01*
X107392474Y-96306978D01*
X107400567Y-96291126D01*
X107413265Y-96276776D01*
X107444643Y-96254533D01*
X107477872Y-96251844D01*
X107509734Y-96271645D01*
G37*
X107509734Y-96271645D02*
X107515366Y-96277835D01*
X107520456Y-96286041D01*
X107524543Y-96297817D01*
X107527721Y-96315276D01*
X107530087Y-96340530D01*
X107531738Y-96375690D01*
X107532769Y-96422869D01*
X107533277Y-96484177D01*
X107533359Y-96561727D01*
X107533109Y-96657631D01*
X107532625Y-96774000D01*
X107532557Y-96788175D01*
X107531971Y-96849937D01*
X107530648Y-96893620D01*
X107528103Y-96923001D01*
X107523848Y-96941855D01*
X107517396Y-96953959D01*
X107508262Y-96963089D01*
X107474804Y-96980506D01*
X107439856Y-96977604D01*
X107408953Y-96953100D01*
X107399944Y-96939897D01*
X107392492Y-96921361D01*
X107388124Y-96895333D01*
X107386069Y-96856787D01*
X107385556Y-96800700D01*
X107385556Y-96678045D01*
X106888845Y-96678045D01*
X106888845Y-96812871D01*
X106888772Y-96848662D01*
X106888009Y-96894992D01*
X106885833Y-96925526D01*
X106881536Y-96944557D01*
X106874412Y-96956374D01*
X106863755Y-96965271D01*
X106831504Y-96980341D01*
X106796217Y-96977673D01*
X106765486Y-96953100D01*
X106760831Y-96946845D01*
X106754895Y-96936321D01*
X106750364Y-96922391D01*
X106747048Y-96902317D01*
X106744759Y-96873360D01*
X106743308Y-96832780D01*
X106742505Y-96777840D01*
X106742162Y-96705799D01*
X106742089Y-96613920D01*
X106742089Y-96304485D01*
X106769798Y-96276776D01*
X106801177Y-96254533D01*
X106834406Y-96251844D01*
X106866267Y-96271645D01*
X106874553Y-96281415D01*
X106881965Y-96297307D01*
X106886302Y-96321275D01*
X106888338Y-96358148D01*
X106888845Y-96412756D01*
X106888845Y-96531289D01*
X107385556Y-96531289D01*
X107385556Y-96415776D01*
X107385994Y-96364078D01*
X107387958Y-96329554D01*
X107392474Y-96306978D01*
X107400567Y-96291126D01*
X107413265Y-96276776D01*
X107444643Y-96254533D01*
X107477872Y-96251844D01*
X107509734Y-96271645D01*
G36*
X115159150Y-96254179D02*
G01*
X115265157Y-96270494D01*
X115358969Y-96298545D01*
X115437765Y-96337452D01*
X115498719Y-96386334D01*
X115524789Y-96419195D01*
X115554297Y-96468394D01*
X115579568Y-96522252D01*
X115597218Y-96573419D01*
X115603858Y-96614544D01*
X115602298Y-96634259D01*
X115589357Y-96685592D01*
X115566194Y-96742118D01*
X115536302Y-96796035D01*
X115503173Y-96839539D01*
X115492977Y-96849887D01*
X115425892Y-96901662D01*
X115345766Y-96941554D01*
X115259556Y-96965956D01*
X115204592Y-96974068D01*
X115111139Y-96980673D01*
X115021358Y-96978586D01*
X114938869Y-96968340D01*
X114867286Y-96950470D01*
X114810228Y-96925508D01*
X114771311Y-96893988D01*
X114769936Y-96892012D01*
X114762848Y-96866786D01*
X114758609Y-96819535D01*
X114757200Y-96750071D01*
X114758060Y-96687838D01*
X114762780Y-96640456D01*
X114774470Y-96608353D01*
X114796239Y-96588800D01*
X114831198Y-96579070D01*
X114882456Y-96576433D01*
X114953123Y-96578161D01*
X115001743Y-96581173D01*
X115051939Y-96589366D01*
X115084433Y-96603419D01*
X115101892Y-96624654D01*
X115106983Y-96654394D01*
X115106877Y-96658936D01*
X115098175Y-96693730D01*
X115074165Y-96717147D01*
X115032900Y-96730347D01*
X114972431Y-96734489D01*
X114903956Y-96734489D01*
X114903956Y-96772841D01*
X114904006Y-96781976D01*
X114906227Y-96799227D01*
X114915494Y-96809521D01*
X114936875Y-96816459D01*
X114975436Y-96823641D01*
X114980910Y-96824575D01*
X115077860Y-96834478D01*
X115167852Y-96831559D01*
X115248760Y-96816829D01*
X115318459Y-96791299D01*
X115374824Y-96755978D01*
X115415729Y-96711879D01*
X115439051Y-96660012D01*
X115442663Y-96601388D01*
X115437145Y-96572494D01*
X115410461Y-96516604D01*
X115364273Y-96470945D01*
X115299291Y-96436108D01*
X115216229Y-96412690D01*
X115191555Y-96408241D01*
X115102226Y-96397742D01*
X115022419Y-96398971D01*
X114944326Y-96411906D01*
X114909183Y-96418696D01*
X114863745Y-96419713D01*
X114832430Y-96407182D01*
X114812277Y-96380395D01*
X114805893Y-96352148D01*
X114815379Y-96320924D01*
X114824708Y-96307499D01*
X114858943Y-96283967D01*
X114911565Y-96266095D01*
X114980081Y-96254599D01*
X115062000Y-96250192D01*
X115159150Y-96254179D01*
G37*
X115159150Y-96254179D02*
X115265157Y-96270494D01*
X115358969Y-96298545D01*
X115437765Y-96337452D01*
X115498719Y-96386334D01*
X115524789Y-96419195D01*
X115554297Y-96468394D01*
X115579568Y-96522252D01*
X115597218Y-96573419D01*
X115603858Y-96614544D01*
X115602298Y-96634259D01*
X115589357Y-96685592D01*
X115566194Y-96742118D01*
X115536302Y-96796035D01*
X115503173Y-96839539D01*
X115492977Y-96849887D01*
X115425892Y-96901662D01*
X115345766Y-96941554D01*
X115259556Y-96965956D01*
X115204592Y-96974068D01*
X115111139Y-96980673D01*
X115021358Y-96978586D01*
X114938869Y-96968340D01*
X114867286Y-96950470D01*
X114810228Y-96925508D01*
X114771311Y-96893988D01*
X114769936Y-96892012D01*
X114762848Y-96866786D01*
X114758609Y-96819535D01*
X114757200Y-96750071D01*
X114758060Y-96687838D01*
X114762780Y-96640456D01*
X114774470Y-96608353D01*
X114796239Y-96588800D01*
X114831198Y-96579070D01*
X114882456Y-96576433D01*
X114953123Y-96578161D01*
X115001743Y-96581173D01*
X115051939Y-96589366D01*
X115084433Y-96603419D01*
X115101892Y-96624654D01*
X115106983Y-96654394D01*
X115106877Y-96658936D01*
X115098175Y-96693730D01*
X115074165Y-96717147D01*
X115032900Y-96730347D01*
X114972431Y-96734489D01*
X114903956Y-96734489D01*
X114903956Y-96772841D01*
X114904006Y-96781976D01*
X114906227Y-96799227D01*
X114915494Y-96809521D01*
X114936875Y-96816459D01*
X114975436Y-96823641D01*
X114980910Y-96824575D01*
X115077860Y-96834478D01*
X115167852Y-96831559D01*
X115248760Y-96816829D01*
X115318459Y-96791299D01*
X115374824Y-96755978D01*
X115415729Y-96711879D01*
X115439051Y-96660012D01*
X115442663Y-96601388D01*
X115437145Y-96572494D01*
X115410461Y-96516604D01*
X115364273Y-96470945D01*
X115299291Y-96436108D01*
X115216229Y-96412690D01*
X115191555Y-96408241D01*
X115102226Y-96397742D01*
X115022419Y-96398971D01*
X114944326Y-96411906D01*
X114909183Y-96418696D01*
X114863745Y-96419713D01*
X114832430Y-96407182D01*
X114812277Y-96380395D01*
X114805893Y-96352148D01*
X114815379Y-96320924D01*
X114824708Y-96307499D01*
X114858943Y-96283967D01*
X114911565Y-96266095D01*
X114980081Y-96254599D01*
X115062000Y-96250192D01*
X115159150Y-96254179D01*
G36*
X112213163Y-96893175D02*
G01*
X112210235Y-96916095D01*
X112206158Y-96931897D01*
X112200743Y-96943319D01*
X112193803Y-96953100D01*
X112170406Y-96982845D01*
X112004714Y-96982251D01*
X111969918Y-96981953D01*
X111871435Y-96978522D01*
X111790473Y-96970839D01*
X111723379Y-96958282D01*
X111666496Y-96940227D01*
X111616169Y-96916052D01*
X111612810Y-96914135D01*
X111554998Y-96877417D01*
X111512644Y-96840451D01*
X111479828Y-96796966D01*
X111450628Y-96740689D01*
X111446346Y-96731073D01*
X111423769Y-96667887D01*
X111418034Y-96622333D01*
X111567279Y-96622333D01*
X111572892Y-96647061D01*
X111578618Y-96662939D01*
X111611548Y-96722847D01*
X111658886Y-96768600D01*
X111722652Y-96801736D01*
X111804861Y-96823790D01*
X111807655Y-96824292D01*
X111853940Y-96830255D01*
X111910336Y-96834483D01*
X111965274Y-96836089D01*
X112059156Y-96836089D01*
X112059156Y-96395822D01*
X111971667Y-96396270D01*
X111904747Y-96398746D01*
X111812349Y-96409998D01*
X111733034Y-96429537D01*
X111671060Y-96456511D01*
X111640120Y-96477240D01*
X111612000Y-96507006D01*
X111588660Y-96549434D01*
X111581533Y-96565400D01*
X111569709Y-96597902D01*
X111567279Y-96622333D01*
X111418034Y-96622333D01*
X111416797Y-96612509D01*
X111425399Y-96557483D01*
X111449541Y-96495351D01*
X111450337Y-96493658D01*
X111490788Y-96424236D01*
X111541473Y-96367638D01*
X111604198Y-96323070D01*
X111680774Y-96289741D01*
X111773009Y-96266861D01*
X111882712Y-96253636D01*
X112011691Y-96249275D01*
X112015263Y-96249270D01*
X112075283Y-96249410D01*
X112117214Y-96250446D01*
X112145328Y-96253040D01*
X112163897Y-96257853D01*
X112177194Y-96265544D01*
X112189491Y-96276776D01*
X112217200Y-96304485D01*
X112217200Y-96613920D01*
X112217175Y-96675526D01*
X112216950Y-96754311D01*
X112216332Y-96815021D01*
X112215775Y-96836089D01*
X112215133Y-96860396D01*
X112213163Y-96893175D01*
G37*
X112213163Y-96893175D02*
X112210235Y-96916095D01*
X112206158Y-96931897D01*
X112200743Y-96943319D01*
X112193803Y-96953100D01*
X112170406Y-96982845D01*
X112004714Y-96982251D01*
X111969918Y-96981953D01*
X111871435Y-96978522D01*
X111790473Y-96970839D01*
X111723379Y-96958282D01*
X111666496Y-96940227D01*
X111616169Y-96916052D01*
X111612810Y-96914135D01*
X111554998Y-96877417D01*
X111512644Y-96840451D01*
X111479828Y-96796966D01*
X111450628Y-96740689D01*
X111446346Y-96731073D01*
X111423769Y-96667887D01*
X111418034Y-96622333D01*
X111567279Y-96622333D01*
X111572892Y-96647061D01*
X111578618Y-96662939D01*
X111611548Y-96722847D01*
X111658886Y-96768600D01*
X111722652Y-96801736D01*
X111804861Y-96823790D01*
X111807655Y-96824292D01*
X111853940Y-96830255D01*
X111910336Y-96834483D01*
X111965274Y-96836089D01*
X112059156Y-96836089D01*
X112059156Y-96395822D01*
X111971667Y-96396270D01*
X111904747Y-96398746D01*
X111812349Y-96409998D01*
X111733034Y-96429537D01*
X111671060Y-96456511D01*
X111640120Y-96477240D01*
X111612000Y-96507006D01*
X111588660Y-96549434D01*
X111581533Y-96565400D01*
X111569709Y-96597902D01*
X111567279Y-96622333D01*
X111418034Y-96622333D01*
X111416797Y-96612509D01*
X111425399Y-96557483D01*
X111449541Y-96495351D01*
X111450337Y-96493658D01*
X111490788Y-96424236D01*
X111541473Y-96367638D01*
X111604198Y-96323070D01*
X111680774Y-96289741D01*
X111773009Y-96266861D01*
X111882712Y-96253636D01*
X112011691Y-96249275D01*
X112015263Y-96249270D01*
X112075283Y-96249410D01*
X112117214Y-96250446D01*
X112145328Y-96253040D01*
X112163897Y-96257853D01*
X112177194Y-96265544D01*
X112189491Y-96276776D01*
X112217200Y-96304485D01*
X112217200Y-96613920D01*
X112217175Y-96675526D01*
X112216950Y-96754311D01*
X112216332Y-96815021D01*
X112215775Y-96836089D01*
X112215133Y-96860396D01*
X112213163Y-96893175D01*
G36*
X113018711Y-91942033D02*
G01*
X113114268Y-91959523D01*
X113278558Y-92004564D01*
X113432589Y-92067656D01*
X113578509Y-92149915D01*
X113718466Y-92252457D01*
X113854608Y-92376399D01*
X113898473Y-92421661D01*
X114010758Y-92553865D01*
X114103972Y-92691832D01*
X114180719Y-92839750D01*
X114243603Y-93001803D01*
X114247420Y-93013391D01*
X114297507Y-93199392D01*
X114330899Y-93395521D01*
X114347584Y-93597568D01*
X114347551Y-93801325D01*
X114330791Y-94002581D01*
X114297292Y-94197128D01*
X114247044Y-94380756D01*
X114203190Y-94498053D01*
X114125348Y-94660951D01*
X114031828Y-94814866D01*
X113924822Y-94956671D01*
X113806519Y-95083239D01*
X113679111Y-95191441D01*
X113601606Y-95244120D01*
X113474725Y-95313750D01*
X113337243Y-95372468D01*
X113195716Y-95417587D01*
X113056702Y-95446422D01*
X113042597Y-95448106D01*
X112999153Y-95451434D01*
X112941723Y-95454275D01*
X112876122Y-95456373D01*
X112808167Y-95457468D01*
X112681378Y-95455140D01*
X112533673Y-95442136D01*
X112395779Y-95417133D01*
X112262014Y-95379318D01*
X112238562Y-95370889D01*
X112190612Y-95351408D01*
X112134140Y-95326473D01*
X112072379Y-95297722D01*
X112008563Y-95266790D01*
X111945926Y-95235315D01*
X111887703Y-95204934D01*
X111837127Y-95177283D01*
X111797433Y-95153999D01*
X111771854Y-95136718D01*
X111763625Y-95127079D01*
X111765076Y-95123984D01*
X111776250Y-95104079D01*
X111797134Y-95068420D01*
X111826265Y-95019459D01*
X111862181Y-94959646D01*
X111903420Y-94891433D01*
X111948517Y-94817271D01*
X112129785Y-94520008D01*
X112176315Y-94564539D01*
X112267723Y-94642865D01*
X112381334Y-94717439D01*
X112499122Y-94771474D01*
X112619559Y-94804290D01*
X112741117Y-94815211D01*
X112782585Y-94813868D01*
X112900080Y-94795612D01*
X113010089Y-94756617D01*
X113111430Y-94697670D01*
X113202921Y-94619557D01*
X113283380Y-94523064D01*
X113351627Y-94408978D01*
X113367908Y-94374724D01*
X113413982Y-94251240D01*
X113449106Y-94112918D01*
X113473197Y-93963561D01*
X113486173Y-93806973D01*
X113487949Y-93646956D01*
X113478443Y-93487314D01*
X113457572Y-93331850D01*
X113425252Y-93184366D01*
X113381399Y-93048667D01*
X113343982Y-92962076D01*
X113279185Y-92848688D01*
X113203772Y-92755070D01*
X113117418Y-92680959D01*
X113019795Y-92626094D01*
X112910577Y-92590212D01*
X112789439Y-92573051D01*
X112720038Y-92571880D01*
X112597168Y-92586141D01*
X112481664Y-92621241D01*
X112374953Y-92676682D01*
X112278464Y-92751964D01*
X112262720Y-92766440D01*
X112232150Y-92792962D01*
X112209809Y-92810138D01*
X112199691Y-92814787D01*
X112197706Y-92812597D01*
X112183241Y-92793721D01*
X112159400Y-92760397D01*
X112128029Y-92715380D01*
X112090974Y-92661425D01*
X112050083Y-92601285D01*
X112007202Y-92537718D01*
X111964178Y-92473476D01*
X111922857Y-92411315D01*
X111885086Y-92353991D01*
X111852712Y-92304257D01*
X111827582Y-92264868D01*
X111811542Y-92238580D01*
X111806439Y-92228147D01*
X111811050Y-92223941D01*
X111830267Y-92218933D01*
X111839838Y-92216386D01*
X111867809Y-92205249D01*
X111909448Y-92186802D01*
X111960995Y-92162725D01*
X112018690Y-92134699D01*
X112029957Y-92129154D01*
X112207687Y-92049889D01*
X112377490Y-91990385D01*
X112541430Y-91950245D01*
X112701571Y-91929071D01*
X112859977Y-91926466D01*
X113018711Y-91942033D01*
G37*
X113018711Y-91942033D02*
X113114268Y-91959523D01*
X113278558Y-92004564D01*
X113432589Y-92067656D01*
X113578509Y-92149915D01*
X113718466Y-92252457D01*
X113854608Y-92376399D01*
X113898473Y-92421661D01*
X114010758Y-92553865D01*
X114103972Y-92691832D01*
X114180719Y-92839750D01*
X114243603Y-93001803D01*
X114247420Y-93013391D01*
X114297507Y-93199392D01*
X114330899Y-93395521D01*
X114347584Y-93597568D01*
X114347551Y-93801325D01*
X114330791Y-94002581D01*
X114297292Y-94197128D01*
X114247044Y-94380756D01*
X114203190Y-94498053D01*
X114125348Y-94660951D01*
X114031828Y-94814866D01*
X113924822Y-94956671D01*
X113806519Y-95083239D01*
X113679111Y-95191441D01*
X113601606Y-95244120D01*
X113474725Y-95313750D01*
X113337243Y-95372468D01*
X113195716Y-95417587D01*
X113056702Y-95446422D01*
X113042597Y-95448106D01*
X112999153Y-95451434D01*
X112941723Y-95454275D01*
X112876122Y-95456373D01*
X112808167Y-95457468D01*
X112681378Y-95455140D01*
X112533673Y-95442136D01*
X112395779Y-95417133D01*
X112262014Y-95379318D01*
X112238562Y-95370889D01*
X112190612Y-95351408D01*
X112134140Y-95326473D01*
X112072379Y-95297722D01*
X112008563Y-95266790D01*
X111945926Y-95235315D01*
X111887703Y-95204934D01*
X111837127Y-95177283D01*
X111797433Y-95153999D01*
X111771854Y-95136718D01*
X111763625Y-95127079D01*
X111765076Y-95123984D01*
X111776250Y-95104079D01*
X111797134Y-95068420D01*
X111826265Y-95019459D01*
X111862181Y-94959646D01*
X111903420Y-94891433D01*
X111948517Y-94817271D01*
X112129785Y-94520008D01*
X112176315Y-94564539D01*
X112267723Y-94642865D01*
X112381334Y-94717439D01*
X112499122Y-94771474D01*
X112619559Y-94804290D01*
X112741117Y-94815211D01*
X112782585Y-94813868D01*
X112900080Y-94795612D01*
X113010089Y-94756617D01*
X113111430Y-94697670D01*
X113202921Y-94619557D01*
X113283380Y-94523064D01*
X113351627Y-94408978D01*
X113367908Y-94374724D01*
X113413982Y-94251240D01*
X113449106Y-94112918D01*
X113473197Y-93963561D01*
X113486173Y-93806973D01*
X113487949Y-93646956D01*
X113478443Y-93487314D01*
X113457572Y-93331850D01*
X113425252Y-93184366D01*
X113381399Y-93048667D01*
X113343982Y-92962076D01*
X113279185Y-92848688D01*
X113203772Y-92755070D01*
X113117418Y-92680959D01*
X113019795Y-92626094D01*
X112910577Y-92590212D01*
X112789439Y-92573051D01*
X112720038Y-92571880D01*
X112597168Y-92586141D01*
X112481664Y-92621241D01*
X112374953Y-92676682D01*
X112278464Y-92751964D01*
X112262720Y-92766440D01*
X112232150Y-92792962D01*
X112209809Y-92810138D01*
X112199691Y-92814787D01*
X112197706Y-92812597D01*
X112183241Y-92793721D01*
X112159400Y-92760397D01*
X112128029Y-92715380D01*
X112090974Y-92661425D01*
X112050083Y-92601285D01*
X112007202Y-92537718D01*
X111964178Y-92473476D01*
X111922857Y-92411315D01*
X111885086Y-92353991D01*
X111852712Y-92304257D01*
X111827582Y-92264868D01*
X111811542Y-92238580D01*
X111806439Y-92228147D01*
X111811050Y-92223941D01*
X111830267Y-92218933D01*
X111839838Y-92216386D01*
X111867809Y-92205249D01*
X111909448Y-92186802D01*
X111960995Y-92162725D01*
X112018690Y-92134699D01*
X112029957Y-92129154D01*
X112207687Y-92049889D01*
X112377490Y-91990385D01*
X112541430Y-91950245D01*
X112701571Y-91929071D01*
X112859977Y-91926466D01*
X113018711Y-91942033D01*
G36*
X116016137Y-96253463D02*
G01*
X116050291Y-96276776D01*
X116078000Y-96304485D01*
X116078000Y-96617537D01*
X116077959Y-96701567D01*
X116077701Y-96775789D01*
X116077030Y-96832541D01*
X116075752Y-96874512D01*
X116073673Y-96904389D01*
X116070599Y-96924861D01*
X116066334Y-96938614D01*
X116060684Y-96948337D01*
X116053455Y-96956717D01*
X116021991Y-96978181D01*
X115986826Y-96979947D01*
X115953822Y-96960267D01*
X115948516Y-96954398D01*
X115943066Y-96945314D01*
X115938900Y-96931973D01*
X115935846Y-96911757D01*
X115933732Y-96882049D01*
X115932386Y-96840232D01*
X115931638Y-96783689D01*
X115931314Y-96709802D01*
X115931245Y-96615956D01*
X115931284Y-96540294D01*
X115931539Y-96462385D01*
X115932183Y-96402375D01*
X115933387Y-96357648D01*
X115935324Y-96325585D01*
X115938164Y-96303571D01*
X115942079Y-96288987D01*
X115947242Y-96279218D01*
X115953822Y-96271645D01*
X115983006Y-96252623D01*
X116016137Y-96253463D01*
G37*
X116016137Y-96253463D02*
X116050291Y-96276776D01*
X116078000Y-96304485D01*
X116078000Y-96617537D01*
X116077959Y-96701567D01*
X116077701Y-96775789D01*
X116077030Y-96832541D01*
X116075752Y-96874512D01*
X116073673Y-96904389D01*
X116070599Y-96924861D01*
X116066334Y-96938614D01*
X116060684Y-96948337D01*
X116053455Y-96956717D01*
X116021991Y-96978181D01*
X115986826Y-96979947D01*
X115953822Y-96960267D01*
X115948516Y-96954398D01*
X115943066Y-96945314D01*
X115938900Y-96931973D01*
X115935846Y-96911757D01*
X115933732Y-96882049D01*
X115932386Y-96840232D01*
X115931638Y-96783689D01*
X115931314Y-96709802D01*
X115931245Y-96615956D01*
X115931284Y-96540294D01*
X115931539Y-96462385D01*
X115932183Y-96402375D01*
X115933387Y-96357648D01*
X115935324Y-96325585D01*
X115938164Y-96303571D01*
X115942079Y-96288987D01*
X115947242Y-96279218D01*
X115953822Y-96271645D01*
X115983006Y-96252623D01*
X116016137Y-96253463D01*
G36*
X111757261Y-94657363D02*
G01*
X111753632Y-94732202D01*
X111746022Y-94794401D01*
X111733688Y-94850984D01*
X111689313Y-94977076D01*
X111626400Y-95091679D01*
X111546238Y-95192568D01*
X111449740Y-95278924D01*
X111337822Y-95349932D01*
X111211397Y-95404776D01*
X111071378Y-95442638D01*
X111035149Y-95448351D01*
X110956155Y-95454313D01*
X110867841Y-95454646D01*
X110778075Y-95449659D01*
X110694722Y-95439666D01*
X110625651Y-95424978D01*
X110539187Y-95394749D01*
X110429286Y-95340057D01*
X110331956Y-95272543D01*
X110269867Y-95221556D01*
X110266605Y-95317622D01*
X110263343Y-95413689D01*
X109840450Y-95413689D01*
X109829543Y-95413686D01*
X109735056Y-95413380D01*
X109648331Y-95412616D01*
X109571837Y-95411451D01*
X109508043Y-95409942D01*
X109459418Y-95408147D01*
X109428433Y-95406121D01*
X109417556Y-95403922D01*
X109417578Y-95403463D01*
X109424614Y-95387910D01*
X109440434Y-95365071D01*
X109444734Y-95359638D01*
X109455777Y-95345606D01*
X109465311Y-95332186D01*
X109473461Y-95317722D01*
X109480352Y-95300556D01*
X109486111Y-95279034D01*
X109490862Y-95251498D01*
X109494731Y-95216292D01*
X109497844Y-95171760D01*
X109500325Y-95116246D01*
X109502300Y-95048093D01*
X109503894Y-94965645D01*
X109505234Y-94867246D01*
X109506444Y-94751239D01*
X109506896Y-94700462D01*
X110309378Y-94700462D01*
X110354048Y-94756973D01*
X110366785Y-94772212D01*
X110413604Y-94814844D01*
X110474255Y-94850672D01*
X110484897Y-94855850D01*
X110523676Y-94872745D01*
X110558692Y-94882909D01*
X110598722Y-94888325D01*
X110652541Y-94890978D01*
X110670648Y-94891383D01*
X110746011Y-94888540D01*
X110806743Y-94876620D01*
X110858452Y-94854037D01*
X110906746Y-94819211D01*
X110911803Y-94814798D01*
X110960272Y-94759160D01*
X110988459Y-94695333D01*
X110997752Y-94620282D01*
X110990520Y-94548693D01*
X110965796Y-94485645D01*
X110921249Y-94427758D01*
X110866319Y-94380808D01*
X110793894Y-94340961D01*
X110707340Y-94313263D01*
X110604670Y-94297096D01*
X110483894Y-94291842D01*
X110475007Y-94291857D01*
X110419660Y-94292655D01*
X110372736Y-94294488D01*
X110338953Y-94297111D01*
X110323028Y-94300274D01*
X110318943Y-94306741D01*
X110314572Y-94328875D01*
X110311604Y-94367988D01*
X110309914Y-94425939D01*
X110309378Y-94504586D01*
X110309378Y-94700462D01*
X109506896Y-94700462D01*
X109507649Y-94615968D01*
X109508975Y-94459778D01*
X109510228Y-94317012D01*
X109511651Y-94171942D01*
X109513176Y-94046027D01*
X109514933Y-93937436D01*
X109517051Y-93844334D01*
X109519660Y-93764891D01*
X109522890Y-93697273D01*
X109526869Y-93639649D01*
X109531728Y-93590185D01*
X109537597Y-93547050D01*
X109544604Y-93508410D01*
X109552880Y-93472434D01*
X109562554Y-93437289D01*
X109573756Y-93401142D01*
X109586616Y-93362161D01*
X109602090Y-93319091D01*
X109644994Y-93226871D01*
X109698735Y-93147099D01*
X109767576Y-93072965D01*
X109845185Y-93009405D01*
X109949761Y-92947725D01*
X110069244Y-92900202D01*
X110204508Y-92866567D01*
X110356426Y-92846552D01*
X110525872Y-92839889D01*
X110583890Y-92840287D01*
X110649398Y-92842335D01*
X110710693Y-92846704D01*
X110772097Y-92854035D01*
X110837932Y-92864969D01*
X110912520Y-92880147D01*
X111000184Y-92900209D01*
X111105245Y-92925797D01*
X111133806Y-92932820D01*
X111209054Y-92950776D01*
X111279388Y-92966820D01*
X111340567Y-92980028D01*
X111388354Y-92989474D01*
X111418511Y-92994231D01*
X111446783Y-92997910D01*
X111473060Y-93003187D01*
X111483059Y-93007942D01*
X111479952Y-93016781D01*
X111469194Y-93044072D01*
X111451864Y-93086906D01*
X111429126Y-93142425D01*
X111402147Y-93207772D01*
X111372090Y-93280089D01*
X111365493Y-93295879D01*
X111326907Y-93386484D01*
X111295768Y-93456217D01*
X111271917Y-93505405D01*
X111255198Y-93534374D01*
X111245454Y-93543452D01*
X111237766Y-93541405D01*
X111211415Y-93531760D01*
X111172982Y-93516190D01*
X111127822Y-93496815D01*
X111033293Y-93458814D01*
X110896480Y-93417780D01*
X110755289Y-93392612D01*
X110717314Y-93388611D01*
X110614059Y-93386447D01*
X110526952Y-93399622D01*
X110455129Y-93428756D01*
X110397731Y-93474466D01*
X110353896Y-93537372D01*
X110322762Y-93618092D01*
X110303470Y-93717245D01*
X110296050Y-93776224D01*
X110457936Y-93769445D01*
X110584495Y-93767813D01*
X110735951Y-93774194D01*
X110884396Y-93788777D01*
X111020578Y-93810882D01*
X111085245Y-93825821D01*
X111217490Y-93868741D01*
X111339762Y-93925340D01*
X111449685Y-93994017D01*
X111544883Y-94073170D01*
X111622980Y-94161196D01*
X111681599Y-94256493D01*
X111705595Y-94308864D01*
X111731232Y-94379590D01*
X111747478Y-94450812D01*
X111755822Y-94529712D01*
X111757690Y-94620282D01*
X111757755Y-94623467D01*
X111757261Y-94657363D01*
G37*
X111757261Y-94657363D02*
X111753632Y-94732202D01*
X111746022Y-94794401D01*
X111733688Y-94850984D01*
X111689313Y-94977076D01*
X111626400Y-95091679D01*
X111546238Y-95192568D01*
X111449740Y-95278924D01*
X111337822Y-95349932D01*
X111211397Y-95404776D01*
X111071378Y-95442638D01*
X111035149Y-95448351D01*
X110956155Y-95454313D01*
X110867841Y-95454646D01*
X110778075Y-95449659D01*
X110694722Y-95439666D01*
X110625651Y-95424978D01*
X110539187Y-95394749D01*
X110429286Y-95340057D01*
X110331956Y-95272543D01*
X110269867Y-95221556D01*
X110266605Y-95317622D01*
X110263343Y-95413689D01*
X109840450Y-95413689D01*
X109829543Y-95413686D01*
X109735056Y-95413380D01*
X109648331Y-95412616D01*
X109571837Y-95411451D01*
X109508043Y-95409942D01*
X109459418Y-95408147D01*
X109428433Y-95406121D01*
X109417556Y-95403922D01*
X109417578Y-95403463D01*
X109424614Y-95387910D01*
X109440434Y-95365071D01*
X109444734Y-95359638D01*
X109455777Y-95345606D01*
X109465311Y-95332186D01*
X109473461Y-95317722D01*
X109480352Y-95300556D01*
X109486111Y-95279034D01*
X109490862Y-95251498D01*
X109494731Y-95216292D01*
X109497844Y-95171760D01*
X109500325Y-95116246D01*
X109502300Y-95048093D01*
X109503894Y-94965645D01*
X109505234Y-94867246D01*
X109506444Y-94751239D01*
X109506896Y-94700462D01*
X110309378Y-94700462D01*
X110354048Y-94756973D01*
X110366785Y-94772212D01*
X110413604Y-94814844D01*
X110474255Y-94850672D01*
X110484897Y-94855850D01*
X110523676Y-94872745D01*
X110558692Y-94882909D01*
X110598722Y-94888325D01*
X110652541Y-94890978D01*
X110670648Y-94891383D01*
X110746011Y-94888540D01*
X110806743Y-94876620D01*
X110858452Y-94854037D01*
X110906746Y-94819211D01*
X110911803Y-94814798D01*
X110960272Y-94759160D01*
X110988459Y-94695333D01*
X110997752Y-94620282D01*
X110990520Y-94548693D01*
X110965796Y-94485645D01*
X110921249Y-94427758D01*
X110866319Y-94380808D01*
X110793894Y-94340961D01*
X110707340Y-94313263D01*
X110604670Y-94297096D01*
X110483894Y-94291842D01*
X110475007Y-94291857D01*
X110419660Y-94292655D01*
X110372736Y-94294488D01*
X110338953Y-94297111D01*
X110323028Y-94300274D01*
X110318943Y-94306741D01*
X110314572Y-94328875D01*
X110311604Y-94367988D01*
X110309914Y-94425939D01*
X110309378Y-94504586D01*
X110309378Y-94700462D01*
X109506896Y-94700462D01*
X109507649Y-94615968D01*
X109508975Y-94459778D01*
X109510228Y-94317012D01*
X109511651Y-94171942D01*
X109513176Y-94046027D01*
X109514933Y-93937436D01*
X109517051Y-93844334D01*
X109519660Y-93764891D01*
X109522890Y-93697273D01*
X109526869Y-93639649D01*
X109531728Y-93590185D01*
X109537597Y-93547050D01*
X109544604Y-93508410D01*
X109552880Y-93472434D01*
X109562554Y-93437289D01*
X109573756Y-93401142D01*
X109586616Y-93362161D01*
X109602090Y-93319091D01*
X109644994Y-93226871D01*
X109698735Y-93147099D01*
X109767576Y-93072965D01*
X109845185Y-93009405D01*
X109949761Y-92947725D01*
X110069244Y-92900202D01*
X110204508Y-92866567D01*
X110356426Y-92846552D01*
X110525872Y-92839889D01*
X110583890Y-92840287D01*
X110649398Y-92842335D01*
X110710693Y-92846704D01*
X110772097Y-92854035D01*
X110837932Y-92864969D01*
X110912520Y-92880147D01*
X111000184Y-92900209D01*
X111105245Y-92925797D01*
X111133806Y-92932820D01*
X111209054Y-92950776D01*
X111279388Y-92966820D01*
X111340567Y-92980028D01*
X111388354Y-92989474D01*
X111418511Y-92994231D01*
X111446783Y-92997910D01*
X111473060Y-93003187D01*
X111483059Y-93007942D01*
X111479952Y-93016781D01*
X111469194Y-93044072D01*
X111451864Y-93086906D01*
X111429126Y-93142425D01*
X111402147Y-93207772D01*
X111372090Y-93280089D01*
X111365493Y-93295879D01*
X111326907Y-93386484D01*
X111295768Y-93456217D01*
X111271917Y-93505405D01*
X111255198Y-93534374D01*
X111245454Y-93543452D01*
X111237766Y-93541405D01*
X111211415Y-93531760D01*
X111172982Y-93516190D01*
X111127822Y-93496815D01*
X111033293Y-93458814D01*
X110896480Y-93417780D01*
X110755289Y-93392612D01*
X110717314Y-93388611D01*
X110614059Y-93386447D01*
X110526952Y-93399622D01*
X110455129Y-93428756D01*
X110397731Y-93474466D01*
X110353896Y-93537372D01*
X110322762Y-93618092D01*
X110303470Y-93717245D01*
X110296050Y-93776224D01*
X110457936Y-93769445D01*
X110584495Y-93767813D01*
X110735951Y-93774194D01*
X110884396Y-93788777D01*
X111020578Y-93810882D01*
X111085245Y-93825821D01*
X111217490Y-93868741D01*
X111339762Y-93925340D01*
X111449685Y-93994017D01*
X111544883Y-94073170D01*
X111622980Y-94161196D01*
X111681599Y-94256493D01*
X111705595Y-94308864D01*
X111731232Y-94379590D01*
X111747478Y-94450812D01*
X111755822Y-94529712D01*
X111757690Y-94620282D01*
X111757755Y-94623467D01*
X111757261Y-94657363D01*
G36*
X116870853Y-96249936D02*
G01*
X116937100Y-96255366D01*
X116992400Y-96264964D01*
X117043283Y-96279825D01*
X117114595Y-96312958D01*
X117165752Y-96355640D01*
X117196575Y-96407705D01*
X117206889Y-96468983D01*
X117205952Y-96500232D01*
X117200160Y-96525029D01*
X117185353Y-96546699D01*
X117157380Y-96574049D01*
X117149402Y-96581378D01*
X117125692Y-96602281D01*
X117103298Y-96619251D01*
X117079265Y-96633205D01*
X117050637Y-96645056D01*
X117014460Y-96655720D01*
X116967780Y-96666111D01*
X116907641Y-96677146D01*
X116831090Y-96689738D01*
X116735171Y-96704804D01*
X116716808Y-96707838D01*
X116654478Y-96721458D01*
X116609260Y-96737192D01*
X116582976Y-96754263D01*
X116577447Y-96771897D01*
X116580068Y-96776168D01*
X116598000Y-96791233D01*
X116626126Y-96807867D01*
X116638926Y-96813857D01*
X116660224Y-96821050D01*
X116686610Y-96825827D01*
X116722454Y-96828646D01*
X116772128Y-96829964D01*
X116840000Y-96830237D01*
X116857785Y-96830164D01*
X116925406Y-96829053D01*
X116990345Y-96826828D01*
X117045970Y-96823762D01*
X117085651Y-96820127D01*
X117121162Y-96816059D01*
X117150415Y-96815276D01*
X117169315Y-96819876D01*
X117184429Y-96830551D01*
X117188085Y-96834144D01*
X117204427Y-96865918D01*
X117203107Y-96901572D01*
X117184150Y-96932190D01*
X117163780Y-96943796D01*
X117127796Y-96956491D01*
X117085372Y-96966541D01*
X117081922Y-96967140D01*
X117039252Y-96972356D01*
X116981866Y-96976730D01*
X116916849Y-96979818D01*
X116851289Y-96981177D01*
X116835057Y-96981218D01*
X116736744Y-96978741D01*
X116656692Y-96970735D01*
X116591513Y-96956203D01*
X116537817Y-96934149D01*
X116492216Y-96903576D01*
X116451323Y-96863486D01*
X116431202Y-96837259D01*
X116419576Y-96807712D01*
X116416667Y-96767995D01*
X116416808Y-96756026D01*
X116420681Y-96723345D01*
X116433065Y-96696819D01*
X116458230Y-96665971D01*
X116479442Y-96643831D01*
X116505838Y-96621285D01*
X116535555Y-96602917D01*
X116571785Y-96587661D01*
X116617717Y-96574449D01*
X116676544Y-96562214D01*
X116751456Y-96549889D01*
X116845645Y-96536406D01*
X116890957Y-96529396D01*
X116958911Y-96514837D01*
X117008047Y-96498337D01*
X117037614Y-96480439D01*
X117046864Y-96461685D01*
X117035048Y-96442615D01*
X117001416Y-96423771D01*
X116998370Y-96422557D01*
X116952011Y-96410479D01*
X116889361Y-96402279D01*
X116815927Y-96398119D01*
X116737217Y-96398161D01*
X116658739Y-96402569D01*
X116586000Y-96411505D01*
X116582073Y-96412154D01*
X116533257Y-96419861D01*
X116501005Y-96423473D01*
X116480008Y-96422876D01*
X116464954Y-96417954D01*
X116450534Y-96408596D01*
X116449364Y-96407725D01*
X116424847Y-96377351D01*
X116420054Y-96341850D01*
X116435860Y-96307269D01*
X116440406Y-96302813D01*
X116470020Y-96287673D01*
X116517002Y-96274550D01*
X116577306Y-96263750D01*
X116646888Y-96255581D01*
X116721703Y-96250351D01*
X116797706Y-96248367D01*
X116870853Y-96249936D01*
G37*
X116870853Y-96249936D02*
X116937100Y-96255366D01*
X116992400Y-96264964D01*
X117043283Y-96279825D01*
X117114595Y-96312958D01*
X117165752Y-96355640D01*
X117196575Y-96407705D01*
X117206889Y-96468983D01*
X117205952Y-96500232D01*
X117200160Y-96525029D01*
X117185353Y-96546699D01*
X117157380Y-96574049D01*
X117149402Y-96581378D01*
X117125692Y-96602281D01*
X117103298Y-96619251D01*
X117079265Y-96633205D01*
X117050637Y-96645056D01*
X117014460Y-96655720D01*
X116967780Y-96666111D01*
X116907641Y-96677146D01*
X116831090Y-96689738D01*
X116735171Y-96704804D01*
X116716808Y-96707838D01*
X116654478Y-96721458D01*
X116609260Y-96737192D01*
X116582976Y-96754263D01*
X116577447Y-96771897D01*
X116580068Y-96776168D01*
X116598000Y-96791233D01*
X116626126Y-96807867D01*
X116638926Y-96813857D01*
X116660224Y-96821050D01*
X116686610Y-96825827D01*
X116722454Y-96828646D01*
X116772128Y-96829964D01*
X116840000Y-96830237D01*
X116857785Y-96830164D01*
X116925406Y-96829053D01*
X116990345Y-96826828D01*
X117045970Y-96823762D01*
X117085651Y-96820127D01*
X117121162Y-96816059D01*
X117150415Y-96815276D01*
X117169315Y-96819876D01*
X117184429Y-96830551D01*
X117188085Y-96834144D01*
X117204427Y-96865918D01*
X117203107Y-96901572D01*
X117184150Y-96932190D01*
X117163780Y-96943796D01*
X117127796Y-96956491D01*
X117085372Y-96966541D01*
X117081922Y-96967140D01*
X117039252Y-96972356D01*
X116981866Y-96976730D01*
X116916849Y-96979818D01*
X116851289Y-96981177D01*
X116835057Y-96981218D01*
X116736744Y-96978741D01*
X116656692Y-96970735D01*
X116591513Y-96956203D01*
X116537817Y-96934149D01*
X116492216Y-96903576D01*
X116451323Y-96863486D01*
X116431202Y-96837259D01*
X116419576Y-96807712D01*
X116416667Y-96767995D01*
X116416808Y-96756026D01*
X116420681Y-96723345D01*
X116433065Y-96696819D01*
X116458230Y-96665971D01*
X116479442Y-96643831D01*
X116505838Y-96621285D01*
X116535555Y-96602917D01*
X116571785Y-96587661D01*
X116617717Y-96574449D01*
X116676544Y-96562214D01*
X116751456Y-96549889D01*
X116845645Y-96536406D01*
X116890957Y-96529396D01*
X116958911Y-96514837D01*
X117008047Y-96498337D01*
X117037614Y-96480439D01*
X117046864Y-96461685D01*
X117035048Y-96442615D01*
X117001416Y-96423771D01*
X116998370Y-96422557D01*
X116952011Y-96410479D01*
X116889361Y-96402279D01*
X116815927Y-96398119D01*
X116737217Y-96398161D01*
X116658739Y-96402569D01*
X116586000Y-96411505D01*
X116582073Y-96412154D01*
X116533257Y-96419861D01*
X116501005Y-96423473D01*
X116480008Y-96422876D01*
X116464954Y-96417954D01*
X116450534Y-96408596D01*
X116449364Y-96407725D01*
X116424847Y-96377351D01*
X116420054Y-96341850D01*
X116435860Y-96307269D01*
X116440406Y-96302813D01*
X116470020Y-96287673D01*
X116517002Y-96274550D01*
X116577306Y-96263750D01*
X116646888Y-96255581D01*
X116721703Y-96250351D01*
X116797706Y-96248367D01*
X116870853Y-96249936D01*
D14*
X173455000Y-102608748D02*
X173455000Y-103131252D01*
X171985000Y-102608748D02*
X171985000Y-103131252D01*
X161825000Y-102608748D02*
X161825000Y-103131252D01*
X163295000Y-102608748D02*
X163295000Y-103131252D01*
X189520000Y-98160000D02*
X195520000Y-98160000D01*
X195520000Y-97400000D02*
X189520000Y-97400000D01*
X184150000Y-104130000D02*
X185420000Y-104130000D01*
X186860000Y-93910000D02*
X189520000Y-93910000D01*
X189520000Y-103240000D02*
X195520000Y-103240000D01*
X195520000Y-99940000D02*
X189520000Y-99940000D01*
X186860000Y-96510000D02*
X189520000Y-96510000D01*
X186860000Y-99050000D02*
X189520000Y-99050000D01*
X189520000Y-102700000D02*
X195520000Y-102700000D01*
X186462929Y-94860000D02*
X186860000Y-94860000D01*
X184150000Y-102860000D02*
X184150000Y-104130000D01*
X186462929Y-97400000D02*
X186860000Y-97400000D01*
X186530000Y-102480000D02*
X186860000Y-102480000D01*
X186462929Y-100700000D02*
X186860000Y-100700000D01*
X186462929Y-99940000D02*
X186860000Y-99940000D01*
X195520000Y-103240000D02*
X195520000Y-102480000D01*
X195520000Y-100700000D02*
X195520000Y-99940000D01*
X195520000Y-94860000D02*
X189520000Y-94860000D01*
X189520000Y-104190000D02*
X186860000Y-104190000D01*
X189520000Y-103060000D02*
X195520000Y-103060000D01*
X186860000Y-101590000D02*
X189520000Y-101590000D01*
X195520000Y-95620000D02*
X195520000Y-94860000D01*
X186462929Y-95620000D02*
X186860000Y-95620000D01*
X189520000Y-103180000D02*
X195520000Y-103180000D01*
X186860000Y-104190000D02*
X186860000Y-93910000D01*
X189520000Y-93910000D02*
X189520000Y-104190000D01*
X189520000Y-100700000D02*
X195520000Y-100700000D01*
X189520000Y-102940000D02*
X195520000Y-102940000D01*
X186530000Y-103240000D02*
X186860000Y-103240000D01*
X189520000Y-102820000D02*
X195520000Y-102820000D01*
X195520000Y-102480000D02*
X189520000Y-102480000D01*
X186462929Y-98160000D02*
X186860000Y-98160000D01*
X189520000Y-95620000D02*
X195520000Y-95620000D01*
X195520000Y-98160000D02*
X195520000Y-97400000D01*
X189520000Y-102580000D02*
X195520000Y-102580000D01*
X154205000Y-95022936D02*
X154205000Y-95477064D01*
X155675000Y-95022936D02*
X155675000Y-95477064D01*
X163295000Y-95022936D02*
X163295000Y-95477064D01*
X161825000Y-95022936D02*
X161825000Y-95477064D01*
X134800000Y-104060000D02*
X134800000Y-99060000D01*
X121740000Y-102060000D02*
X121740000Y-96060000D01*
X146785000Y-102608748D02*
X146785000Y-103131252D01*
X145315000Y-102608748D02*
X145315000Y-103131252D01*
X154205000Y-102608748D02*
X154205000Y-103131252D01*
X155675000Y-102608748D02*
X155675000Y-103131252D01*
X86350000Y-99950000D02*
X86350000Y-100710000D01*
X95407071Y-105030000D02*
X95010000Y-105030000D01*
X86350000Y-93090000D02*
X92350000Y-93090000D01*
X92350000Y-92510000D02*
X86350000Y-92510000D01*
X95407071Y-103250000D02*
X95010000Y-103250000D01*
X92350000Y-102490000D02*
X86350000Y-102490000D01*
X86350000Y-102490000D02*
X86350000Y-103250000D01*
X86350000Y-97410000D02*
X86350000Y-98170000D01*
X92350000Y-92990000D02*
X86350000Y-92990000D01*
X95407071Y-102490000D02*
X95010000Y-102490000D01*
X86350000Y-94870000D02*
X86350000Y-95630000D01*
X86350000Y-92330000D02*
X86350000Y-93090000D01*
X92350000Y-106740000D02*
X92350000Y-91380000D01*
X95340000Y-92330000D02*
X95010000Y-92330000D01*
X86350000Y-100710000D02*
X92350000Y-100710000D01*
X95340000Y-93090000D02*
X95010000Y-93090000D01*
X92350000Y-91380000D02*
X95010000Y-91380000D01*
X95010000Y-96520000D02*
X92350000Y-96520000D01*
X95010000Y-106740000D02*
X92350000Y-106740000D01*
X95407071Y-98170000D02*
X95010000Y-98170000D01*
X92350000Y-97410000D02*
X86350000Y-97410000D01*
X95407071Y-99950000D02*
X95010000Y-99950000D01*
X95407071Y-94870000D02*
X95010000Y-94870000D01*
X95407071Y-100710000D02*
X95010000Y-100710000D01*
X97720000Y-92710000D02*
X97720000Y-91440000D01*
X95010000Y-101600000D02*
X92350000Y-101600000D01*
X95010000Y-104140000D02*
X92350000Y-104140000D01*
X95407071Y-105790000D02*
X95010000Y-105790000D01*
X92350000Y-105030000D02*
X86350000Y-105030000D01*
X92350000Y-92630000D02*
X86350000Y-92630000D01*
X86350000Y-95630000D02*
X92350000Y-95630000D01*
X86350000Y-105030000D02*
X86350000Y-105790000D01*
X95010000Y-99060000D02*
X92350000Y-99060000D01*
X95407071Y-95630000D02*
X95010000Y-95630000D01*
X92350000Y-92390000D02*
X86350000Y-92390000D01*
X86350000Y-103250000D02*
X92350000Y-103250000D01*
X86350000Y-98170000D02*
X92350000Y-98170000D01*
X97720000Y-91440000D02*
X96450000Y-91440000D01*
X92350000Y-92330000D02*
X86350000Y-92330000D01*
X92350000Y-92750000D02*
X86350000Y-92750000D01*
X92350000Y-99950000D02*
X86350000Y-99950000D01*
X95407071Y-97410000D02*
X95010000Y-97410000D01*
X92350000Y-92870000D02*
X86350000Y-92870000D01*
X92350000Y-94870000D02*
X86350000Y-94870000D01*
X86350000Y-105790000D02*
X92350000Y-105790000D01*
X95010000Y-93980000D02*
X92350000Y-93980000D01*
X95010000Y-91380000D02*
X95010000Y-106740000D01*
M02*
