M48
; DRILL file {KiCad 7.0.9} date Sat May 18 22:09:06 2024
; FORMAT={-:-/ absolute / inch / decimal}
; #@! TF.CreationDate,2024-05-18T22:09:06+10:00
; #@! TF.GenerationSoftware,Kicad,Pcbnew,7.0.9
; #@! TF.FileFunction,Plated,1,2,PTH
FMAT,2
INCH
; #@! TA.AperFunction,Plated,PTH,ViaDrill
T1C0.0157
; #@! TA.AperFunction,Plated,PTH,ComponentDrill
T2C0.0276
; #@! TA.AperFunction,Plated,PTH,ComponentDrill
T3C0.0394
; #@! TA.AperFunction,Plated,PTH,ComponentDrill
T4C0.1378
%
G90
G05
T1
X4.1Y-3.9
X4.1Y-4.3
X4.289Y-3.6707
X4.8713Y-3.4714
X4.9158Y-4.3357
X5.0282Y-3.6445
X5.05Y-3.95
X5.2Y-3.4
X5.2001Y-3.6616
X5.2095Y-3.6214
X5.2167Y-3.8327
X5.8584Y-3.817
X5.9091Y-3.7675
X6.0243Y-3.4056
X6.0243Y-4.3476
X6.1Y-3.55
X6.1504Y-3.8496
X6.5Y-3.8
T2
X3.85Y-3.3
X3.85Y-4.5
X3.95Y-3.3
X3.95Y-4.5
X4.05Y-3.3
X4.05Y-4.5
X4.15Y-3.3
X4.15Y-4.5
X4.25Y-3.3
X4.25Y-4.5
X4.85Y-3.3
X4.85Y-4.5
X4.95Y-3.3
X4.95Y-4.5
X5.05Y-3.3
X5.05Y-4.5
X5.15Y-3.3
X5.15Y-4.5
X5.25Y-3.3
X5.25Y-4.5
X5.85Y-3.3
X5.85Y-4.5
X5.95Y-3.3
X5.95Y-4.5
X6.05Y-3.3
X6.05Y-4.5
X6.15Y-3.3
X6.15Y-4.5
X6.25Y-3.3
X6.25Y-4.5
X6.85Y-3.3
X6.85Y-4.5
X6.95Y-3.3
X6.95Y-4.5
X7.05Y-3.3
X7.05Y-4.5
X7.15Y-3.3
X7.15Y-4.5
X7.25Y-3.3
X7.25Y-4.5
T3
X3.7972Y-3.65
X3.7972Y-3.75
X3.7972Y-3.85
X3.7972Y-3.95
X3.7972Y-4.05
X3.7972Y-4.15
X7.3Y-3.7496
X7.3Y-3.8496
X7.3Y-3.9496
X7.3Y-4.0496
T4
X3.8Y-3.0
X3.8Y-4.8086
X7.3086Y-3.0
X7.3086Y-4.8086
T0
M30
