G04 #@! TF.GenerationSoftware,KiCad,Pcbnew,7.0.9*
G04 #@! TF.CreationDate,2024-05-18T22:09:02+10:00*
G04 #@! TF.ProjectId,inchdigits,696e6368-6469-4676-9974-732e6b696361,1*
G04 #@! TF.SameCoordinates,Original*
G04 #@! TF.FileFunction,Copper,L1,Top*
G04 #@! TF.FilePolarity,Positive*
%FSLAX46Y46*%
G04 Gerber Fmt 4.6, Leading zero omitted, Abs format (unit mm)*
G04 Created by KiCad (PCBNEW 7.0.9) date 2024-05-18 22:09:02*
%MOMM*%
%LPD*%
G01*
G04 APERTURE LIST*
G04 #@! TA.AperFunction,ComponentPad*
%ADD10R,1.100000X1.100000*%
G04 #@! TD*
G04 #@! TA.AperFunction,ComponentPad*
%ADD11C,1.100000*%
G04 #@! TD*
G04 #@! TA.AperFunction,ComponentPad*
%ADD12C,7.000000*%
G04 #@! TD*
G04 #@! TA.AperFunction,ComponentPad*
%ADD13R,1.700000X1.700000*%
G04 #@! TD*
G04 #@! TA.AperFunction,ComponentPad*
%ADD14O,1.700000X1.700000*%
G04 #@! TD*
G04 #@! TA.AperFunction,ViaPad*
%ADD15C,0.800000*%
G04 #@! TD*
G04 #@! TA.AperFunction,Conductor*
%ADD16C,0.250000*%
G04 #@! TD*
G04 #@! TA.AperFunction,Conductor*
%ADD17C,0.400000*%
G04 #@! TD*
G04 APERTURE END LIST*
D10*
X97790000Y-114300000D03*
D11*
X100330000Y-114300000D03*
X102870000Y-114300000D03*
X105410000Y-114300000D03*
X107950000Y-114300000D03*
X107950000Y-83820000D03*
X105410000Y-83820000D03*
X102870000Y-83820000D03*
X100330000Y-83820000D03*
X97790000Y-83820000D03*
D10*
X123190000Y-114300000D03*
D11*
X125730000Y-114300000D03*
X128270000Y-114300000D03*
X130810000Y-114300000D03*
X133350000Y-114300000D03*
X133350000Y-83820000D03*
X130810000Y-83820000D03*
X128270000Y-83820000D03*
X125730000Y-83820000D03*
X123190000Y-83820000D03*
D10*
X173990000Y-114300000D03*
D11*
X176530000Y-114300000D03*
X179070000Y-114300000D03*
X181610000Y-114300000D03*
X184150000Y-114300000D03*
X184150000Y-83820000D03*
X181610000Y-83820000D03*
X179070000Y-83820000D03*
X176530000Y-83820000D03*
X173990000Y-83820000D03*
D12*
X96520000Y-76200000D03*
X185637900Y-76200000D03*
X96520000Y-122137900D03*
X185637900Y-122137900D03*
D10*
X148590000Y-114300000D03*
D11*
X151130000Y-114300000D03*
X153670000Y-114300000D03*
X156210000Y-114300000D03*
X158750000Y-114300000D03*
X158750000Y-83820000D03*
X156210000Y-83820000D03*
X153670000Y-83820000D03*
X151130000Y-83820000D03*
X148590000Y-83820000D03*
D13*
X185420000Y-102860000D03*
D14*
X185420000Y-100320000D03*
X185420000Y-97780000D03*
X185420000Y-95240000D03*
D13*
X96450000Y-92710000D03*
D14*
X96450000Y-95250000D03*
X96450000Y-97790000D03*
X96450000Y-100330000D03*
X96450000Y-102870000D03*
X96450000Y-105410000D03*
D15*
X104140000Y-109220000D03*
X132080000Y-86360000D03*
X104140000Y-99060000D03*
X154940000Y-90170000D03*
X128270000Y-100330000D03*
X165100000Y-96520000D03*
X150090900Y-95694800D03*
X148804000Y-96950700D03*
X156220000Y-97780000D03*
X127716500Y-92570500D03*
X108941300Y-93235400D03*
X124861900Y-110127200D03*
X132503500Y-97349900D03*
X123731700Y-88173000D03*
X153017600Y-110428600D03*
X153017600Y-86502300D03*
X132320500Y-91982300D03*
X132081900Y-93005200D03*
D16*
X185420000Y-95240000D02*
X166380000Y-95240000D01*
X150916100Y-96520000D02*
X150090900Y-95694800D01*
X166380000Y-95240000D02*
X165100000Y-96520000D01*
X165100000Y-96520000D02*
X150916100Y-96520000D01*
X156200000Y-97780000D02*
X149633300Y-97780000D01*
X156200000Y-97780000D02*
X156220000Y-97780000D01*
X185420000Y-97780000D02*
X156220000Y-97780000D01*
X149633300Y-97780000D02*
X148804000Y-96950700D01*
X99540600Y-113424700D02*
X98665300Y-114300000D01*
X121439400Y-113424700D02*
X99540600Y-113424700D01*
X122314700Y-114300000D02*
X121439400Y-113424700D01*
X97790000Y-114300000D02*
X98665300Y-114300000D01*
X123190000Y-114300000D02*
X122314700Y-114300000D01*
X152486200Y-115656200D02*
X151130000Y-114300000D01*
X127068400Y-115638400D02*
X149791600Y-115638400D01*
X124391900Y-115638100D02*
X125730000Y-114300000D01*
X101668100Y-115638100D02*
X124391900Y-115638100D01*
X176530000Y-114300000D02*
X175173800Y-115656200D01*
X149791600Y-115638400D02*
X151130000Y-114300000D01*
X175173800Y-115656200D02*
X152486200Y-115656200D01*
X125730000Y-114300000D02*
X127068400Y-115638400D01*
X100330000Y-114300000D02*
X101668100Y-115638100D01*
D17*
X127051600Y-93235400D02*
X108941300Y-93235400D01*
X127716500Y-92570500D02*
X127051600Y-93235400D01*
D16*
X172668400Y-113424700D02*
X170905100Y-115188000D01*
X155315900Y-113405900D02*
X156210000Y-114300000D01*
X170905100Y-115188000D02*
X157098000Y-115188000D01*
X147317700Y-113405900D02*
X155315900Y-113405900D01*
X157098000Y-115188000D02*
X156210000Y-114300000D01*
X180734700Y-113424700D02*
X172668400Y-113424700D01*
X130810000Y-114300000D02*
X131685400Y-115175400D01*
X145548200Y-115175400D02*
X147317700Y-113405900D01*
X181610000Y-114300000D02*
X180734700Y-113424700D01*
X131685400Y-115175400D02*
X145548200Y-115175400D01*
X132447700Y-113397700D02*
X133350000Y-114300000D01*
X124797100Y-113928700D02*
X125328100Y-113397700D01*
X125328100Y-113397700D02*
X132447700Y-113397700D01*
X123922800Y-115187800D02*
X124797100Y-114313500D01*
X184150000Y-114300000D02*
X182805500Y-112955500D01*
X182805500Y-112955500D02*
X160094500Y-112955500D01*
X124861900Y-112931500D02*
X125328100Y-113397700D01*
X157405500Y-112955500D02*
X134694500Y-112955500D01*
X107950000Y-114300000D02*
X108837800Y-115187800D01*
X124861900Y-110127200D02*
X124861900Y-112931500D01*
X134694500Y-112955500D02*
X133350000Y-114300000D01*
X160094500Y-112955500D02*
X158750000Y-114300000D01*
X124797100Y-114313500D02*
X124797100Y-113928700D01*
X158750000Y-114300000D02*
X157405500Y-112955500D01*
X108837800Y-115187800D02*
X123922800Y-115187800D01*
X107950000Y-83820000D02*
X108849100Y-84719100D01*
X134225400Y-84695400D02*
X151556500Y-84695400D01*
X153344700Y-82907200D02*
X157837200Y-82907200D01*
X157837200Y-82907200D02*
X158750000Y-83820000D01*
X184150000Y-83820000D02*
X183273900Y-82943900D01*
X123592800Y-84719100D02*
X125400300Y-82911600D01*
X133350000Y-83820000D02*
X134225400Y-84695400D01*
X108849100Y-84719100D02*
X123592800Y-84719100D01*
X132441600Y-82911600D02*
X133350000Y-83820000D01*
X151556500Y-84695400D02*
X153344700Y-82907200D01*
X178938300Y-85189900D02*
X160119900Y-85189900D01*
X183273900Y-82943900D02*
X181184300Y-82943900D01*
X160119900Y-85189900D02*
X158750000Y-83820000D01*
X181184300Y-82943900D02*
X178938300Y-85189900D01*
X125400300Y-82911600D02*
X132441600Y-82911600D01*
X130810000Y-89348900D02*
X130810000Y-85145800D01*
X156210000Y-83820000D02*
X158030800Y-85640800D01*
X130810000Y-85145800D02*
X154884200Y-85145800D01*
X133079400Y-91715300D02*
X133079400Y-96774000D01*
X133079400Y-96774000D02*
X132503500Y-97349900D01*
X97625300Y-92710000D02*
X100937900Y-89397400D01*
X130810000Y-85145800D02*
X130810000Y-83820000D01*
X158030800Y-85640800D02*
X179789200Y-85640800D01*
X130761500Y-89397400D02*
X133079400Y-91715300D01*
X96450000Y-92710000D02*
X97625300Y-92710000D01*
X154884200Y-85145800D02*
X156210000Y-83820000D01*
X100937900Y-89397400D02*
X130761500Y-89397400D01*
X130761500Y-89397400D02*
X130810000Y-89348900D01*
X179789200Y-85640800D02*
X181610000Y-83820000D01*
X176530000Y-83820000D02*
X175645000Y-84705000D01*
X124380500Y-85169500D02*
X101679500Y-85169500D01*
X175645000Y-84705000D02*
X161714100Y-84705000D01*
X125730000Y-83820000D02*
X124380500Y-85169500D01*
X152493200Y-82456800D02*
X151130000Y-83820000D01*
X159465900Y-82456800D02*
X152493200Y-82456800D01*
X161714100Y-84705000D02*
X159465900Y-82456800D01*
X101679500Y-85169500D02*
X100330000Y-83820000D01*
X147227000Y-82457000D02*
X148590000Y-83820000D01*
X97790000Y-83820000D02*
X98665400Y-82944600D01*
X123190000Y-83820000D02*
X124553000Y-82457000D01*
X172176500Y-82006500D02*
X150403500Y-82006500D01*
X98665400Y-82944600D02*
X122314600Y-82944600D01*
X124553000Y-82457000D02*
X147227000Y-82457000D01*
X122314600Y-82944600D02*
X123190000Y-83820000D01*
X173990000Y-83820000D02*
X172176500Y-82006500D01*
X150403500Y-82006500D02*
X148590000Y-83820000D01*
D17*
X123917000Y-88173000D02*
X123731700Y-88173000D01*
X128270000Y-83820000D02*
X123917000Y-88173000D01*
X148001900Y-91518000D02*
X148001900Y-105412900D01*
X153017600Y-86502300D02*
X148001900Y-91518000D01*
X148001900Y-105412900D02*
X153017600Y-110428600D01*
D16*
X120903000Y-102870000D02*
X131790700Y-91982300D01*
X96450000Y-102870000D02*
X120903000Y-102870000D01*
X131790700Y-91982300D02*
X132320500Y-91982300D01*
X96450000Y-105410000D02*
X119677100Y-105410000D01*
X119677100Y-105410000D02*
X132081900Y-93005200D01*
G04 #@! TA.AperFunction,Conductor*
G36*
X130515027Y-90050902D02*
G01*
X130536001Y-90067805D01*
X131639627Y-91171431D01*
X131673653Y-91233743D01*
X131668588Y-91304558D01*
X131626041Y-91361394D01*
X131596914Y-91377678D01*
X131588040Y-91381192D01*
X131582424Y-91383115D01*
X131537107Y-91396282D01*
X131519664Y-91406597D01*
X131501918Y-91415290D01*
X131483082Y-91422748D01*
X131444909Y-91450481D01*
X131439948Y-91453740D01*
X131399338Y-91477758D01*
X131385011Y-91492084D01*
X131369985Y-91504917D01*
X131353595Y-91516825D01*
X131353593Y-91516827D01*
X131323508Y-91553192D01*
X131319512Y-91557583D01*
X120677500Y-102199595D01*
X120615188Y-102233621D01*
X120588405Y-102236500D01*
X97727038Y-102236500D01*
X97658917Y-102216498D01*
X97621555Y-102179415D01*
X97525724Y-102032734D01*
X97525720Y-102032729D01*
X97373237Y-101867091D01*
X97240831Y-101764035D01*
X97195576Y-101728811D01*
X97162319Y-101710813D01*
X97111929Y-101660802D01*
X97096576Y-101591485D01*
X97121136Y-101524872D01*
X97162320Y-101489186D01*
X97195576Y-101471189D01*
X97373240Y-101332906D01*
X97525722Y-101167268D01*
X97648860Y-100978791D01*
X97739296Y-100772616D01*
X97794564Y-100554368D01*
X97813156Y-100330000D01*
X97794564Y-100105632D01*
X97739296Y-99887384D01*
X97648860Y-99681209D01*
X97642140Y-99670924D01*
X97525724Y-99492734D01*
X97525720Y-99492729D01*
X97373237Y-99327091D01*
X97291382Y-99263381D01*
X97195576Y-99188811D01*
X97162319Y-99170813D01*
X97111929Y-99120802D01*
X97096576Y-99051485D01*
X97121136Y-98984872D01*
X97162320Y-98949186D01*
X97195576Y-98931189D01*
X97373240Y-98792906D01*
X97525722Y-98627268D01*
X97648860Y-98438791D01*
X97739296Y-98232616D01*
X97794564Y-98014368D01*
X97813156Y-97790000D01*
X97794564Y-97565632D01*
X97788029Y-97539827D01*
X97739297Y-97347387D01*
X97739296Y-97347386D01*
X97739296Y-97347384D01*
X97648860Y-97141209D01*
X97590002Y-97051120D01*
X97525724Y-96952734D01*
X97525720Y-96952729D01*
X97397048Y-96812956D01*
X97373240Y-96787094D01*
X97373239Y-96787093D01*
X97373237Y-96787091D01*
X97274097Y-96709927D01*
X97195576Y-96648811D01*
X97162319Y-96630813D01*
X97111929Y-96580802D01*
X97096576Y-96511485D01*
X97121136Y-96444872D01*
X97162320Y-96409186D01*
X97195576Y-96391189D01*
X97373240Y-96252906D01*
X97525722Y-96087268D01*
X97648860Y-95898791D01*
X97739296Y-95692616D01*
X97794564Y-95474368D01*
X97813156Y-95250000D01*
X97794564Y-95025632D01*
X97741292Y-94815266D01*
X97739297Y-94807387D01*
X97739296Y-94807386D01*
X97739296Y-94807384D01*
X97648860Y-94601209D01*
X97615021Y-94549415D01*
X97525724Y-94412734D01*
X97525719Y-94412729D01*
X97516513Y-94402729D01*
X97382524Y-94257179D01*
X97351103Y-94193514D01*
X97359090Y-94122968D01*
X97403948Y-94067939D01*
X97431183Y-94053789D01*
X97546204Y-94010889D01*
X97630480Y-93947801D01*
X97663261Y-93923261D01*
X97750887Y-93806207D01*
X97750887Y-93806206D01*
X97750889Y-93806204D01*
X97801989Y-93669201D01*
X97808500Y-93608638D01*
X97808500Y-93409246D01*
X97828502Y-93341125D01*
X97873365Y-93302250D01*
X97872067Y-93300056D01*
X97896326Y-93285708D01*
X97914080Y-93277009D01*
X97932917Y-93269552D01*
X97971086Y-93241818D01*
X97976044Y-93238562D01*
X97981391Y-93235400D01*
X108027796Y-93235400D01*
X108047757Y-93425327D01*
X108065197Y-93479000D01*
X108106773Y-93606956D01*
X108135141Y-93656091D01*
X108202258Y-93772341D01*
X108202265Y-93772351D01*
X108330044Y-93914264D01*
X108370993Y-93944015D01*
X108484548Y-94026518D01*
X108659012Y-94104194D01*
X108845813Y-94143900D01*
X109036787Y-94143900D01*
X109223588Y-94104194D01*
X109398052Y-94026518D01*
X109478644Y-93967963D01*
X109545512Y-93944106D01*
X109552705Y-93943900D01*
X127028285Y-93943900D01*
X127032088Y-93944014D01*
X127094693Y-93947802D01*
X127156412Y-93936491D01*
X127160125Y-93935926D01*
X127222401Y-93928365D01*
X127231930Y-93924750D01*
X127253904Y-93918626D01*
X127263929Y-93916789D01*
X127321152Y-93891034D01*
X127324609Y-93889602D01*
X127383275Y-93867354D01*
X127391666Y-93861561D01*
X127411522Y-93850361D01*
X127420826Y-93846175D01*
X127470236Y-93807463D01*
X127473221Y-93805267D01*
X127524873Y-93769615D01*
X127566488Y-93722639D01*
X127569057Y-93719911D01*
X127783035Y-93505933D01*
X127845346Y-93471910D01*
X127845636Y-93471847D01*
X127998788Y-93439294D01*
X128173252Y-93361618D01*
X128327753Y-93249366D01*
X128327755Y-93249364D01*
X128455534Y-93107451D01*
X128455535Y-93107449D01*
X128455540Y-93107444D01*
X128551027Y-92942056D01*
X128610042Y-92760428D01*
X128630004Y-92570500D01*
X128610042Y-92380572D01*
X128551027Y-92198944D01*
X128455540Y-92033556D01*
X128455538Y-92033554D01*
X128455534Y-92033548D01*
X128327755Y-91891635D01*
X128173252Y-91779382D01*
X127998788Y-91701706D01*
X127811987Y-91662000D01*
X127621013Y-91662000D01*
X127434211Y-91701706D01*
X127259747Y-91779382D01*
X127105244Y-91891635D01*
X126977465Y-92033548D01*
X126977458Y-92033558D01*
X126881976Y-92198938D01*
X126881973Y-92198945D01*
X126822957Y-92380572D01*
X126819437Y-92414070D01*
X126792424Y-92479727D01*
X126734202Y-92520357D01*
X126694127Y-92526900D01*
X109552705Y-92526900D01*
X109484584Y-92506898D01*
X109478644Y-92502836D01*
X109398052Y-92444282D01*
X109223588Y-92366606D01*
X109036787Y-92326900D01*
X108845813Y-92326900D01*
X108659011Y-92366606D01*
X108484547Y-92444282D01*
X108330044Y-92556535D01*
X108202265Y-92698448D01*
X108202258Y-92698458D01*
X108106776Y-92863838D01*
X108106773Y-92863845D01*
X108047757Y-93045472D01*
X108027796Y-93235400D01*
X97981391Y-93235400D01*
X98016662Y-93214542D01*
X98030985Y-93200218D01*
X98046024Y-93187374D01*
X98062407Y-93175472D01*
X98092493Y-93139103D01*
X98096461Y-93134741D01*
X101163400Y-90067805D01*
X101225712Y-90033779D01*
X101252495Y-90030900D01*
X130446906Y-90030900D01*
X130515027Y-90050902D01*
G37*
G04 #@! TD.AperFunction*
G04 #@! TA.AperFunction,Conductor*
G36*
X185650728Y-71146030D02*
G01*
X186052722Y-71162657D01*
X186057847Y-71163082D01*
X186467263Y-71214114D01*
X186472376Y-71214967D01*
X186876173Y-71299635D01*
X186881187Y-71300905D01*
X187276616Y-71418629D01*
X187281509Y-71420309D01*
X187665848Y-71570278D01*
X187670606Y-71572366D01*
X188041227Y-71753551D01*
X188045808Y-71756030D01*
X188045810Y-71756031D01*
X188400217Y-71967211D01*
X188404571Y-71970057D01*
X188740313Y-72209773D01*
X188744423Y-72212972D01*
X189059239Y-72479607D01*
X189063059Y-72483123D01*
X189354774Y-72774838D01*
X189358291Y-72778659D01*
X189624927Y-73093474D01*
X189628126Y-73097585D01*
X189867841Y-73433326D01*
X189870691Y-73437687D01*
X190081868Y-73792089D01*
X190084347Y-73796670D01*
X190265532Y-74167291D01*
X190267625Y-74172062D01*
X190417582Y-74556368D01*
X190419274Y-74561295D01*
X190494762Y-74814852D01*
X190500000Y-74850805D01*
X190500000Y-123487086D01*
X190494762Y-123523038D01*
X190419274Y-123776599D01*
X190417582Y-123781526D01*
X190267624Y-124165835D01*
X190265531Y-124170606D01*
X190084346Y-124541227D01*
X190081867Y-124545808D01*
X189870690Y-124900210D01*
X189867840Y-124904571D01*
X189628125Y-125240312D01*
X189624926Y-125244423D01*
X189358290Y-125559238D01*
X189354762Y-125563071D01*
X189063071Y-125854762D01*
X189059238Y-125858290D01*
X188744423Y-126124926D01*
X188740312Y-126128125D01*
X188404571Y-126367840D01*
X188400210Y-126370690D01*
X188045808Y-126581867D01*
X188041227Y-126584346D01*
X187670606Y-126765531D01*
X187665835Y-126767624D01*
X187281526Y-126917582D01*
X187276599Y-126919274D01*
X187023039Y-126994762D01*
X186987087Y-127000000D01*
X95170814Y-127000000D01*
X95134861Y-126994762D01*
X94881296Y-126919272D01*
X94876375Y-126917582D01*
X94492062Y-126767622D01*
X94487292Y-126765530D01*
X94116671Y-126584345D01*
X94112090Y-126581866D01*
X93757688Y-126370689D01*
X93753327Y-126367839D01*
X93417579Y-126128119D01*
X93413468Y-126124920D01*
X93098673Y-125858301D01*
X93094840Y-125854773D01*
X92803131Y-125563065D01*
X92799603Y-125559232D01*
X92532973Y-125244422D01*
X92529774Y-125240311D01*
X92290059Y-124904570D01*
X92287209Y-124900209D01*
X92076032Y-124545807D01*
X92073553Y-124541226D01*
X91892368Y-124170605D01*
X91890280Y-124165847D01*
X91740311Y-123781508D01*
X91738631Y-123776615D01*
X91620907Y-123381186D01*
X91619637Y-123376172D01*
X91534969Y-122972375D01*
X91534115Y-122967253D01*
X91528332Y-122920856D01*
X91483084Y-122557849D01*
X91482659Y-122552720D01*
X91465502Y-122137900D01*
X92506666Y-122137900D01*
X92525991Y-122531276D01*
X92583781Y-122920863D01*
X92650325Y-123186521D01*
X92679480Y-123302914D01*
X92758242Y-123523038D01*
X92812163Y-123673736D01*
X92980555Y-124029773D01*
X92980557Y-124029776D01*
X93183037Y-124367593D01*
X93417640Y-124683918D01*
X93417648Y-124683928D01*
X93417651Y-124683932D01*
X93480759Y-124753561D01*
X93682143Y-124975756D01*
X93827086Y-125107123D01*
X93973968Y-125240249D01*
X93973971Y-125240251D01*
X93973981Y-125240259D01*
X94290306Y-125474862D01*
X94290310Y-125474864D01*
X94290311Y-125474865D01*
X94628127Y-125677345D01*
X94984164Y-125845737D01*
X95354991Y-125978421D01*
X95737037Y-126074119D01*
X96126624Y-126131909D01*
X96462477Y-126148408D01*
X96519996Y-126151234D01*
X96520000Y-126151234D01*
X96520004Y-126151234D01*
X96575494Y-126148507D01*
X96913376Y-126131909D01*
X97302963Y-126074119D01*
X97685009Y-125978421D01*
X98055836Y-125845737D01*
X98411873Y-125677345D01*
X98749689Y-125474865D01*
X99066032Y-125240249D01*
X99357856Y-124975756D01*
X99622349Y-124683932D01*
X99856965Y-124367589D01*
X100059445Y-124029773D01*
X100227837Y-123673736D01*
X100360521Y-123302909D01*
X100456219Y-122920863D01*
X100514009Y-122531276D01*
X100533334Y-122137900D01*
X181624566Y-122137900D01*
X181643891Y-122531276D01*
X181701681Y-122920863D01*
X181768225Y-123186521D01*
X181797380Y-123302914D01*
X181876142Y-123523038D01*
X181930063Y-123673736D01*
X182098455Y-124029773D01*
X182098457Y-124029776D01*
X182300937Y-124367593D01*
X182535540Y-124683918D01*
X182535548Y-124683928D01*
X182535551Y-124683932D01*
X182598659Y-124753561D01*
X182800043Y-124975756D01*
X182944986Y-125107123D01*
X183091868Y-125240249D01*
X183091871Y-125240251D01*
X183091881Y-125240259D01*
X183408206Y-125474862D01*
X183408210Y-125474864D01*
X183408211Y-125474865D01*
X183746027Y-125677345D01*
X184102064Y-125845737D01*
X184472891Y-125978421D01*
X184854937Y-126074119D01*
X185244524Y-126131909D01*
X185580377Y-126148408D01*
X185637896Y-126151234D01*
X185637900Y-126151234D01*
X185637904Y-126151234D01*
X185693394Y-126148507D01*
X186031276Y-126131909D01*
X186420863Y-126074119D01*
X186802909Y-125978421D01*
X187173736Y-125845737D01*
X187529773Y-125677345D01*
X187867589Y-125474865D01*
X188183932Y-125240249D01*
X188475756Y-124975756D01*
X188740249Y-124683932D01*
X188974865Y-124367589D01*
X189177345Y-124029773D01*
X189345737Y-123673736D01*
X189478421Y-123302909D01*
X189574119Y-122920863D01*
X189631909Y-122531276D01*
X189651234Y-122137900D01*
X189631909Y-121744524D01*
X189574119Y-121354937D01*
X189478421Y-120972891D01*
X189345737Y-120602064D01*
X189177345Y-120246027D01*
X188974865Y-119908211D01*
X188974864Y-119908210D01*
X188974862Y-119908206D01*
X188740259Y-119591881D01*
X188740251Y-119591871D01*
X188740249Y-119591868D01*
X188623243Y-119462772D01*
X188475756Y-119300043D01*
X188296211Y-119137314D01*
X188183932Y-119035551D01*
X188183928Y-119035548D01*
X188183918Y-119035540D01*
X187867593Y-118800937D01*
X187529776Y-118598457D01*
X187529777Y-118598457D01*
X187529773Y-118598455D01*
X187173736Y-118430063D01*
X187142166Y-118418767D01*
X186802914Y-118297380D01*
X186707028Y-118273362D01*
X186420863Y-118201681D01*
X186380837Y-118195743D01*
X186031285Y-118143892D01*
X186031280Y-118143891D01*
X186031276Y-118143891D01*
X185834588Y-118134228D01*
X185637904Y-118124566D01*
X185637896Y-118124566D01*
X185413113Y-118135608D01*
X185244524Y-118143891D01*
X185244520Y-118143891D01*
X185244514Y-118143892D01*
X184854943Y-118201680D01*
X184854941Y-118201680D01*
X184854937Y-118201681D01*
X184663914Y-118249530D01*
X184472885Y-118297380D01*
X184102066Y-118430062D01*
X183746023Y-118598457D01*
X183408206Y-118800937D01*
X183091881Y-119035540D01*
X183091871Y-119035548D01*
X182800043Y-119300043D01*
X182535548Y-119591871D01*
X182535540Y-119591881D01*
X182300937Y-119908206D01*
X182098457Y-120246023D01*
X181930062Y-120602066D01*
X181797380Y-120972885D01*
X181749530Y-121163914D01*
X181701681Y-121354937D01*
X181643891Y-121744524D01*
X181624566Y-122137900D01*
X100533334Y-122137900D01*
X100514009Y-121744524D01*
X100456219Y-121354937D01*
X100360521Y-120972891D01*
X100227837Y-120602064D01*
X100059445Y-120246027D01*
X99856965Y-119908211D01*
X99856964Y-119908210D01*
X99856962Y-119908206D01*
X99622359Y-119591881D01*
X99622351Y-119591871D01*
X99622349Y-119591868D01*
X99505343Y-119462772D01*
X99357856Y-119300043D01*
X99178311Y-119137314D01*
X99066032Y-119035551D01*
X99066028Y-119035548D01*
X99066018Y-119035540D01*
X98749693Y-118800937D01*
X98411876Y-118598457D01*
X98411877Y-118598457D01*
X98411873Y-118598455D01*
X98055836Y-118430063D01*
X98024266Y-118418767D01*
X97685014Y-118297380D01*
X97589128Y-118273362D01*
X97302963Y-118201681D01*
X97262937Y-118195743D01*
X96913385Y-118143892D01*
X96913380Y-118143891D01*
X96913376Y-118143891D01*
X96716688Y-118134228D01*
X96520004Y-118124566D01*
X96519996Y-118124566D01*
X96295213Y-118135608D01*
X96126624Y-118143891D01*
X96126620Y-118143891D01*
X96126614Y-118143892D01*
X95737043Y-118201680D01*
X95737041Y-118201680D01*
X95737037Y-118201681D01*
X95546014Y-118249530D01*
X95354985Y-118297380D01*
X94984166Y-118430062D01*
X94628123Y-118598457D01*
X94290306Y-118800937D01*
X93973981Y-119035540D01*
X93973971Y-119035548D01*
X93682143Y-119300043D01*
X93417648Y-119591871D01*
X93417640Y-119591881D01*
X93183037Y-119908206D01*
X92980557Y-120246023D01*
X92812162Y-120602066D01*
X92679480Y-120972885D01*
X92631630Y-121163914D01*
X92583781Y-121354937D01*
X92525991Y-121744524D01*
X92506666Y-122137900D01*
X91465502Y-122137900D01*
X91465502Y-122137898D01*
X91465500Y-122137857D01*
X91465500Y-114898649D01*
X96731500Y-114898649D01*
X96738009Y-114959196D01*
X96738011Y-114959204D01*
X96789110Y-115096202D01*
X96789112Y-115096207D01*
X96876738Y-115213261D01*
X96993792Y-115300887D01*
X96993794Y-115300888D01*
X96993796Y-115300889D01*
X97052875Y-115322924D01*
X97130795Y-115351988D01*
X97130803Y-115351990D01*
X97191350Y-115358499D01*
X97191355Y-115358499D01*
X97191362Y-115358500D01*
X97191368Y-115358500D01*
X98388632Y-115358500D01*
X98388638Y-115358500D01*
X98388645Y-115358499D01*
X98388649Y-115358499D01*
X98449196Y-115351990D01*
X98449199Y-115351989D01*
X98449201Y-115351989D01*
X98586204Y-115300889D01*
X98610557Y-115282659D01*
X98703261Y-115213261D01*
X98790886Y-115096208D01*
X98790885Y-115096208D01*
X98790889Y-115096204D01*
X98841137Y-114961483D01*
X98883682Y-114904652D01*
X98912172Y-114890445D01*
X98911619Y-114889166D01*
X98918895Y-114886017D01*
X98936326Y-114875708D01*
X98954080Y-114867009D01*
X98972917Y-114859552D01*
X99011086Y-114831818D01*
X99016044Y-114828562D01*
X99056662Y-114804542D01*
X99070985Y-114790218D01*
X99086024Y-114777374D01*
X99102407Y-114765472D01*
X99132493Y-114729103D01*
X99136461Y-114724741D01*
X99159925Y-114701277D01*
X99222235Y-114667253D01*
X99293050Y-114672318D01*
X99349886Y-114714865D01*
X99360140Y-114730977D01*
X99445632Y-114890919D01*
X99493333Y-114949042D01*
X99577906Y-115052094D01*
X99739083Y-115184369D01*
X99922969Y-115282659D01*
X100122498Y-115343185D01*
X100122502Y-115343185D01*
X100122504Y-115343186D01*
X100329997Y-115363622D01*
X100330000Y-115363622D01*
X100330001Y-115363622D01*
X100350110Y-115361641D01*
X100423374Y-115354425D01*
X100493126Y-115367653D01*
X100524819Y-115390723D01*
X101160853Y-116026757D01*
X101170820Y-116039197D01*
X101171047Y-116039010D01*
X101176099Y-116045117D01*
X101176100Y-116045118D01*
X101186299Y-116054695D01*
X101227195Y-116093099D01*
X101248325Y-116114230D01*
X101253868Y-116118530D01*
X101258381Y-116122385D01*
X101273551Y-116136630D01*
X101292779Y-116154686D01*
X101292780Y-116154686D01*
X101292782Y-116154688D01*
X101310529Y-116164444D01*
X101327059Y-116175302D01*
X101343059Y-116187713D01*
X101374236Y-116201204D01*
X101386351Y-116206447D01*
X101391685Y-116209059D01*
X101433040Y-116231795D01*
X101452662Y-116236833D01*
X101471363Y-116243235D01*
X101483914Y-116248667D01*
X101489952Y-116251280D01*
X101489953Y-116251280D01*
X101489955Y-116251281D01*
X101536577Y-116258664D01*
X101542362Y-116259863D01*
X101588070Y-116271600D01*
X101608324Y-116271600D01*
X101628034Y-116273151D01*
X101629329Y-116273356D01*
X101648043Y-116276320D01*
X101682572Y-116273056D01*
X101695017Y-116271880D01*
X101700950Y-116271600D01*
X124308047Y-116271600D01*
X124323888Y-116273349D01*
X124323916Y-116273056D01*
X124331802Y-116273800D01*
X124331809Y-116273802D01*
X124401858Y-116271600D01*
X124431756Y-116271600D01*
X124438718Y-116270719D01*
X124444619Y-116270254D01*
X124491789Y-116268773D01*
X124511247Y-116263119D01*
X124530594Y-116259113D01*
X124550697Y-116256574D01*
X124551617Y-116256210D01*
X124564065Y-116251281D01*
X124594579Y-116239199D01*
X124600174Y-116237283D01*
X124635022Y-116227160D01*
X124645491Y-116224119D01*
X124645495Y-116224117D01*
X124662926Y-116213808D01*
X124680680Y-116205109D01*
X124699517Y-116197652D01*
X124737686Y-116169918D01*
X124742644Y-116166662D01*
X124783262Y-116142642D01*
X124797585Y-116128318D01*
X124812624Y-116115474D01*
X124813918Y-116114534D01*
X124829007Y-116103572D01*
X124859093Y-116067203D01*
X124863061Y-116062841D01*
X125535181Y-115390721D01*
X125597491Y-115356697D01*
X125636623Y-115354425D01*
X125686106Y-115359298D01*
X125729998Y-115363622D01*
X125730000Y-115363622D01*
X125730001Y-115363622D01*
X125750110Y-115361641D01*
X125823374Y-115354425D01*
X125893126Y-115367653D01*
X125924819Y-115390723D01*
X126561153Y-116027057D01*
X126571120Y-116039497D01*
X126571347Y-116039310D01*
X126576399Y-116045417D01*
X126627495Y-116093399D01*
X126648625Y-116114530D01*
X126654168Y-116118830D01*
X126658681Y-116122685D01*
X126670277Y-116133574D01*
X126693079Y-116154986D01*
X126693080Y-116154986D01*
X126693082Y-116154988D01*
X126710829Y-116164744D01*
X126727359Y-116175602D01*
X126743359Y-116188013D01*
X126765632Y-116197651D01*
X126786651Y-116206747D01*
X126791985Y-116209359D01*
X126833340Y-116232095D01*
X126852962Y-116237133D01*
X126871663Y-116243535D01*
X126890255Y-116251581D01*
X126936870Y-116258963D01*
X126942642Y-116260158D01*
X126988370Y-116271900D01*
X127008631Y-116271900D01*
X127028339Y-116273450D01*
X127048343Y-116276619D01*
X127082864Y-116273356D01*
X127095310Y-116272180D01*
X127101242Y-116271900D01*
X149707747Y-116271900D01*
X149723588Y-116273649D01*
X149723616Y-116273356D01*
X149731502Y-116274100D01*
X149731509Y-116274102D01*
X149801558Y-116271900D01*
X149831456Y-116271900D01*
X149838418Y-116271019D01*
X149844319Y-116270554D01*
X149891489Y-116269073D01*
X149910947Y-116263419D01*
X149930294Y-116259413D01*
X149950397Y-116256874D01*
X149951158Y-116256573D01*
X149963765Y-116251581D01*
X149994279Y-116239499D01*
X149999874Y-116237583D01*
X150036791Y-116226859D01*
X150045191Y-116224419D01*
X150045195Y-116224417D01*
X150062626Y-116214108D01*
X150080380Y-116205409D01*
X150099217Y-116197952D01*
X150137386Y-116170218D01*
X150142344Y-116166962D01*
X150182962Y-116142942D01*
X150197285Y-116128618D01*
X150212324Y-116115774D01*
X150214031Y-116114534D01*
X150228707Y-116103872D01*
X150258793Y-116067503D01*
X150262761Y-116063141D01*
X150935181Y-115390721D01*
X150997491Y-115356697D01*
X151036623Y-115354425D01*
X151086106Y-115359298D01*
X151129998Y-115363622D01*
X151130000Y-115363622D01*
X151130001Y-115363622D01*
X151150110Y-115361641D01*
X151223374Y-115354425D01*
X151293126Y-115367653D01*
X151324819Y-115390723D01*
X151978953Y-116044857D01*
X151988920Y-116057297D01*
X151989147Y-116057110D01*
X151994199Y-116063217D01*
X152045295Y-116111199D01*
X152066425Y-116132330D01*
X152071968Y-116136630D01*
X152076481Y-116140485D01*
X152091926Y-116154988D01*
X152110879Y-116172786D01*
X152110880Y-116172786D01*
X152110882Y-116172788D01*
X152128629Y-116182544D01*
X152145159Y-116193402D01*
X152161159Y-116205813D01*
X152179635Y-116213808D01*
X152204451Y-116224547D01*
X152209785Y-116227159D01*
X152251140Y-116249895D01*
X152270762Y-116254933D01*
X152289463Y-116261335D01*
X152308055Y-116269381D01*
X152354670Y-116276763D01*
X152360442Y-116277958D01*
X152406170Y-116289700D01*
X152426431Y-116289700D01*
X152446139Y-116291250D01*
X152466143Y-116294419D01*
X152500664Y-116291156D01*
X152513110Y-116289980D01*
X152519042Y-116289700D01*
X175089947Y-116289700D01*
X175105788Y-116291449D01*
X175105816Y-116291156D01*
X175113702Y-116291900D01*
X175113709Y-116291902D01*
X175183758Y-116289700D01*
X175213656Y-116289700D01*
X175220618Y-116288819D01*
X175226519Y-116288354D01*
X175273689Y-116286873D01*
X175293147Y-116281219D01*
X175312494Y-116277213D01*
X175332597Y-116274674D01*
X175334045Y-116274101D01*
X175342765Y-116270648D01*
X175376479Y-116257299D01*
X175382074Y-116255383D01*
X175410616Y-116247091D01*
X175427391Y-116242219D01*
X175427395Y-116242217D01*
X175444826Y-116231908D01*
X175462580Y-116223209D01*
X175481417Y-116215752D01*
X175519586Y-116188018D01*
X175524544Y-116184762D01*
X175565162Y-116160742D01*
X175579485Y-116146418D01*
X175594524Y-116133574D01*
X175596231Y-116132334D01*
X175610907Y-116121672D01*
X175640993Y-116085303D01*
X175644961Y-116080941D01*
X176335181Y-115390721D01*
X176397491Y-115356697D01*
X176436623Y-115354425D01*
X176486106Y-115359298D01*
X176529998Y-115363622D01*
X176530000Y-115363622D01*
X176530003Y-115363622D01*
X176737495Y-115343186D01*
X176737496Y-115343185D01*
X176737502Y-115343185D01*
X176937031Y-115282659D01*
X177120917Y-115184369D01*
X177282094Y-115052094D01*
X177414369Y-114890917D01*
X177512659Y-114707031D01*
X177573185Y-114507502D01*
X177574435Y-114494818D01*
X177593622Y-114300003D01*
X177593622Y-114299995D01*
X177583434Y-114196549D01*
X177596663Y-114126796D01*
X177645503Y-114075268D01*
X177708827Y-114058200D01*
X177891173Y-114058200D01*
X177959294Y-114078202D01*
X178005787Y-114131858D01*
X178016566Y-114196549D01*
X178006378Y-114299995D01*
X178006378Y-114300003D01*
X178026813Y-114507495D01*
X178026814Y-114507501D01*
X178026815Y-114507502D01*
X178087341Y-114707031D01*
X178185631Y-114890917D01*
X178317906Y-115052094D01*
X178479083Y-115184369D01*
X178662969Y-115282659D01*
X178862498Y-115343185D01*
X178862502Y-115343185D01*
X178862504Y-115343186D01*
X179069997Y-115363622D01*
X179070000Y-115363622D01*
X179070003Y-115363622D01*
X179277495Y-115343186D01*
X179277496Y-115343185D01*
X179277502Y-115343185D01*
X179477031Y-115282659D01*
X179660917Y-115184369D01*
X179822094Y-115052094D01*
X179954369Y-114890917D01*
X180052659Y-114707031D01*
X180113185Y-114507502D01*
X180114435Y-114494818D01*
X180133622Y-114300003D01*
X180133622Y-114299995D01*
X180123434Y-114196549D01*
X180136663Y-114126796D01*
X180185503Y-114075268D01*
X180248827Y-114058200D01*
X180420106Y-114058200D01*
X180488227Y-114078202D01*
X180509201Y-114095105D01*
X180519276Y-114105180D01*
X180553302Y-114167492D01*
X180555574Y-114206625D01*
X180546378Y-114299996D01*
X180546378Y-114300003D01*
X180566813Y-114507495D01*
X180566814Y-114507501D01*
X180566815Y-114507502D01*
X180627341Y-114707031D01*
X180725631Y-114890917D01*
X180857906Y-115052094D01*
X181019083Y-115184369D01*
X181202969Y-115282659D01*
X181402498Y-115343185D01*
X181402502Y-115343185D01*
X181402504Y-115343186D01*
X181609997Y-115363622D01*
X181610000Y-115363622D01*
X181610003Y-115363622D01*
X181817495Y-115343186D01*
X181817496Y-115343185D01*
X181817502Y-115343185D01*
X182017031Y-115282659D01*
X182200917Y-115184369D01*
X182362094Y-115052094D01*
X182494369Y-114890917D01*
X182592659Y-114707031D01*
X182653185Y-114507502D01*
X182654435Y-114494818D01*
X182673622Y-114300003D01*
X182673622Y-114299996D01*
X182653186Y-114092506D01*
X182653185Y-114092504D01*
X182653185Y-114092498D01*
X182627898Y-114009140D01*
X182627266Y-113938150D01*
X182665115Y-113878084D01*
X182729430Y-113848015D01*
X182799792Y-113857492D01*
X182837569Y-113883473D01*
X183059276Y-114105180D01*
X183093302Y-114167492D01*
X183095574Y-114206625D01*
X183086378Y-114299996D01*
X183086378Y-114300003D01*
X183106813Y-114507495D01*
X183106814Y-114507501D01*
X183106815Y-114507502D01*
X183167341Y-114707031D01*
X183265631Y-114890917D01*
X183397906Y-115052094D01*
X183559083Y-115184369D01*
X183742969Y-115282659D01*
X183942498Y-115343185D01*
X183942502Y-115343185D01*
X183942504Y-115343186D01*
X184149997Y-115363622D01*
X184150000Y-115363622D01*
X184150003Y-115363622D01*
X184357495Y-115343186D01*
X184357496Y-115343185D01*
X184357502Y-115343185D01*
X184557031Y-115282659D01*
X184740917Y-115184369D01*
X184902094Y-115052094D01*
X185034369Y-114890917D01*
X185132659Y-114707031D01*
X185193185Y-114507502D01*
X185194435Y-114494818D01*
X185213622Y-114300003D01*
X185213622Y-114299996D01*
X185193186Y-114092504D01*
X185193185Y-114092502D01*
X185193185Y-114092498D01*
X185132659Y-113892969D01*
X185034369Y-113709083D01*
X184902094Y-113547906D01*
X184740917Y-113415631D01*
X184557031Y-113317341D01*
X184357502Y-113256815D01*
X184357501Y-113256814D01*
X184357495Y-113256813D01*
X184150003Y-113236378D01*
X184149997Y-113236378D01*
X184056626Y-113245574D01*
X183986873Y-113232345D01*
X183955181Y-113209276D01*
X183312744Y-112566839D01*
X183302779Y-112554401D01*
X183302552Y-112554590D01*
X183297501Y-112548484D01*
X183297500Y-112548482D01*
X183246420Y-112500515D01*
X183235930Y-112490025D01*
X183225277Y-112479371D01*
X183225272Y-112479366D01*
X183219725Y-112475063D01*
X183215217Y-112471212D01*
X183180825Y-112438917D01*
X183180819Y-112438913D01*
X183163063Y-112429151D01*
X183146547Y-112418302D01*
X183130541Y-112405886D01*
X183099789Y-112392578D01*
X183087240Y-112387148D01*
X183081908Y-112384536D01*
X183040561Y-112361805D01*
X183020936Y-112356766D01*
X183002236Y-112350364D01*
X182983645Y-112342319D01*
X182983643Y-112342318D01*
X182983642Y-112342318D01*
X182937042Y-112334937D01*
X182931229Y-112333733D01*
X182885530Y-112322000D01*
X182865276Y-112322000D01*
X182845566Y-112320449D01*
X182825557Y-112317280D01*
X182825556Y-112317280D01*
X182778583Y-112321720D01*
X182772650Y-112322000D01*
X160178353Y-112322000D01*
X160162511Y-112320250D01*
X160162484Y-112320544D01*
X160154592Y-112319798D01*
X160154591Y-112319798D01*
X160084542Y-112322000D01*
X160054644Y-112322000D01*
X160054640Y-112322000D01*
X160054630Y-112322001D01*
X160047679Y-112322879D01*
X160041767Y-112323344D01*
X159994612Y-112324826D01*
X159994610Y-112324827D01*
X159975155Y-112330478D01*
X159955802Y-112334486D01*
X159935710Y-112337024D01*
X159935702Y-112337026D01*
X159891836Y-112354393D01*
X159886221Y-112356316D01*
X159840907Y-112369482D01*
X159823464Y-112379797D01*
X159805718Y-112388490D01*
X159786882Y-112395948D01*
X159748709Y-112423681D01*
X159743748Y-112426940D01*
X159703138Y-112450958D01*
X159688811Y-112465284D01*
X159673785Y-112478117D01*
X159657395Y-112490025D01*
X159657393Y-112490027D01*
X159627313Y-112526386D01*
X159623317Y-112530777D01*
X158944817Y-113209276D01*
X158882505Y-113243301D01*
X158843373Y-113245573D01*
X158750005Y-113236378D01*
X158749997Y-113236378D01*
X158656626Y-113245574D01*
X158586873Y-113232345D01*
X158555181Y-113209276D01*
X157912744Y-112566839D01*
X157902779Y-112554401D01*
X157902552Y-112554590D01*
X157897501Y-112548484D01*
X157897500Y-112548482D01*
X157846420Y-112500515D01*
X157835930Y-112490025D01*
X157825277Y-112479371D01*
X157825272Y-112479366D01*
X157819725Y-112475063D01*
X157815217Y-112471212D01*
X157780825Y-112438917D01*
X157780819Y-112438913D01*
X157763063Y-112429151D01*
X157746547Y-112418302D01*
X157730541Y-112405886D01*
X157699789Y-112392578D01*
X157687240Y-112387148D01*
X157681908Y-112384536D01*
X157640561Y-112361805D01*
X157620936Y-112356766D01*
X157602236Y-112350364D01*
X157583645Y-112342319D01*
X157583643Y-112342318D01*
X157583642Y-112342318D01*
X157537042Y-112334937D01*
X157531229Y-112333733D01*
X157485530Y-112322000D01*
X157465276Y-112322000D01*
X157445566Y-112320449D01*
X157425557Y-112317280D01*
X157425556Y-112317280D01*
X157378583Y-112321720D01*
X157372650Y-112322000D01*
X134778353Y-112322000D01*
X134762511Y-112320250D01*
X134762484Y-112320544D01*
X134754592Y-112319798D01*
X134754591Y-112319798D01*
X134684542Y-112322000D01*
X134654644Y-112322000D01*
X134654640Y-112322000D01*
X134654630Y-112322001D01*
X134647679Y-112322879D01*
X134641767Y-112323344D01*
X134594612Y-112324826D01*
X134594610Y-112324827D01*
X134575155Y-112330478D01*
X134555802Y-112334486D01*
X134535710Y-112337024D01*
X134535702Y-112337026D01*
X134491836Y-112354393D01*
X134486221Y-112356316D01*
X134440907Y-112369482D01*
X134423464Y-112379797D01*
X134405718Y-112388490D01*
X134386882Y-112395948D01*
X134348709Y-112423681D01*
X134343748Y-112426940D01*
X134303138Y-112450958D01*
X134288811Y-112465284D01*
X134273785Y-112478117D01*
X134257395Y-112490025D01*
X134257393Y-112490027D01*
X134227313Y-112526386D01*
X134223317Y-112530777D01*
X133544817Y-113209276D01*
X133482505Y-113243301D01*
X133443373Y-113245573D01*
X133350005Y-113236378D01*
X133349995Y-113236378D01*
X133256625Y-113245573D01*
X133186872Y-113232344D01*
X133155181Y-113209276D01*
X132954945Y-113009041D01*
X132944980Y-112996602D01*
X132944753Y-112996791D01*
X132939699Y-112990681D01*
X132888620Y-112942715D01*
X132867477Y-112921571D01*
X132867472Y-112921566D01*
X132861925Y-112917263D01*
X132857417Y-112913412D01*
X132823025Y-112881117D01*
X132823019Y-112881113D01*
X132805263Y-112871351D01*
X132788747Y-112860502D01*
X132772741Y-112848086D01*
X132741989Y-112834778D01*
X132729440Y-112829348D01*
X132724108Y-112826736D01*
X132682761Y-112804005D01*
X132663136Y-112798966D01*
X132644436Y-112792564D01*
X132637919Y-112789744D01*
X132625845Y-112784519D01*
X132625843Y-112784518D01*
X132625842Y-112784518D01*
X132579242Y-112777137D01*
X132573429Y-112775933D01*
X132527730Y-112764200D01*
X132507476Y-112764200D01*
X132487766Y-112762649D01*
X132467757Y-112759480D01*
X132467756Y-112759480D01*
X132420783Y-112763920D01*
X132414850Y-112764200D01*
X125642695Y-112764200D01*
X125574574Y-112744198D01*
X125553600Y-112727295D01*
X125532305Y-112706000D01*
X125498279Y-112643688D01*
X125495400Y-112616905D01*
X125495400Y-110829724D01*
X125515402Y-110761603D01*
X125527758Y-110745420D01*
X125600940Y-110664144D01*
X125696427Y-110498756D01*
X125755442Y-110317128D01*
X125775404Y-110127200D01*
X125755442Y-109937272D01*
X125696427Y-109755644D01*
X125600940Y-109590256D01*
X125600938Y-109590254D01*
X125600934Y-109590248D01*
X125473155Y-109448335D01*
X125318652Y-109336082D01*
X125144188Y-109258406D01*
X124957387Y-109218700D01*
X124766413Y-109218700D01*
X124579611Y-109258406D01*
X124405147Y-109336082D01*
X124250644Y-109448335D01*
X124122865Y-109590248D01*
X124122858Y-109590258D01*
X124027376Y-109755638D01*
X124027373Y-109755645D01*
X123968357Y-109937272D01*
X123948396Y-110127200D01*
X123968357Y-110317127D01*
X123998426Y-110409670D01*
X124027373Y-110498756D01*
X124027376Y-110498761D01*
X124096523Y-110618528D01*
X124122860Y-110664144D01*
X124196037Y-110745415D01*
X124226753Y-110809420D01*
X124228400Y-110829724D01*
X124228400Y-112847646D01*
X124226651Y-112863488D01*
X124226944Y-112863516D01*
X124226198Y-112871407D01*
X124228400Y-112941457D01*
X124228400Y-112971351D01*
X124228401Y-112971372D01*
X124229278Y-112978320D01*
X124229744Y-112984232D01*
X124231226Y-113031388D01*
X124231227Y-113031393D01*
X124236877Y-113050839D01*
X124240886Y-113070197D01*
X124243425Y-113090293D01*
X124243426Y-113090299D01*
X124260793Y-113134162D01*
X124262716Y-113139779D01*
X124275882Y-113185093D01*
X124286194Y-113202531D01*
X124294888Y-113220279D01*
X124305265Y-113246486D01*
X124302334Y-113247646D01*
X124314462Y-113302711D01*
X124289823Y-113369295D01*
X124233098Y-113411988D01*
X124162295Y-113417236D01*
X124112085Y-113389988D01*
X124110475Y-113392139D01*
X123986207Y-113299112D01*
X123986202Y-113299110D01*
X123849204Y-113248011D01*
X123849196Y-113248009D01*
X123788649Y-113241500D01*
X123788638Y-113241500D01*
X122591362Y-113241500D01*
X122591350Y-113241500D01*
X122530803Y-113248009D01*
X122530795Y-113248011D01*
X122393796Y-113299110D01*
X122393793Y-113299112D01*
X122375922Y-113312490D01*
X122309401Y-113337299D01*
X122240027Y-113322206D01*
X122211321Y-113300716D01*
X121946645Y-113036041D01*
X121936680Y-113023602D01*
X121936453Y-113023791D01*
X121931399Y-113017681D01*
X121880320Y-112969715D01*
X121859177Y-112948571D01*
X121859172Y-112948566D01*
X121853625Y-112944263D01*
X121849117Y-112940412D01*
X121814725Y-112908117D01*
X121814719Y-112908113D01*
X121796963Y-112898351D01*
X121780447Y-112887502D01*
X121764441Y-112875086D01*
X121730732Y-112860499D01*
X121721140Y-112856348D01*
X121715808Y-112853736D01*
X121674461Y-112831005D01*
X121654836Y-112825966D01*
X121636136Y-112819564D01*
X121617545Y-112811519D01*
X121617543Y-112811518D01*
X121617542Y-112811518D01*
X121570942Y-112804137D01*
X121565129Y-112802933D01*
X121519430Y-112791200D01*
X121499176Y-112791200D01*
X121479466Y-112789649D01*
X121459457Y-112786480D01*
X121459456Y-112786480D01*
X121412483Y-112790920D01*
X121406550Y-112791200D01*
X99624453Y-112791200D01*
X99608611Y-112789450D01*
X99608584Y-112789744D01*
X99600692Y-112788998D01*
X99600691Y-112788998D01*
X99530642Y-112791200D01*
X99500744Y-112791200D01*
X99500740Y-112791200D01*
X99500730Y-112791201D01*
X99493779Y-112792079D01*
X99487867Y-112792544D01*
X99440712Y-112794026D01*
X99440710Y-112794027D01*
X99421255Y-112799678D01*
X99401902Y-112803686D01*
X99381810Y-112806224D01*
X99381802Y-112806226D01*
X99337936Y-112823593D01*
X99332321Y-112825516D01*
X99287007Y-112838682D01*
X99271105Y-112848086D01*
X99269564Y-112848997D01*
X99251818Y-112857690D01*
X99232982Y-112865148D01*
X99194809Y-112892881D01*
X99189848Y-112896140D01*
X99149238Y-112920158D01*
X99134911Y-112934484D01*
X99119885Y-112947317D01*
X99103495Y-112959225D01*
X99103493Y-112959227D01*
X99073413Y-112995586D01*
X99069417Y-112999977D01*
X98768678Y-113300715D01*
X98706366Y-113334740D01*
X98635550Y-113329675D01*
X98604076Y-113312488D01*
X98586210Y-113299114D01*
X98586202Y-113299110D01*
X98449204Y-113248011D01*
X98449196Y-113248009D01*
X98388649Y-113241500D01*
X98388638Y-113241500D01*
X97191362Y-113241500D01*
X97191350Y-113241500D01*
X97130803Y-113248009D01*
X97130795Y-113248011D01*
X96993797Y-113299110D01*
X96993792Y-113299112D01*
X96876738Y-113386738D01*
X96789112Y-113503792D01*
X96789110Y-113503797D01*
X96738011Y-113640795D01*
X96738009Y-113640803D01*
X96731500Y-113701350D01*
X96731500Y-114898649D01*
X91465500Y-114898649D01*
X91465500Y-105410000D01*
X95086844Y-105410000D01*
X95102914Y-105603935D01*
X95105437Y-105634375D01*
X95160702Y-105852612D01*
X95160703Y-105852613D01*
X95160704Y-105852616D01*
X95245200Y-106045249D01*
X95251141Y-106058793D01*
X95374275Y-106247265D01*
X95374279Y-106247270D01*
X95526762Y-106412908D01*
X95581331Y-106455381D01*
X95704424Y-106551189D01*
X95902426Y-106658342D01*
X95902427Y-106658342D01*
X95902428Y-106658343D01*
X96014227Y-106696723D01*
X96115365Y-106731444D01*
X96337431Y-106768500D01*
X96337435Y-106768500D01*
X96562565Y-106768500D01*
X96562569Y-106768500D01*
X96784635Y-106731444D01*
X96997574Y-106658342D01*
X97195576Y-106551189D01*
X97373240Y-106412906D01*
X97525722Y-106247268D01*
X97621555Y-106100585D01*
X97675558Y-106054496D01*
X97727038Y-106043500D01*
X119593247Y-106043500D01*
X119609088Y-106045249D01*
X119609116Y-106044956D01*
X119617002Y-106045700D01*
X119617009Y-106045702D01*
X119687058Y-106043500D01*
X119716956Y-106043500D01*
X119723918Y-106042619D01*
X119729819Y-106042154D01*
X119776989Y-106040673D01*
X119796447Y-106035019D01*
X119815794Y-106031013D01*
X119835897Y-106028474D01*
X119879779Y-106011099D01*
X119885374Y-106009183D01*
X119913916Y-106000891D01*
X119930691Y-105996019D01*
X119930695Y-105996017D01*
X119948126Y-105985708D01*
X119965880Y-105977009D01*
X119984717Y-105969552D01*
X120022886Y-105941818D01*
X120027844Y-105938562D01*
X120068462Y-105914542D01*
X120082785Y-105900218D01*
X120097824Y-105887374D01*
X120114207Y-105875472D01*
X120144293Y-105839103D01*
X120148261Y-105834741D01*
X132032399Y-93950605D01*
X132094711Y-93916579D01*
X132121494Y-93913700D01*
X132177387Y-93913700D01*
X132293703Y-93888976D01*
X132364494Y-93894378D01*
X132421126Y-93937195D01*
X132445620Y-94003832D01*
X132445900Y-94012223D01*
X132445900Y-96331313D01*
X132425898Y-96399434D01*
X132372242Y-96445927D01*
X132346098Y-96454559D01*
X132221215Y-96481104D01*
X132046747Y-96558782D01*
X131892244Y-96671035D01*
X131764465Y-96812948D01*
X131764458Y-96812958D01*
X131668976Y-96978338D01*
X131668973Y-96978344D01*
X131661314Y-97001916D01*
X131609957Y-97159972D01*
X131589996Y-97349900D01*
X131609957Y-97539827D01*
X131618342Y-97565632D01*
X131668973Y-97721456D01*
X131668976Y-97721461D01*
X131764458Y-97886841D01*
X131764465Y-97886851D01*
X131892244Y-98028764D01*
X131892247Y-98028766D01*
X132046748Y-98141018D01*
X132221212Y-98218694D01*
X132408013Y-98258400D01*
X132598987Y-98258400D01*
X132785788Y-98218694D01*
X132960252Y-98141018D01*
X133114753Y-98028766D01*
X133169378Y-97968099D01*
X133242534Y-97886851D01*
X133242535Y-97886849D01*
X133242540Y-97886844D01*
X133338027Y-97721456D01*
X133397042Y-97539828D01*
X133414407Y-97374603D01*
X133441420Y-97308948D01*
X133450613Y-97298689D01*
X133468057Y-97281245D01*
X133480492Y-97271284D01*
X133480305Y-97271057D01*
X133486409Y-97266005D01*
X133486418Y-97266000D01*
X133534399Y-97214904D01*
X133555535Y-97193769D01*
X133559837Y-97188221D01*
X133563667Y-97183735D01*
X133595986Y-97149321D01*
X133605745Y-97131567D01*
X133616604Y-97115038D01*
X133620826Y-97109595D01*
X133629014Y-97099040D01*
X133647754Y-97055732D01*
X133650365Y-97050404D01*
X133673094Y-97009061D01*
X133673095Y-97009060D01*
X133678133Y-96989435D01*
X133684538Y-96970730D01*
X133692581Y-96952145D01*
X133699961Y-96905547D01*
X133701162Y-96899740D01*
X133712900Y-96854030D01*
X133712900Y-96833775D01*
X133714451Y-96814063D01*
X133714626Y-96812958D01*
X133717620Y-96794057D01*
X133714474Y-96760772D01*
X133713180Y-96747080D01*
X133712900Y-96741148D01*
X133712900Y-91799154D01*
X133714649Y-91783312D01*
X133714356Y-91783285D01*
X133715100Y-91775399D01*
X133715102Y-91775392D01*
X133712900Y-91705328D01*
X133712900Y-91675444D01*
X133712020Y-91668482D01*
X133711556Y-91662593D01*
X133710074Y-91615411D01*
X133704420Y-91595952D01*
X133700412Y-91576597D01*
X133697874Y-91556503D01*
X133680503Y-91512629D01*
X133678589Y-91507040D01*
X133665419Y-91461707D01*
X133655103Y-91444264D01*
X133646405Y-91426509D01*
X133638952Y-91407683D01*
X133611218Y-91369510D01*
X133607958Y-91364547D01*
X133607532Y-91363826D01*
X133583942Y-91323938D01*
X133569614Y-91309610D01*
X133556784Y-91294589D01*
X133544872Y-91278193D01*
X133544869Y-91278191D01*
X133544869Y-91278190D01*
X133508507Y-91248108D01*
X133504126Y-91244122D01*
X131480405Y-89220400D01*
X131446379Y-89158088D01*
X131443500Y-89131305D01*
X131443500Y-85905300D01*
X131463502Y-85837179D01*
X131517158Y-85790686D01*
X131569500Y-85779300D01*
X152167741Y-85779300D01*
X152235862Y-85799302D01*
X152282355Y-85852958D01*
X152292459Y-85923232D01*
X152276860Y-85968300D01*
X152186337Y-86125091D01*
X152183073Y-86130744D01*
X152171247Y-86167140D01*
X152124057Y-86312372D01*
X152119149Y-86359071D01*
X152092135Y-86424728D01*
X152082934Y-86434994D01*
X147517411Y-91000518D01*
X147514640Y-91003126D01*
X147467684Y-91044726D01*
X147432057Y-91096339D01*
X147429804Y-91099401D01*
X147391127Y-91148769D01*
X147391122Y-91148779D01*
X147386935Y-91158080D01*
X147375746Y-91177921D01*
X147369945Y-91186326D01*
X147347707Y-91244961D01*
X147346251Y-91248476D01*
X147320513Y-91305665D01*
X147320509Y-91305678D01*
X147318670Y-91315711D01*
X147312551Y-91337661D01*
X147308934Y-91347199D01*
X147301376Y-91409441D01*
X147300804Y-91413201D01*
X147289498Y-91474906D01*
X147289498Y-91474907D01*
X147291613Y-91509878D01*
X147293285Y-91537508D01*
X147293400Y-91541313D01*
X147293400Y-105389585D01*
X147293285Y-105393390D01*
X147289498Y-105455992D01*
X147300802Y-105517682D01*
X147301375Y-105521444D01*
X147308933Y-105583694D01*
X147308934Y-105583698D01*
X147312550Y-105593233D01*
X147318671Y-105615189D01*
X147320512Y-105625232D01*
X147346253Y-105682428D01*
X147347709Y-105685943D01*
X147361234Y-105721605D01*
X147369946Y-105744575D01*
X147375740Y-105752969D01*
X147386935Y-105772819D01*
X147391123Y-105782122D01*
X147391125Y-105782126D01*
X147415349Y-105813046D01*
X147429799Y-105831490D01*
X147432054Y-105834555D01*
X147467683Y-105886171D01*
X147467684Y-105886172D01*
X147467685Y-105886173D01*
X147514650Y-105927780D01*
X147517394Y-105930364D01*
X150805730Y-109218700D01*
X152082934Y-110495904D01*
X152116960Y-110558216D01*
X152119149Y-110571827D01*
X152124057Y-110618527D01*
X152138880Y-110664145D01*
X152183073Y-110800156D01*
X152183076Y-110800161D01*
X152278558Y-110965541D01*
X152278565Y-110965551D01*
X152406344Y-111107464D01*
X152406347Y-111107466D01*
X152560848Y-111219718D01*
X152735312Y-111297394D01*
X152922113Y-111337100D01*
X153113087Y-111337100D01*
X153299888Y-111297394D01*
X153474352Y-111219718D01*
X153628853Y-111107466D01*
X153756640Y-110965544D01*
X153852127Y-110800156D01*
X153911142Y-110618528D01*
X153931104Y-110428600D01*
X153911142Y-110238672D01*
X153852127Y-110057044D01*
X153756640Y-109891656D01*
X153756638Y-109891654D01*
X153756634Y-109891648D01*
X153628855Y-109749735D01*
X153474352Y-109637482D01*
X153299888Y-109559806D01*
X153147031Y-109527315D01*
X153084557Y-109493586D01*
X153084133Y-109493163D01*
X148747305Y-105156335D01*
X148713279Y-105094023D01*
X148710400Y-105067240D01*
X148710400Y-98057194D01*
X148730402Y-97989073D01*
X148784058Y-97942580D01*
X148854332Y-97932476D01*
X148918912Y-97961970D01*
X148925495Y-97968099D01*
X149126053Y-98168657D01*
X149136020Y-98181097D01*
X149136247Y-98180910D01*
X149141299Y-98187017D01*
X149192395Y-98234999D01*
X149213525Y-98256130D01*
X149219068Y-98260430D01*
X149223581Y-98264285D01*
X149257979Y-98296586D01*
X149257980Y-98296586D01*
X149257982Y-98296588D01*
X149275729Y-98306344D01*
X149292259Y-98317202D01*
X149308259Y-98329613D01*
X149339436Y-98343104D01*
X149351551Y-98348347D01*
X149356885Y-98350959D01*
X149398240Y-98373695D01*
X149417862Y-98378733D01*
X149436563Y-98385135D01*
X149449114Y-98390567D01*
X149455152Y-98393180D01*
X149455153Y-98393180D01*
X149455155Y-98393181D01*
X149501777Y-98400564D01*
X149507562Y-98401763D01*
X149553270Y-98413500D01*
X149573524Y-98413500D01*
X149593234Y-98415051D01*
X149595441Y-98415400D01*
X149613243Y-98418220D01*
X149647170Y-98415012D01*
X149660217Y-98413780D01*
X149666150Y-98413500D01*
X155511800Y-98413500D01*
X155579921Y-98433502D01*
X155605437Y-98455190D01*
X155608747Y-98458866D01*
X155763248Y-98571118D01*
X155937712Y-98648794D01*
X156124513Y-98688500D01*
X156315487Y-98688500D01*
X156502288Y-98648794D01*
X156676752Y-98571118D01*
X156831253Y-98458866D01*
X156834563Y-98455190D01*
X156895009Y-98417950D01*
X156928200Y-98413500D01*
X184142962Y-98413500D01*
X184211083Y-98433502D01*
X184248445Y-98470585D01*
X184344275Y-98617265D01*
X184344279Y-98617270D01*
X184496762Y-98782908D01*
X184509610Y-98792908D01*
X184674424Y-98921189D01*
X184707680Y-98939186D01*
X184758071Y-98989200D01*
X184773423Y-99058516D01*
X184748862Y-99125129D01*
X184707680Y-99160813D01*
X184674426Y-99178810D01*
X184674424Y-99178811D01*
X184496762Y-99317091D01*
X184344279Y-99482729D01*
X184344275Y-99482734D01*
X184221141Y-99671206D01*
X184130703Y-99877386D01*
X184130702Y-99877387D01*
X184075437Y-100095624D01*
X184075436Y-100095630D01*
X184075436Y-100095632D01*
X184056844Y-100320000D01*
X184075437Y-100544375D01*
X184130702Y-100762612D01*
X184130703Y-100762613D01*
X184130704Y-100762616D01*
X184221140Y-100968791D01*
X184221141Y-100968793D01*
X184344275Y-101157265D01*
X184344279Y-101157270D01*
X184487841Y-101313217D01*
X184519262Y-101376882D01*
X184511276Y-101447428D01*
X184466417Y-101502457D01*
X184439173Y-101516610D01*
X184324039Y-101559553D01*
X184324034Y-101559555D01*
X184207095Y-101647095D01*
X184119555Y-101764034D01*
X184119555Y-101764035D01*
X184068505Y-101900906D01*
X184062000Y-101961402D01*
X184062000Y-102606000D01*
X184988884Y-102606000D01*
X184960507Y-102650156D01*
X184920000Y-102788111D01*
X184920000Y-102931889D01*
X184960507Y-103069844D01*
X184988884Y-103114000D01*
X184062000Y-103114000D01*
X184062000Y-103758597D01*
X184068505Y-103819093D01*
X184119555Y-103955964D01*
X184119555Y-103955965D01*
X184207095Y-104072904D01*
X184324034Y-104160444D01*
X184460906Y-104211494D01*
X184521402Y-104217999D01*
X184521415Y-104218000D01*
X185166000Y-104218000D01*
X185166000Y-103293674D01*
X185277685Y-103344680D01*
X185384237Y-103360000D01*
X185455763Y-103360000D01*
X185562315Y-103344680D01*
X185674000Y-103293674D01*
X185674000Y-104218000D01*
X186318585Y-104218000D01*
X186318597Y-104217999D01*
X186379093Y-104211494D01*
X186515964Y-104160444D01*
X186515965Y-104160444D01*
X186632904Y-104072904D01*
X186720444Y-103955965D01*
X186720444Y-103955964D01*
X186771494Y-103819093D01*
X186777999Y-103758597D01*
X186778000Y-103758585D01*
X186778000Y-103114000D01*
X185851116Y-103114000D01*
X185879493Y-103069844D01*
X185920000Y-102931889D01*
X185920000Y-102788111D01*
X185879493Y-102650156D01*
X185851116Y-102606000D01*
X186778000Y-102606000D01*
X186778000Y-101961414D01*
X186777999Y-101961402D01*
X186771494Y-101900906D01*
X186720444Y-101764035D01*
X186720444Y-101764034D01*
X186632904Y-101647095D01*
X186515966Y-101559556D01*
X186400826Y-101516611D01*
X186343991Y-101474064D01*
X186319180Y-101407543D01*
X186334272Y-101338169D01*
X186352154Y-101313222D01*
X186495722Y-101157268D01*
X186618860Y-100968791D01*
X186709296Y-100762616D01*
X186764564Y-100544368D01*
X186783156Y-100320000D01*
X186764564Y-100095632D01*
X186711829Y-99887386D01*
X186709297Y-99877387D01*
X186709296Y-99877386D01*
X186709296Y-99877384D01*
X186618860Y-99671209D01*
X186502257Y-99492734D01*
X186495724Y-99482734D01*
X186495720Y-99482729D01*
X186343237Y-99317091D01*
X186261382Y-99253381D01*
X186165576Y-99178811D01*
X186132319Y-99160813D01*
X186081929Y-99110802D01*
X186066576Y-99041485D01*
X186091136Y-98974872D01*
X186132320Y-98939186D01*
X186165576Y-98921189D01*
X186343240Y-98782906D01*
X186495722Y-98617268D01*
X186618860Y-98428791D01*
X186709296Y-98222616D01*
X186764564Y-98004368D01*
X186783156Y-97780000D01*
X186764564Y-97555632D01*
X186718722Y-97374605D01*
X186709297Y-97337387D01*
X186709296Y-97337386D01*
X186709296Y-97337384D01*
X186618860Y-97131209D01*
X186572862Y-97060803D01*
X186495724Y-96942734D01*
X186495720Y-96942729D01*
X186343237Y-96777091D01*
X186256945Y-96709927D01*
X186165576Y-96638811D01*
X186132319Y-96620813D01*
X186081929Y-96570802D01*
X186066576Y-96501485D01*
X186091136Y-96434872D01*
X186132320Y-96399186D01*
X186165576Y-96381189D01*
X186343240Y-96242906D01*
X186495722Y-96077268D01*
X186618860Y-95888791D01*
X186709296Y-95682616D01*
X186764564Y-95464368D01*
X186783156Y-95240000D01*
X186764564Y-95015632D01*
X186716544Y-94826006D01*
X186709297Y-94797387D01*
X186709296Y-94797386D01*
X186709296Y-94797384D01*
X186618860Y-94591209D01*
X186502257Y-94412734D01*
X186495724Y-94402734D01*
X186495720Y-94402729D01*
X186343237Y-94237091D01*
X186247855Y-94162852D01*
X186165576Y-94098811D01*
X185967574Y-93991658D01*
X185967572Y-93991657D01*
X185967571Y-93991656D01*
X185754639Y-93918557D01*
X185754630Y-93918555D01*
X185710476Y-93911187D01*
X185532569Y-93881500D01*
X185307431Y-93881500D01*
X185159211Y-93906233D01*
X185085369Y-93918555D01*
X185085360Y-93918557D01*
X184872428Y-93991656D01*
X184872426Y-93991658D01*
X184674426Y-94098810D01*
X184674424Y-94098811D01*
X184496762Y-94237091D01*
X184344279Y-94402729D01*
X184344275Y-94402734D01*
X184248445Y-94549415D01*
X184194442Y-94595504D01*
X184142962Y-94606500D01*
X166463849Y-94606500D01*
X166448010Y-94604751D01*
X166447983Y-94605045D01*
X166440091Y-94604299D01*
X166370060Y-94606500D01*
X166340144Y-94606500D01*
X166333172Y-94607379D01*
X166327265Y-94607844D01*
X166280110Y-94609326D01*
X166280105Y-94609327D01*
X166260660Y-94614977D01*
X166241302Y-94618986D01*
X166221210Y-94621524D01*
X166221202Y-94621526D01*
X166177336Y-94638893D01*
X166171721Y-94640816D01*
X166126407Y-94653982D01*
X166126402Y-94653984D01*
X166108963Y-94664297D01*
X166091218Y-94672990D01*
X166072380Y-94680449D01*
X166050278Y-94696507D01*
X166034212Y-94708180D01*
X166029261Y-94711433D01*
X165988640Y-94735455D01*
X165974307Y-94749787D01*
X165959281Y-94762620D01*
X165942895Y-94774526D01*
X165942894Y-94774526D01*
X165912822Y-94810875D01*
X165908827Y-94815266D01*
X165149500Y-95574595D01*
X165087187Y-95608620D01*
X165060404Y-95611500D01*
X165004513Y-95611500D01*
X164817711Y-95651206D01*
X164643247Y-95728882D01*
X164488747Y-95841133D01*
X164485437Y-95844810D01*
X164424991Y-95882050D01*
X164391800Y-95886500D01*
X151230695Y-95886500D01*
X151162574Y-95866498D01*
X151141600Y-95849595D01*
X151038021Y-95746016D01*
X151003995Y-95683704D01*
X151001808Y-95670106D01*
X150984442Y-95504872D01*
X150925427Y-95323244D01*
X150829940Y-95157856D01*
X150829938Y-95157854D01*
X150829934Y-95157848D01*
X150702155Y-95015935D01*
X150547652Y-94903682D01*
X150373188Y-94826006D01*
X150186387Y-94786300D01*
X149995413Y-94786300D01*
X149808611Y-94826006D01*
X149634147Y-94903682D01*
X149479644Y-95015935D01*
X149351865Y-95157848D01*
X149351858Y-95157858D01*
X149256376Y-95323238D01*
X149256373Y-95323245D01*
X149197357Y-95504872D01*
X149177396Y-95694800D01*
X149197357Y-95884727D01*
X149206978Y-95914335D01*
X149209006Y-95985303D01*
X149172344Y-96046101D01*
X149108632Y-96077426D01*
X149060948Y-96076519D01*
X148899488Y-96042200D01*
X148899487Y-96042200D01*
X148836400Y-96042200D01*
X148768279Y-96022198D01*
X148721786Y-95968542D01*
X148710400Y-95916200D01*
X148710400Y-91863660D01*
X148730402Y-91795539D01*
X148747305Y-91774565D01*
X150490970Y-90030900D01*
X153084135Y-87437734D01*
X153146445Y-87403710D01*
X153146684Y-87403658D01*
X153299888Y-87371094D01*
X153474352Y-87293418D01*
X153628853Y-87181166D01*
X153756640Y-87039244D01*
X153852127Y-86873856D01*
X153911142Y-86692228D01*
X153931104Y-86502300D01*
X153911142Y-86312372D01*
X153852127Y-86130744D01*
X153758340Y-85968300D01*
X153741602Y-85899305D01*
X153764822Y-85832213D01*
X153820630Y-85788326D01*
X153867459Y-85779300D01*
X154800347Y-85779300D01*
X154816188Y-85781049D01*
X154816216Y-85780756D01*
X154824102Y-85781500D01*
X154824109Y-85781502D01*
X154894158Y-85779300D01*
X154924056Y-85779300D01*
X154931018Y-85778419D01*
X154936919Y-85777954D01*
X154984089Y-85776473D01*
X155003547Y-85770819D01*
X155022894Y-85766813D01*
X155042997Y-85764274D01*
X155086879Y-85746899D01*
X155092474Y-85744983D01*
X155121016Y-85736691D01*
X155137791Y-85731819D01*
X155137795Y-85731817D01*
X155155226Y-85721508D01*
X155172980Y-85712809D01*
X155191817Y-85705352D01*
X155229986Y-85677618D01*
X155234944Y-85674362D01*
X155275562Y-85650342D01*
X155289885Y-85636018D01*
X155304924Y-85623174D01*
X155321307Y-85611272D01*
X155351393Y-85574903D01*
X155355361Y-85570541D01*
X156015181Y-84910721D01*
X156077491Y-84876697D01*
X156116623Y-84874425D01*
X156166106Y-84879298D01*
X156209998Y-84883622D01*
X156210000Y-84883622D01*
X156210001Y-84883622D01*
X156230110Y-84881641D01*
X156303374Y-84874425D01*
X156373126Y-84887653D01*
X156404819Y-84910723D01*
X157523555Y-86029460D01*
X157533520Y-86041897D01*
X157533747Y-86041710D01*
X157538799Y-86047817D01*
X157589879Y-86095784D01*
X157611023Y-86116929D01*
X157611027Y-86116932D01*
X157611030Y-86116935D01*
X157616582Y-86121242D01*
X157621069Y-86125073D01*
X157642652Y-86145341D01*
X157655477Y-86157385D01*
X157655479Y-86157386D01*
X157673228Y-86167143D01*
X157689753Y-86177998D01*
X157705759Y-86190414D01*
X157745949Y-86207805D01*
X157749062Y-86209152D01*
X157754383Y-86211758D01*
X157795740Y-86234495D01*
X157795748Y-86234497D01*
X157815358Y-86239532D01*
X157834067Y-86245937D01*
X157852655Y-86253981D01*
X157899277Y-86261364D01*
X157905062Y-86262563D01*
X157950770Y-86274300D01*
X157971024Y-86274300D01*
X157990734Y-86275851D01*
X157992941Y-86276200D01*
X158010743Y-86279020D01*
X158045272Y-86275756D01*
X158057717Y-86274580D01*
X158063650Y-86274300D01*
X179705347Y-86274300D01*
X179721188Y-86276049D01*
X179721216Y-86275756D01*
X179729102Y-86276500D01*
X179729109Y-86276502D01*
X179799158Y-86274300D01*
X179829056Y-86274300D01*
X179836018Y-86273419D01*
X179841919Y-86272954D01*
X179889089Y-86271473D01*
X179908547Y-86265819D01*
X179927894Y-86261813D01*
X179947997Y-86259274D01*
X179991879Y-86241899D01*
X179997474Y-86239983D01*
X180026016Y-86231691D01*
X180042791Y-86226819D01*
X180042795Y-86226817D01*
X180060226Y-86216508D01*
X180077980Y-86207809D01*
X180096817Y-86200352D01*
X180134986Y-86172618D01*
X180139944Y-86169362D01*
X180180562Y-86145342D01*
X180194885Y-86131018D01*
X180209924Y-86118174D01*
X180226307Y-86106272D01*
X180256393Y-86069903D01*
X180260361Y-86065541D01*
X181415182Y-84910721D01*
X181477492Y-84876697D01*
X181516624Y-84874425D01*
X181553875Y-84878094D01*
X181609998Y-84883622D01*
X181610000Y-84883622D01*
X181610003Y-84883622D01*
X181817495Y-84863186D01*
X181817496Y-84863185D01*
X181817502Y-84863185D01*
X182017031Y-84802659D01*
X182200917Y-84704369D01*
X182362094Y-84572094D01*
X182494369Y-84410917D01*
X182592659Y-84227031D01*
X182653185Y-84027502D01*
X182654435Y-84014818D01*
X182673622Y-83820003D01*
X182673622Y-83819996D01*
X182663355Y-83715750D01*
X182676584Y-83645996D01*
X182725424Y-83594468D01*
X182788748Y-83577400D01*
X182959306Y-83577400D01*
X183027427Y-83597402D01*
X183048401Y-83614305D01*
X183059276Y-83625180D01*
X183093302Y-83687492D01*
X183095574Y-83726625D01*
X183086378Y-83819996D01*
X183086378Y-83820003D01*
X183106813Y-84027495D01*
X183106814Y-84027501D01*
X183106815Y-84027502D01*
X183167341Y-84227031D01*
X183265631Y-84410917D01*
X183397906Y-84572094D01*
X183559083Y-84704369D01*
X183742969Y-84802659D01*
X183942498Y-84863185D01*
X183942502Y-84863185D01*
X183942504Y-84863186D01*
X184149997Y-84883622D01*
X184150000Y-84883622D01*
X184150003Y-84883622D01*
X184357495Y-84863186D01*
X184357496Y-84863185D01*
X184357502Y-84863185D01*
X184557031Y-84802659D01*
X184740917Y-84704369D01*
X184902094Y-84572094D01*
X185034369Y-84410917D01*
X185132659Y-84227031D01*
X185193185Y-84027502D01*
X185194435Y-84014818D01*
X185213622Y-83820003D01*
X185213622Y-83819996D01*
X185193186Y-83612504D01*
X185193185Y-83612502D01*
X185193185Y-83612498D01*
X185132659Y-83412969D01*
X185034369Y-83229083D01*
X184902094Y-83067906D01*
X184740917Y-82935631D01*
X184557031Y-82837341D01*
X184357502Y-82776815D01*
X184357501Y-82776814D01*
X184357495Y-82776813D01*
X184150003Y-82756378D01*
X184149995Y-82756378D01*
X184056625Y-82765573D01*
X183986872Y-82752344D01*
X183955181Y-82729276D01*
X183781145Y-82555241D01*
X183771180Y-82542802D01*
X183770953Y-82542991D01*
X183765899Y-82536881D01*
X183714820Y-82488915D01*
X183693677Y-82467771D01*
X183693672Y-82467766D01*
X183688125Y-82463463D01*
X183683617Y-82459612D01*
X183649225Y-82427317D01*
X183649219Y-82427313D01*
X183631463Y-82417551D01*
X183614947Y-82406702D01*
X183598941Y-82394286D01*
X183568189Y-82380978D01*
X183555640Y-82375548D01*
X183550308Y-82372936D01*
X183508961Y-82350205D01*
X183489336Y-82345166D01*
X183470636Y-82338764D01*
X183452045Y-82330719D01*
X183452043Y-82330718D01*
X183452042Y-82330718D01*
X183405442Y-82323337D01*
X183399629Y-82322133D01*
X183353930Y-82310400D01*
X183333676Y-82310400D01*
X183313966Y-82308849D01*
X183293957Y-82305680D01*
X183293956Y-82305680D01*
X183246983Y-82310120D01*
X183241050Y-82310400D01*
X181268154Y-82310400D01*
X181252312Y-82308650D01*
X181252285Y-82308944D01*
X181244392Y-82308197D01*
X181174329Y-82310400D01*
X181144444Y-82310400D01*
X181144440Y-82310400D01*
X181144429Y-82310401D01*
X181137490Y-82311277D01*
X181131577Y-82311743D01*
X181084411Y-82313225D01*
X181064950Y-82318879D01*
X181045604Y-82322885D01*
X181025504Y-82325425D01*
X181025503Y-82325425D01*
X180981635Y-82342793D01*
X180976020Y-82344715D01*
X180930713Y-82357878D01*
X180930704Y-82357882D01*
X180913262Y-82368197D01*
X180895515Y-82376891D01*
X180876683Y-82384347D01*
X180876681Y-82384348D01*
X180838514Y-82412078D01*
X180833554Y-82415336D01*
X180792936Y-82439359D01*
X180792933Y-82439361D01*
X180778612Y-82453683D01*
X180763583Y-82466519D01*
X180747193Y-82478427D01*
X180717108Y-82514792D01*
X180713112Y-82519183D01*
X180074686Y-83157608D01*
X180012374Y-83191634D01*
X179941559Y-83186569D01*
X179888192Y-83148446D01*
X179822096Y-83067908D01*
X179660917Y-82935631D01*
X179477031Y-82837341D01*
X179277495Y-82776813D01*
X179070003Y-82756378D01*
X179069997Y-82756378D01*
X178862504Y-82776813D01*
X178662968Y-82837341D01*
X178479082Y-82935631D01*
X178317906Y-83067906D01*
X178185631Y-83229082D01*
X178087341Y-83412968D01*
X178026813Y-83612504D01*
X178006378Y-83819996D01*
X178006378Y-83820003D01*
X178026813Y-84027495D01*
X178026814Y-84027501D01*
X178026815Y-84027502D01*
X178028967Y-84034595D01*
X178086098Y-84222936D01*
X178087341Y-84227031D01*
X178164297Y-84371005D01*
X178178769Y-84440509D01*
X178153366Y-84506806D01*
X178096153Y-84548844D01*
X178053175Y-84556400D01*
X177546825Y-84556400D01*
X177478704Y-84536398D01*
X177432211Y-84482742D01*
X177422107Y-84412468D01*
X177435701Y-84371006D01*
X177512659Y-84227031D01*
X177573185Y-84027502D01*
X177574435Y-84014818D01*
X177593622Y-83820003D01*
X177593622Y-83819996D01*
X177573186Y-83612504D01*
X177573185Y-83612502D01*
X177573185Y-83612498D01*
X177512659Y-83412969D01*
X177414369Y-83229083D01*
X177282094Y-83067906D01*
X177120917Y-82935631D01*
X176937031Y-82837341D01*
X176737502Y-82776815D01*
X176737501Y-82776814D01*
X176737495Y-82776813D01*
X176530003Y-82756378D01*
X176529997Y-82756378D01*
X176322504Y-82776813D01*
X176122968Y-82837341D01*
X175939082Y-82935631D01*
X175777906Y-83067906D01*
X175645631Y-83229082D01*
X175547341Y-83412968D01*
X175486813Y-83612504D01*
X175466378Y-83819996D01*
X175466378Y-83820004D01*
X175475573Y-83913373D01*
X175462344Y-83983126D01*
X175439280Y-84014813D01*
X175419504Y-84034591D01*
X175357193Y-84068619D01*
X175330404Y-84071500D01*
X175167871Y-84071500D01*
X175099750Y-84051498D01*
X175053257Y-83997842D01*
X175042478Y-83933150D01*
X175053622Y-83820002D01*
X175053622Y-83819996D01*
X175033186Y-83612504D01*
X175033185Y-83612502D01*
X175033185Y-83612498D01*
X174972659Y-83412969D01*
X174874369Y-83229083D01*
X174742094Y-83067906D01*
X174580917Y-82935631D01*
X174397031Y-82837341D01*
X174197502Y-82776815D01*
X174197501Y-82776814D01*
X174197495Y-82776813D01*
X173990003Y-82756378D01*
X173989997Y-82756378D01*
X173896626Y-82765574D01*
X173826873Y-82752345D01*
X173795181Y-82729276D01*
X172683744Y-81617839D01*
X172673779Y-81605401D01*
X172673552Y-81605590D01*
X172668501Y-81599484D01*
X172668500Y-81599482D01*
X172617421Y-81551516D01*
X172606931Y-81541026D01*
X172596277Y-81530371D01*
X172596272Y-81530366D01*
X172590725Y-81526063D01*
X172586217Y-81522212D01*
X172551825Y-81489917D01*
X172551819Y-81489913D01*
X172534063Y-81480151D01*
X172517547Y-81469302D01*
X172501541Y-81456886D01*
X172470789Y-81443578D01*
X172458240Y-81438148D01*
X172452908Y-81435536D01*
X172411561Y-81412805D01*
X172391936Y-81407766D01*
X172373236Y-81401364D01*
X172354645Y-81393319D01*
X172354643Y-81393318D01*
X172354642Y-81393318D01*
X172308042Y-81385937D01*
X172302229Y-81384733D01*
X172256530Y-81373000D01*
X172236276Y-81373000D01*
X172216566Y-81371449D01*
X172196557Y-81368280D01*
X172196556Y-81368280D01*
X172149583Y-81372720D01*
X172143650Y-81373000D01*
X150487353Y-81373000D01*
X150471511Y-81371250D01*
X150471484Y-81371544D01*
X150463592Y-81370798D01*
X150463591Y-81370798D01*
X150393542Y-81373000D01*
X150363644Y-81373000D01*
X150363640Y-81373000D01*
X150363630Y-81373001D01*
X150356679Y-81373879D01*
X150350767Y-81374344D01*
X150303612Y-81375826D01*
X150303610Y-81375827D01*
X150284155Y-81381478D01*
X150264802Y-81385486D01*
X150244710Y-81388024D01*
X150244702Y-81388026D01*
X150200836Y-81405393D01*
X150195221Y-81407316D01*
X150149907Y-81420482D01*
X150149902Y-81420484D01*
X150132463Y-81430797D01*
X150114718Y-81439490D01*
X150095880Y-81446949D01*
X150082204Y-81456886D01*
X150057712Y-81474680D01*
X150052761Y-81477933D01*
X150012140Y-81501955D01*
X149997807Y-81516287D01*
X149982781Y-81529120D01*
X149966395Y-81541026D01*
X149966394Y-81541026D01*
X149936318Y-81577380D01*
X149932323Y-81581771D01*
X148784818Y-82729275D01*
X148722506Y-82763301D01*
X148683374Y-82765573D01*
X148590005Y-82756378D01*
X148589997Y-82756378D01*
X148496626Y-82765574D01*
X148426873Y-82752345D01*
X148395181Y-82729276D01*
X147734244Y-82068339D01*
X147724279Y-82055901D01*
X147724052Y-82056090D01*
X147719001Y-82049984D01*
X147719000Y-82049982D01*
X147667920Y-82002015D01*
X147657430Y-81991525D01*
X147646777Y-81980871D01*
X147646772Y-81980866D01*
X147641225Y-81976563D01*
X147636717Y-81972712D01*
X147602325Y-81940417D01*
X147602319Y-81940413D01*
X147584563Y-81930651D01*
X147568047Y-81919802D01*
X147552041Y-81907386D01*
X147521289Y-81894078D01*
X147508740Y-81888648D01*
X147503408Y-81886036D01*
X147462061Y-81863305D01*
X147442436Y-81858266D01*
X147423736Y-81851864D01*
X147405145Y-81843819D01*
X147405143Y-81843818D01*
X147405142Y-81843818D01*
X147358542Y-81836437D01*
X147352729Y-81835233D01*
X147307030Y-81823500D01*
X147286776Y-81823500D01*
X147267066Y-81821949D01*
X147247057Y-81818780D01*
X147247056Y-81818780D01*
X147200083Y-81823220D01*
X147194150Y-81823500D01*
X124636853Y-81823500D01*
X124621011Y-81821750D01*
X124620984Y-81822044D01*
X124613092Y-81821298D01*
X124613091Y-81821298D01*
X124543042Y-81823500D01*
X124513144Y-81823500D01*
X124513140Y-81823500D01*
X124513130Y-81823501D01*
X124506179Y-81824379D01*
X124500267Y-81824844D01*
X124453113Y-81826326D01*
X124453111Y-81826327D01*
X124433656Y-81831978D01*
X124414303Y-81835986D01*
X124394211Y-81838524D01*
X124394204Y-81838525D01*
X124394203Y-81838526D01*
X124394201Y-81838526D01*
X124394200Y-81838527D01*
X124350339Y-81855892D01*
X124344724Y-81857815D01*
X124299407Y-81870982D01*
X124281964Y-81881297D01*
X124264218Y-81889990D01*
X124245382Y-81897448D01*
X124207209Y-81925181D01*
X124202248Y-81928440D01*
X124161638Y-81952458D01*
X124147311Y-81966784D01*
X124132285Y-81979617D01*
X124115895Y-81991525D01*
X124115893Y-81991527D01*
X124085813Y-82027886D01*
X124081817Y-82032277D01*
X123384817Y-82729276D01*
X123322505Y-82763301D01*
X123283373Y-82765573D01*
X123190005Y-82756378D01*
X123189995Y-82756378D01*
X123096625Y-82765573D01*
X123026872Y-82752344D01*
X122995181Y-82729276D01*
X122821845Y-82555941D01*
X122811880Y-82543502D01*
X122811653Y-82543691D01*
X122806599Y-82537581D01*
X122755520Y-82489615D01*
X122734377Y-82468471D01*
X122734372Y-82468466D01*
X122728825Y-82464163D01*
X122724317Y-82460312D01*
X122689925Y-82428017D01*
X122689919Y-82428013D01*
X122672163Y-82418251D01*
X122655647Y-82407402D01*
X122639641Y-82394986D01*
X122599443Y-82377591D01*
X122596340Y-82376248D01*
X122591008Y-82373636D01*
X122549661Y-82350905D01*
X122530036Y-82345866D01*
X122511336Y-82339464D01*
X122509718Y-82338764D01*
X122492745Y-82331419D01*
X122492743Y-82331418D01*
X122492742Y-82331418D01*
X122446142Y-82324037D01*
X122440329Y-82322833D01*
X122394630Y-82311100D01*
X122374376Y-82311100D01*
X122354666Y-82309549D01*
X122334657Y-82306380D01*
X122334656Y-82306380D01*
X122287683Y-82310820D01*
X122281750Y-82311100D01*
X98749254Y-82311100D01*
X98733412Y-82309350D01*
X98733385Y-82309644D01*
X98725492Y-82308897D01*
X98655429Y-82311100D01*
X98625544Y-82311100D01*
X98625540Y-82311100D01*
X98625529Y-82311101D01*
X98618590Y-82311977D01*
X98612677Y-82312443D01*
X98565511Y-82313925D01*
X98546050Y-82319579D01*
X98526704Y-82323585D01*
X98506604Y-82326125D01*
X98506603Y-82326125D01*
X98462735Y-82343493D01*
X98457120Y-82345415D01*
X98411813Y-82358578D01*
X98411804Y-82358582D01*
X98394362Y-82368897D01*
X98376615Y-82377591D01*
X98357783Y-82385047D01*
X98357781Y-82385048D01*
X98319614Y-82412778D01*
X98314654Y-82416036D01*
X98274036Y-82440059D01*
X98274033Y-82440061D01*
X98259712Y-82454383D01*
X98244683Y-82467219D01*
X98228293Y-82479127D01*
X98198208Y-82515492D01*
X98194212Y-82519883D01*
X97984818Y-82729276D01*
X97922506Y-82763302D01*
X97883373Y-82765574D01*
X97790003Y-82756378D01*
X97789997Y-82756378D01*
X97582504Y-82776813D01*
X97382968Y-82837341D01*
X97199082Y-82935631D01*
X97037906Y-83067906D01*
X96905631Y-83229082D01*
X96807341Y-83412968D01*
X96746813Y-83612504D01*
X96726378Y-83819996D01*
X96726378Y-83820003D01*
X96746813Y-84027495D01*
X96746814Y-84027501D01*
X96746815Y-84027502D01*
X96807341Y-84227031D01*
X96905631Y-84410917D01*
X97037906Y-84572094D01*
X97199083Y-84704369D01*
X97382969Y-84802659D01*
X97582498Y-84863185D01*
X97582502Y-84863185D01*
X97582504Y-84863186D01*
X97789997Y-84883622D01*
X97790000Y-84883622D01*
X97790003Y-84883622D01*
X97997495Y-84863186D01*
X97997496Y-84863185D01*
X97997502Y-84863185D01*
X98197031Y-84802659D01*
X98380917Y-84704369D01*
X98542094Y-84572094D01*
X98674369Y-84410917D01*
X98772659Y-84227031D01*
X98833185Y-84027502D01*
X98834435Y-84014818D01*
X98853622Y-83820003D01*
X98853622Y-83819998D01*
X98844425Y-83726627D01*
X98857653Y-83656874D01*
X98880727Y-83625176D01*
X98890904Y-83615000D01*
X98953218Y-83580978D01*
X98979995Y-83578100D01*
X99151183Y-83578100D01*
X99219304Y-83598102D01*
X99265797Y-83651758D01*
X99276576Y-83716450D01*
X99266378Y-83819996D01*
X99266378Y-83820003D01*
X99286813Y-84027495D01*
X99286814Y-84027501D01*
X99286815Y-84027502D01*
X99347341Y-84227031D01*
X99445631Y-84410917D01*
X99577906Y-84572094D01*
X99739083Y-84704369D01*
X99922969Y-84802659D01*
X100122498Y-84863185D01*
X100122502Y-84863185D01*
X100122504Y-84863186D01*
X100329997Y-84883622D01*
X100330000Y-84883622D01*
X100330001Y-84883622D01*
X100350110Y-84881641D01*
X100423374Y-84874425D01*
X100493126Y-84887653D01*
X100524819Y-84910723D01*
X101172253Y-85558157D01*
X101182220Y-85570597D01*
X101182447Y-85570410D01*
X101187499Y-85576517D01*
X101238595Y-85624499D01*
X101259725Y-85645630D01*
X101265268Y-85649930D01*
X101269781Y-85653785D01*
X101304179Y-85686086D01*
X101304180Y-85686086D01*
X101304182Y-85686088D01*
X101321929Y-85695844D01*
X101338459Y-85706702D01*
X101354459Y-85719113D01*
X101377425Y-85729051D01*
X101397751Y-85737847D01*
X101403085Y-85740459D01*
X101444440Y-85763195D01*
X101464062Y-85768233D01*
X101482763Y-85774635D01*
X101490649Y-85778048D01*
X101501352Y-85782680D01*
X101501353Y-85782680D01*
X101501355Y-85782681D01*
X101547977Y-85790064D01*
X101553762Y-85791263D01*
X101599470Y-85803000D01*
X101619724Y-85803000D01*
X101639434Y-85804551D01*
X101641641Y-85804900D01*
X101659443Y-85807720D01*
X101693972Y-85804456D01*
X101706417Y-85803280D01*
X101712350Y-85803000D01*
X124296647Y-85803000D01*
X124312488Y-85804749D01*
X124312516Y-85804456D01*
X124320402Y-85805200D01*
X124320409Y-85805202D01*
X124390458Y-85803000D01*
X124420356Y-85803000D01*
X124427318Y-85802119D01*
X124433219Y-85801654D01*
X124480389Y-85800173D01*
X124499847Y-85794519D01*
X124519194Y-85790513D01*
X124539297Y-85787974D01*
X124583179Y-85770599D01*
X124588774Y-85768683D01*
X124617316Y-85760391D01*
X124634091Y-85755519D01*
X124634095Y-85755517D01*
X124651526Y-85745208D01*
X124669280Y-85736509D01*
X124688117Y-85729052D01*
X124726286Y-85701318D01*
X124731244Y-85698062D01*
X124771862Y-85674042D01*
X124786185Y-85659718D01*
X124801224Y-85646874D01*
X124802931Y-85645634D01*
X124817607Y-85634972D01*
X124847693Y-85598603D01*
X124851661Y-85594241D01*
X125535181Y-84910721D01*
X125597491Y-84876697D01*
X125636623Y-84874425D01*
X125686106Y-84879298D01*
X125729998Y-84883622D01*
X125730000Y-84883622D01*
X125730003Y-84883622D01*
X125905787Y-84866309D01*
X125975540Y-84879538D01*
X126027068Y-84928378D01*
X126044012Y-84997323D01*
X126020990Y-85064484D01*
X126007232Y-85080797D01*
X123860435Y-87227595D01*
X123798123Y-87261620D01*
X123771340Y-87264500D01*
X123636213Y-87264500D01*
X123449411Y-87304206D01*
X123274947Y-87381882D01*
X123120444Y-87494135D01*
X122992665Y-87636048D01*
X122992658Y-87636058D01*
X122897176Y-87801438D01*
X122897173Y-87801445D01*
X122838157Y-87983072D01*
X122818196Y-88173000D01*
X122838157Y-88362927D01*
X122868226Y-88455470D01*
X122897173Y-88544556D01*
X122897176Y-88544561D01*
X122914692Y-88574900D01*
X122931430Y-88643895D01*
X122908210Y-88710987D01*
X122852403Y-88754874D01*
X122805573Y-88763900D01*
X101021753Y-88763900D01*
X101005911Y-88762150D01*
X101005884Y-88762444D01*
X100997991Y-88761697D01*
X100927928Y-88763900D01*
X100898044Y-88763900D01*
X100898040Y-88763900D01*
X100898029Y-88763901D01*
X100891090Y-88764777D01*
X100885177Y-88765243D01*
X100838014Y-88766725D01*
X100838007Y-88766727D01*
X100818549Y-88772379D01*
X100799204Y-88776385D01*
X100779106Y-88778925D01*
X100779097Y-88778927D01*
X100735231Y-88796294D01*
X100729616Y-88798217D01*
X100684308Y-88811381D01*
X100666864Y-88821697D01*
X100649118Y-88830390D01*
X100630282Y-88837848D01*
X100592109Y-88865581D01*
X100587148Y-88868840D01*
X100546538Y-88892858D01*
X100532211Y-88907184D01*
X100517185Y-88920017D01*
X100500795Y-88931925D01*
X100500793Y-88931927D01*
X100470708Y-88968292D01*
X100466712Y-88972683D01*
X97885694Y-91553699D01*
X97823382Y-91587725D01*
X97752566Y-91582660D01*
X97695731Y-91540113D01*
X97663261Y-91496738D01*
X97546207Y-91409112D01*
X97546202Y-91409110D01*
X97409204Y-91358011D01*
X97409196Y-91358009D01*
X97348649Y-91351500D01*
X97348638Y-91351500D01*
X95551362Y-91351500D01*
X95551350Y-91351500D01*
X95490803Y-91358009D01*
X95490795Y-91358011D01*
X95353797Y-91409110D01*
X95353792Y-91409112D01*
X95236738Y-91496738D01*
X95149112Y-91613792D01*
X95149110Y-91613797D01*
X95098011Y-91750795D01*
X95098009Y-91750803D01*
X95091500Y-91811350D01*
X95091500Y-93608649D01*
X95098009Y-93669196D01*
X95098011Y-93669204D01*
X95149110Y-93806202D01*
X95149112Y-93806207D01*
X95236738Y-93923261D01*
X95353791Y-94010886D01*
X95353792Y-94010886D01*
X95353796Y-94010889D01*
X95468810Y-94053787D01*
X95525642Y-94096332D01*
X95550453Y-94162852D01*
X95535362Y-94232226D01*
X95517475Y-94257179D01*
X95374280Y-94412729D01*
X95374275Y-94412734D01*
X95251141Y-94601206D01*
X95160703Y-94807386D01*
X95160702Y-94807387D01*
X95105437Y-95025624D01*
X95105436Y-95025630D01*
X95105436Y-95025632D01*
X95086844Y-95250000D01*
X95104607Y-95464368D01*
X95105437Y-95474375D01*
X95160702Y-95692612D01*
X95160703Y-95692613D01*
X95160704Y-95692616D01*
X95245749Y-95886500D01*
X95251141Y-95898793D01*
X95374275Y-96087265D01*
X95374279Y-96087270D01*
X95526762Y-96252908D01*
X95581331Y-96295381D01*
X95704424Y-96391189D01*
X95737680Y-96409186D01*
X95788071Y-96459200D01*
X95803423Y-96528516D01*
X95778862Y-96595129D01*
X95737680Y-96630813D01*
X95704426Y-96648810D01*
X95704424Y-96648811D01*
X95526762Y-96787091D01*
X95374279Y-96952729D01*
X95374275Y-96952734D01*
X95251141Y-97141206D01*
X95160703Y-97347386D01*
X95160702Y-97347387D01*
X95105437Y-97565624D01*
X95105436Y-97565630D01*
X95105436Y-97565632D01*
X95086844Y-97790000D01*
X95104607Y-98004368D01*
X95105437Y-98014375D01*
X95160702Y-98232612D01*
X95160703Y-98232613D01*
X95160704Y-98232616D01*
X95242116Y-98418219D01*
X95251141Y-98438793D01*
X95374275Y-98627265D01*
X95374279Y-98627270D01*
X95526762Y-98792908D01*
X95581331Y-98835381D01*
X95704424Y-98931189D01*
X95737680Y-98949186D01*
X95788071Y-98999200D01*
X95803423Y-99068516D01*
X95778862Y-99135129D01*
X95737680Y-99170813D01*
X95704426Y-99188810D01*
X95704424Y-99188811D01*
X95526762Y-99327091D01*
X95374279Y-99492729D01*
X95374275Y-99492734D01*
X95251141Y-99681206D01*
X95160703Y-99887386D01*
X95160702Y-99887387D01*
X95105437Y-100105624D01*
X95105436Y-100105630D01*
X95105436Y-100105632D01*
X95086844Y-100330000D01*
X95104607Y-100544368D01*
X95105437Y-100554375D01*
X95160702Y-100772612D01*
X95160703Y-100772613D01*
X95251141Y-100978793D01*
X95374275Y-101167265D01*
X95374279Y-101167270D01*
X95526762Y-101332908D01*
X95581331Y-101375381D01*
X95704424Y-101471189D01*
X95737680Y-101489186D01*
X95788071Y-101539200D01*
X95803423Y-101608516D01*
X95778862Y-101675129D01*
X95737680Y-101710813D01*
X95704426Y-101728810D01*
X95704424Y-101728811D01*
X95526762Y-101867091D01*
X95374279Y-102032729D01*
X95374275Y-102032734D01*
X95251141Y-102221206D01*
X95160703Y-102427386D01*
X95160702Y-102427387D01*
X95105437Y-102645624D01*
X95086844Y-102870000D01*
X95105437Y-103094375D01*
X95160702Y-103312612D01*
X95160703Y-103312613D01*
X95160704Y-103312616D01*
X95244433Y-103503500D01*
X95251141Y-103518793D01*
X95374275Y-103707265D01*
X95374279Y-103707270D01*
X95526762Y-103872908D01*
X95581331Y-103915381D01*
X95704424Y-104011189D01*
X95737680Y-104029186D01*
X95788071Y-104079200D01*
X95803423Y-104148516D01*
X95778862Y-104215129D01*
X95737680Y-104250813D01*
X95704426Y-104268810D01*
X95704424Y-104268811D01*
X95526762Y-104407091D01*
X95374279Y-104572729D01*
X95374275Y-104572734D01*
X95251141Y-104761206D01*
X95160703Y-104967386D01*
X95160702Y-104967387D01*
X95105437Y-105185624D01*
X95105436Y-105185630D01*
X95105436Y-105185632D01*
X95086844Y-105410000D01*
X91465500Y-105410000D01*
X91465500Y-76200001D01*
X91465500Y-76200000D01*
X92506666Y-76200000D01*
X92525991Y-76593376D01*
X92583781Y-76982963D01*
X92655462Y-77269128D01*
X92679480Y-77365014D01*
X92800867Y-77704266D01*
X92812163Y-77735836D01*
X92980555Y-78091873D01*
X92980557Y-78091876D01*
X93183037Y-78429693D01*
X93417640Y-78746018D01*
X93417648Y-78746028D01*
X93417651Y-78746032D01*
X93519414Y-78858311D01*
X93682143Y-79037856D01*
X93844872Y-79185343D01*
X93973968Y-79302349D01*
X93973971Y-79302351D01*
X93973981Y-79302359D01*
X94290306Y-79536962D01*
X94290310Y-79536964D01*
X94290311Y-79536965D01*
X94628127Y-79739445D01*
X94984164Y-79907837D01*
X95354991Y-80040521D01*
X95737037Y-80136219D01*
X96126624Y-80194009D01*
X96462477Y-80210508D01*
X96519996Y-80213334D01*
X96520000Y-80213334D01*
X96520004Y-80213334D01*
X96575494Y-80210607D01*
X96913376Y-80194009D01*
X97302963Y-80136219D01*
X97685009Y-80040521D01*
X98055836Y-79907837D01*
X98411873Y-79739445D01*
X98749689Y-79536965D01*
X99066032Y-79302349D01*
X99357856Y-79037856D01*
X99622349Y-78746032D01*
X99856965Y-78429689D01*
X100059445Y-78091873D01*
X100227837Y-77735836D01*
X100360521Y-77365009D01*
X100456219Y-76982963D01*
X100514009Y-76593376D01*
X100533334Y-76200000D01*
X181624566Y-76200000D01*
X181643891Y-76593376D01*
X181701681Y-76982963D01*
X181773362Y-77269128D01*
X181797380Y-77365014D01*
X181918767Y-77704266D01*
X181930063Y-77735836D01*
X182098455Y-78091873D01*
X182098457Y-78091876D01*
X182300937Y-78429693D01*
X182535540Y-78746018D01*
X182535548Y-78746028D01*
X182535551Y-78746032D01*
X182637314Y-78858311D01*
X182800043Y-79037856D01*
X182962772Y-79185343D01*
X183091868Y-79302349D01*
X183091871Y-79302351D01*
X183091881Y-79302359D01*
X183408206Y-79536962D01*
X183408210Y-79536964D01*
X183408211Y-79536965D01*
X183746027Y-79739445D01*
X184102064Y-79907837D01*
X184472891Y-80040521D01*
X184854937Y-80136219D01*
X185244524Y-80194009D01*
X185580377Y-80210508D01*
X185637896Y-80213334D01*
X185637900Y-80213334D01*
X185637904Y-80213334D01*
X185693394Y-80210607D01*
X186031276Y-80194009D01*
X186420863Y-80136219D01*
X186802909Y-80040521D01*
X187173736Y-79907837D01*
X187529773Y-79739445D01*
X187867589Y-79536965D01*
X188183932Y-79302349D01*
X188475756Y-79037856D01*
X188740249Y-78746032D01*
X188974865Y-78429689D01*
X189177345Y-78091873D01*
X189345737Y-77735836D01*
X189478421Y-77365009D01*
X189574119Y-76982963D01*
X189631909Y-76593376D01*
X189651234Y-76200000D01*
X189631909Y-75806624D01*
X189574119Y-75417037D01*
X189478421Y-75034991D01*
X189345737Y-74664164D01*
X189177345Y-74308127D01*
X188974865Y-73970311D01*
X188974864Y-73970310D01*
X188974862Y-73970306D01*
X188740259Y-73653981D01*
X188740251Y-73653971D01*
X188740249Y-73653968D01*
X188544224Y-73437687D01*
X188475756Y-73362143D01*
X188296211Y-73199414D01*
X188183932Y-73097651D01*
X188183928Y-73097648D01*
X188183918Y-73097640D01*
X187867593Y-72863037D01*
X187529776Y-72660557D01*
X187529777Y-72660557D01*
X187529773Y-72660555D01*
X187173736Y-72492163D01*
X187138644Y-72479607D01*
X186802914Y-72359480D01*
X186707028Y-72335462D01*
X186420863Y-72263781D01*
X186380837Y-72257843D01*
X186031285Y-72205992D01*
X186031280Y-72205991D01*
X186031276Y-72205991D01*
X185834588Y-72196328D01*
X185637904Y-72186666D01*
X185637896Y-72186666D01*
X185413113Y-72197708D01*
X185244524Y-72205991D01*
X185244520Y-72205991D01*
X185244514Y-72205992D01*
X184854943Y-72263780D01*
X184854941Y-72263780D01*
X184854937Y-72263781D01*
X184663914Y-72311630D01*
X184472885Y-72359480D01*
X184102066Y-72492162D01*
X183746023Y-72660557D01*
X183408206Y-72863037D01*
X183091881Y-73097640D01*
X183091871Y-73097648D01*
X182800043Y-73362143D01*
X182535548Y-73653971D01*
X182535540Y-73653981D01*
X182300937Y-73970306D01*
X182098457Y-74308123D01*
X181930062Y-74664166D01*
X181797380Y-75034985D01*
X181749530Y-75226014D01*
X181701681Y-75417037D01*
X181701680Y-75417041D01*
X181701680Y-75417043D01*
X181647068Y-75785207D01*
X181643891Y-75806624D01*
X181624566Y-76200000D01*
X100533334Y-76200000D01*
X100514009Y-75806624D01*
X100456219Y-75417037D01*
X100360521Y-75034991D01*
X100227837Y-74664164D01*
X100059445Y-74308127D01*
X99856965Y-73970311D01*
X99856964Y-73970310D01*
X99856962Y-73970306D01*
X99622359Y-73653981D01*
X99622351Y-73653971D01*
X99622349Y-73653968D01*
X99426324Y-73437687D01*
X99357856Y-73362143D01*
X99178311Y-73199414D01*
X99066032Y-73097651D01*
X99066028Y-73097648D01*
X99066018Y-73097640D01*
X98749693Y-72863037D01*
X98411876Y-72660557D01*
X98411877Y-72660557D01*
X98411873Y-72660555D01*
X98055836Y-72492163D01*
X98020744Y-72479607D01*
X97685014Y-72359480D01*
X97589128Y-72335462D01*
X97302963Y-72263781D01*
X97262937Y-72257843D01*
X96913385Y-72205992D01*
X96913380Y-72205991D01*
X96913376Y-72205991D01*
X96716688Y-72196328D01*
X96520004Y-72186666D01*
X96519996Y-72186666D01*
X96295213Y-72197708D01*
X96126624Y-72205991D01*
X96126620Y-72205991D01*
X96126614Y-72205992D01*
X95737043Y-72263780D01*
X95737041Y-72263780D01*
X95737037Y-72263781D01*
X95546014Y-72311630D01*
X95354985Y-72359480D01*
X94984166Y-72492162D01*
X94628123Y-72660557D01*
X94290306Y-72863037D01*
X93973981Y-73097640D01*
X93973971Y-73097648D01*
X93682143Y-73362143D01*
X93417648Y-73653971D01*
X93417640Y-73653981D01*
X93183037Y-73970306D01*
X92980557Y-74308123D01*
X92812162Y-74664166D01*
X92679480Y-75034985D01*
X92631630Y-75226014D01*
X92583781Y-75417037D01*
X92583780Y-75417041D01*
X92583780Y-75417043D01*
X92529168Y-75785207D01*
X92525991Y-75806624D01*
X92506666Y-76200000D01*
X91465500Y-76200000D01*
X91466030Y-76187169D01*
X91482657Y-75785175D01*
X91483081Y-75780053D01*
X91534116Y-75370631D01*
X91534967Y-75365526D01*
X91619636Y-74961720D01*
X91620903Y-74956716D01*
X91738627Y-74561291D01*
X91740314Y-74556380D01*
X91890279Y-74172052D01*
X91892372Y-74167281D01*
X91988665Y-73970311D01*
X92073558Y-73796659D01*
X92076031Y-73792090D01*
X92158334Y-73653968D01*
X92287219Y-73437670D01*
X92290052Y-73433335D01*
X92434678Y-73230775D01*
X92529773Y-73097586D01*
X92532972Y-73093475D01*
X92799607Y-72778659D01*
X92803111Y-72774851D01*
X93094851Y-72483111D01*
X93098659Y-72479607D01*
X93413475Y-72212972D01*
X93417586Y-72209773D01*
X93585456Y-72089915D01*
X93753335Y-71970052D01*
X93757670Y-71967219D01*
X94112093Y-71756029D01*
X94116659Y-71753558D01*
X94487288Y-71572368D01*
X94492052Y-71570279D01*
X94876380Y-71420314D01*
X94881291Y-71418627D01*
X95276716Y-71300903D01*
X95281720Y-71299636D01*
X95685526Y-71214967D01*
X95690631Y-71214116D01*
X96100053Y-71163081D01*
X96105175Y-71162657D01*
X96507169Y-71146030D01*
X96520001Y-71145500D01*
X96528285Y-71145500D01*
X185629613Y-71145500D01*
X185637897Y-71145500D01*
X185650728Y-71146030D01*
G37*
G04 #@! TD.AperFunction*
M02*
