G04 #@! TF.GenerationSoftware,KiCad,Pcbnew,7.0.9*
G04 #@! TF.CreationDate,2024-05-18T22:09:02+10:00*
G04 #@! TF.ProjectId,inchdigits,696e6368-6469-4676-9974-732e6b696361,1*
G04 #@! TF.SameCoordinates,Original*
G04 #@! TF.FileFunction,Legend,Bot*
G04 #@! TF.FilePolarity,Positive*
%FSLAX46Y46*%
G04 Gerber Fmt 4.6, Leading zero omitted, Abs format (unit mm)*
G04 Created by KiCad (PCBNEW 7.0.9) date 2024-05-18 22:09:02*
%MOMM*%
%LPD*%
G01*
G04 APERTURE LIST*
%ADD10C,0.300000*%
%ADD11C,0.254000*%
%ADD12C,0.150000*%
%ADD13C,0.120000*%
%ADD14C,0.010000*%
G04 APERTURE END LIST*
D10*
X183609999Y-99508328D02*
X183109999Y-101008328D01*
X183109999Y-101008328D02*
X182609999Y-99508328D01*
X181252857Y-100865471D02*
X181324285Y-100936900D01*
X181324285Y-100936900D02*
X181538571Y-101008328D01*
X181538571Y-101008328D02*
X181681428Y-101008328D01*
X181681428Y-101008328D02*
X181895714Y-100936900D01*
X181895714Y-100936900D02*
X182038571Y-100794042D01*
X182038571Y-100794042D02*
X182110000Y-100651185D01*
X182110000Y-100651185D02*
X182181428Y-100365471D01*
X182181428Y-100365471D02*
X182181428Y-100151185D01*
X182181428Y-100151185D02*
X182110000Y-99865471D01*
X182110000Y-99865471D02*
X182038571Y-99722614D01*
X182038571Y-99722614D02*
X181895714Y-99579757D01*
X181895714Y-99579757D02*
X181681428Y-99508328D01*
X181681428Y-99508328D02*
X181538571Y-99508328D01*
X181538571Y-99508328D02*
X181324285Y-99579757D01*
X181324285Y-99579757D02*
X181252857Y-99651185D01*
X179752857Y-100865471D02*
X179824285Y-100936900D01*
X179824285Y-100936900D02*
X180038571Y-101008328D01*
X180038571Y-101008328D02*
X180181428Y-101008328D01*
X180181428Y-101008328D02*
X180395714Y-100936900D01*
X180395714Y-100936900D02*
X180538571Y-100794042D01*
X180538571Y-100794042D02*
X180610000Y-100651185D01*
X180610000Y-100651185D02*
X180681428Y-100365471D01*
X180681428Y-100365471D02*
X180681428Y-100151185D01*
X180681428Y-100151185D02*
X180610000Y-99865471D01*
X180610000Y-99865471D02*
X180538571Y-99722614D01*
X180538571Y-99722614D02*
X180395714Y-99579757D01*
X180395714Y-99579757D02*
X180181428Y-99508328D01*
X180181428Y-99508328D02*
X180038571Y-99508328D01*
X180038571Y-99508328D02*
X179824285Y-99579757D01*
X179824285Y-99579757D02*
X179752857Y-99651185D01*
X101461569Y-95847168D02*
X101247284Y-95918596D01*
X101247284Y-95918596D02*
X100890141Y-95918596D01*
X100890141Y-95918596D02*
X100747284Y-95847168D01*
X100747284Y-95847168D02*
X100675855Y-95775739D01*
X100675855Y-95775739D02*
X100604426Y-95632882D01*
X100604426Y-95632882D02*
X100604426Y-95490025D01*
X100604426Y-95490025D02*
X100675855Y-95347168D01*
X100675855Y-95347168D02*
X100747284Y-95275739D01*
X100747284Y-95275739D02*
X100890141Y-95204310D01*
X100890141Y-95204310D02*
X101175855Y-95132882D01*
X101175855Y-95132882D02*
X101318712Y-95061453D01*
X101318712Y-95061453D02*
X101390141Y-94990025D01*
X101390141Y-94990025D02*
X101461569Y-94847168D01*
X101461569Y-94847168D02*
X101461569Y-94704310D01*
X101461569Y-94704310D02*
X101390141Y-94561453D01*
X101390141Y-94561453D02*
X101318712Y-94490025D01*
X101318712Y-94490025D02*
X101175855Y-94418596D01*
X101175855Y-94418596D02*
X100818712Y-94418596D01*
X100818712Y-94418596D02*
X100604426Y-94490025D01*
X100032998Y-94561453D02*
X99961570Y-94490025D01*
X99961570Y-94490025D02*
X99818713Y-94418596D01*
X99818713Y-94418596D02*
X99461570Y-94418596D01*
X99461570Y-94418596D02*
X99318713Y-94490025D01*
X99318713Y-94490025D02*
X99247284Y-94561453D01*
X99247284Y-94561453D02*
X99175855Y-94704310D01*
X99175855Y-94704310D02*
X99175855Y-94847168D01*
X99175855Y-94847168D02*
X99247284Y-95061453D01*
X99247284Y-95061453D02*
X100104427Y-95918596D01*
X100104427Y-95918596D02*
X99175855Y-95918596D01*
X101461569Y-93289542D02*
X101247284Y-93360970D01*
X101247284Y-93360970D02*
X100890141Y-93360970D01*
X100890141Y-93360970D02*
X100747284Y-93289542D01*
X100747284Y-93289542D02*
X100675855Y-93218113D01*
X100675855Y-93218113D02*
X100604426Y-93075256D01*
X100604426Y-93075256D02*
X100604426Y-92932399D01*
X100604426Y-92932399D02*
X100675855Y-92789542D01*
X100675855Y-92789542D02*
X100747284Y-92718113D01*
X100747284Y-92718113D02*
X100890141Y-92646684D01*
X100890141Y-92646684D02*
X101175855Y-92575256D01*
X101175855Y-92575256D02*
X101318712Y-92503827D01*
X101318712Y-92503827D02*
X101390141Y-92432399D01*
X101390141Y-92432399D02*
X101461569Y-92289542D01*
X101461569Y-92289542D02*
X101461569Y-92146684D01*
X101461569Y-92146684D02*
X101390141Y-92003827D01*
X101390141Y-92003827D02*
X101318712Y-91932399D01*
X101318712Y-91932399D02*
X101175855Y-91860970D01*
X101175855Y-91860970D02*
X100818712Y-91860970D01*
X100818712Y-91860970D02*
X100604426Y-91932399D01*
X99175855Y-93360970D02*
X100032998Y-93360970D01*
X99604427Y-93360970D02*
X99604427Y-91860970D01*
X99604427Y-91860970D02*
X99747284Y-92075256D01*
X99747284Y-92075256D02*
X99890141Y-92218113D01*
X99890141Y-92218113D02*
X100032998Y-92289542D01*
X182502857Y-95785471D02*
X182574285Y-95856900D01*
X182574285Y-95856900D02*
X182788571Y-95928328D01*
X182788571Y-95928328D02*
X182931428Y-95928328D01*
X182931428Y-95928328D02*
X183145714Y-95856900D01*
X183145714Y-95856900D02*
X183288571Y-95714042D01*
X183288571Y-95714042D02*
X183360000Y-95571185D01*
X183360000Y-95571185D02*
X183431428Y-95285471D01*
X183431428Y-95285471D02*
X183431428Y-95071185D01*
X183431428Y-95071185D02*
X183360000Y-94785471D01*
X183360000Y-94785471D02*
X183288571Y-94642614D01*
X183288571Y-94642614D02*
X183145714Y-94499757D01*
X183145714Y-94499757D02*
X182931428Y-94428328D01*
X182931428Y-94428328D02*
X182788571Y-94428328D01*
X182788571Y-94428328D02*
X182574285Y-94499757D01*
X182574285Y-94499757D02*
X182502857Y-94571185D01*
X181145714Y-95928328D02*
X181860000Y-95928328D01*
X181860000Y-95928328D02*
X181860000Y-94428328D01*
X180645714Y-95928328D02*
X180645714Y-94428328D01*
X179788571Y-95928328D02*
X180431428Y-95071185D01*
X179788571Y-94428328D02*
X180645714Y-95285471D01*
X183145714Y-98468328D02*
X183145714Y-96968328D01*
X183145714Y-96968328D02*
X182788571Y-96968328D01*
X182788571Y-96968328D02*
X182574285Y-97039757D01*
X182574285Y-97039757D02*
X182431428Y-97182614D01*
X182431428Y-97182614D02*
X182359999Y-97325471D01*
X182359999Y-97325471D02*
X182288571Y-97611185D01*
X182288571Y-97611185D02*
X182288571Y-97825471D01*
X182288571Y-97825471D02*
X182359999Y-98111185D01*
X182359999Y-98111185D02*
X182431428Y-98254042D01*
X182431428Y-98254042D02*
X182574285Y-98396900D01*
X182574285Y-98396900D02*
X182788571Y-98468328D01*
X182788571Y-98468328D02*
X183145714Y-98468328D01*
X181645714Y-98468328D02*
X181645714Y-96968328D01*
X180645713Y-96968328D02*
X180359999Y-96968328D01*
X180359999Y-96968328D02*
X180217142Y-97039757D01*
X180217142Y-97039757D02*
X180074285Y-97182614D01*
X180074285Y-97182614D02*
X180002856Y-97468328D01*
X180002856Y-97468328D02*
X180002856Y-97968328D01*
X180002856Y-97968328D02*
X180074285Y-98254042D01*
X180074285Y-98254042D02*
X180217142Y-98396900D01*
X180217142Y-98396900D02*
X180359999Y-98468328D01*
X180359999Y-98468328D02*
X180645713Y-98468328D01*
X180645713Y-98468328D02*
X180788571Y-98396900D01*
X180788571Y-98396900D02*
X180931428Y-98254042D01*
X180931428Y-98254042D02*
X181002856Y-97968328D01*
X181002856Y-97968328D02*
X181002856Y-97468328D01*
X181002856Y-97468328D02*
X180931428Y-97182614D01*
X180931428Y-97182614D02*
X180788571Y-97039757D01*
X180788571Y-97039757D02*
X180645713Y-96968328D01*
X101461569Y-100887195D02*
X101247284Y-100958623D01*
X101247284Y-100958623D02*
X100890141Y-100958623D01*
X100890141Y-100958623D02*
X100747284Y-100887195D01*
X100747284Y-100887195D02*
X100675855Y-100815766D01*
X100675855Y-100815766D02*
X100604426Y-100672909D01*
X100604426Y-100672909D02*
X100604426Y-100530052D01*
X100604426Y-100530052D02*
X100675855Y-100387195D01*
X100675855Y-100387195D02*
X100747284Y-100315766D01*
X100747284Y-100315766D02*
X100890141Y-100244337D01*
X100890141Y-100244337D02*
X101175855Y-100172909D01*
X101175855Y-100172909D02*
X101318712Y-100101480D01*
X101318712Y-100101480D02*
X101390141Y-100030052D01*
X101390141Y-100030052D02*
X101461569Y-99887195D01*
X101461569Y-99887195D02*
X101461569Y-99744337D01*
X101461569Y-99744337D02*
X101390141Y-99601480D01*
X101390141Y-99601480D02*
X101318712Y-99530052D01*
X101318712Y-99530052D02*
X101175855Y-99458623D01*
X101175855Y-99458623D02*
X100818712Y-99458623D01*
X100818712Y-99458623D02*
X100604426Y-99530052D01*
X99318713Y-99958623D02*
X99318713Y-100958623D01*
X99675855Y-99387195D02*
X100032998Y-100458623D01*
X100032998Y-100458623D02*
X99104427Y-100458623D01*
X117438572Y-103610828D02*
X117438572Y-102110828D01*
X116724286Y-102610828D02*
X116724286Y-103610828D01*
X116724286Y-102753685D02*
X116652857Y-102682257D01*
X116652857Y-102682257D02*
X116510000Y-102610828D01*
X116510000Y-102610828D02*
X116295714Y-102610828D01*
X116295714Y-102610828D02*
X116152857Y-102682257D01*
X116152857Y-102682257D02*
X116081429Y-102825114D01*
X116081429Y-102825114D02*
X116081429Y-103610828D01*
X114724286Y-103539400D02*
X114867143Y-103610828D01*
X114867143Y-103610828D02*
X115152857Y-103610828D01*
X115152857Y-103610828D02*
X115295714Y-103539400D01*
X115295714Y-103539400D02*
X115367143Y-103467971D01*
X115367143Y-103467971D02*
X115438571Y-103325114D01*
X115438571Y-103325114D02*
X115438571Y-102896542D01*
X115438571Y-102896542D02*
X115367143Y-102753685D01*
X115367143Y-102753685D02*
X115295714Y-102682257D01*
X115295714Y-102682257D02*
X115152857Y-102610828D01*
X115152857Y-102610828D02*
X114867143Y-102610828D01*
X114867143Y-102610828D02*
X114724286Y-102682257D01*
X114081429Y-103610828D02*
X114081429Y-102110828D01*
X113438572Y-103610828D02*
X113438572Y-102825114D01*
X113438572Y-102825114D02*
X113510000Y-102682257D01*
X113510000Y-102682257D02*
X113652857Y-102610828D01*
X113652857Y-102610828D02*
X113867143Y-102610828D01*
X113867143Y-102610828D02*
X114010000Y-102682257D01*
X114010000Y-102682257D02*
X114081429Y-102753685D01*
X110938572Y-103610828D02*
X110938572Y-102110828D01*
X110938572Y-103539400D02*
X111081429Y-103610828D01*
X111081429Y-103610828D02*
X111367143Y-103610828D01*
X111367143Y-103610828D02*
X111510000Y-103539400D01*
X111510000Y-103539400D02*
X111581429Y-103467971D01*
X111581429Y-103467971D02*
X111652857Y-103325114D01*
X111652857Y-103325114D02*
X111652857Y-102896542D01*
X111652857Y-102896542D02*
X111581429Y-102753685D01*
X111581429Y-102753685D02*
X111510000Y-102682257D01*
X111510000Y-102682257D02*
X111367143Y-102610828D01*
X111367143Y-102610828D02*
X111081429Y-102610828D01*
X111081429Y-102610828D02*
X110938572Y-102682257D01*
X110224286Y-103610828D02*
X110224286Y-102610828D01*
X110224286Y-102110828D02*
X110295714Y-102182257D01*
X110295714Y-102182257D02*
X110224286Y-102253685D01*
X110224286Y-102253685D02*
X110152857Y-102182257D01*
X110152857Y-102182257D02*
X110224286Y-102110828D01*
X110224286Y-102110828D02*
X110224286Y-102253685D01*
X108867143Y-102610828D02*
X108867143Y-103825114D01*
X108867143Y-103825114D02*
X108938571Y-103967971D01*
X108938571Y-103967971D02*
X109010000Y-104039400D01*
X109010000Y-104039400D02*
X109152857Y-104110828D01*
X109152857Y-104110828D02*
X109367143Y-104110828D01*
X109367143Y-104110828D02*
X109510000Y-104039400D01*
X108867143Y-103539400D02*
X109010000Y-103610828D01*
X109010000Y-103610828D02*
X109295714Y-103610828D01*
X109295714Y-103610828D02*
X109438571Y-103539400D01*
X109438571Y-103539400D02*
X109510000Y-103467971D01*
X109510000Y-103467971D02*
X109581428Y-103325114D01*
X109581428Y-103325114D02*
X109581428Y-102896542D01*
X109581428Y-102896542D02*
X109510000Y-102753685D01*
X109510000Y-102753685D02*
X109438571Y-102682257D01*
X109438571Y-102682257D02*
X109295714Y-102610828D01*
X109295714Y-102610828D02*
X109010000Y-102610828D01*
X109010000Y-102610828D02*
X108867143Y-102682257D01*
X108152857Y-103610828D02*
X108152857Y-102610828D01*
X108152857Y-102110828D02*
X108224285Y-102182257D01*
X108224285Y-102182257D02*
X108152857Y-102253685D01*
X108152857Y-102253685D02*
X108081428Y-102182257D01*
X108081428Y-102182257D02*
X108152857Y-102110828D01*
X108152857Y-102110828D02*
X108152857Y-102253685D01*
X107652856Y-102610828D02*
X107081428Y-102610828D01*
X107438571Y-102110828D02*
X107438571Y-103396542D01*
X107438571Y-103396542D02*
X107367142Y-103539400D01*
X107367142Y-103539400D02*
X107224285Y-103610828D01*
X107224285Y-103610828D02*
X107081428Y-103610828D01*
X106652856Y-103539400D02*
X106509999Y-103610828D01*
X106509999Y-103610828D02*
X106224285Y-103610828D01*
X106224285Y-103610828D02*
X106081428Y-103539400D01*
X106081428Y-103539400D02*
X106009999Y-103396542D01*
X106009999Y-103396542D02*
X106009999Y-103325114D01*
X106009999Y-103325114D02*
X106081428Y-103182257D01*
X106081428Y-103182257D02*
X106224285Y-103110828D01*
X106224285Y-103110828D02*
X106438571Y-103110828D01*
X106438571Y-103110828D02*
X106581428Y-103039400D01*
X106581428Y-103039400D02*
X106652856Y-102896542D01*
X106652856Y-102896542D02*
X106652856Y-102825114D01*
X106652856Y-102825114D02*
X106581428Y-102682257D01*
X106581428Y-102682257D02*
X106438571Y-102610828D01*
X106438571Y-102610828D02*
X106224285Y-102610828D01*
X106224285Y-102610828D02*
X106081428Y-102682257D01*
X119474284Y-106025828D02*
X119474284Y-104525828D01*
X118617141Y-106025828D02*
X119259998Y-105168685D01*
X118617141Y-104525828D02*
X119474284Y-105382971D01*
X117402855Y-105954400D02*
X117545712Y-106025828D01*
X117545712Y-106025828D02*
X117831427Y-106025828D01*
X117831427Y-106025828D02*
X117974284Y-105954400D01*
X117974284Y-105954400D02*
X118045712Y-105811542D01*
X118045712Y-105811542D02*
X118045712Y-105240114D01*
X118045712Y-105240114D02*
X117974284Y-105097257D01*
X117974284Y-105097257D02*
X117831427Y-105025828D01*
X117831427Y-105025828D02*
X117545712Y-105025828D01*
X117545712Y-105025828D02*
X117402855Y-105097257D01*
X117402855Y-105097257D02*
X117331427Y-105240114D01*
X117331427Y-105240114D02*
X117331427Y-105382971D01*
X117331427Y-105382971D02*
X118045712Y-105525828D01*
X116688570Y-105025828D02*
X116688570Y-106025828D01*
X116688570Y-105168685D02*
X116617141Y-105097257D01*
X116617141Y-105097257D02*
X116474284Y-105025828D01*
X116474284Y-105025828D02*
X116259998Y-105025828D01*
X116259998Y-105025828D02*
X116117141Y-105097257D01*
X116117141Y-105097257D02*
X116045713Y-105240114D01*
X116045713Y-105240114D02*
X116045713Y-106025828D01*
X113902855Y-105311542D02*
X113902855Y-106025828D01*
X114402855Y-104525828D02*
X113902855Y-105311542D01*
X113902855Y-105311542D02*
X113402855Y-104525828D01*
X112259999Y-106025828D02*
X112259999Y-105240114D01*
X112259999Y-105240114D02*
X112331427Y-105097257D01*
X112331427Y-105097257D02*
X112474284Y-105025828D01*
X112474284Y-105025828D02*
X112759999Y-105025828D01*
X112759999Y-105025828D02*
X112902856Y-105097257D01*
X112259999Y-105954400D02*
X112402856Y-106025828D01*
X112402856Y-106025828D02*
X112759999Y-106025828D01*
X112759999Y-106025828D02*
X112902856Y-105954400D01*
X112902856Y-105954400D02*
X112974284Y-105811542D01*
X112974284Y-105811542D02*
X112974284Y-105668685D01*
X112974284Y-105668685D02*
X112902856Y-105525828D01*
X112902856Y-105525828D02*
X112759999Y-105454400D01*
X112759999Y-105454400D02*
X112402856Y-105454400D01*
X112402856Y-105454400D02*
X112259999Y-105382971D01*
X111545713Y-105025828D02*
X111545713Y-106525828D01*
X111545713Y-105097257D02*
X111402856Y-105025828D01*
X111402856Y-105025828D02*
X111117141Y-105025828D01*
X111117141Y-105025828D02*
X110974284Y-105097257D01*
X110974284Y-105097257D02*
X110902856Y-105168685D01*
X110902856Y-105168685D02*
X110831427Y-105311542D01*
X110831427Y-105311542D02*
X110831427Y-105740114D01*
X110831427Y-105740114D02*
X110902856Y-105882971D01*
X110902856Y-105882971D02*
X110974284Y-105954400D01*
X110974284Y-105954400D02*
X111117141Y-106025828D01*
X111117141Y-106025828D02*
X111402856Y-106025828D01*
X111402856Y-106025828D02*
X111545713Y-105954400D01*
X109117141Y-104668685D02*
X109045713Y-104597257D01*
X109045713Y-104597257D02*
X108902856Y-104525828D01*
X108902856Y-104525828D02*
X108545713Y-104525828D01*
X108545713Y-104525828D02*
X108402856Y-104597257D01*
X108402856Y-104597257D02*
X108331427Y-104668685D01*
X108331427Y-104668685D02*
X108259998Y-104811542D01*
X108259998Y-104811542D02*
X108259998Y-104954400D01*
X108259998Y-104954400D02*
X108331427Y-105168685D01*
X108331427Y-105168685D02*
X109188570Y-106025828D01*
X109188570Y-106025828D02*
X108259998Y-106025828D01*
X107331427Y-104525828D02*
X107188570Y-104525828D01*
X107188570Y-104525828D02*
X107045713Y-104597257D01*
X107045713Y-104597257D02*
X106974285Y-104668685D01*
X106974285Y-104668685D02*
X106902856Y-104811542D01*
X106902856Y-104811542D02*
X106831427Y-105097257D01*
X106831427Y-105097257D02*
X106831427Y-105454400D01*
X106831427Y-105454400D02*
X106902856Y-105740114D01*
X106902856Y-105740114D02*
X106974285Y-105882971D01*
X106974285Y-105882971D02*
X107045713Y-105954400D01*
X107045713Y-105954400D02*
X107188570Y-106025828D01*
X107188570Y-106025828D02*
X107331427Y-106025828D01*
X107331427Y-106025828D02*
X107474285Y-105954400D01*
X107474285Y-105954400D02*
X107545713Y-105882971D01*
X107545713Y-105882971D02*
X107617142Y-105740114D01*
X107617142Y-105740114D02*
X107688570Y-105454400D01*
X107688570Y-105454400D02*
X107688570Y-105097257D01*
X107688570Y-105097257D02*
X107617142Y-104811542D01*
X107617142Y-104811542D02*
X107545713Y-104668685D01*
X107545713Y-104668685D02*
X107474285Y-104597257D01*
X107474285Y-104597257D02*
X107331427Y-104525828D01*
X106259999Y-104668685D02*
X106188571Y-104597257D01*
X106188571Y-104597257D02*
X106045714Y-104525828D01*
X106045714Y-104525828D02*
X105688571Y-104525828D01*
X105688571Y-104525828D02*
X105545714Y-104597257D01*
X105545714Y-104597257D02*
X105474285Y-104668685D01*
X105474285Y-104668685D02*
X105402856Y-104811542D01*
X105402856Y-104811542D02*
X105402856Y-104954400D01*
X105402856Y-104954400D02*
X105474285Y-105168685D01*
X105474285Y-105168685D02*
X106331428Y-106025828D01*
X106331428Y-106025828D02*
X105402856Y-106025828D01*
X104831428Y-104668685D02*
X104760000Y-104597257D01*
X104760000Y-104597257D02*
X104617143Y-104525828D01*
X104617143Y-104525828D02*
X104260000Y-104525828D01*
X104260000Y-104525828D02*
X104117143Y-104597257D01*
X104117143Y-104597257D02*
X104045714Y-104668685D01*
X104045714Y-104668685D02*
X103974285Y-104811542D01*
X103974285Y-104811542D02*
X103974285Y-104954400D01*
X103974285Y-104954400D02*
X104045714Y-105168685D01*
X104045714Y-105168685D02*
X104902857Y-106025828D01*
X104902857Y-106025828D02*
X103974285Y-106025828D01*
X101461569Y-98329569D02*
X101247284Y-98400997D01*
X101247284Y-98400997D02*
X100890141Y-98400997D01*
X100890141Y-98400997D02*
X100747284Y-98329569D01*
X100747284Y-98329569D02*
X100675855Y-98258140D01*
X100675855Y-98258140D02*
X100604426Y-98115283D01*
X100604426Y-98115283D02*
X100604426Y-97972426D01*
X100604426Y-97972426D02*
X100675855Y-97829569D01*
X100675855Y-97829569D02*
X100747284Y-97758140D01*
X100747284Y-97758140D02*
X100890141Y-97686711D01*
X100890141Y-97686711D02*
X101175855Y-97615283D01*
X101175855Y-97615283D02*
X101318712Y-97543854D01*
X101318712Y-97543854D02*
X101390141Y-97472426D01*
X101390141Y-97472426D02*
X101461569Y-97329569D01*
X101461569Y-97329569D02*
X101461569Y-97186711D01*
X101461569Y-97186711D02*
X101390141Y-97043854D01*
X101390141Y-97043854D02*
X101318712Y-96972426D01*
X101318712Y-96972426D02*
X101175855Y-96900997D01*
X101175855Y-96900997D02*
X100818712Y-96900997D01*
X100818712Y-96900997D02*
X100604426Y-96972426D01*
X100104427Y-96900997D02*
X99175855Y-96900997D01*
X99175855Y-96900997D02*
X99675855Y-97472426D01*
X99675855Y-97472426D02*
X99461570Y-97472426D01*
X99461570Y-97472426D02*
X99318713Y-97543854D01*
X99318713Y-97543854D02*
X99247284Y-97615283D01*
X99247284Y-97615283D02*
X99175855Y-97758140D01*
X99175855Y-97758140D02*
X99175855Y-98115283D01*
X99175855Y-98115283D02*
X99247284Y-98258140D01*
X99247284Y-98258140D02*
X99318713Y-98329569D01*
X99318713Y-98329569D02*
X99461570Y-98400997D01*
X99461570Y-98400997D02*
X99890141Y-98400997D01*
X99890141Y-98400997D02*
X100032998Y-98329569D01*
X100032998Y-98329569D02*
X100104427Y-98258140D01*
X101437142Y-106088328D02*
X101437142Y-104588328D01*
X100579999Y-106088328D02*
X101222856Y-105231185D01*
X100579999Y-104588328D02*
X101437142Y-105445471D01*
X99151427Y-106088328D02*
X100008570Y-106088328D01*
X99579999Y-106088328D02*
X99579999Y-104588328D01*
X99579999Y-104588328D02*
X99722856Y-104802614D01*
X99722856Y-104802614D02*
X99865713Y-104945471D01*
X99865713Y-104945471D02*
X100008570Y-105016900D01*
X182752856Y-102119757D02*
X182895714Y-102048328D01*
X182895714Y-102048328D02*
X183109999Y-102048328D01*
X183109999Y-102048328D02*
X183324285Y-102119757D01*
X183324285Y-102119757D02*
X183467142Y-102262614D01*
X183467142Y-102262614D02*
X183538571Y-102405471D01*
X183538571Y-102405471D02*
X183609999Y-102691185D01*
X183609999Y-102691185D02*
X183609999Y-102905471D01*
X183609999Y-102905471D02*
X183538571Y-103191185D01*
X183538571Y-103191185D02*
X183467142Y-103334042D01*
X183467142Y-103334042D02*
X183324285Y-103476900D01*
X183324285Y-103476900D02*
X183109999Y-103548328D01*
X183109999Y-103548328D02*
X182967142Y-103548328D01*
X182967142Y-103548328D02*
X182752856Y-103476900D01*
X182752856Y-103476900D02*
X182681428Y-103405471D01*
X182681428Y-103405471D02*
X182681428Y-102905471D01*
X182681428Y-102905471D02*
X182967142Y-102905471D01*
X182038571Y-103548328D02*
X182038571Y-102048328D01*
X182038571Y-102048328D02*
X181181428Y-103548328D01*
X181181428Y-103548328D02*
X181181428Y-102048328D01*
X180467142Y-103548328D02*
X180467142Y-102048328D01*
X180467142Y-102048328D02*
X180109999Y-102048328D01*
X180109999Y-102048328D02*
X179895713Y-102119757D01*
X179895713Y-102119757D02*
X179752856Y-102262614D01*
X179752856Y-102262614D02*
X179681427Y-102405471D01*
X179681427Y-102405471D02*
X179609999Y-102691185D01*
X179609999Y-102691185D02*
X179609999Y-102905471D01*
X179609999Y-102905471D02*
X179681427Y-103191185D01*
X179681427Y-103191185D02*
X179752856Y-103334042D01*
X179752856Y-103334042D02*
X179895713Y-103476900D01*
X179895713Y-103476900D02*
X180109999Y-103548328D01*
X180109999Y-103548328D02*
X180467142Y-103548328D01*
X101437142Y-103548328D02*
X101437142Y-102048328D01*
X100579999Y-103548328D02*
X101222856Y-102691185D01*
X100579999Y-102048328D02*
X101437142Y-102905471D01*
X100008570Y-102191185D02*
X99937142Y-102119757D01*
X99937142Y-102119757D02*
X99794285Y-102048328D01*
X99794285Y-102048328D02*
X99437142Y-102048328D01*
X99437142Y-102048328D02*
X99294285Y-102119757D01*
X99294285Y-102119757D02*
X99222856Y-102191185D01*
X99222856Y-102191185D02*
X99151427Y-102334042D01*
X99151427Y-102334042D02*
X99151427Y-102476900D01*
X99151427Y-102476900D02*
X99222856Y-102691185D01*
X99222856Y-102691185D02*
X100079999Y-103548328D01*
X100079999Y-103548328D02*
X99151427Y-103548328D01*
D11*
X94554318Y-112122856D02*
X93284318Y-112122856D01*
X93284318Y-112122856D02*
X93284318Y-112425237D01*
X93284318Y-112425237D02*
X93344794Y-112606666D01*
X93344794Y-112606666D02*
X93465746Y-112727618D01*
X93465746Y-112727618D02*
X93586699Y-112788095D01*
X93586699Y-112788095D02*
X93828603Y-112848571D01*
X93828603Y-112848571D02*
X94010032Y-112848571D01*
X94010032Y-112848571D02*
X94251937Y-112788095D01*
X94251937Y-112788095D02*
X94372889Y-112727618D01*
X94372889Y-112727618D02*
X94493842Y-112606666D01*
X94493842Y-112606666D02*
X94554318Y-112425237D01*
X94554318Y-112425237D02*
X94554318Y-112122856D01*
X94493842Y-113332380D02*
X94554318Y-113513809D01*
X94554318Y-113513809D02*
X94554318Y-113816190D01*
X94554318Y-113816190D02*
X94493842Y-113937142D01*
X94493842Y-113937142D02*
X94433365Y-113997618D01*
X94433365Y-113997618D02*
X94312413Y-114058095D01*
X94312413Y-114058095D02*
X94191461Y-114058095D01*
X94191461Y-114058095D02*
X94070508Y-113997618D01*
X94070508Y-113997618D02*
X94010032Y-113937142D01*
X94010032Y-113937142D02*
X93949556Y-113816190D01*
X93949556Y-113816190D02*
X93889080Y-113574285D01*
X93889080Y-113574285D02*
X93828603Y-113453333D01*
X93828603Y-113453333D02*
X93768127Y-113392856D01*
X93768127Y-113392856D02*
X93647175Y-113332380D01*
X93647175Y-113332380D02*
X93526222Y-113332380D01*
X93526222Y-113332380D02*
X93405270Y-113392856D01*
X93405270Y-113392856D02*
X93344794Y-113453333D01*
X93344794Y-113453333D02*
X93284318Y-113574285D01*
X93284318Y-113574285D02*
X93284318Y-113876666D01*
X93284318Y-113876666D02*
X93344794Y-114058095D01*
X94554318Y-115267619D02*
X94554318Y-114541904D01*
X94554318Y-114904761D02*
X93284318Y-114904761D01*
X93284318Y-114904761D02*
X93465746Y-114783809D01*
X93465746Y-114783809D02*
X93586699Y-114662857D01*
X93586699Y-114662857D02*
X93647175Y-114541904D01*
X121224318Y-112122856D02*
X119954318Y-112122856D01*
X119954318Y-112122856D02*
X119954318Y-112425237D01*
X119954318Y-112425237D02*
X120014794Y-112606666D01*
X120014794Y-112606666D02*
X120135746Y-112727618D01*
X120135746Y-112727618D02*
X120256699Y-112788095D01*
X120256699Y-112788095D02*
X120498603Y-112848571D01*
X120498603Y-112848571D02*
X120680032Y-112848571D01*
X120680032Y-112848571D02*
X120921937Y-112788095D01*
X120921937Y-112788095D02*
X121042889Y-112727618D01*
X121042889Y-112727618D02*
X121163842Y-112606666D01*
X121163842Y-112606666D02*
X121224318Y-112425237D01*
X121224318Y-112425237D02*
X121224318Y-112122856D01*
X121163842Y-113332380D02*
X121224318Y-113513809D01*
X121224318Y-113513809D02*
X121224318Y-113816190D01*
X121224318Y-113816190D02*
X121163842Y-113937142D01*
X121163842Y-113937142D02*
X121103365Y-113997618D01*
X121103365Y-113997618D02*
X120982413Y-114058095D01*
X120982413Y-114058095D02*
X120861461Y-114058095D01*
X120861461Y-114058095D02*
X120740508Y-113997618D01*
X120740508Y-113997618D02*
X120680032Y-113937142D01*
X120680032Y-113937142D02*
X120619556Y-113816190D01*
X120619556Y-113816190D02*
X120559080Y-113574285D01*
X120559080Y-113574285D02*
X120498603Y-113453333D01*
X120498603Y-113453333D02*
X120438127Y-113392856D01*
X120438127Y-113392856D02*
X120317175Y-113332380D01*
X120317175Y-113332380D02*
X120196222Y-113332380D01*
X120196222Y-113332380D02*
X120075270Y-113392856D01*
X120075270Y-113392856D02*
X120014794Y-113453333D01*
X120014794Y-113453333D02*
X119954318Y-113574285D01*
X119954318Y-113574285D02*
X119954318Y-113876666D01*
X119954318Y-113876666D02*
X120014794Y-114058095D01*
X120075270Y-114541904D02*
X120014794Y-114602380D01*
X120014794Y-114602380D02*
X119954318Y-114723333D01*
X119954318Y-114723333D02*
X119954318Y-115025714D01*
X119954318Y-115025714D02*
X120014794Y-115146666D01*
X120014794Y-115146666D02*
X120075270Y-115207142D01*
X120075270Y-115207142D02*
X120196222Y-115267619D01*
X120196222Y-115267619D02*
X120317175Y-115267619D01*
X120317175Y-115267619D02*
X120498603Y-115207142D01*
X120498603Y-115207142D02*
X121224318Y-114481428D01*
X121224318Y-114481428D02*
X121224318Y-115267619D01*
X171389318Y-112122856D02*
X170119318Y-112122856D01*
X170119318Y-112122856D02*
X170119318Y-112425237D01*
X170119318Y-112425237D02*
X170179794Y-112606666D01*
X170179794Y-112606666D02*
X170300746Y-112727618D01*
X170300746Y-112727618D02*
X170421699Y-112788095D01*
X170421699Y-112788095D02*
X170663603Y-112848571D01*
X170663603Y-112848571D02*
X170845032Y-112848571D01*
X170845032Y-112848571D02*
X171086937Y-112788095D01*
X171086937Y-112788095D02*
X171207889Y-112727618D01*
X171207889Y-112727618D02*
X171328842Y-112606666D01*
X171328842Y-112606666D02*
X171389318Y-112425237D01*
X171389318Y-112425237D02*
X171389318Y-112122856D01*
X171328842Y-113332380D02*
X171389318Y-113513809D01*
X171389318Y-113513809D02*
X171389318Y-113816190D01*
X171389318Y-113816190D02*
X171328842Y-113937142D01*
X171328842Y-113937142D02*
X171268365Y-113997618D01*
X171268365Y-113997618D02*
X171147413Y-114058095D01*
X171147413Y-114058095D02*
X171026461Y-114058095D01*
X171026461Y-114058095D02*
X170905508Y-113997618D01*
X170905508Y-113997618D02*
X170845032Y-113937142D01*
X170845032Y-113937142D02*
X170784556Y-113816190D01*
X170784556Y-113816190D02*
X170724080Y-113574285D01*
X170724080Y-113574285D02*
X170663603Y-113453333D01*
X170663603Y-113453333D02*
X170603127Y-113392856D01*
X170603127Y-113392856D02*
X170482175Y-113332380D01*
X170482175Y-113332380D02*
X170361222Y-113332380D01*
X170361222Y-113332380D02*
X170240270Y-113392856D01*
X170240270Y-113392856D02*
X170179794Y-113453333D01*
X170179794Y-113453333D02*
X170119318Y-113574285D01*
X170119318Y-113574285D02*
X170119318Y-113876666D01*
X170119318Y-113876666D02*
X170179794Y-114058095D01*
X170542651Y-115146666D02*
X171389318Y-115146666D01*
X170058842Y-114844285D02*
X170965984Y-114541904D01*
X170965984Y-114541904D02*
X170965984Y-115328095D01*
X146624318Y-112122856D02*
X145354318Y-112122856D01*
X145354318Y-112122856D02*
X145354318Y-112425237D01*
X145354318Y-112425237D02*
X145414794Y-112606666D01*
X145414794Y-112606666D02*
X145535746Y-112727618D01*
X145535746Y-112727618D02*
X145656699Y-112788095D01*
X145656699Y-112788095D02*
X145898603Y-112848571D01*
X145898603Y-112848571D02*
X146080032Y-112848571D01*
X146080032Y-112848571D02*
X146321937Y-112788095D01*
X146321937Y-112788095D02*
X146442889Y-112727618D01*
X146442889Y-112727618D02*
X146563842Y-112606666D01*
X146563842Y-112606666D02*
X146624318Y-112425237D01*
X146624318Y-112425237D02*
X146624318Y-112122856D01*
X146563842Y-113332380D02*
X146624318Y-113513809D01*
X146624318Y-113513809D02*
X146624318Y-113816190D01*
X146624318Y-113816190D02*
X146563842Y-113937142D01*
X146563842Y-113937142D02*
X146503365Y-113997618D01*
X146503365Y-113997618D02*
X146382413Y-114058095D01*
X146382413Y-114058095D02*
X146261461Y-114058095D01*
X146261461Y-114058095D02*
X146140508Y-113997618D01*
X146140508Y-113997618D02*
X146080032Y-113937142D01*
X146080032Y-113937142D02*
X146019556Y-113816190D01*
X146019556Y-113816190D02*
X145959080Y-113574285D01*
X145959080Y-113574285D02*
X145898603Y-113453333D01*
X145898603Y-113453333D02*
X145838127Y-113392856D01*
X145838127Y-113392856D02*
X145717175Y-113332380D01*
X145717175Y-113332380D02*
X145596222Y-113332380D01*
X145596222Y-113332380D02*
X145475270Y-113392856D01*
X145475270Y-113392856D02*
X145414794Y-113453333D01*
X145414794Y-113453333D02*
X145354318Y-113574285D01*
X145354318Y-113574285D02*
X145354318Y-113876666D01*
X145354318Y-113876666D02*
X145414794Y-114058095D01*
X145354318Y-114481428D02*
X145354318Y-115267619D01*
X145354318Y-115267619D02*
X145838127Y-114844285D01*
X145838127Y-114844285D02*
X145838127Y-115025714D01*
X145838127Y-115025714D02*
X145898603Y-115146666D01*
X145898603Y-115146666D02*
X145959080Y-115207142D01*
X145959080Y-115207142D02*
X146080032Y-115267619D01*
X146080032Y-115267619D02*
X146382413Y-115267619D01*
X146382413Y-115267619D02*
X146503365Y-115207142D01*
X146503365Y-115207142D02*
X146563842Y-115146666D01*
X146563842Y-115146666D02*
X146624318Y-115025714D01*
X146624318Y-115025714D02*
X146624318Y-114662857D01*
X146624318Y-114662857D02*
X146563842Y-114541904D01*
X146563842Y-114541904D02*
X146503365Y-114481428D01*
D12*
X171399580Y-102703333D02*
X171447200Y-102655714D01*
X171447200Y-102655714D02*
X171494819Y-102512857D01*
X171494819Y-102512857D02*
X171494819Y-102417619D01*
X171494819Y-102417619D02*
X171447200Y-102274762D01*
X171447200Y-102274762D02*
X171351961Y-102179524D01*
X171351961Y-102179524D02*
X171256723Y-102131905D01*
X171256723Y-102131905D02*
X171066247Y-102084286D01*
X171066247Y-102084286D02*
X170923390Y-102084286D01*
X170923390Y-102084286D02*
X170732914Y-102131905D01*
X170732914Y-102131905D02*
X170637676Y-102179524D01*
X170637676Y-102179524D02*
X170542438Y-102274762D01*
X170542438Y-102274762D02*
X170494819Y-102417619D01*
X170494819Y-102417619D02*
X170494819Y-102512857D01*
X170494819Y-102512857D02*
X170542438Y-102655714D01*
X170542438Y-102655714D02*
X170590057Y-102703333D01*
X171494819Y-103655714D02*
X171494819Y-103084286D01*
X171494819Y-103370000D02*
X170494819Y-103370000D01*
X170494819Y-103370000D02*
X170637676Y-103274762D01*
X170637676Y-103274762D02*
X170732914Y-103179524D01*
X170732914Y-103179524D02*
X170780533Y-103084286D01*
X161239580Y-102703333D02*
X161287200Y-102655714D01*
X161287200Y-102655714D02*
X161334819Y-102512857D01*
X161334819Y-102512857D02*
X161334819Y-102417619D01*
X161334819Y-102417619D02*
X161287200Y-102274762D01*
X161287200Y-102274762D02*
X161191961Y-102179524D01*
X161191961Y-102179524D02*
X161096723Y-102131905D01*
X161096723Y-102131905D02*
X160906247Y-102084286D01*
X160906247Y-102084286D02*
X160763390Y-102084286D01*
X160763390Y-102084286D02*
X160572914Y-102131905D01*
X160572914Y-102131905D02*
X160477676Y-102179524D01*
X160477676Y-102179524D02*
X160382438Y-102274762D01*
X160382438Y-102274762D02*
X160334819Y-102417619D01*
X160334819Y-102417619D02*
X160334819Y-102512857D01*
X160334819Y-102512857D02*
X160382438Y-102655714D01*
X160382438Y-102655714D02*
X160430057Y-102703333D01*
X160334819Y-103036667D02*
X160334819Y-103655714D01*
X160334819Y-103655714D02*
X160715771Y-103322381D01*
X160715771Y-103322381D02*
X160715771Y-103465238D01*
X160715771Y-103465238D02*
X160763390Y-103560476D01*
X160763390Y-103560476D02*
X160811009Y-103608095D01*
X160811009Y-103608095D02*
X160906247Y-103655714D01*
X160906247Y-103655714D02*
X161144342Y-103655714D01*
X161144342Y-103655714D02*
X161239580Y-103608095D01*
X161239580Y-103608095D02*
X161287200Y-103560476D01*
X161287200Y-103560476D02*
X161334819Y-103465238D01*
X161334819Y-103465238D02*
X161334819Y-103179524D01*
X161334819Y-103179524D02*
X161287200Y-103084286D01*
X161287200Y-103084286D02*
X161239580Y-103036667D01*
X188293333Y-104864819D02*
X188293333Y-105579104D01*
X188293333Y-105579104D02*
X188340952Y-105721961D01*
X188340952Y-105721961D02*
X188436190Y-105817200D01*
X188436190Y-105817200D02*
X188579047Y-105864819D01*
X188579047Y-105864819D02*
X188674285Y-105864819D01*
X187293333Y-105864819D02*
X187864761Y-105864819D01*
X187579047Y-105864819D02*
X187579047Y-104864819D01*
X187579047Y-104864819D02*
X187674285Y-105007676D01*
X187674285Y-105007676D02*
X187769523Y-105102914D01*
X187769523Y-105102914D02*
X187864761Y-105150533D01*
X153744819Y-95083333D02*
X153268628Y-94750000D01*
X153744819Y-94511905D02*
X152744819Y-94511905D01*
X152744819Y-94511905D02*
X152744819Y-94892857D01*
X152744819Y-94892857D02*
X152792438Y-94988095D01*
X152792438Y-94988095D02*
X152840057Y-95035714D01*
X152840057Y-95035714D02*
X152935295Y-95083333D01*
X152935295Y-95083333D02*
X153078152Y-95083333D01*
X153078152Y-95083333D02*
X153173390Y-95035714D01*
X153173390Y-95035714D02*
X153221009Y-94988095D01*
X153221009Y-94988095D02*
X153268628Y-94892857D01*
X153268628Y-94892857D02*
X153268628Y-94511905D01*
X153078152Y-95940476D02*
X153744819Y-95940476D01*
X152697200Y-95702381D02*
X153411485Y-95464286D01*
X153411485Y-95464286D02*
X153411485Y-96083333D01*
X161364819Y-95083333D02*
X160888628Y-94750000D01*
X161364819Y-94511905D02*
X160364819Y-94511905D01*
X160364819Y-94511905D02*
X160364819Y-94892857D01*
X160364819Y-94892857D02*
X160412438Y-94988095D01*
X160412438Y-94988095D02*
X160460057Y-95035714D01*
X160460057Y-95035714D02*
X160555295Y-95083333D01*
X160555295Y-95083333D02*
X160698152Y-95083333D01*
X160698152Y-95083333D02*
X160793390Y-95035714D01*
X160793390Y-95035714D02*
X160841009Y-94988095D01*
X160841009Y-94988095D02*
X160888628Y-94892857D01*
X160888628Y-94892857D02*
X160888628Y-94511905D01*
X160364819Y-95416667D02*
X160364819Y-96035714D01*
X160364819Y-96035714D02*
X160745771Y-95702381D01*
X160745771Y-95702381D02*
X160745771Y-95845238D01*
X160745771Y-95845238D02*
X160793390Y-95940476D01*
X160793390Y-95940476D02*
X160841009Y-95988095D01*
X160841009Y-95988095D02*
X160936247Y-96035714D01*
X160936247Y-96035714D02*
X161174342Y-96035714D01*
X161174342Y-96035714D02*
X161269580Y-95988095D01*
X161269580Y-95988095D02*
X161317200Y-95940476D01*
X161317200Y-95940476D02*
X161364819Y-95845238D01*
X161364819Y-95845238D02*
X161364819Y-95559524D01*
X161364819Y-95559524D02*
X161317200Y-95464286D01*
X161317200Y-95464286D02*
X161269580Y-95416667D01*
X135144819Y-101988095D02*
X135954342Y-101988095D01*
X135954342Y-101988095D02*
X136049580Y-102035714D01*
X136049580Y-102035714D02*
X136097200Y-102083333D01*
X136097200Y-102083333D02*
X136144819Y-102178571D01*
X136144819Y-102178571D02*
X136144819Y-102369047D01*
X136144819Y-102369047D02*
X136097200Y-102464285D01*
X136097200Y-102464285D02*
X136049580Y-102511904D01*
X136049580Y-102511904D02*
X135954342Y-102559523D01*
X135954342Y-102559523D02*
X135144819Y-102559523D01*
X136144819Y-103559523D02*
X136144819Y-102988095D01*
X136144819Y-103273809D02*
X135144819Y-103273809D01*
X135144819Y-103273809D02*
X135287676Y-103178571D01*
X135287676Y-103178571D02*
X135382914Y-103083333D01*
X135382914Y-103083333D02*
X135430533Y-102988095D01*
X144729580Y-102703333D02*
X144777200Y-102655714D01*
X144777200Y-102655714D02*
X144824819Y-102512857D01*
X144824819Y-102512857D02*
X144824819Y-102417619D01*
X144824819Y-102417619D02*
X144777200Y-102274762D01*
X144777200Y-102274762D02*
X144681961Y-102179524D01*
X144681961Y-102179524D02*
X144586723Y-102131905D01*
X144586723Y-102131905D02*
X144396247Y-102084286D01*
X144396247Y-102084286D02*
X144253390Y-102084286D01*
X144253390Y-102084286D02*
X144062914Y-102131905D01*
X144062914Y-102131905D02*
X143967676Y-102179524D01*
X143967676Y-102179524D02*
X143872438Y-102274762D01*
X143872438Y-102274762D02*
X143824819Y-102417619D01*
X143824819Y-102417619D02*
X143824819Y-102512857D01*
X143824819Y-102512857D02*
X143872438Y-102655714D01*
X143872438Y-102655714D02*
X143920057Y-102703333D01*
X143920057Y-103084286D02*
X143872438Y-103131905D01*
X143872438Y-103131905D02*
X143824819Y-103227143D01*
X143824819Y-103227143D02*
X143824819Y-103465238D01*
X143824819Y-103465238D02*
X143872438Y-103560476D01*
X143872438Y-103560476D02*
X143920057Y-103608095D01*
X143920057Y-103608095D02*
X144015295Y-103655714D01*
X144015295Y-103655714D02*
X144110533Y-103655714D01*
X144110533Y-103655714D02*
X144253390Y-103608095D01*
X144253390Y-103608095D02*
X144824819Y-103036667D01*
X144824819Y-103036667D02*
X144824819Y-103655714D01*
X153619580Y-102703333D02*
X153667200Y-102655714D01*
X153667200Y-102655714D02*
X153714819Y-102512857D01*
X153714819Y-102512857D02*
X153714819Y-102417619D01*
X153714819Y-102417619D02*
X153667200Y-102274762D01*
X153667200Y-102274762D02*
X153571961Y-102179524D01*
X153571961Y-102179524D02*
X153476723Y-102131905D01*
X153476723Y-102131905D02*
X153286247Y-102084286D01*
X153286247Y-102084286D02*
X153143390Y-102084286D01*
X153143390Y-102084286D02*
X152952914Y-102131905D01*
X152952914Y-102131905D02*
X152857676Y-102179524D01*
X152857676Y-102179524D02*
X152762438Y-102274762D01*
X152762438Y-102274762D02*
X152714819Y-102417619D01*
X152714819Y-102417619D02*
X152714819Y-102512857D01*
X152714819Y-102512857D02*
X152762438Y-102655714D01*
X152762438Y-102655714D02*
X152810057Y-102703333D01*
X153048152Y-103560476D02*
X153714819Y-103560476D01*
X152667200Y-103322381D02*
X153381485Y-103084286D01*
X153381485Y-103084286D02*
X153381485Y-103703333D01*
X94313333Y-89624819D02*
X94313333Y-90339104D01*
X94313333Y-90339104D02*
X94360952Y-90481961D01*
X94360952Y-90481961D02*
X94456190Y-90577200D01*
X94456190Y-90577200D02*
X94599047Y-90624819D01*
X94599047Y-90624819D02*
X94694285Y-90624819D01*
X93884761Y-89720057D02*
X93837142Y-89672438D01*
X93837142Y-89672438D02*
X93741904Y-89624819D01*
X93741904Y-89624819D02*
X93503809Y-89624819D01*
X93503809Y-89624819D02*
X93408571Y-89672438D01*
X93408571Y-89672438D02*
X93360952Y-89720057D01*
X93360952Y-89720057D02*
X93313333Y-89815295D01*
X93313333Y-89815295D02*
X93313333Y-89910533D01*
X93313333Y-89910533D02*
X93360952Y-90053390D01*
X93360952Y-90053390D02*
X93932380Y-90624819D01*
X93932380Y-90624819D02*
X93313333Y-90624819D01*
D13*
X173455000Y-102608748D02*
X173455000Y-103131252D01*
X171985000Y-102608748D02*
X171985000Y-103131252D01*
X163295000Y-102608748D02*
X163295000Y-103131252D01*
X161825000Y-102608748D02*
X161825000Y-103131252D01*
X184150000Y-102860000D02*
X184150000Y-104130000D01*
X184150000Y-104130000D02*
X185420000Y-104130000D01*
X186462929Y-94860000D02*
X186860000Y-94860000D01*
X186462929Y-95620000D02*
X186860000Y-95620000D01*
X186462929Y-97400000D02*
X186860000Y-97400000D01*
X186462929Y-98160000D02*
X186860000Y-98160000D01*
X186462929Y-99940000D02*
X186860000Y-99940000D01*
X186462929Y-100700000D02*
X186860000Y-100700000D01*
X186530000Y-102480000D02*
X186860000Y-102480000D01*
X186530000Y-103240000D02*
X186860000Y-103240000D01*
X186860000Y-93910000D02*
X189520000Y-93910000D01*
X186860000Y-96510000D02*
X189520000Y-96510000D01*
X186860000Y-99050000D02*
X189520000Y-99050000D01*
X186860000Y-101590000D02*
X189520000Y-101590000D01*
X186860000Y-104190000D02*
X186860000Y-93910000D01*
X189520000Y-93910000D02*
X189520000Y-104190000D01*
X189520000Y-95620000D02*
X195520000Y-95620000D01*
X189520000Y-98160000D02*
X195520000Y-98160000D01*
X189520000Y-100700000D02*
X195520000Y-100700000D01*
X189520000Y-102580000D02*
X195520000Y-102580000D01*
X189520000Y-102700000D02*
X195520000Y-102700000D01*
X189520000Y-102820000D02*
X195520000Y-102820000D01*
X189520000Y-102940000D02*
X195520000Y-102940000D01*
X189520000Y-103060000D02*
X195520000Y-103060000D01*
X189520000Y-103180000D02*
X195520000Y-103180000D01*
X189520000Y-103240000D02*
X195520000Y-103240000D01*
X189520000Y-104190000D02*
X186860000Y-104190000D01*
X195520000Y-94860000D02*
X189520000Y-94860000D01*
X195520000Y-95620000D02*
X195520000Y-94860000D01*
X195520000Y-97400000D02*
X189520000Y-97400000D01*
X195520000Y-98160000D02*
X195520000Y-97400000D01*
X195520000Y-99940000D02*
X189520000Y-99940000D01*
X195520000Y-100700000D02*
X195520000Y-99940000D01*
X195520000Y-102480000D02*
X189520000Y-102480000D01*
X195520000Y-103240000D02*
X195520000Y-102480000D01*
X155675000Y-95022936D02*
X155675000Y-95477064D01*
X154205000Y-95022936D02*
X154205000Y-95477064D01*
X163295000Y-95022936D02*
X163295000Y-95477064D01*
X161825000Y-95022936D02*
X161825000Y-95477064D01*
X134800000Y-104060000D02*
X134800000Y-99060000D01*
X121740000Y-102060000D02*
X121740000Y-96060000D01*
X146785000Y-102608748D02*
X146785000Y-103131252D01*
X145315000Y-102608748D02*
X145315000Y-103131252D01*
X155675000Y-102608748D02*
X155675000Y-103131252D01*
X154205000Y-102608748D02*
X154205000Y-103131252D01*
X97720000Y-92710000D02*
X97720000Y-91440000D01*
X97720000Y-91440000D02*
X96450000Y-91440000D01*
X95407071Y-105790000D02*
X95010000Y-105790000D01*
X95407071Y-105030000D02*
X95010000Y-105030000D01*
X95407071Y-103250000D02*
X95010000Y-103250000D01*
X95407071Y-102490000D02*
X95010000Y-102490000D01*
X95407071Y-100710000D02*
X95010000Y-100710000D01*
X95407071Y-99950000D02*
X95010000Y-99950000D01*
X95407071Y-98170000D02*
X95010000Y-98170000D01*
X95407071Y-97410000D02*
X95010000Y-97410000D01*
X95407071Y-95630000D02*
X95010000Y-95630000D01*
X95407071Y-94870000D02*
X95010000Y-94870000D01*
X95340000Y-93090000D02*
X95010000Y-93090000D01*
X95340000Y-92330000D02*
X95010000Y-92330000D01*
X95010000Y-106740000D02*
X92350000Y-106740000D01*
X95010000Y-104140000D02*
X92350000Y-104140000D01*
X95010000Y-101600000D02*
X92350000Y-101600000D01*
X95010000Y-99060000D02*
X92350000Y-99060000D01*
X95010000Y-96520000D02*
X92350000Y-96520000D01*
X95010000Y-93980000D02*
X92350000Y-93980000D01*
X95010000Y-91380000D02*
X95010000Y-106740000D01*
X92350000Y-106740000D02*
X92350000Y-91380000D01*
X92350000Y-105030000D02*
X86350000Y-105030000D01*
X92350000Y-102490000D02*
X86350000Y-102490000D01*
X92350000Y-99950000D02*
X86350000Y-99950000D01*
X92350000Y-97410000D02*
X86350000Y-97410000D01*
X92350000Y-94870000D02*
X86350000Y-94870000D01*
X92350000Y-92990000D02*
X86350000Y-92990000D01*
X92350000Y-92870000D02*
X86350000Y-92870000D01*
X92350000Y-92750000D02*
X86350000Y-92750000D01*
X92350000Y-92630000D02*
X86350000Y-92630000D01*
X92350000Y-92510000D02*
X86350000Y-92510000D01*
X92350000Y-92390000D02*
X86350000Y-92390000D01*
X92350000Y-92330000D02*
X86350000Y-92330000D01*
X92350000Y-91380000D02*
X95010000Y-91380000D01*
X86350000Y-105790000D02*
X92350000Y-105790000D01*
X86350000Y-105030000D02*
X86350000Y-105790000D01*
X86350000Y-103250000D02*
X92350000Y-103250000D01*
X86350000Y-102490000D02*
X86350000Y-103250000D01*
X86350000Y-100710000D02*
X92350000Y-100710000D01*
X86350000Y-99950000D02*
X86350000Y-100710000D01*
X86350000Y-98170000D02*
X92350000Y-98170000D01*
X86350000Y-97410000D02*
X86350000Y-98170000D01*
X86350000Y-95630000D02*
X92350000Y-95630000D01*
X86350000Y-94870000D02*
X86350000Y-95630000D01*
X86350000Y-93090000D02*
X92350000Y-93090000D01*
X86350000Y-92330000D02*
X86350000Y-93090000D01*
D14*
X107615406Y-96254949D02*
X107641127Y-96270647D01*
X107667778Y-96292227D01*
X107667778Y-96939684D01*
X107641127Y-96961264D01*
X107609767Y-96978739D01*
X107573966Y-96979575D01*
X107542528Y-96959082D01*
X107538652Y-96954416D01*
X107533186Y-96944949D01*
X107528979Y-96931267D01*
X107525867Y-96910748D01*
X107523687Y-96880768D01*
X107522276Y-96838704D01*
X107521471Y-96781932D01*
X107521107Y-96707830D01*
X107521022Y-96613773D01*
X107521022Y-96292227D01*
X107547673Y-96270647D01*
X107571386Y-96255877D01*
X107594400Y-96249067D01*
X107615406Y-96254949D01*
G36*
X107615406Y-96254949D02*
G01*
X107641127Y-96270647D01*
X107667778Y-96292227D01*
X107667778Y-96939684D01*
X107641127Y-96961264D01*
X107609767Y-96978739D01*
X107573966Y-96979575D01*
X107542528Y-96959082D01*
X107538652Y-96954416D01*
X107533186Y-96944949D01*
X107528979Y-96931267D01*
X107525867Y-96910748D01*
X107523687Y-96880768D01*
X107522276Y-96838704D01*
X107521471Y-96781932D01*
X107521107Y-96707830D01*
X107521022Y-96613773D01*
X107521022Y-96292227D01*
X107547673Y-96270647D01*
X107571386Y-96255877D01*
X107594400Y-96249067D01*
X107615406Y-96254949D01*
G37*
X114746137Y-96253463D02*
X114780291Y-96276776D01*
X114808000Y-96304485D01*
X114808000Y-96617537D01*
X114807959Y-96701567D01*
X114807701Y-96775789D01*
X114807030Y-96832541D01*
X114805752Y-96874512D01*
X114803673Y-96904389D01*
X114800599Y-96924861D01*
X114796334Y-96938614D01*
X114790684Y-96948337D01*
X114783455Y-96956717D01*
X114751991Y-96978181D01*
X114716826Y-96979947D01*
X114683822Y-96960267D01*
X114678516Y-96954398D01*
X114673066Y-96945314D01*
X114668900Y-96931973D01*
X114665846Y-96911757D01*
X114663732Y-96882049D01*
X114662386Y-96840232D01*
X114661638Y-96783689D01*
X114661314Y-96709802D01*
X114661245Y-96615956D01*
X114661284Y-96540294D01*
X114661539Y-96462385D01*
X114662183Y-96402375D01*
X114663387Y-96357648D01*
X114665324Y-96325585D01*
X114668164Y-96303571D01*
X114672079Y-96288987D01*
X114677242Y-96279218D01*
X114683822Y-96271645D01*
X114713006Y-96252623D01*
X114746137Y-96253463D01*
G36*
X114746137Y-96253463D02*
G01*
X114780291Y-96276776D01*
X114808000Y-96304485D01*
X114808000Y-96617537D01*
X114807959Y-96701567D01*
X114807701Y-96775789D01*
X114807030Y-96832541D01*
X114805752Y-96874512D01*
X114803673Y-96904389D01*
X114800599Y-96924861D01*
X114796334Y-96938614D01*
X114790684Y-96948337D01*
X114783455Y-96956717D01*
X114751991Y-96978181D01*
X114716826Y-96979947D01*
X114683822Y-96960267D01*
X114678516Y-96954398D01*
X114673066Y-96945314D01*
X114668900Y-96931973D01*
X114665846Y-96911757D01*
X114663732Y-96882049D01*
X114662386Y-96840232D01*
X114661638Y-96783689D01*
X114661314Y-96709802D01*
X114661245Y-96615956D01*
X114661284Y-96540294D01*
X114661539Y-96462385D01*
X114662183Y-96402375D01*
X114663387Y-96357648D01*
X114665324Y-96325585D01*
X114668164Y-96303571D01*
X114672079Y-96288987D01*
X114677242Y-96279218D01*
X114683822Y-96271645D01*
X114713006Y-96252623D01*
X114746137Y-96253463D01*
G37*
X114214562Y-91012850D02*
X114297313Y-91040053D01*
X114372406Y-91085484D01*
X114444298Y-91151302D01*
X114482846Y-91195567D01*
X114522256Y-91253961D01*
X114547446Y-91314586D01*
X114560861Y-91383865D01*
X114564948Y-91468222D01*
X114564669Y-91514307D01*
X114562460Y-91555450D01*
X114556894Y-91587582D01*
X114546586Y-91618122D01*
X114530148Y-91654489D01*
X114516200Y-91681728D01*
X114457665Y-91767429D01*
X114385619Y-91836617D01*
X114301947Y-91887741D01*
X114208531Y-91919250D01*
X114175434Y-91926225D01*
X114134960Y-91933094D01*
X114101999Y-91934919D01*
X114067698Y-91931947D01*
X114023200Y-91924426D01*
X113971934Y-91912002D01*
X113881434Y-91874112D01*
X113802345Y-91819836D01*
X113736528Y-91751770D01*
X113685840Y-91672511D01*
X113652140Y-91584654D01*
X113637286Y-91490795D01*
X113643136Y-91393530D01*
X113669399Y-91297220D01*
X113714418Y-91208494D01*
X113775373Y-91133419D01*
X113850184Y-91073641D01*
X113936768Y-91030809D01*
X114033043Y-91006571D01*
X114136928Y-91002576D01*
X114214562Y-91012850D01*
G36*
X114214562Y-91012850D02*
G01*
X114297313Y-91040053D01*
X114372406Y-91085484D01*
X114444298Y-91151302D01*
X114482846Y-91195567D01*
X114522256Y-91253961D01*
X114547446Y-91314586D01*
X114560861Y-91383865D01*
X114564948Y-91468222D01*
X114564669Y-91514307D01*
X114562460Y-91555450D01*
X114556894Y-91587582D01*
X114546586Y-91618122D01*
X114530148Y-91654489D01*
X114516200Y-91681728D01*
X114457665Y-91767429D01*
X114385619Y-91836617D01*
X114301947Y-91887741D01*
X114208531Y-91919250D01*
X114175434Y-91926225D01*
X114134960Y-91933094D01*
X114101999Y-91934919D01*
X114067698Y-91931947D01*
X114023200Y-91924426D01*
X113971934Y-91912002D01*
X113881434Y-91874112D01*
X113802345Y-91819836D01*
X113736528Y-91751770D01*
X113685840Y-91672511D01*
X113652140Y-91584654D01*
X113637286Y-91490795D01*
X113643136Y-91393530D01*
X113669399Y-91297220D01*
X113714418Y-91208494D01*
X113775373Y-91133419D01*
X113850184Y-91073641D01*
X113936768Y-91030809D01*
X114033043Y-91006571D01*
X114136928Y-91002576D01*
X114214562Y-91012850D01*
G37*
X106915767Y-96249068D02*
X107009890Y-96249158D01*
X107084405Y-96249498D01*
X107141811Y-96250239D01*
X107184611Y-96251535D01*
X107215304Y-96253537D01*
X107236391Y-96256396D01*
X107250373Y-96260266D01*
X107259750Y-96265298D01*
X107267022Y-96271645D01*
X107285828Y-96304362D01*
X107287275Y-96341939D01*
X107270917Y-96375178D01*
X107269557Y-96376631D01*
X107258354Y-96384992D01*
X107241252Y-96390547D01*
X107214082Y-96393840D01*
X107172678Y-96395418D01*
X107112873Y-96395822D01*
X106973511Y-96395822D01*
X106973511Y-96659589D01*
X106973436Y-96735417D01*
X106973028Y-96802083D01*
X106972046Y-96851867D01*
X106970250Y-96887784D01*
X106967399Y-96912850D01*
X106963253Y-96930081D01*
X106957571Y-96942492D01*
X106950114Y-96953100D01*
X106947824Y-96955906D01*
X106916646Y-96978548D01*
X106882266Y-96980112D01*
X106849334Y-96960267D01*
X106842355Y-96952191D01*
X106836883Y-96941593D01*
X106832863Y-96925749D01*
X106830072Y-96901773D01*
X106828288Y-96866774D01*
X106827289Y-96817864D01*
X106826852Y-96752154D01*
X106826756Y-96666756D01*
X106826756Y-96395822D01*
X106680820Y-96395822D01*
X106669720Y-96395821D01*
X106613202Y-96395596D01*
X106574358Y-96394457D01*
X106548965Y-96391657D01*
X106532804Y-96386450D01*
X106521652Y-96378089D01*
X106511289Y-96365826D01*
X106495441Y-96335138D01*
X106498543Y-96301358D01*
X106524187Y-96268822D01*
X106529129Y-96265105D01*
X106539338Y-96260269D01*
X106554764Y-96256506D01*
X106577886Y-96253683D01*
X106611183Y-96251670D01*
X106657137Y-96250333D01*
X106718228Y-96249542D01*
X106796935Y-96249163D01*
X106895740Y-96249067D01*
X106915767Y-96249068D01*
G36*
X106915767Y-96249068D02*
G01*
X107009890Y-96249158D01*
X107084405Y-96249498D01*
X107141811Y-96250239D01*
X107184611Y-96251535D01*
X107215304Y-96253537D01*
X107236391Y-96256396D01*
X107250373Y-96260266D01*
X107259750Y-96265298D01*
X107267022Y-96271645D01*
X107285828Y-96304362D01*
X107287275Y-96341939D01*
X107270917Y-96375178D01*
X107269557Y-96376631D01*
X107258354Y-96384992D01*
X107241252Y-96390547D01*
X107214082Y-96393840D01*
X107172678Y-96395418D01*
X107112873Y-96395822D01*
X106973511Y-96395822D01*
X106973511Y-96659589D01*
X106973436Y-96735417D01*
X106973028Y-96802083D01*
X106972046Y-96851867D01*
X106970250Y-96887784D01*
X106967399Y-96912850D01*
X106963253Y-96930081D01*
X106957571Y-96942492D01*
X106950114Y-96953100D01*
X106947824Y-96955906D01*
X106916646Y-96978548D01*
X106882266Y-96980112D01*
X106849334Y-96960267D01*
X106842355Y-96952191D01*
X106836883Y-96941593D01*
X106832863Y-96925749D01*
X106830072Y-96901773D01*
X106828288Y-96866774D01*
X106827289Y-96817864D01*
X106826852Y-96752154D01*
X106826756Y-96666756D01*
X106826756Y-96395822D01*
X106680820Y-96395822D01*
X106669720Y-96395821D01*
X106613202Y-96395596D01*
X106574358Y-96394457D01*
X106548965Y-96391657D01*
X106532804Y-96386450D01*
X106521652Y-96378089D01*
X106511289Y-96365826D01*
X106495441Y-96335138D01*
X106498543Y-96301358D01*
X106524187Y-96268822D01*
X106529129Y-96265105D01*
X106539338Y-96260269D01*
X106554764Y-96256506D01*
X106577886Y-96253683D01*
X106611183Y-96251670D01*
X106657137Y-96250333D01*
X106718228Y-96249542D01*
X106796935Y-96249163D01*
X106895740Y-96249067D01*
X106915767Y-96249068D01*
G37*
X106239734Y-96271645D02*
X106245366Y-96277835D01*
X106250456Y-96286041D01*
X106254543Y-96297817D01*
X106257721Y-96315276D01*
X106260087Y-96340530D01*
X106261738Y-96375690D01*
X106262769Y-96422869D01*
X106263277Y-96484177D01*
X106263359Y-96561727D01*
X106263109Y-96657631D01*
X106262625Y-96774000D01*
X106262557Y-96788175D01*
X106261971Y-96849937D01*
X106260648Y-96893620D01*
X106258103Y-96923001D01*
X106253848Y-96941855D01*
X106247396Y-96953959D01*
X106238262Y-96963089D01*
X106204804Y-96980506D01*
X106169856Y-96977604D01*
X106138953Y-96953100D01*
X106129944Y-96939897D01*
X106122492Y-96921361D01*
X106118124Y-96895333D01*
X106116069Y-96856787D01*
X106115556Y-96800700D01*
X106115556Y-96678045D01*
X105618845Y-96678045D01*
X105618845Y-96812871D01*
X105618772Y-96848662D01*
X105618009Y-96894992D01*
X105615833Y-96925526D01*
X105611536Y-96944557D01*
X105604412Y-96956374D01*
X105593755Y-96965271D01*
X105561504Y-96980341D01*
X105526217Y-96977673D01*
X105495486Y-96953100D01*
X105490831Y-96946845D01*
X105484895Y-96936321D01*
X105480364Y-96922391D01*
X105477048Y-96902317D01*
X105474759Y-96873360D01*
X105473308Y-96832780D01*
X105472505Y-96777840D01*
X105472162Y-96705799D01*
X105472089Y-96613920D01*
X105472089Y-96304485D01*
X105499798Y-96276776D01*
X105531177Y-96254533D01*
X105564406Y-96251844D01*
X105596267Y-96271645D01*
X105604553Y-96281415D01*
X105611965Y-96297307D01*
X105616302Y-96321275D01*
X105618338Y-96358148D01*
X105618845Y-96412756D01*
X105618845Y-96531289D01*
X106115556Y-96531289D01*
X106115556Y-96415776D01*
X106115994Y-96364078D01*
X106117958Y-96329554D01*
X106122474Y-96306978D01*
X106130567Y-96291126D01*
X106143265Y-96276776D01*
X106174643Y-96254533D01*
X106207872Y-96251844D01*
X106239734Y-96271645D01*
G36*
X106239734Y-96271645D02*
G01*
X106245366Y-96277835D01*
X106250456Y-96286041D01*
X106254543Y-96297817D01*
X106257721Y-96315276D01*
X106260087Y-96340530D01*
X106261738Y-96375690D01*
X106262769Y-96422869D01*
X106263277Y-96484177D01*
X106263359Y-96561727D01*
X106263109Y-96657631D01*
X106262625Y-96774000D01*
X106262557Y-96788175D01*
X106261971Y-96849937D01*
X106260648Y-96893620D01*
X106258103Y-96923001D01*
X106253848Y-96941855D01*
X106247396Y-96953959D01*
X106238262Y-96963089D01*
X106204804Y-96980506D01*
X106169856Y-96977604D01*
X106138953Y-96953100D01*
X106129944Y-96939897D01*
X106122492Y-96921361D01*
X106118124Y-96895333D01*
X106116069Y-96856787D01*
X106115556Y-96800700D01*
X106115556Y-96678045D01*
X105618845Y-96678045D01*
X105618845Y-96812871D01*
X105618772Y-96848662D01*
X105618009Y-96894992D01*
X105615833Y-96925526D01*
X105611536Y-96944557D01*
X105604412Y-96956374D01*
X105593755Y-96965271D01*
X105561504Y-96980341D01*
X105526217Y-96977673D01*
X105495486Y-96953100D01*
X105490831Y-96946845D01*
X105484895Y-96936321D01*
X105480364Y-96922391D01*
X105477048Y-96902317D01*
X105474759Y-96873360D01*
X105473308Y-96832780D01*
X105472505Y-96777840D01*
X105472162Y-96705799D01*
X105472089Y-96613920D01*
X105472089Y-96304485D01*
X105499798Y-96276776D01*
X105531177Y-96254533D01*
X105564406Y-96251844D01*
X105596267Y-96271645D01*
X105604553Y-96281415D01*
X105611965Y-96297307D01*
X105616302Y-96321275D01*
X105618338Y-96358148D01*
X105618845Y-96412756D01*
X105618845Y-96531289D01*
X106115556Y-96531289D01*
X106115556Y-96415776D01*
X106115994Y-96364078D01*
X106117958Y-96329554D01*
X106122474Y-96306978D01*
X106130567Y-96291126D01*
X106143265Y-96276776D01*
X106174643Y-96254533D01*
X106207872Y-96251844D01*
X106239734Y-96271645D01*
G37*
X110945133Y-96860396D02*
X110943163Y-96893175D01*
X110940235Y-96916095D01*
X110936158Y-96931897D01*
X110930743Y-96943319D01*
X110923803Y-96953100D01*
X110900406Y-96982845D01*
X110734714Y-96982251D01*
X110699918Y-96981953D01*
X110601435Y-96978522D01*
X110520473Y-96970839D01*
X110453379Y-96958282D01*
X110396496Y-96940227D01*
X110346169Y-96916052D01*
X110342810Y-96914135D01*
X110284998Y-96877417D01*
X110242644Y-96840451D01*
X110209828Y-96796966D01*
X110180628Y-96740689D01*
X110176346Y-96731073D01*
X110153769Y-96667887D01*
X110148034Y-96622333D01*
X110297279Y-96622333D01*
X110302892Y-96647061D01*
X110308618Y-96662939D01*
X110341548Y-96722847D01*
X110388886Y-96768600D01*
X110452652Y-96801736D01*
X110534861Y-96823790D01*
X110537655Y-96824292D01*
X110583940Y-96830255D01*
X110640336Y-96834483D01*
X110695274Y-96836089D01*
X110789156Y-96836089D01*
X110789156Y-96395822D01*
X110701667Y-96396270D01*
X110634747Y-96398746D01*
X110542349Y-96409998D01*
X110463034Y-96429537D01*
X110401060Y-96456511D01*
X110370120Y-96477240D01*
X110342000Y-96507006D01*
X110318660Y-96549434D01*
X110311533Y-96565400D01*
X110299709Y-96597902D01*
X110297279Y-96622333D01*
X110148034Y-96622333D01*
X110146797Y-96612509D01*
X110155399Y-96557483D01*
X110179541Y-96495351D01*
X110180337Y-96493658D01*
X110220788Y-96424236D01*
X110271473Y-96367638D01*
X110334198Y-96323070D01*
X110410774Y-96289741D01*
X110503009Y-96266861D01*
X110612712Y-96253636D01*
X110741691Y-96249275D01*
X110745263Y-96249270D01*
X110805283Y-96249410D01*
X110847214Y-96250446D01*
X110875328Y-96253040D01*
X110893897Y-96257853D01*
X110907194Y-96265544D01*
X110919491Y-96276776D01*
X110947200Y-96304485D01*
X110947200Y-96613920D01*
X110947175Y-96675526D01*
X110946950Y-96754311D01*
X110946332Y-96815021D01*
X110945775Y-96836089D01*
X110945133Y-96860396D01*
G36*
X110945133Y-96860396D02*
G01*
X110943163Y-96893175D01*
X110940235Y-96916095D01*
X110936158Y-96931897D01*
X110930743Y-96943319D01*
X110923803Y-96953100D01*
X110900406Y-96982845D01*
X110734714Y-96982251D01*
X110699918Y-96981953D01*
X110601435Y-96978522D01*
X110520473Y-96970839D01*
X110453379Y-96958282D01*
X110396496Y-96940227D01*
X110346169Y-96916052D01*
X110342810Y-96914135D01*
X110284998Y-96877417D01*
X110242644Y-96840451D01*
X110209828Y-96796966D01*
X110180628Y-96740689D01*
X110176346Y-96731073D01*
X110153769Y-96667887D01*
X110148034Y-96622333D01*
X110297279Y-96622333D01*
X110302892Y-96647061D01*
X110308618Y-96662939D01*
X110341548Y-96722847D01*
X110388886Y-96768600D01*
X110452652Y-96801736D01*
X110534861Y-96823790D01*
X110537655Y-96824292D01*
X110583940Y-96830255D01*
X110640336Y-96834483D01*
X110695274Y-96836089D01*
X110789156Y-96836089D01*
X110789156Y-96395822D01*
X110701667Y-96396270D01*
X110634747Y-96398746D01*
X110542349Y-96409998D01*
X110463034Y-96429537D01*
X110401060Y-96456511D01*
X110370120Y-96477240D01*
X110342000Y-96507006D01*
X110318660Y-96549434D01*
X110311533Y-96565400D01*
X110299709Y-96597902D01*
X110297279Y-96622333D01*
X110148034Y-96622333D01*
X110146797Y-96612509D01*
X110155399Y-96557483D01*
X110179541Y-96495351D01*
X110180337Y-96493658D01*
X110220788Y-96424236D01*
X110271473Y-96367638D01*
X110334198Y-96323070D01*
X110410774Y-96289741D01*
X110503009Y-96266861D01*
X110612712Y-96253636D01*
X110741691Y-96249275D01*
X110745263Y-96249270D01*
X110805283Y-96249410D01*
X110847214Y-96250446D01*
X110875328Y-96253040D01*
X110893897Y-96257853D01*
X110907194Y-96265544D01*
X110919491Y-96276776D01*
X110947200Y-96304485D01*
X110947200Y-96613920D01*
X110947175Y-96675526D01*
X110946950Y-96754311D01*
X110946332Y-96815021D01*
X110945775Y-96836089D01*
X110945133Y-96860396D01*
G37*
X118036817Y-96434427D02*
X118036870Y-96515041D01*
X118036622Y-96615956D01*
X118036583Y-96691617D01*
X118036328Y-96769526D01*
X118035684Y-96829536D01*
X118034480Y-96874264D01*
X118032543Y-96906326D01*
X118029703Y-96928340D01*
X118025788Y-96942924D01*
X118020626Y-96952694D01*
X118014045Y-96960267D01*
X118007077Y-96966501D01*
X117994079Y-96973801D01*
X117974931Y-96978554D01*
X117945528Y-96981292D01*
X117901762Y-96982545D01*
X117839528Y-96982845D01*
X117790582Y-96982469D01*
X117683722Y-96978041D01*
X117594494Y-96967953D01*
X117519696Y-96951365D01*
X117456125Y-96927435D01*
X117400579Y-96895321D01*
X117349854Y-96854182D01*
X117343866Y-96848330D01*
X117306999Y-96799821D01*
X117275899Y-96739013D01*
X117254417Y-96674769D01*
X117249136Y-96636026D01*
X117396353Y-96636026D01*
X117414635Y-96686961D01*
X117444305Y-96732878D01*
X117491002Y-96775287D01*
X117552392Y-96805090D01*
X117631538Y-96824226D01*
X117633028Y-96824464D01*
X117681999Y-96830256D01*
X117740693Y-96834396D01*
X117796734Y-96836004D01*
X117889867Y-96836089D01*
X117889867Y-96395822D01*
X117813667Y-96395808D01*
X117810639Y-96395817D01*
X117759519Y-96397782D01*
X117699416Y-96402507D01*
X117642708Y-96409035D01*
X117592750Y-96418331D01*
X117517998Y-96444600D01*
X117460489Y-96483899D01*
X117418988Y-96536933D01*
X117397771Y-96588200D01*
X117396353Y-96636026D01*
X117249136Y-96636026D01*
X117246400Y-96615956D01*
X117247679Y-96594739D01*
X117259991Y-96537323D01*
X117282520Y-96477413D01*
X117311750Y-96423363D01*
X117344167Y-96383532D01*
X117363708Y-96366510D01*
X117418420Y-96327322D01*
X117478723Y-96297193D01*
X117547919Y-96275232D01*
X117629311Y-96260550D01*
X117726200Y-96252259D01*
X117841889Y-96249467D01*
X117881371Y-96249066D01*
X117927082Y-96248653D01*
X117962883Y-96250457D01*
X117989974Y-96256739D01*
X118009556Y-96269759D01*
X118022830Y-96291778D01*
X118030998Y-96325055D01*
X118035260Y-96371851D01*
X118035857Y-96395822D01*
X118036817Y-96434427D01*
G36*
X118036817Y-96434427D02*
G01*
X118036870Y-96515041D01*
X118036622Y-96615956D01*
X118036583Y-96691617D01*
X118036328Y-96769526D01*
X118035684Y-96829536D01*
X118034480Y-96874264D01*
X118032543Y-96906326D01*
X118029703Y-96928340D01*
X118025788Y-96942924D01*
X118020626Y-96952694D01*
X118014045Y-96960267D01*
X118007077Y-96966501D01*
X117994079Y-96973801D01*
X117974931Y-96978554D01*
X117945528Y-96981292D01*
X117901762Y-96982545D01*
X117839528Y-96982845D01*
X117790582Y-96982469D01*
X117683722Y-96978041D01*
X117594494Y-96967953D01*
X117519696Y-96951365D01*
X117456125Y-96927435D01*
X117400579Y-96895321D01*
X117349854Y-96854182D01*
X117343866Y-96848330D01*
X117306999Y-96799821D01*
X117275899Y-96739013D01*
X117254417Y-96674769D01*
X117249136Y-96636026D01*
X117396353Y-96636026D01*
X117414635Y-96686961D01*
X117444305Y-96732878D01*
X117491002Y-96775287D01*
X117552392Y-96805090D01*
X117631538Y-96824226D01*
X117633028Y-96824464D01*
X117681999Y-96830256D01*
X117740693Y-96834396D01*
X117796734Y-96836004D01*
X117889867Y-96836089D01*
X117889867Y-96395822D01*
X117813667Y-96395808D01*
X117810639Y-96395817D01*
X117759519Y-96397782D01*
X117699416Y-96402507D01*
X117642708Y-96409035D01*
X117592750Y-96418331D01*
X117517998Y-96444600D01*
X117460489Y-96483899D01*
X117418988Y-96536933D01*
X117397771Y-96588200D01*
X117396353Y-96636026D01*
X117249136Y-96636026D01*
X117246400Y-96615956D01*
X117247679Y-96594739D01*
X117259991Y-96537323D01*
X117282520Y-96477413D01*
X117311750Y-96423363D01*
X117344167Y-96383532D01*
X117363708Y-96366510D01*
X117418420Y-96327322D01*
X117478723Y-96297193D01*
X117547919Y-96275232D01*
X117629311Y-96260550D01*
X117726200Y-96252259D01*
X117841889Y-96249467D01*
X117881371Y-96249066D01*
X117927082Y-96248653D01*
X117962883Y-96250457D01*
X117989974Y-96256739D01*
X118009556Y-96269759D01*
X118022830Y-96291778D01*
X118030998Y-96325055D01*
X118035260Y-96371851D01*
X118035857Y-96395822D01*
X118036817Y-96434427D01*
G37*
X113091893Y-96247892D02*
X113103301Y-96254029D01*
X113113850Y-96264691D01*
X113125136Y-96278811D01*
X113129589Y-96284772D01*
X113135588Y-96295268D01*
X113140167Y-96309093D01*
X113143519Y-96328998D01*
X113145833Y-96357732D01*
X113147301Y-96398045D01*
X113148113Y-96452687D01*
X113148460Y-96524407D01*
X113148534Y-96615956D01*
X113148511Y-96674486D01*
X113148292Y-96753573D01*
X113147683Y-96814516D01*
X113146492Y-96860062D01*
X113144529Y-96892963D01*
X113141603Y-96915968D01*
X113137523Y-96931826D01*
X113132097Y-96943286D01*
X113125136Y-96953100D01*
X113094708Y-96977493D01*
X113059765Y-96980372D01*
X113022784Y-96961282D01*
X113018600Y-96957807D01*
X113010424Y-96949279D01*
X113004364Y-96937728D01*
X112999981Y-96919896D01*
X112996839Y-96892524D01*
X112994502Y-96852354D01*
X112992531Y-96796128D01*
X112990489Y-96720589D01*
X112984845Y-96501458D01*
X112719556Y-96742099D01*
X112645722Y-96808875D01*
X112580542Y-96866991D01*
X112528348Y-96911949D01*
X112487273Y-96944871D01*
X112455455Y-96966879D01*
X112431026Y-96979094D01*
X112412124Y-96982639D01*
X112396883Y-96978636D01*
X112383439Y-96968207D01*
X112369927Y-96952474D01*
X112363682Y-96943991D01*
X112358050Y-96933413D01*
X112353839Y-96919255D01*
X112350887Y-96898803D01*
X112349032Y-96869342D01*
X112348113Y-96828161D01*
X112347968Y-96772544D01*
X112348435Y-96699779D01*
X112349352Y-96607151D01*
X112352667Y-96292199D01*
X112379318Y-96270633D01*
X112405383Y-96254441D01*
X112438241Y-96251670D01*
X112472772Y-96270623D01*
X112477084Y-96274208D01*
X112485216Y-96282737D01*
X112491245Y-96294329D01*
X112495606Y-96312235D01*
X112498734Y-96339706D01*
X112501063Y-96379994D01*
X112503029Y-96436351D01*
X112505067Y-96512029D01*
X112510711Y-96731878D01*
X112691334Y-96568084D01*
X112778072Y-96489451D01*
X112853843Y-96421058D01*
X112915980Y-96365708D01*
X112966078Y-96322338D01*
X113005735Y-96289881D01*
X113036548Y-96267273D01*
X113060114Y-96253448D01*
X113078030Y-96247343D01*
X113091893Y-96247892D01*
G36*
X113091893Y-96247892D02*
G01*
X113103301Y-96254029D01*
X113113850Y-96264691D01*
X113125136Y-96278811D01*
X113129589Y-96284772D01*
X113135588Y-96295268D01*
X113140167Y-96309093D01*
X113143519Y-96328998D01*
X113145833Y-96357732D01*
X113147301Y-96398045D01*
X113148113Y-96452687D01*
X113148460Y-96524407D01*
X113148534Y-96615956D01*
X113148511Y-96674486D01*
X113148292Y-96753573D01*
X113147683Y-96814516D01*
X113146492Y-96860062D01*
X113144529Y-96892963D01*
X113141603Y-96915968D01*
X113137523Y-96931826D01*
X113132097Y-96943286D01*
X113125136Y-96953100D01*
X113094708Y-96977493D01*
X113059765Y-96980372D01*
X113022784Y-96961282D01*
X113018600Y-96957807D01*
X113010424Y-96949279D01*
X113004364Y-96937728D01*
X112999981Y-96919896D01*
X112996839Y-96892524D01*
X112994502Y-96852354D01*
X112992531Y-96796128D01*
X112990489Y-96720589D01*
X112984845Y-96501458D01*
X112719556Y-96742099D01*
X112645722Y-96808875D01*
X112580542Y-96866991D01*
X112528348Y-96911949D01*
X112487273Y-96944871D01*
X112455455Y-96966879D01*
X112431026Y-96979094D01*
X112412124Y-96982639D01*
X112396883Y-96978636D01*
X112383439Y-96968207D01*
X112369927Y-96952474D01*
X112363682Y-96943991D01*
X112358050Y-96933413D01*
X112353839Y-96919255D01*
X112350887Y-96898803D01*
X112349032Y-96869342D01*
X112348113Y-96828161D01*
X112347968Y-96772544D01*
X112348435Y-96699779D01*
X112349352Y-96607151D01*
X112352667Y-96292199D01*
X112379318Y-96270633D01*
X112405383Y-96254441D01*
X112438241Y-96251670D01*
X112472772Y-96270623D01*
X112477084Y-96274208D01*
X112485216Y-96282737D01*
X112491245Y-96294329D01*
X112495606Y-96312235D01*
X112498734Y-96339706D01*
X112501063Y-96379994D01*
X112503029Y-96436351D01*
X112505067Y-96512029D01*
X112510711Y-96731878D01*
X112691334Y-96568084D01*
X112778072Y-96489451D01*
X112853843Y-96421058D01*
X112915980Y-96365708D01*
X112966078Y-96322338D01*
X113005735Y-96289881D01*
X113036548Y-96267273D01*
X113060114Y-96253448D01*
X113078030Y-96247343D01*
X113091893Y-96247892D01*
G37*
X113889150Y-96254179D02*
X113995157Y-96270494D01*
X114088969Y-96298545D01*
X114167765Y-96337452D01*
X114228719Y-96386334D01*
X114254789Y-96419195D01*
X114284297Y-96468394D01*
X114309568Y-96522252D01*
X114327218Y-96573419D01*
X114333858Y-96614544D01*
X114332298Y-96634259D01*
X114319357Y-96685592D01*
X114296194Y-96742118D01*
X114266302Y-96796035D01*
X114233173Y-96839539D01*
X114222977Y-96849887D01*
X114155892Y-96901662D01*
X114075766Y-96941554D01*
X113989556Y-96965956D01*
X113934592Y-96974068D01*
X113841139Y-96980673D01*
X113751358Y-96978586D01*
X113668869Y-96968340D01*
X113597286Y-96950470D01*
X113540228Y-96925508D01*
X113501311Y-96893988D01*
X113499936Y-96892012D01*
X113492848Y-96866786D01*
X113488609Y-96819535D01*
X113487200Y-96750071D01*
X113488060Y-96687838D01*
X113492780Y-96640456D01*
X113504470Y-96608353D01*
X113526239Y-96588800D01*
X113561198Y-96579070D01*
X113612456Y-96576433D01*
X113683123Y-96578161D01*
X113731743Y-96581173D01*
X113781939Y-96589366D01*
X113814433Y-96603419D01*
X113831892Y-96624654D01*
X113836983Y-96654394D01*
X113836877Y-96658936D01*
X113828175Y-96693730D01*
X113804165Y-96717147D01*
X113762900Y-96730347D01*
X113702431Y-96734489D01*
X113633956Y-96734489D01*
X113633956Y-96772841D01*
X113634006Y-96781976D01*
X113636227Y-96799227D01*
X113645494Y-96809521D01*
X113666875Y-96816459D01*
X113705436Y-96823641D01*
X113710910Y-96824575D01*
X113807860Y-96834478D01*
X113897852Y-96831559D01*
X113978760Y-96816829D01*
X114048459Y-96791299D01*
X114104824Y-96755978D01*
X114145729Y-96711879D01*
X114169051Y-96660012D01*
X114172663Y-96601388D01*
X114167145Y-96572494D01*
X114140461Y-96516604D01*
X114094273Y-96470945D01*
X114029291Y-96436108D01*
X113946229Y-96412690D01*
X113921555Y-96408241D01*
X113832226Y-96397742D01*
X113752419Y-96398971D01*
X113674326Y-96411906D01*
X113639183Y-96418696D01*
X113593745Y-96419713D01*
X113562430Y-96407182D01*
X113542277Y-96380395D01*
X113535893Y-96352148D01*
X113545379Y-96320924D01*
X113554708Y-96307499D01*
X113588943Y-96283967D01*
X113641565Y-96266095D01*
X113710081Y-96254599D01*
X113792000Y-96250192D01*
X113889150Y-96254179D01*
G36*
X113889150Y-96254179D02*
G01*
X113995157Y-96270494D01*
X114088969Y-96298545D01*
X114167765Y-96337452D01*
X114228719Y-96386334D01*
X114254789Y-96419195D01*
X114284297Y-96468394D01*
X114309568Y-96522252D01*
X114327218Y-96573419D01*
X114333858Y-96614544D01*
X114332298Y-96634259D01*
X114319357Y-96685592D01*
X114296194Y-96742118D01*
X114266302Y-96796035D01*
X114233173Y-96839539D01*
X114222977Y-96849887D01*
X114155892Y-96901662D01*
X114075766Y-96941554D01*
X113989556Y-96965956D01*
X113934592Y-96974068D01*
X113841139Y-96980673D01*
X113751358Y-96978586D01*
X113668869Y-96968340D01*
X113597286Y-96950470D01*
X113540228Y-96925508D01*
X113501311Y-96893988D01*
X113499936Y-96892012D01*
X113492848Y-96866786D01*
X113488609Y-96819535D01*
X113487200Y-96750071D01*
X113488060Y-96687838D01*
X113492780Y-96640456D01*
X113504470Y-96608353D01*
X113526239Y-96588800D01*
X113561198Y-96579070D01*
X113612456Y-96576433D01*
X113683123Y-96578161D01*
X113731743Y-96581173D01*
X113781939Y-96589366D01*
X113814433Y-96603419D01*
X113831892Y-96624654D01*
X113836983Y-96654394D01*
X113836877Y-96658936D01*
X113828175Y-96693730D01*
X113804165Y-96717147D01*
X113762900Y-96730347D01*
X113702431Y-96734489D01*
X113633956Y-96734489D01*
X113633956Y-96772841D01*
X113634006Y-96781976D01*
X113636227Y-96799227D01*
X113645494Y-96809521D01*
X113666875Y-96816459D01*
X113705436Y-96823641D01*
X113710910Y-96824575D01*
X113807860Y-96834478D01*
X113897852Y-96831559D01*
X113978760Y-96816829D01*
X114048459Y-96791299D01*
X114104824Y-96755978D01*
X114145729Y-96711879D01*
X114169051Y-96660012D01*
X114172663Y-96601388D01*
X114167145Y-96572494D01*
X114140461Y-96516604D01*
X114094273Y-96470945D01*
X114029291Y-96436108D01*
X113946229Y-96412690D01*
X113921555Y-96408241D01*
X113832226Y-96397742D01*
X113752419Y-96398971D01*
X113674326Y-96411906D01*
X113639183Y-96418696D01*
X113593745Y-96419713D01*
X113562430Y-96407182D01*
X113542277Y-96380395D01*
X113535893Y-96352148D01*
X113545379Y-96320924D01*
X113554708Y-96307499D01*
X113588943Y-96283967D01*
X113641565Y-96266095D01*
X113710081Y-96254599D01*
X113792000Y-96250192D01*
X113889150Y-96254179D01*
G37*
X111939803Y-96278811D02*
X111944752Y-96285495D01*
X111950596Y-96296066D01*
X111955057Y-96310153D01*
X111958321Y-96330478D01*
X111960574Y-96359765D01*
X111962002Y-96400737D01*
X111962792Y-96456117D01*
X111963129Y-96528628D01*
X111963200Y-96620994D01*
X111963171Y-96686911D01*
X111962939Y-96765228D01*
X111962319Y-96825496D01*
X111961126Y-96870393D01*
X111959179Y-96902602D01*
X111956294Y-96924800D01*
X111952288Y-96939669D01*
X111946979Y-96949889D01*
X111940183Y-96958138D01*
X111935668Y-96962795D01*
X111927438Y-96969282D01*
X111916078Y-96974194D01*
X111898810Y-96977749D01*
X111872855Y-96980167D01*
X111835436Y-96981667D01*
X111783773Y-96982467D01*
X111715089Y-96982787D01*
X111626606Y-96982845D01*
X111606931Y-96982838D01*
X111519906Y-96982572D01*
X111452254Y-96981806D01*
X111401299Y-96980392D01*
X111364367Y-96978180D01*
X111338783Y-96975022D01*
X111321871Y-96970769D01*
X111310957Y-96965271D01*
X111300464Y-96955285D01*
X111287203Y-96924168D01*
X111288386Y-96888280D01*
X111304550Y-96856733D01*
X111306739Y-96854457D01*
X111315427Y-96848189D01*
X111328769Y-96843523D01*
X111349752Y-96840227D01*
X111381363Y-96838068D01*
X111426590Y-96836814D01*
X111488420Y-96836231D01*
X111569839Y-96836089D01*
X111816445Y-96836089D01*
X111816445Y-96678045D01*
X111654006Y-96678045D01*
X111618338Y-96677964D01*
X111562568Y-96677167D01*
X111523430Y-96675162D01*
X111496976Y-96671521D01*
X111479259Y-96665812D01*
X111466329Y-96657607D01*
X111462686Y-96654423D01*
X111444278Y-96623448D01*
X111443644Y-96587112D01*
X111461183Y-96553493D01*
X111461245Y-96553424D01*
X111470916Y-96544798D01*
X111484209Y-96538742D01*
X111504917Y-96534811D01*
X111536828Y-96532556D01*
X111583734Y-96531531D01*
X111649424Y-96531289D01*
X111817571Y-96531289D01*
X111814186Y-96466378D01*
X111810800Y-96401467D01*
X111568723Y-96398414D01*
X111543707Y-96398086D01*
X111462087Y-96396606D01*
X111399768Y-96394222D01*
X111354154Y-96390227D01*
X111322652Y-96383913D01*
X111302667Y-96374574D01*
X111291604Y-96361503D01*
X111286869Y-96343992D01*
X111285867Y-96321335D01*
X111285873Y-96318970D01*
X111287027Y-96298939D01*
X111291824Y-96283146D01*
X111302632Y-96271090D01*
X111321817Y-96262267D01*
X111351745Y-96256175D01*
X111394783Y-96252311D01*
X111453299Y-96250174D01*
X111529657Y-96249260D01*
X111626226Y-96249067D01*
X111916406Y-96249067D01*
X111939803Y-96278811D01*
G36*
X111939803Y-96278811D02*
G01*
X111944752Y-96285495D01*
X111950596Y-96296066D01*
X111955057Y-96310153D01*
X111958321Y-96330478D01*
X111960574Y-96359765D01*
X111962002Y-96400737D01*
X111962792Y-96456117D01*
X111963129Y-96528628D01*
X111963200Y-96620994D01*
X111963171Y-96686911D01*
X111962939Y-96765228D01*
X111962319Y-96825496D01*
X111961126Y-96870393D01*
X111959179Y-96902602D01*
X111956294Y-96924800D01*
X111952288Y-96939669D01*
X111946979Y-96949889D01*
X111940183Y-96958138D01*
X111935668Y-96962795D01*
X111927438Y-96969282D01*
X111916078Y-96974194D01*
X111898810Y-96977749D01*
X111872855Y-96980167D01*
X111835436Y-96981667D01*
X111783773Y-96982467D01*
X111715089Y-96982787D01*
X111626606Y-96982845D01*
X111606931Y-96982838D01*
X111519906Y-96982572D01*
X111452254Y-96981806D01*
X111401299Y-96980392D01*
X111364367Y-96978180D01*
X111338783Y-96975022D01*
X111321871Y-96970769D01*
X111310957Y-96965271D01*
X111300464Y-96955285D01*
X111287203Y-96924168D01*
X111288386Y-96888280D01*
X111304550Y-96856733D01*
X111306739Y-96854457D01*
X111315427Y-96848189D01*
X111328769Y-96843523D01*
X111349752Y-96840227D01*
X111381363Y-96838068D01*
X111426590Y-96836814D01*
X111488420Y-96836231D01*
X111569839Y-96836089D01*
X111816445Y-96836089D01*
X111816445Y-96678045D01*
X111654006Y-96678045D01*
X111618338Y-96677964D01*
X111562568Y-96677167D01*
X111523430Y-96675162D01*
X111496976Y-96671521D01*
X111479259Y-96665812D01*
X111466329Y-96657607D01*
X111462686Y-96654423D01*
X111444278Y-96623448D01*
X111443644Y-96587112D01*
X111461183Y-96553493D01*
X111461245Y-96553424D01*
X111470916Y-96544798D01*
X111484209Y-96538742D01*
X111504917Y-96534811D01*
X111536828Y-96532556D01*
X111583734Y-96531531D01*
X111649424Y-96531289D01*
X111817571Y-96531289D01*
X111814186Y-96466378D01*
X111810800Y-96401467D01*
X111568723Y-96398414D01*
X111543707Y-96398086D01*
X111462087Y-96396606D01*
X111399768Y-96394222D01*
X111354154Y-96390227D01*
X111322652Y-96383913D01*
X111302667Y-96374574D01*
X111291604Y-96361503D01*
X111286869Y-96343992D01*
X111285867Y-96321335D01*
X111285873Y-96318970D01*
X111287027Y-96298939D01*
X111291824Y-96283146D01*
X111302632Y-96271090D01*
X111321817Y-96262267D01*
X111351745Y-96256175D01*
X111394783Y-96252311D01*
X111453299Y-96250174D01*
X111529657Y-96249260D01*
X111626226Y-96249067D01*
X111916406Y-96249067D01*
X111939803Y-96278811D01*
G37*
X116616734Y-96249083D02*
X116693831Y-96249275D01*
X116752777Y-96249860D01*
X116796364Y-96251051D01*
X116827383Y-96253064D01*
X116848625Y-96256112D01*
X116862882Y-96260409D01*
X116872945Y-96266172D01*
X116881606Y-96273612D01*
X116883391Y-96275293D01*
X116890635Y-96282832D01*
X116896277Y-96291850D01*
X116900517Y-96304984D01*
X116903556Y-96324872D01*
X116905594Y-96354151D01*
X116906830Y-96395458D01*
X116907465Y-96451431D01*
X116907700Y-96524707D01*
X116907734Y-96617923D01*
X116907697Y-96690713D01*
X116907448Y-96768889D01*
X116906812Y-96829103D01*
X116905615Y-96873982D01*
X116903684Y-96906152D01*
X116900846Y-96928239D01*
X116896927Y-96942870D01*
X116891755Y-96952670D01*
X116885156Y-96960267D01*
X116881822Y-96963444D01*
X116873300Y-96969554D01*
X116861298Y-96974229D01*
X116843087Y-96977659D01*
X116815940Y-96980036D01*
X116777129Y-96981552D01*
X116723924Y-96982398D01*
X116653598Y-96982765D01*
X116563422Y-96982845D01*
X116521314Y-96982833D01*
X116440167Y-96982651D01*
X116377675Y-96982098D01*
X116331109Y-96980982D01*
X116297741Y-96979113D01*
X116274844Y-96976298D01*
X116259688Y-96972346D01*
X116249546Y-96967066D01*
X116241689Y-96960267D01*
X116226963Y-96938667D01*
X116219111Y-96909467D01*
X116224610Y-96885560D01*
X116241689Y-96858667D01*
X116246668Y-96854059D01*
X116256443Y-96847772D01*
X116270559Y-96843146D01*
X116292054Y-96839930D01*
X116323968Y-96837870D01*
X116369342Y-96836712D01*
X116431213Y-96836202D01*
X116512622Y-96836089D01*
X116760978Y-96836089D01*
X116760978Y-96678045D01*
X116599801Y-96678045D01*
X116563983Y-96677899D01*
X116498359Y-96676176D01*
X116451118Y-96671741D01*
X116419383Y-96663637D01*
X116400277Y-96650906D01*
X116390923Y-96632592D01*
X116388445Y-96607738D01*
X116389242Y-96587482D01*
X116394494Y-96565656D01*
X116407288Y-96550304D01*
X116430628Y-96540309D01*
X116467517Y-96534553D01*
X116520959Y-96531919D01*
X116593958Y-96531289D01*
X116762105Y-96531289D01*
X116758719Y-96466378D01*
X116755334Y-96401467D01*
X116507617Y-96398418D01*
X116445026Y-96397539D01*
X116376565Y-96396095D01*
X116325661Y-96394164D01*
X116289408Y-96391514D01*
X116264901Y-96387910D01*
X116249235Y-96383121D01*
X116239506Y-96376913D01*
X116233491Y-96370510D01*
X116220482Y-96338828D01*
X116224043Y-96303142D01*
X116243818Y-96272084D01*
X116247069Y-96269161D01*
X116256049Y-96262810D01*
X116268153Y-96257957D01*
X116286159Y-96254403D01*
X116312847Y-96251946D01*
X116350997Y-96250385D01*
X116403386Y-96249518D01*
X116472794Y-96249146D01*
X116562001Y-96249067D01*
X116616734Y-96249083D01*
G36*
X116616734Y-96249083D02*
G01*
X116693831Y-96249275D01*
X116752777Y-96249860D01*
X116796364Y-96251051D01*
X116827383Y-96253064D01*
X116848625Y-96256112D01*
X116862882Y-96260409D01*
X116872945Y-96266172D01*
X116881606Y-96273612D01*
X116883391Y-96275293D01*
X116890635Y-96282832D01*
X116896277Y-96291850D01*
X116900517Y-96304984D01*
X116903556Y-96324872D01*
X116905594Y-96354151D01*
X116906830Y-96395458D01*
X116907465Y-96451431D01*
X116907700Y-96524707D01*
X116907734Y-96617923D01*
X116907697Y-96690713D01*
X116907448Y-96768889D01*
X116906812Y-96829103D01*
X116905615Y-96873982D01*
X116903684Y-96906152D01*
X116900846Y-96928239D01*
X116896927Y-96942870D01*
X116891755Y-96952670D01*
X116885156Y-96960267D01*
X116881822Y-96963444D01*
X116873300Y-96969554D01*
X116861298Y-96974229D01*
X116843087Y-96977659D01*
X116815940Y-96980036D01*
X116777129Y-96981552D01*
X116723924Y-96982398D01*
X116653598Y-96982765D01*
X116563422Y-96982845D01*
X116521314Y-96982833D01*
X116440167Y-96982651D01*
X116377675Y-96982098D01*
X116331109Y-96980982D01*
X116297741Y-96979113D01*
X116274844Y-96976298D01*
X116259688Y-96972346D01*
X116249546Y-96967066D01*
X116241689Y-96960267D01*
X116226963Y-96938667D01*
X116219111Y-96909467D01*
X116224610Y-96885560D01*
X116241689Y-96858667D01*
X116246668Y-96854059D01*
X116256443Y-96847772D01*
X116270559Y-96843146D01*
X116292054Y-96839930D01*
X116323968Y-96837870D01*
X116369342Y-96836712D01*
X116431213Y-96836202D01*
X116512622Y-96836089D01*
X116760978Y-96836089D01*
X116760978Y-96678045D01*
X116599801Y-96678045D01*
X116563983Y-96677899D01*
X116498359Y-96676176D01*
X116451118Y-96671741D01*
X116419383Y-96663637D01*
X116400277Y-96650906D01*
X116390923Y-96632592D01*
X116388445Y-96607738D01*
X116389242Y-96587482D01*
X116394494Y-96565656D01*
X116407288Y-96550304D01*
X116430628Y-96540309D01*
X116467517Y-96534553D01*
X116520959Y-96531919D01*
X116593958Y-96531289D01*
X116762105Y-96531289D01*
X116758719Y-96466378D01*
X116755334Y-96401467D01*
X116507617Y-96398418D01*
X116445026Y-96397539D01*
X116376565Y-96396095D01*
X116325661Y-96394164D01*
X116289408Y-96391514D01*
X116264901Y-96387910D01*
X116249235Y-96383121D01*
X116239506Y-96376913D01*
X116233491Y-96370510D01*
X116220482Y-96338828D01*
X116224043Y-96303142D01*
X116243818Y-96272084D01*
X116247069Y-96269161D01*
X116256049Y-96262810D01*
X116268153Y-96257957D01*
X116286159Y-96254403D01*
X116312847Y-96251946D01*
X116350997Y-96250385D01*
X116403386Y-96249518D01*
X116472794Y-96249146D01*
X116562001Y-96249067D01*
X116616734Y-96249083D01*
G37*
X108049702Y-96258478D02*
X108067663Y-96276989D01*
X108088263Y-96308071D01*
X108113095Y-96353756D01*
X108143750Y-96416078D01*
X108181820Y-96497071D01*
X108196454Y-96528454D01*
X108226203Y-96591638D01*
X108252297Y-96646244D01*
X108273292Y-96689290D01*
X108287739Y-96717793D01*
X108294191Y-96728770D01*
X108295550Y-96728189D01*
X108305542Y-96714242D01*
X108322833Y-96684704D01*
X108345430Y-96643087D01*
X108371338Y-96592903D01*
X108387311Y-96561414D01*
X108416261Y-96506061D01*
X108438749Y-96467044D01*
X108456965Y-96441566D01*
X108473096Y-96426831D01*
X108489330Y-96420042D01*
X108507857Y-96418400D01*
X108518360Y-96418875D01*
X108534476Y-96423082D01*
X108549790Y-96433946D01*
X108566388Y-96454219D01*
X108586357Y-96486654D01*
X108611783Y-96534004D01*
X108644752Y-96599022D01*
X108654485Y-96618277D01*
X108678943Y-96664946D01*
X108699178Y-96701109D01*
X108713311Y-96723497D01*
X108719460Y-96728845D01*
X108720827Y-96725573D01*
X108730202Y-96704664D01*
X108747062Y-96667725D01*
X108769979Y-96617874D01*
X108797520Y-96558226D01*
X108828255Y-96491898D01*
X108854970Y-96434677D01*
X108884593Y-96372688D01*
X108907664Y-96326949D01*
X108925643Y-96294908D01*
X108939990Y-96274014D01*
X108952166Y-96261718D01*
X108963632Y-96255466D01*
X108973042Y-96252574D01*
X108998147Y-96252425D01*
X109025290Y-96267768D01*
X109026590Y-96268753D01*
X109048674Y-96291388D01*
X109059723Y-96313613D01*
X109059769Y-96314253D01*
X109055228Y-96331915D01*
X109042364Y-96366481D01*
X109022605Y-96414826D01*
X108997381Y-96473825D01*
X108968119Y-96540355D01*
X108936250Y-96611291D01*
X108903201Y-96683507D01*
X108870401Y-96753880D01*
X108839280Y-96819285D01*
X108811265Y-96876597D01*
X108787786Y-96922692D01*
X108770272Y-96954446D01*
X108760151Y-96968733D01*
X108725743Y-96982102D01*
X108684046Y-96975741D01*
X108678681Y-96971044D01*
X108662852Y-96948893D01*
X108640650Y-96912132D01*
X108614233Y-96864415D01*
X108585760Y-96809393D01*
X108505986Y-96650150D01*
X108432799Y-96796742D01*
X108423103Y-96816032D01*
X108396125Y-96868380D01*
X108372096Y-96913170D01*
X108353332Y-96946154D01*
X108342146Y-96963089D01*
X108341000Y-96964332D01*
X108312879Y-96979619D01*
X108277817Y-96981302D01*
X108246776Y-96968733D01*
X108244350Y-96965884D01*
X108232090Y-96945259D01*
X108212352Y-96907708D01*
X108186448Y-96855880D01*
X108155685Y-96792423D01*
X108121375Y-96719985D01*
X108084825Y-96641216D01*
X108064585Y-96597093D01*
X108027812Y-96516365D01*
X107999355Y-96452687D01*
X107978331Y-96403752D01*
X107963854Y-96367257D01*
X107955039Y-96340895D01*
X107951004Y-96322361D01*
X107950862Y-96309352D01*
X107953730Y-96299561D01*
X107968387Y-96278678D01*
X107994990Y-96258377D01*
X107995745Y-96258035D01*
X108015335Y-96251034D01*
X108032790Y-96250504D01*
X108049702Y-96258478D01*
G36*
X108049702Y-96258478D02*
G01*
X108067663Y-96276989D01*
X108088263Y-96308071D01*
X108113095Y-96353756D01*
X108143750Y-96416078D01*
X108181820Y-96497071D01*
X108196454Y-96528454D01*
X108226203Y-96591638D01*
X108252297Y-96646244D01*
X108273292Y-96689290D01*
X108287739Y-96717793D01*
X108294191Y-96728770D01*
X108295550Y-96728189D01*
X108305542Y-96714242D01*
X108322833Y-96684704D01*
X108345430Y-96643087D01*
X108371338Y-96592903D01*
X108387311Y-96561414D01*
X108416261Y-96506061D01*
X108438749Y-96467044D01*
X108456965Y-96441566D01*
X108473096Y-96426831D01*
X108489330Y-96420042D01*
X108507857Y-96418400D01*
X108518360Y-96418875D01*
X108534476Y-96423082D01*
X108549790Y-96433946D01*
X108566388Y-96454219D01*
X108586357Y-96486654D01*
X108611783Y-96534004D01*
X108644752Y-96599022D01*
X108654485Y-96618277D01*
X108678943Y-96664946D01*
X108699178Y-96701109D01*
X108713311Y-96723497D01*
X108719460Y-96728845D01*
X108720827Y-96725573D01*
X108730202Y-96704664D01*
X108747062Y-96667725D01*
X108769979Y-96617874D01*
X108797520Y-96558226D01*
X108828255Y-96491898D01*
X108854970Y-96434677D01*
X108884593Y-96372688D01*
X108907664Y-96326949D01*
X108925643Y-96294908D01*
X108939990Y-96274014D01*
X108952166Y-96261718D01*
X108963632Y-96255466D01*
X108973042Y-96252574D01*
X108998147Y-96252425D01*
X109025290Y-96267768D01*
X109026590Y-96268753D01*
X109048674Y-96291388D01*
X109059723Y-96313613D01*
X109059769Y-96314253D01*
X109055228Y-96331915D01*
X109042364Y-96366481D01*
X109022605Y-96414826D01*
X108997381Y-96473825D01*
X108968119Y-96540355D01*
X108936250Y-96611291D01*
X108903201Y-96683507D01*
X108870401Y-96753880D01*
X108839280Y-96819285D01*
X108811265Y-96876597D01*
X108787786Y-96922692D01*
X108770272Y-96954446D01*
X108760151Y-96968733D01*
X108725743Y-96982102D01*
X108684046Y-96975741D01*
X108678681Y-96971044D01*
X108662852Y-96948893D01*
X108640650Y-96912132D01*
X108614233Y-96864415D01*
X108585760Y-96809393D01*
X108505986Y-96650150D01*
X108432799Y-96796742D01*
X108423103Y-96816032D01*
X108396125Y-96868380D01*
X108372096Y-96913170D01*
X108353332Y-96946154D01*
X108342146Y-96963089D01*
X108341000Y-96964332D01*
X108312879Y-96979619D01*
X108277817Y-96981302D01*
X108246776Y-96968733D01*
X108244350Y-96965884D01*
X108232090Y-96945259D01*
X108212352Y-96907708D01*
X108186448Y-96855880D01*
X108155685Y-96792423D01*
X108121375Y-96719985D01*
X108084825Y-96641216D01*
X108064585Y-96597093D01*
X108027812Y-96516365D01*
X107999355Y-96452687D01*
X107978331Y-96403752D01*
X107963854Y-96367257D01*
X107955039Y-96340895D01*
X107951004Y-96322361D01*
X107950862Y-96309352D01*
X107953730Y-96299561D01*
X107968387Y-96278678D01*
X107994990Y-96258377D01*
X107995745Y-96258035D01*
X108015335Y-96251034D01*
X108032790Y-96250504D01*
X108049702Y-96258478D01*
G37*
X115600853Y-96249936D02*
X115667100Y-96255366D01*
X115722400Y-96264964D01*
X115773283Y-96279825D01*
X115844595Y-96312958D01*
X115895752Y-96355640D01*
X115926575Y-96407705D01*
X115936889Y-96468983D01*
X115935952Y-96500232D01*
X115930160Y-96525029D01*
X115915353Y-96546699D01*
X115887380Y-96574049D01*
X115879402Y-96581378D01*
X115855692Y-96602281D01*
X115833298Y-96619251D01*
X115809265Y-96633205D01*
X115780637Y-96645056D01*
X115744460Y-96655720D01*
X115697780Y-96666111D01*
X115637641Y-96677146D01*
X115561090Y-96689738D01*
X115465171Y-96704804D01*
X115446808Y-96707838D01*
X115384478Y-96721458D01*
X115339260Y-96737192D01*
X115312976Y-96754263D01*
X115307447Y-96771897D01*
X115310068Y-96776168D01*
X115328000Y-96791233D01*
X115356126Y-96807867D01*
X115368926Y-96813857D01*
X115390224Y-96821050D01*
X115416610Y-96825827D01*
X115452454Y-96828646D01*
X115502128Y-96829964D01*
X115570000Y-96830237D01*
X115587785Y-96830164D01*
X115655406Y-96829053D01*
X115720345Y-96826828D01*
X115775970Y-96823762D01*
X115815651Y-96820127D01*
X115851162Y-96816059D01*
X115880415Y-96815276D01*
X115899315Y-96819876D01*
X115914429Y-96830551D01*
X115918085Y-96834144D01*
X115934427Y-96865918D01*
X115933107Y-96901572D01*
X115914150Y-96932190D01*
X115893780Y-96943796D01*
X115857796Y-96956491D01*
X115815372Y-96966541D01*
X115811922Y-96967140D01*
X115769252Y-96972356D01*
X115711866Y-96976730D01*
X115646849Y-96979818D01*
X115581289Y-96981177D01*
X115565057Y-96981218D01*
X115466744Y-96978741D01*
X115386692Y-96970735D01*
X115321513Y-96956203D01*
X115267817Y-96934149D01*
X115222216Y-96903576D01*
X115181323Y-96863486D01*
X115161202Y-96837259D01*
X115149576Y-96807712D01*
X115146667Y-96767995D01*
X115146808Y-96756026D01*
X115150681Y-96723345D01*
X115163065Y-96696819D01*
X115188230Y-96665971D01*
X115209442Y-96643831D01*
X115235838Y-96621285D01*
X115265555Y-96602917D01*
X115301785Y-96587661D01*
X115347717Y-96574449D01*
X115406544Y-96562214D01*
X115481456Y-96549889D01*
X115575645Y-96536406D01*
X115620957Y-96529396D01*
X115688911Y-96514837D01*
X115738047Y-96498337D01*
X115767614Y-96480439D01*
X115776864Y-96461685D01*
X115765048Y-96442615D01*
X115731416Y-96423771D01*
X115728370Y-96422557D01*
X115682011Y-96410479D01*
X115619361Y-96402279D01*
X115545927Y-96398119D01*
X115467217Y-96398161D01*
X115388739Y-96402569D01*
X115316000Y-96411505D01*
X115312073Y-96412154D01*
X115263257Y-96419861D01*
X115231005Y-96423473D01*
X115210008Y-96422876D01*
X115194954Y-96417954D01*
X115180534Y-96408596D01*
X115179364Y-96407725D01*
X115154847Y-96377351D01*
X115150054Y-96341850D01*
X115165860Y-96307269D01*
X115170406Y-96302813D01*
X115200020Y-96287673D01*
X115247002Y-96274550D01*
X115307306Y-96263750D01*
X115376888Y-96255581D01*
X115451703Y-96250351D01*
X115527706Y-96248367D01*
X115600853Y-96249936D01*
G36*
X115600853Y-96249936D02*
G01*
X115667100Y-96255366D01*
X115722400Y-96264964D01*
X115773283Y-96279825D01*
X115844595Y-96312958D01*
X115895752Y-96355640D01*
X115926575Y-96407705D01*
X115936889Y-96468983D01*
X115935952Y-96500232D01*
X115930160Y-96525029D01*
X115915353Y-96546699D01*
X115887380Y-96574049D01*
X115879402Y-96581378D01*
X115855692Y-96602281D01*
X115833298Y-96619251D01*
X115809265Y-96633205D01*
X115780637Y-96645056D01*
X115744460Y-96655720D01*
X115697780Y-96666111D01*
X115637641Y-96677146D01*
X115561090Y-96689738D01*
X115465171Y-96704804D01*
X115446808Y-96707838D01*
X115384478Y-96721458D01*
X115339260Y-96737192D01*
X115312976Y-96754263D01*
X115307447Y-96771897D01*
X115310068Y-96776168D01*
X115328000Y-96791233D01*
X115356126Y-96807867D01*
X115368926Y-96813857D01*
X115390224Y-96821050D01*
X115416610Y-96825827D01*
X115452454Y-96828646D01*
X115502128Y-96829964D01*
X115570000Y-96830237D01*
X115587785Y-96830164D01*
X115655406Y-96829053D01*
X115720345Y-96826828D01*
X115775970Y-96823762D01*
X115815651Y-96820127D01*
X115851162Y-96816059D01*
X115880415Y-96815276D01*
X115899315Y-96819876D01*
X115914429Y-96830551D01*
X115918085Y-96834144D01*
X115934427Y-96865918D01*
X115933107Y-96901572D01*
X115914150Y-96932190D01*
X115893780Y-96943796D01*
X115857796Y-96956491D01*
X115815372Y-96966541D01*
X115811922Y-96967140D01*
X115769252Y-96972356D01*
X115711866Y-96976730D01*
X115646849Y-96979818D01*
X115581289Y-96981177D01*
X115565057Y-96981218D01*
X115466744Y-96978741D01*
X115386692Y-96970735D01*
X115321513Y-96956203D01*
X115267817Y-96934149D01*
X115222216Y-96903576D01*
X115181323Y-96863486D01*
X115161202Y-96837259D01*
X115149576Y-96807712D01*
X115146667Y-96767995D01*
X115146808Y-96756026D01*
X115150681Y-96723345D01*
X115163065Y-96696819D01*
X115188230Y-96665971D01*
X115209442Y-96643831D01*
X115235838Y-96621285D01*
X115265555Y-96602917D01*
X115301785Y-96587661D01*
X115347717Y-96574449D01*
X115406544Y-96562214D01*
X115481456Y-96549889D01*
X115575645Y-96536406D01*
X115620957Y-96529396D01*
X115688911Y-96514837D01*
X115738047Y-96498337D01*
X115767614Y-96480439D01*
X115776864Y-96461685D01*
X115765048Y-96442615D01*
X115731416Y-96423771D01*
X115728370Y-96422557D01*
X115682011Y-96410479D01*
X115619361Y-96402279D01*
X115545927Y-96398119D01*
X115467217Y-96398161D01*
X115388739Y-96402569D01*
X115316000Y-96411505D01*
X115312073Y-96412154D01*
X115263257Y-96419861D01*
X115231005Y-96423473D01*
X115210008Y-96422876D01*
X115194954Y-96417954D01*
X115180534Y-96408596D01*
X115179364Y-96407725D01*
X115154847Y-96377351D01*
X115150054Y-96341850D01*
X115165860Y-96307269D01*
X115170406Y-96302813D01*
X115200020Y-96287673D01*
X115247002Y-96274550D01*
X115307306Y-96263750D01*
X115376888Y-96255581D01*
X115451703Y-96250351D01*
X115527706Y-96248367D01*
X115600853Y-96249936D01*
G37*
X111748711Y-91942033D02*
X111844268Y-91959523D01*
X112008558Y-92004564D01*
X112162589Y-92067656D01*
X112308509Y-92149915D01*
X112448466Y-92252457D01*
X112584608Y-92376399D01*
X112628473Y-92421661D01*
X112740758Y-92553865D01*
X112833972Y-92691832D01*
X112910719Y-92839750D01*
X112973603Y-93001803D01*
X112977420Y-93013391D01*
X113027507Y-93199392D01*
X113060899Y-93395521D01*
X113077584Y-93597568D01*
X113077551Y-93801325D01*
X113060791Y-94002581D01*
X113027292Y-94197128D01*
X112977044Y-94380756D01*
X112933190Y-94498053D01*
X112855348Y-94660951D01*
X112761828Y-94814866D01*
X112654822Y-94956671D01*
X112536519Y-95083239D01*
X112409111Y-95191441D01*
X112331606Y-95244120D01*
X112204725Y-95313750D01*
X112067243Y-95372468D01*
X111925716Y-95417587D01*
X111786702Y-95446422D01*
X111772597Y-95448106D01*
X111729153Y-95451434D01*
X111671723Y-95454275D01*
X111606122Y-95456373D01*
X111538167Y-95457468D01*
X111411378Y-95455140D01*
X111263673Y-95442136D01*
X111125779Y-95417133D01*
X110992014Y-95379318D01*
X110968562Y-95370889D01*
X110920612Y-95351408D01*
X110864140Y-95326473D01*
X110802379Y-95297722D01*
X110738563Y-95266790D01*
X110675926Y-95235315D01*
X110617703Y-95204934D01*
X110567127Y-95177283D01*
X110527433Y-95153999D01*
X110501854Y-95136718D01*
X110493625Y-95127079D01*
X110495076Y-95123984D01*
X110506250Y-95104079D01*
X110527134Y-95068420D01*
X110556265Y-95019459D01*
X110592181Y-94959646D01*
X110633420Y-94891433D01*
X110678517Y-94817271D01*
X110859785Y-94520008D01*
X110906315Y-94564539D01*
X110997723Y-94642865D01*
X111111334Y-94717439D01*
X111229122Y-94771474D01*
X111349559Y-94804290D01*
X111471117Y-94815211D01*
X111512585Y-94813868D01*
X111630080Y-94795612D01*
X111740089Y-94756617D01*
X111841430Y-94697670D01*
X111932921Y-94619557D01*
X112013380Y-94523064D01*
X112081627Y-94408978D01*
X112097908Y-94374724D01*
X112143982Y-94251240D01*
X112179106Y-94112918D01*
X112203197Y-93963561D01*
X112216173Y-93806973D01*
X112217949Y-93646956D01*
X112208443Y-93487314D01*
X112187572Y-93331850D01*
X112155252Y-93184366D01*
X112111399Y-93048667D01*
X112073982Y-92962076D01*
X112009185Y-92848688D01*
X111933772Y-92755070D01*
X111847418Y-92680959D01*
X111749795Y-92626094D01*
X111640577Y-92590212D01*
X111519439Y-92573051D01*
X111450038Y-92571880D01*
X111327168Y-92586141D01*
X111211664Y-92621241D01*
X111104953Y-92676682D01*
X111008464Y-92751964D01*
X110992720Y-92766440D01*
X110962150Y-92792962D01*
X110939809Y-92810138D01*
X110929691Y-92814787D01*
X110927706Y-92812597D01*
X110913241Y-92793721D01*
X110889400Y-92760397D01*
X110858029Y-92715380D01*
X110820974Y-92661425D01*
X110780083Y-92601285D01*
X110737202Y-92537718D01*
X110694178Y-92473476D01*
X110652857Y-92411315D01*
X110615086Y-92353991D01*
X110582712Y-92304257D01*
X110557582Y-92264868D01*
X110541542Y-92238580D01*
X110536439Y-92228147D01*
X110541050Y-92223941D01*
X110560267Y-92218933D01*
X110569838Y-92216386D01*
X110597809Y-92205249D01*
X110639448Y-92186802D01*
X110690995Y-92162725D01*
X110748690Y-92134699D01*
X110759957Y-92129154D01*
X110937687Y-92049889D01*
X111107490Y-91990385D01*
X111271430Y-91950245D01*
X111431571Y-91929071D01*
X111589977Y-91926466D01*
X111748711Y-91942033D01*
G36*
X111748711Y-91942033D02*
G01*
X111844268Y-91959523D01*
X112008558Y-92004564D01*
X112162589Y-92067656D01*
X112308509Y-92149915D01*
X112448466Y-92252457D01*
X112584608Y-92376399D01*
X112628473Y-92421661D01*
X112740758Y-92553865D01*
X112833972Y-92691832D01*
X112910719Y-92839750D01*
X112973603Y-93001803D01*
X112977420Y-93013391D01*
X113027507Y-93199392D01*
X113060899Y-93395521D01*
X113077584Y-93597568D01*
X113077551Y-93801325D01*
X113060791Y-94002581D01*
X113027292Y-94197128D01*
X112977044Y-94380756D01*
X112933190Y-94498053D01*
X112855348Y-94660951D01*
X112761828Y-94814866D01*
X112654822Y-94956671D01*
X112536519Y-95083239D01*
X112409111Y-95191441D01*
X112331606Y-95244120D01*
X112204725Y-95313750D01*
X112067243Y-95372468D01*
X111925716Y-95417587D01*
X111786702Y-95446422D01*
X111772597Y-95448106D01*
X111729153Y-95451434D01*
X111671723Y-95454275D01*
X111606122Y-95456373D01*
X111538167Y-95457468D01*
X111411378Y-95455140D01*
X111263673Y-95442136D01*
X111125779Y-95417133D01*
X110992014Y-95379318D01*
X110968562Y-95370889D01*
X110920612Y-95351408D01*
X110864140Y-95326473D01*
X110802379Y-95297722D01*
X110738563Y-95266790D01*
X110675926Y-95235315D01*
X110617703Y-95204934D01*
X110567127Y-95177283D01*
X110527433Y-95153999D01*
X110501854Y-95136718D01*
X110493625Y-95127079D01*
X110495076Y-95123984D01*
X110506250Y-95104079D01*
X110527134Y-95068420D01*
X110556265Y-95019459D01*
X110592181Y-94959646D01*
X110633420Y-94891433D01*
X110678517Y-94817271D01*
X110859785Y-94520008D01*
X110906315Y-94564539D01*
X110997723Y-94642865D01*
X111111334Y-94717439D01*
X111229122Y-94771474D01*
X111349559Y-94804290D01*
X111471117Y-94815211D01*
X111512585Y-94813868D01*
X111630080Y-94795612D01*
X111740089Y-94756617D01*
X111841430Y-94697670D01*
X111932921Y-94619557D01*
X112013380Y-94523064D01*
X112081627Y-94408978D01*
X112097908Y-94374724D01*
X112143982Y-94251240D01*
X112179106Y-94112918D01*
X112203197Y-93963561D01*
X112216173Y-93806973D01*
X112217949Y-93646956D01*
X112208443Y-93487314D01*
X112187572Y-93331850D01*
X112155252Y-93184366D01*
X112111399Y-93048667D01*
X112073982Y-92962076D01*
X112009185Y-92848688D01*
X111933772Y-92755070D01*
X111847418Y-92680959D01*
X111749795Y-92626094D01*
X111640577Y-92590212D01*
X111519439Y-92573051D01*
X111450038Y-92571880D01*
X111327168Y-92586141D01*
X111211664Y-92621241D01*
X111104953Y-92676682D01*
X111008464Y-92751964D01*
X110992720Y-92766440D01*
X110962150Y-92792962D01*
X110939809Y-92810138D01*
X110929691Y-92814787D01*
X110927706Y-92812597D01*
X110913241Y-92793721D01*
X110889400Y-92760397D01*
X110858029Y-92715380D01*
X110820974Y-92661425D01*
X110780083Y-92601285D01*
X110737202Y-92537718D01*
X110694178Y-92473476D01*
X110652857Y-92411315D01*
X110615086Y-92353991D01*
X110582712Y-92304257D01*
X110557582Y-92264868D01*
X110541542Y-92238580D01*
X110536439Y-92228147D01*
X110541050Y-92223941D01*
X110560267Y-92218933D01*
X110569838Y-92216386D01*
X110597809Y-92205249D01*
X110639448Y-92186802D01*
X110690995Y-92162725D01*
X110748690Y-92134699D01*
X110759957Y-92129154D01*
X110937687Y-92049889D01*
X111107490Y-91990385D01*
X111271430Y-91950245D01*
X111431571Y-91929071D01*
X111589977Y-91926466D01*
X111748711Y-91942033D01*
G37*
X107945994Y-94222711D02*
X107945268Y-94300158D01*
X107936689Y-94451594D01*
X107917833Y-94588283D01*
X107887837Y-94714276D01*
X107845836Y-94833625D01*
X107790969Y-94950381D01*
X107724167Y-95061179D01*
X107633363Y-95174739D01*
X107529708Y-95270211D01*
X107413887Y-95347073D01*
X107286586Y-95404797D01*
X107148489Y-95442858D01*
X107110793Y-95448666D01*
X107031752Y-95454396D01*
X106943629Y-95454583D01*
X106854236Y-95449539D01*
X106771384Y-95439578D01*
X106702887Y-95425012D01*
X106672035Y-95415364D01*
X106594730Y-95385123D01*
X106517679Y-95347617D01*
X106448200Y-95306614D01*
X106393615Y-95265879D01*
X106370916Y-95246505D01*
X106348201Y-95228662D01*
X106336779Y-95221778D01*
X106335537Y-95223424D01*
X106332728Y-95241205D01*
X106330776Y-95274370D01*
X106330045Y-95317733D01*
X106330045Y-95413689D01*
X105471896Y-95413689D01*
X105506161Y-95352974D01*
X105511355Y-95343868D01*
X105519715Y-95329249D01*
X105527288Y-95315173D01*
X105534112Y-95300540D01*
X105540227Y-95284249D01*
X105545673Y-95265198D01*
X105550487Y-95242286D01*
X105554708Y-95214413D01*
X105558377Y-95180478D01*
X105561531Y-95139379D01*
X105564211Y-95090015D01*
X105566454Y-95031286D01*
X105568299Y-94962090D01*
X105569787Y-94881326D01*
X105570955Y-94787894D01*
X105571678Y-94700721D01*
X106375200Y-94700721D01*
X106445756Y-94747089D01*
X106486417Y-94770791D01*
X106540546Y-94796639D01*
X106589689Y-94814829D01*
X106653165Y-94830551D01*
X106749331Y-94841541D01*
X106833900Y-94833365D01*
X106907219Y-94805805D01*
X106969637Y-94758642D01*
X107021502Y-94691658D01*
X107063160Y-94604633D01*
X107094962Y-94497350D01*
X107097545Y-94485009D01*
X107106000Y-94423772D01*
X107111663Y-94346692D01*
X107114576Y-94259002D01*
X107114783Y-94165934D01*
X107112330Y-94072720D01*
X107107261Y-93984594D01*
X107099619Y-93906788D01*
X107089448Y-93844533D01*
X107088167Y-93838666D01*
X107059126Y-93728121D01*
X107024610Y-93637575D01*
X106983456Y-93564953D01*
X106934499Y-93508181D01*
X106876574Y-93465184D01*
X106844620Y-93449615D01*
X106771784Y-93430722D01*
X106690443Y-93427465D01*
X106605319Y-93439389D01*
X106521133Y-93466040D01*
X106442608Y-93506962D01*
X106375200Y-93550530D01*
X106375200Y-94700721D01*
X105571678Y-94700721D01*
X105571844Y-94680692D01*
X105572491Y-94558620D01*
X105572936Y-94420576D01*
X105573218Y-94265459D01*
X105573375Y-94092168D01*
X105573448Y-93899603D01*
X105573474Y-93686662D01*
X105573493Y-93452245D01*
X105573689Y-91767378D01*
X106479017Y-91767378D01*
X106454585Y-91804067D01*
X106448318Y-91813647D01*
X106422208Y-91859981D01*
X106404469Y-91907102D01*
X106392908Y-91962251D01*
X106385331Y-92032667D01*
X106384839Y-92039650D01*
X106383062Y-92077641D01*
X106381444Y-92131576D01*
X106379999Y-92198703D01*
X106378740Y-92276271D01*
X106377680Y-92361528D01*
X106376829Y-92451724D01*
X106376203Y-92544107D01*
X106375812Y-92635925D01*
X106375670Y-92724427D01*
X106375790Y-92806862D01*
X106376183Y-92880479D01*
X106376862Y-92942526D01*
X106377841Y-92990251D01*
X106379132Y-93020904D01*
X106380747Y-93031733D01*
X106388957Y-93027333D01*
X106410647Y-93012362D01*
X106440014Y-92990448D01*
X106488879Y-92956236D01*
X106577125Y-92909714D01*
X106675916Y-92876046D01*
X106788510Y-92854231D01*
X106918164Y-92843265D01*
X107010670Y-92842219D01*
X107132011Y-92852014D01*
X107242099Y-92876174D01*
X107345389Y-92915785D01*
X107446338Y-92971932D01*
X107491503Y-93002883D01*
X107596911Y-93094115D01*
X107688538Y-93203106D01*
X107766332Y-93329726D01*
X107830241Y-93473845D01*
X107880214Y-93635332D01*
X107916198Y-93814059D01*
X107938143Y-94009895D01*
X107943900Y-94165934D01*
X107945994Y-94222711D01*
G36*
X107945994Y-94222711D02*
G01*
X107945268Y-94300158D01*
X107936689Y-94451594D01*
X107917833Y-94588283D01*
X107887837Y-94714276D01*
X107845836Y-94833625D01*
X107790969Y-94950381D01*
X107724167Y-95061179D01*
X107633363Y-95174739D01*
X107529708Y-95270211D01*
X107413887Y-95347073D01*
X107286586Y-95404797D01*
X107148489Y-95442858D01*
X107110793Y-95448666D01*
X107031752Y-95454396D01*
X106943629Y-95454583D01*
X106854236Y-95449539D01*
X106771384Y-95439578D01*
X106702887Y-95425012D01*
X106672035Y-95415364D01*
X106594730Y-95385123D01*
X106517679Y-95347617D01*
X106448200Y-95306614D01*
X106393615Y-95265879D01*
X106370916Y-95246505D01*
X106348201Y-95228662D01*
X106336779Y-95221778D01*
X106335537Y-95223424D01*
X106332728Y-95241205D01*
X106330776Y-95274370D01*
X106330045Y-95317733D01*
X106330045Y-95413689D01*
X105471896Y-95413689D01*
X105506161Y-95352974D01*
X105511355Y-95343868D01*
X105519715Y-95329249D01*
X105527288Y-95315173D01*
X105534112Y-95300540D01*
X105540227Y-95284249D01*
X105545673Y-95265198D01*
X105550487Y-95242286D01*
X105554708Y-95214413D01*
X105558377Y-95180478D01*
X105561531Y-95139379D01*
X105564211Y-95090015D01*
X105566454Y-95031286D01*
X105568299Y-94962090D01*
X105569787Y-94881326D01*
X105570955Y-94787894D01*
X105571678Y-94700721D01*
X106375200Y-94700721D01*
X106445756Y-94747089D01*
X106486417Y-94770791D01*
X106540546Y-94796639D01*
X106589689Y-94814829D01*
X106653165Y-94830551D01*
X106749331Y-94841541D01*
X106833900Y-94833365D01*
X106907219Y-94805805D01*
X106969637Y-94758642D01*
X107021502Y-94691658D01*
X107063160Y-94604633D01*
X107094962Y-94497350D01*
X107097545Y-94485009D01*
X107106000Y-94423772D01*
X107111663Y-94346692D01*
X107114576Y-94259002D01*
X107114783Y-94165934D01*
X107112330Y-94072720D01*
X107107261Y-93984594D01*
X107099619Y-93906788D01*
X107089448Y-93844533D01*
X107088167Y-93838666D01*
X107059126Y-93728121D01*
X107024610Y-93637575D01*
X106983456Y-93564953D01*
X106934499Y-93508181D01*
X106876574Y-93465184D01*
X106844620Y-93449615D01*
X106771784Y-93430722D01*
X106690443Y-93427465D01*
X106605319Y-93439389D01*
X106521133Y-93466040D01*
X106442608Y-93506962D01*
X106375200Y-93550530D01*
X106375200Y-94700721D01*
X105571678Y-94700721D01*
X105571844Y-94680692D01*
X105572491Y-94558620D01*
X105572936Y-94420576D01*
X105573218Y-94265459D01*
X105573375Y-94092168D01*
X105573448Y-93899603D01*
X105573474Y-93686662D01*
X105573493Y-93452245D01*
X105573689Y-91767378D01*
X106479017Y-91767378D01*
X106454585Y-91804067D01*
X106448318Y-91813647D01*
X106422208Y-91859981D01*
X106404469Y-91907102D01*
X106392908Y-91962251D01*
X106385331Y-92032667D01*
X106384839Y-92039650D01*
X106383062Y-92077641D01*
X106381444Y-92131576D01*
X106379999Y-92198703D01*
X106378740Y-92276271D01*
X106377680Y-92361528D01*
X106376829Y-92451724D01*
X106376203Y-92544107D01*
X106375812Y-92635925D01*
X106375670Y-92724427D01*
X106375790Y-92806862D01*
X106376183Y-92880479D01*
X106376862Y-92942526D01*
X106377841Y-92990251D01*
X106379132Y-93020904D01*
X106380747Y-93031733D01*
X106388957Y-93027333D01*
X106410647Y-93012362D01*
X106440014Y-92990448D01*
X106488879Y-92956236D01*
X106577125Y-92909714D01*
X106675916Y-92876046D01*
X106788510Y-92854231D01*
X106918164Y-92843265D01*
X107010670Y-92842219D01*
X107132011Y-92852014D01*
X107242099Y-92876174D01*
X107345389Y-92915785D01*
X107446338Y-92971932D01*
X107491503Y-93002883D01*
X107596911Y-93094115D01*
X107688538Y-93203106D01*
X107766332Y-93329726D01*
X107830241Y-93473845D01*
X107880214Y-93635332D01*
X107916198Y-93814059D01*
X107938143Y-94009895D01*
X107943900Y-94165934D01*
X107945994Y-94222711D01*
G37*
X110487755Y-94623467D02*
X110487261Y-94657363D01*
X110483632Y-94732202D01*
X110476022Y-94794401D01*
X110463688Y-94850984D01*
X110419313Y-94977076D01*
X110356400Y-95091679D01*
X110276238Y-95192568D01*
X110179740Y-95278924D01*
X110067822Y-95349932D01*
X109941397Y-95404776D01*
X109801378Y-95442638D01*
X109765149Y-95448351D01*
X109686155Y-95454313D01*
X109597841Y-95454646D01*
X109508075Y-95449659D01*
X109424722Y-95439666D01*
X109355651Y-95424978D01*
X109269187Y-95394749D01*
X109159286Y-95340057D01*
X109061956Y-95272543D01*
X108999867Y-95221556D01*
X108996605Y-95317622D01*
X108993343Y-95413689D01*
X108570450Y-95413689D01*
X108559543Y-95413686D01*
X108465056Y-95413380D01*
X108378331Y-95412616D01*
X108301837Y-95411451D01*
X108238043Y-95409942D01*
X108189418Y-95408147D01*
X108158433Y-95406121D01*
X108147556Y-95403922D01*
X108147578Y-95403463D01*
X108154614Y-95387910D01*
X108170434Y-95365071D01*
X108174734Y-95359638D01*
X108185777Y-95345606D01*
X108195311Y-95332186D01*
X108203461Y-95317722D01*
X108210352Y-95300556D01*
X108216111Y-95279034D01*
X108220862Y-95251498D01*
X108224731Y-95216292D01*
X108227844Y-95171760D01*
X108230325Y-95116246D01*
X108232300Y-95048093D01*
X108233894Y-94965645D01*
X108235234Y-94867246D01*
X108236444Y-94751239D01*
X108236896Y-94700462D01*
X109039378Y-94700462D01*
X109084048Y-94756973D01*
X109096785Y-94772212D01*
X109143604Y-94814844D01*
X109204255Y-94850672D01*
X109214897Y-94855850D01*
X109253676Y-94872745D01*
X109288692Y-94882909D01*
X109328722Y-94888325D01*
X109382541Y-94890978D01*
X109400648Y-94891383D01*
X109476011Y-94888540D01*
X109536743Y-94876620D01*
X109588452Y-94854037D01*
X109636746Y-94819211D01*
X109641803Y-94814798D01*
X109690272Y-94759160D01*
X109718459Y-94695333D01*
X109727752Y-94620282D01*
X109720520Y-94548693D01*
X109695796Y-94485645D01*
X109651249Y-94427758D01*
X109596319Y-94380808D01*
X109523894Y-94340961D01*
X109437340Y-94313263D01*
X109334670Y-94297096D01*
X109213894Y-94291842D01*
X109205007Y-94291857D01*
X109149660Y-94292655D01*
X109102736Y-94294488D01*
X109068953Y-94297111D01*
X109053028Y-94300274D01*
X109048943Y-94306741D01*
X109044572Y-94328875D01*
X109041604Y-94367988D01*
X109039914Y-94425939D01*
X109039378Y-94504586D01*
X109039378Y-94700462D01*
X108236896Y-94700462D01*
X108237649Y-94615968D01*
X108238975Y-94459778D01*
X108240228Y-94317012D01*
X108241651Y-94171942D01*
X108243176Y-94046027D01*
X108244933Y-93937436D01*
X108247051Y-93844334D01*
X108249660Y-93764891D01*
X108252890Y-93697273D01*
X108256869Y-93639649D01*
X108261728Y-93590185D01*
X108267597Y-93547050D01*
X108274604Y-93508410D01*
X108282880Y-93472434D01*
X108292554Y-93437289D01*
X108303756Y-93401142D01*
X108316616Y-93362161D01*
X108332090Y-93319091D01*
X108374994Y-93226871D01*
X108428735Y-93147099D01*
X108497576Y-93072965D01*
X108575185Y-93009405D01*
X108679761Y-92947725D01*
X108799244Y-92900202D01*
X108934508Y-92866567D01*
X109086426Y-92846552D01*
X109255872Y-92839889D01*
X109313890Y-92840287D01*
X109379398Y-92842335D01*
X109440693Y-92846704D01*
X109502097Y-92854035D01*
X109567932Y-92864969D01*
X109642520Y-92880147D01*
X109730184Y-92900209D01*
X109835245Y-92925797D01*
X109863806Y-92932820D01*
X109939054Y-92950776D01*
X110009388Y-92966820D01*
X110070567Y-92980028D01*
X110118354Y-92989474D01*
X110148511Y-92994231D01*
X110176783Y-92997910D01*
X110203060Y-93003187D01*
X110213059Y-93007942D01*
X110209952Y-93016781D01*
X110199194Y-93044072D01*
X110181864Y-93086906D01*
X110159126Y-93142425D01*
X110132147Y-93207772D01*
X110102090Y-93280089D01*
X110095493Y-93295879D01*
X110056907Y-93386484D01*
X110025768Y-93456217D01*
X110001917Y-93505405D01*
X109985198Y-93534374D01*
X109975454Y-93543452D01*
X109967766Y-93541405D01*
X109941415Y-93531760D01*
X109902982Y-93516190D01*
X109857822Y-93496815D01*
X109763293Y-93458814D01*
X109626480Y-93417780D01*
X109485289Y-93392612D01*
X109447314Y-93388611D01*
X109344059Y-93386447D01*
X109256952Y-93399622D01*
X109185129Y-93428756D01*
X109127731Y-93474466D01*
X109083896Y-93537372D01*
X109052762Y-93618092D01*
X109033470Y-93717245D01*
X109026050Y-93776224D01*
X109187936Y-93769445D01*
X109314495Y-93767813D01*
X109465951Y-93774194D01*
X109614396Y-93788777D01*
X109750578Y-93810882D01*
X109815245Y-93825821D01*
X109947490Y-93868741D01*
X110069762Y-93925340D01*
X110179685Y-93994017D01*
X110274883Y-94073170D01*
X110352980Y-94161196D01*
X110411599Y-94256493D01*
X110435595Y-94308864D01*
X110461232Y-94379590D01*
X110477478Y-94450812D01*
X110485822Y-94529712D01*
X110487690Y-94620282D01*
X110487755Y-94623467D01*
G36*
X110487755Y-94623467D02*
G01*
X110487261Y-94657363D01*
X110483632Y-94732202D01*
X110476022Y-94794401D01*
X110463688Y-94850984D01*
X110419313Y-94977076D01*
X110356400Y-95091679D01*
X110276238Y-95192568D01*
X110179740Y-95278924D01*
X110067822Y-95349932D01*
X109941397Y-95404776D01*
X109801378Y-95442638D01*
X109765149Y-95448351D01*
X109686155Y-95454313D01*
X109597841Y-95454646D01*
X109508075Y-95449659D01*
X109424722Y-95439666D01*
X109355651Y-95424978D01*
X109269187Y-95394749D01*
X109159286Y-95340057D01*
X109061956Y-95272543D01*
X108999867Y-95221556D01*
X108996605Y-95317622D01*
X108993343Y-95413689D01*
X108570450Y-95413689D01*
X108559543Y-95413686D01*
X108465056Y-95413380D01*
X108378331Y-95412616D01*
X108301837Y-95411451D01*
X108238043Y-95409942D01*
X108189418Y-95408147D01*
X108158433Y-95406121D01*
X108147556Y-95403922D01*
X108147578Y-95403463D01*
X108154614Y-95387910D01*
X108170434Y-95365071D01*
X108174734Y-95359638D01*
X108185777Y-95345606D01*
X108195311Y-95332186D01*
X108203461Y-95317722D01*
X108210352Y-95300556D01*
X108216111Y-95279034D01*
X108220862Y-95251498D01*
X108224731Y-95216292D01*
X108227844Y-95171760D01*
X108230325Y-95116246D01*
X108232300Y-95048093D01*
X108233894Y-94965645D01*
X108235234Y-94867246D01*
X108236444Y-94751239D01*
X108236896Y-94700462D01*
X109039378Y-94700462D01*
X109084048Y-94756973D01*
X109096785Y-94772212D01*
X109143604Y-94814844D01*
X109204255Y-94850672D01*
X109214897Y-94855850D01*
X109253676Y-94872745D01*
X109288692Y-94882909D01*
X109328722Y-94888325D01*
X109382541Y-94890978D01*
X109400648Y-94891383D01*
X109476011Y-94888540D01*
X109536743Y-94876620D01*
X109588452Y-94854037D01*
X109636746Y-94819211D01*
X109641803Y-94814798D01*
X109690272Y-94759160D01*
X109718459Y-94695333D01*
X109727752Y-94620282D01*
X109720520Y-94548693D01*
X109695796Y-94485645D01*
X109651249Y-94427758D01*
X109596319Y-94380808D01*
X109523894Y-94340961D01*
X109437340Y-94313263D01*
X109334670Y-94297096D01*
X109213894Y-94291842D01*
X109205007Y-94291857D01*
X109149660Y-94292655D01*
X109102736Y-94294488D01*
X109068953Y-94297111D01*
X109053028Y-94300274D01*
X109048943Y-94306741D01*
X109044572Y-94328875D01*
X109041604Y-94367988D01*
X109039914Y-94425939D01*
X109039378Y-94504586D01*
X109039378Y-94700462D01*
X108236896Y-94700462D01*
X108237649Y-94615968D01*
X108238975Y-94459778D01*
X108240228Y-94317012D01*
X108241651Y-94171942D01*
X108243176Y-94046027D01*
X108244933Y-93937436D01*
X108247051Y-93844334D01*
X108249660Y-93764891D01*
X108252890Y-93697273D01*
X108256869Y-93639649D01*
X108261728Y-93590185D01*
X108267597Y-93547050D01*
X108274604Y-93508410D01*
X108282880Y-93472434D01*
X108292554Y-93437289D01*
X108303756Y-93401142D01*
X108316616Y-93362161D01*
X108332090Y-93319091D01*
X108374994Y-93226871D01*
X108428735Y-93147099D01*
X108497576Y-93072965D01*
X108575185Y-93009405D01*
X108679761Y-92947725D01*
X108799244Y-92900202D01*
X108934508Y-92866567D01*
X109086426Y-92846552D01*
X109255872Y-92839889D01*
X109313890Y-92840287D01*
X109379398Y-92842335D01*
X109440693Y-92846704D01*
X109502097Y-92854035D01*
X109567932Y-92864969D01*
X109642520Y-92880147D01*
X109730184Y-92900209D01*
X109835245Y-92925797D01*
X109863806Y-92932820D01*
X109939054Y-92950776D01*
X110009388Y-92966820D01*
X110070567Y-92980028D01*
X110118354Y-92989474D01*
X110148511Y-92994231D01*
X110176783Y-92997910D01*
X110203060Y-93003187D01*
X110213059Y-93007942D01*
X110209952Y-93016781D01*
X110199194Y-93044072D01*
X110181864Y-93086906D01*
X110159126Y-93142425D01*
X110132147Y-93207772D01*
X110102090Y-93280089D01*
X110095493Y-93295879D01*
X110056907Y-93386484D01*
X110025768Y-93456217D01*
X110001917Y-93505405D01*
X109985198Y-93534374D01*
X109975454Y-93543452D01*
X109967766Y-93541405D01*
X109941415Y-93531760D01*
X109902982Y-93516190D01*
X109857822Y-93496815D01*
X109763293Y-93458814D01*
X109626480Y-93417780D01*
X109485289Y-93392612D01*
X109447314Y-93388611D01*
X109344059Y-93386447D01*
X109256952Y-93399622D01*
X109185129Y-93428756D01*
X109127731Y-93474466D01*
X109083896Y-93537372D01*
X109052762Y-93618092D01*
X109033470Y-93717245D01*
X109026050Y-93776224D01*
X109187936Y-93769445D01*
X109314495Y-93767813D01*
X109465951Y-93774194D01*
X109614396Y-93788777D01*
X109750578Y-93810882D01*
X109815245Y-93825821D01*
X109947490Y-93868741D01*
X110069762Y-93925340D01*
X110179685Y-93994017D01*
X110274883Y-94073170D01*
X110352980Y-94161196D01*
X110411599Y-94256493D01*
X110435595Y-94308864D01*
X110461232Y-94379590D01*
X110477478Y-94450812D01*
X110485822Y-94529712D01*
X110487690Y-94620282D01*
X110487755Y-94623467D01*
G37*
X118035614Y-92091792D02*
X118036059Y-92223011D01*
X118036362Y-92370216D01*
X118036548Y-92534349D01*
X118036642Y-92716352D01*
X118036671Y-92917165D01*
X118036661Y-93137732D01*
X118036636Y-93378992D01*
X118036622Y-93641889D01*
X118036622Y-93684040D01*
X118036646Y-93944668D01*
X118036685Y-94183796D01*
X118036708Y-94402360D01*
X118036687Y-94601295D01*
X118036593Y-94781535D01*
X118036395Y-94944015D01*
X118036063Y-95089670D01*
X118035569Y-95219434D01*
X118034883Y-95334243D01*
X118033976Y-95435030D01*
X118032817Y-95522730D01*
X118031378Y-95598279D01*
X118029629Y-95662611D01*
X118027540Y-95716661D01*
X118025083Y-95761363D01*
X118022227Y-95797652D01*
X118018943Y-95826463D01*
X118015202Y-95848731D01*
X118010974Y-95865390D01*
X118006229Y-95877375D01*
X118000939Y-95885621D01*
X117995073Y-95891062D01*
X117988602Y-95894634D01*
X117981497Y-95897270D01*
X117973728Y-95899906D01*
X117965266Y-95903477D01*
X117960908Y-95905145D01*
X117952395Y-95907111D01*
X117939694Y-95908911D01*
X117921885Y-95910555D01*
X117898049Y-95912047D01*
X117867266Y-95913397D01*
X117828617Y-95914611D01*
X117781182Y-95915697D01*
X117724043Y-95916661D01*
X117656279Y-95917511D01*
X117576971Y-95918253D01*
X117485199Y-95918897D01*
X117380044Y-95919447D01*
X117260587Y-95919913D01*
X117125908Y-95920300D01*
X116975088Y-95920616D01*
X116807206Y-95920869D01*
X116621345Y-95921066D01*
X116416583Y-95921213D01*
X116192002Y-95921318D01*
X115946682Y-95921389D01*
X115679704Y-95921432D01*
X115641321Y-95921437D01*
X115375922Y-95921480D01*
X115132050Y-95921525D01*
X114908783Y-95921548D01*
X114705196Y-95921524D01*
X114520367Y-95921430D01*
X114353373Y-95921243D01*
X114203290Y-95920939D01*
X114069196Y-95920494D01*
X113950166Y-95919885D01*
X113845279Y-95919089D01*
X113753610Y-95918080D01*
X113674237Y-95916837D01*
X113606237Y-95915335D01*
X113548686Y-95913551D01*
X113500662Y-95911461D01*
X113461240Y-95909042D01*
X113429499Y-95906270D01*
X113404514Y-95903121D01*
X113385364Y-95899572D01*
X113371123Y-95895598D01*
X113360871Y-95891178D01*
X113353682Y-95886286D01*
X113348635Y-95880900D01*
X113344805Y-95874996D01*
X113341271Y-95868549D01*
X113337108Y-95861537D01*
X113336025Y-95859687D01*
X113333813Y-95854180D01*
X113331786Y-95845868D01*
X113329938Y-95833809D01*
X113328261Y-95817063D01*
X113326745Y-95794687D01*
X113325383Y-95765740D01*
X113324167Y-95729280D01*
X113323089Y-95684367D01*
X113322140Y-95630057D01*
X113321312Y-95565410D01*
X113320597Y-95489484D01*
X113319987Y-95401338D01*
X113319942Y-95392493D01*
X113611378Y-95392493D01*
X113615260Y-95393765D01*
X113638520Y-95395791D01*
X113680874Y-95397626D01*
X113740132Y-95399227D01*
X113814107Y-95400549D01*
X113900610Y-95401548D01*
X113997452Y-95402180D01*
X114102445Y-95402400D01*
X114800651Y-95402400D01*
X115955090Y-95402400D01*
X115954456Y-95326200D01*
X115955574Y-95284160D01*
X115961304Y-95248334D01*
X115973890Y-95210772D01*
X115995568Y-95162577D01*
X115998789Y-95155897D01*
X116024188Y-95106359D01*
X116050996Y-95058369D01*
X116073917Y-95021466D01*
X116078485Y-95014834D01*
X116100516Y-94983593D01*
X116132693Y-94938654D01*
X116173457Y-94882147D01*
X116221245Y-94816204D01*
X116274498Y-94742957D01*
X116331655Y-94664536D01*
X116391155Y-94583072D01*
X116451437Y-94500698D01*
X116510940Y-94419544D01*
X116568105Y-94341742D01*
X116621370Y-94269423D01*
X116669174Y-94204718D01*
X116709957Y-94149759D01*
X116742158Y-94106676D01*
X116764216Y-94077602D01*
X116774571Y-94064667D01*
X116779044Y-94060351D01*
X116783236Y-94058312D01*
X116786643Y-94060926D01*
X116789325Y-94069986D01*
X116791341Y-94087285D01*
X116792748Y-94114614D01*
X116793605Y-94153765D01*
X116793970Y-94206533D01*
X116793903Y-94274707D01*
X116793460Y-94360082D01*
X116792702Y-94464449D01*
X116791685Y-94589600D01*
X116791308Y-94634300D01*
X116790169Y-94755395D01*
X116788972Y-94856688D01*
X116787636Y-94940262D01*
X116786077Y-95008204D01*
X116784215Y-95062599D01*
X116781966Y-95105532D01*
X116779248Y-95139089D01*
X116775979Y-95165355D01*
X116772078Y-95186416D01*
X116767461Y-95204357D01*
X116759192Y-95230770D01*
X116735583Y-95292772D01*
X116709685Y-95345573D01*
X116684535Y-95382645D01*
X116683339Y-95384075D01*
X116681168Y-95388424D01*
X116683328Y-95392026D01*
X116691644Y-95394951D01*
X116707940Y-95397269D01*
X116734041Y-95399051D01*
X116771771Y-95400367D01*
X116822956Y-95401286D01*
X116889420Y-95401878D01*
X116972987Y-95402215D01*
X117075483Y-95402365D01*
X117198732Y-95402400D01*
X117730296Y-95402400D01*
X117691523Y-95344783D01*
X117685432Y-95335893D01*
X117674976Y-95321069D01*
X117665579Y-95307422D01*
X117657183Y-95293765D01*
X117649733Y-95278911D01*
X117643173Y-95261670D01*
X117637446Y-95240855D01*
X117632495Y-95215280D01*
X117628266Y-95183755D01*
X117624701Y-95145093D01*
X117621744Y-95098107D01*
X117619340Y-95041608D01*
X117617431Y-94974409D01*
X117615962Y-94895322D01*
X117614876Y-94803160D01*
X117614118Y-94696734D01*
X117613630Y-94574857D01*
X117613358Y-94436341D01*
X117613243Y-94279999D01*
X117613231Y-94104642D01*
X117613265Y-93909082D01*
X117613289Y-93692133D01*
X117613280Y-93569513D01*
X117613243Y-93364447D01*
X117613227Y-93180116D01*
X117613288Y-93015334D01*
X117613484Y-92868916D01*
X117613870Y-92739674D01*
X117614505Y-92626422D01*
X117615444Y-92527975D01*
X117616745Y-92443144D01*
X117618464Y-92370744D01*
X117620659Y-92309589D01*
X117623385Y-92258492D01*
X117626701Y-92216267D01*
X117630662Y-92181727D01*
X117635325Y-92153686D01*
X117640747Y-92130958D01*
X117646986Y-92112356D01*
X117654097Y-92096693D01*
X117662138Y-92082784D01*
X117671166Y-92069441D01*
X117681236Y-92055479D01*
X117692407Y-92039711D01*
X117732197Y-91981867D01*
X116672314Y-91981867D01*
X116710311Y-92044966D01*
X116724993Y-92070005D01*
X116739531Y-92097586D01*
X116751627Y-92125700D01*
X116761532Y-92156551D01*
X116769494Y-92192344D01*
X116775761Y-92235283D01*
X116780582Y-92287574D01*
X116784206Y-92351419D01*
X116786881Y-92429025D01*
X116788857Y-92522594D01*
X116790382Y-92634333D01*
X116791704Y-92766445D01*
X116792613Y-92886434D01*
X116793020Y-93003063D01*
X116792767Y-93098531D01*
X116791857Y-93172556D01*
X116790293Y-93224855D01*
X116788079Y-93255149D01*
X116785220Y-93263156D01*
X116782161Y-93259858D01*
X116764006Y-93238408D01*
X116734275Y-93201889D01*
X116694639Y-93152442D01*
X116646771Y-93092207D01*
X116592343Y-93023327D01*
X116533027Y-92947943D01*
X116470495Y-92868196D01*
X116406421Y-92786228D01*
X116342475Y-92704180D01*
X116280331Y-92624194D01*
X116221661Y-92548411D01*
X116168137Y-92478973D01*
X116121430Y-92418021D01*
X116083214Y-92367696D01*
X116055161Y-92330140D01*
X116038943Y-92307495D01*
X115993635Y-92235212D01*
X115953661Y-92155463D01*
X115932130Y-92087188D01*
X115928827Y-92029844D01*
X115934116Y-91981867D01*
X114802356Y-91982117D01*
X114841867Y-92012722D01*
X114851248Y-92020089D01*
X114914183Y-92074438D01*
X114982997Y-92142259D01*
X115059596Y-92225516D01*
X115145888Y-92326178D01*
X115163052Y-92346847D01*
X115203833Y-92396409D01*
X115253588Y-92457326D01*
X115310955Y-92527898D01*
X115374569Y-92606424D01*
X115443069Y-92691204D01*
X115515090Y-92780537D01*
X115589270Y-92872722D01*
X115604517Y-92891702D01*
X115664246Y-92966060D01*
X115738653Y-93058848D01*
X115811131Y-93149388D01*
X115880314Y-93235978D01*
X115944841Y-93316918D01*
X116003347Y-93390506D01*
X116054470Y-93455044D01*
X116096847Y-93508829D01*
X116129115Y-93550162D01*
X116149910Y-93577342D01*
X116157869Y-93588668D01*
X116156111Y-93592771D01*
X116143230Y-93613334D01*
X116118885Y-93649561D01*
X116084247Y-93699824D01*
X116040486Y-93762492D01*
X115988775Y-93835936D01*
X115930284Y-93918527D01*
X115866184Y-94008636D01*
X115797646Y-94104631D01*
X115725843Y-94204885D01*
X115651944Y-94307768D01*
X115577121Y-94411650D01*
X115502545Y-94514901D01*
X115429387Y-94615892D01*
X115358819Y-94712994D01*
X115292011Y-94804577D01*
X115230135Y-94889011D01*
X115174361Y-94964667D01*
X115125862Y-95029916D01*
X115085807Y-95083128D01*
X115055369Y-95122673D01*
X115034944Y-95148026D01*
X114988899Y-95202295D01*
X114938612Y-95258775D01*
X114891815Y-95308669D01*
X114800651Y-95402400D01*
X114102445Y-95402400D01*
X114171356Y-95402349D01*
X114269607Y-95402091D01*
X114359030Y-95401637D01*
X114437333Y-95401010D01*
X114502223Y-95400235D01*
X114551411Y-95399335D01*
X114582604Y-95398334D01*
X114593511Y-95397257D01*
X114592322Y-95394037D01*
X114582176Y-95376452D01*
X114565040Y-95350158D01*
X114556540Y-95337691D01*
X114547329Y-95323622D01*
X114539233Y-95309351D01*
X114532185Y-95293479D01*
X114526117Y-95274609D01*
X114520961Y-95251341D01*
X114516651Y-95222278D01*
X114513119Y-95186021D01*
X114510297Y-95141170D01*
X114508118Y-95086328D01*
X114506514Y-95020097D01*
X114505419Y-94941077D01*
X114504765Y-94847871D01*
X114504484Y-94739079D01*
X114504509Y-94613303D01*
X114504772Y-94469145D01*
X114505206Y-94305207D01*
X114505745Y-94120089D01*
X114506279Y-93941232D01*
X114506805Y-93782374D01*
X114507350Y-93643316D01*
X114507945Y-93522665D01*
X114508619Y-93419028D01*
X114509403Y-93331011D01*
X114510326Y-93257223D01*
X114511419Y-93196269D01*
X114512712Y-93146757D01*
X114514235Y-93107293D01*
X114516019Y-93076484D01*
X114518092Y-93052938D01*
X114520486Y-93035260D01*
X114523230Y-93022059D01*
X114526356Y-93011940D01*
X114529892Y-93003511D01*
X114533791Y-92995375D01*
X114553438Y-92958544D01*
X114572225Y-92928391D01*
X114573272Y-92926908D01*
X114587602Y-92904659D01*
X114593511Y-92891702D01*
X114592504Y-92891249D01*
X114575305Y-92889803D01*
X114538656Y-92888480D01*
X114484962Y-92887316D01*
X114416630Y-92886347D01*
X114336064Y-92885611D01*
X114245670Y-92885142D01*
X114147853Y-92884978D01*
X113702195Y-92884978D01*
X113699120Y-94061845D01*
X113696045Y-95238711D01*
X113669407Y-95297622D01*
X113657485Y-95322183D01*
X113640246Y-95352434D01*
X113627074Y-95369560D01*
X113619076Y-95377591D01*
X113611378Y-95392493D01*
X113319942Y-95392493D01*
X113319474Y-95300029D01*
X113319050Y-95184617D01*
X113318706Y-95054160D01*
X113318434Y-94907716D01*
X113318227Y-94744344D01*
X113318076Y-94563101D01*
X113317972Y-94363048D01*
X113317908Y-94143241D01*
X113317876Y-93902739D01*
X113317867Y-93640602D01*
X113317867Y-91449031D01*
X113356249Y-91410649D01*
X113383355Y-91386911D01*
X113410253Y-91375111D01*
X113446560Y-91372267D01*
X113498489Y-91372267D01*
X113498489Y-91460206D01*
X113500427Y-91510102D01*
X113519199Y-91620523D01*
X113556217Y-91721987D01*
X113609369Y-91813152D01*
X113676546Y-91892673D01*
X113755638Y-91959205D01*
X113844534Y-92011406D01*
X113941125Y-92047930D01*
X114043300Y-92067434D01*
X114148950Y-92068573D01*
X114255964Y-92050005D01*
X114362232Y-92010384D01*
X114459219Y-91952516D01*
X114544293Y-91877684D01*
X114613015Y-91789615D01*
X114663918Y-91690616D01*
X114695535Y-91582993D01*
X114706400Y-91469054D01*
X114706400Y-91372267D01*
X116326753Y-91372267D01*
X116537897Y-91372280D01*
X116742020Y-91372330D01*
X116925686Y-91372430D01*
X117089991Y-91372592D01*
X117236029Y-91372829D01*
X117364894Y-91373153D01*
X117477683Y-91373575D01*
X117575488Y-91374109D01*
X117659404Y-91374767D01*
X117730527Y-91375561D01*
X117789950Y-91376504D01*
X117838768Y-91377608D01*
X117878077Y-91378884D01*
X117908969Y-91380347D01*
X117932541Y-91382007D01*
X117949886Y-91383878D01*
X117962099Y-91385972D01*
X117970275Y-91388300D01*
X117975508Y-91390876D01*
X117981504Y-91394445D01*
X117988279Y-91397978D01*
X117994478Y-91401488D01*
X118000126Y-91405918D01*
X118005247Y-91412208D01*
X118009869Y-91421301D01*
X118014015Y-91434139D01*
X118017713Y-91451662D01*
X118020987Y-91474813D01*
X118023863Y-91504534D01*
X118026367Y-91541765D01*
X118028524Y-91587449D01*
X118030360Y-91642527D01*
X118031900Y-91707941D01*
X118033170Y-91784633D01*
X118034195Y-91873544D01*
X118035001Y-91975617D01*
X118035034Y-91981867D01*
X118035614Y-92091792D01*
G36*
X118035614Y-92091792D02*
G01*
X118036059Y-92223011D01*
X118036362Y-92370216D01*
X118036548Y-92534349D01*
X118036642Y-92716352D01*
X118036671Y-92917165D01*
X118036661Y-93137732D01*
X118036636Y-93378992D01*
X118036622Y-93641889D01*
X118036622Y-93684040D01*
X118036646Y-93944668D01*
X118036685Y-94183796D01*
X118036708Y-94402360D01*
X118036687Y-94601295D01*
X118036593Y-94781535D01*
X118036395Y-94944015D01*
X118036063Y-95089670D01*
X118035569Y-95219434D01*
X118034883Y-95334243D01*
X118033976Y-95435030D01*
X118032817Y-95522730D01*
X118031378Y-95598279D01*
X118029629Y-95662611D01*
X118027540Y-95716661D01*
X118025083Y-95761363D01*
X118022227Y-95797652D01*
X118018943Y-95826463D01*
X118015202Y-95848731D01*
X118010974Y-95865390D01*
X118006229Y-95877375D01*
X118000939Y-95885621D01*
X117995073Y-95891062D01*
X117988602Y-95894634D01*
X117981497Y-95897270D01*
X117973728Y-95899906D01*
X117965266Y-95903477D01*
X117960908Y-95905145D01*
X117952395Y-95907111D01*
X117939694Y-95908911D01*
X117921885Y-95910555D01*
X117898049Y-95912047D01*
X117867266Y-95913397D01*
X117828617Y-95914611D01*
X117781182Y-95915697D01*
X117724043Y-95916661D01*
X117656279Y-95917511D01*
X117576971Y-95918253D01*
X117485199Y-95918897D01*
X117380044Y-95919447D01*
X117260587Y-95919913D01*
X117125908Y-95920300D01*
X116975088Y-95920616D01*
X116807206Y-95920869D01*
X116621345Y-95921066D01*
X116416583Y-95921213D01*
X116192002Y-95921318D01*
X115946682Y-95921389D01*
X115679704Y-95921432D01*
X115641321Y-95921437D01*
X115375922Y-95921480D01*
X115132050Y-95921525D01*
X114908783Y-95921548D01*
X114705196Y-95921524D01*
X114520367Y-95921430D01*
X114353373Y-95921243D01*
X114203290Y-95920939D01*
X114069196Y-95920494D01*
X113950166Y-95919885D01*
X113845279Y-95919089D01*
X113753610Y-95918080D01*
X113674237Y-95916837D01*
X113606237Y-95915335D01*
X113548686Y-95913551D01*
X113500662Y-95911461D01*
X113461240Y-95909042D01*
X113429499Y-95906270D01*
X113404514Y-95903121D01*
X113385364Y-95899572D01*
X113371123Y-95895598D01*
X113360871Y-95891178D01*
X113353682Y-95886286D01*
X113348635Y-95880900D01*
X113344805Y-95874996D01*
X113341271Y-95868549D01*
X113337108Y-95861537D01*
X113336025Y-95859687D01*
X113333813Y-95854180D01*
X113331786Y-95845868D01*
X113329938Y-95833809D01*
X113328261Y-95817063D01*
X113326745Y-95794687D01*
X113325383Y-95765740D01*
X113324167Y-95729280D01*
X113323089Y-95684367D01*
X113322140Y-95630057D01*
X113321312Y-95565410D01*
X113320597Y-95489484D01*
X113319987Y-95401338D01*
X113319942Y-95392493D01*
X113611378Y-95392493D01*
X113615260Y-95393765D01*
X113638520Y-95395791D01*
X113680874Y-95397626D01*
X113740132Y-95399227D01*
X113814107Y-95400549D01*
X113900610Y-95401548D01*
X113997452Y-95402180D01*
X114102445Y-95402400D01*
X114800651Y-95402400D01*
X115955090Y-95402400D01*
X115954456Y-95326200D01*
X115955574Y-95284160D01*
X115961304Y-95248334D01*
X115973890Y-95210772D01*
X115995568Y-95162577D01*
X115998789Y-95155897D01*
X116024188Y-95106359D01*
X116050996Y-95058369D01*
X116073917Y-95021466D01*
X116078485Y-95014834D01*
X116100516Y-94983593D01*
X116132693Y-94938654D01*
X116173457Y-94882147D01*
X116221245Y-94816204D01*
X116274498Y-94742957D01*
X116331655Y-94664536D01*
X116391155Y-94583072D01*
X116451437Y-94500698D01*
X116510940Y-94419544D01*
X116568105Y-94341742D01*
X116621370Y-94269423D01*
X116669174Y-94204718D01*
X116709957Y-94149759D01*
X116742158Y-94106676D01*
X116764216Y-94077602D01*
X116774571Y-94064667D01*
X116779044Y-94060351D01*
X116783236Y-94058312D01*
X116786643Y-94060926D01*
X116789325Y-94069986D01*
X116791341Y-94087285D01*
X116792748Y-94114614D01*
X116793605Y-94153765D01*
X116793970Y-94206533D01*
X116793903Y-94274707D01*
X116793460Y-94360082D01*
X116792702Y-94464449D01*
X116791685Y-94589600D01*
X116791308Y-94634300D01*
X116790169Y-94755395D01*
X116788972Y-94856688D01*
X116787636Y-94940262D01*
X116786077Y-95008204D01*
X116784215Y-95062599D01*
X116781966Y-95105532D01*
X116779248Y-95139089D01*
X116775979Y-95165355D01*
X116772078Y-95186416D01*
X116767461Y-95204357D01*
X116759192Y-95230770D01*
X116735583Y-95292772D01*
X116709685Y-95345573D01*
X116684535Y-95382645D01*
X116683339Y-95384075D01*
X116681168Y-95388424D01*
X116683328Y-95392026D01*
X116691644Y-95394951D01*
X116707940Y-95397269D01*
X116734041Y-95399051D01*
X116771771Y-95400367D01*
X116822956Y-95401286D01*
X116889420Y-95401878D01*
X116972987Y-95402215D01*
X117075483Y-95402365D01*
X117198732Y-95402400D01*
X117730296Y-95402400D01*
X117691523Y-95344783D01*
X117685432Y-95335893D01*
X117674976Y-95321069D01*
X117665579Y-95307422D01*
X117657183Y-95293765D01*
X117649733Y-95278911D01*
X117643173Y-95261670D01*
X117637446Y-95240855D01*
X117632495Y-95215280D01*
X117628266Y-95183755D01*
X117624701Y-95145093D01*
X117621744Y-95098107D01*
X117619340Y-95041608D01*
X117617431Y-94974409D01*
X117615962Y-94895322D01*
X117614876Y-94803160D01*
X117614118Y-94696734D01*
X117613630Y-94574857D01*
X117613358Y-94436341D01*
X117613243Y-94279999D01*
X117613231Y-94104642D01*
X117613265Y-93909082D01*
X117613289Y-93692133D01*
X117613280Y-93569513D01*
X117613243Y-93364447D01*
X117613227Y-93180116D01*
X117613288Y-93015334D01*
X117613484Y-92868916D01*
X117613870Y-92739674D01*
X117614505Y-92626422D01*
X117615444Y-92527975D01*
X117616745Y-92443144D01*
X117618464Y-92370744D01*
X117620659Y-92309589D01*
X117623385Y-92258492D01*
X117626701Y-92216267D01*
X117630662Y-92181727D01*
X117635325Y-92153686D01*
X117640747Y-92130958D01*
X117646986Y-92112356D01*
X117654097Y-92096693D01*
X117662138Y-92082784D01*
X117671166Y-92069441D01*
X117681236Y-92055479D01*
X117692407Y-92039711D01*
X117732197Y-91981867D01*
X116672314Y-91981867D01*
X116710311Y-92044966D01*
X116724993Y-92070005D01*
X116739531Y-92097586D01*
X116751627Y-92125700D01*
X116761532Y-92156551D01*
X116769494Y-92192344D01*
X116775761Y-92235283D01*
X116780582Y-92287574D01*
X116784206Y-92351419D01*
X116786881Y-92429025D01*
X116788857Y-92522594D01*
X116790382Y-92634333D01*
X116791704Y-92766445D01*
X116792613Y-92886434D01*
X116793020Y-93003063D01*
X116792767Y-93098531D01*
X116791857Y-93172556D01*
X116790293Y-93224855D01*
X116788079Y-93255149D01*
X116785220Y-93263156D01*
X116782161Y-93259858D01*
X116764006Y-93238408D01*
X116734275Y-93201889D01*
X116694639Y-93152442D01*
X116646771Y-93092207D01*
X116592343Y-93023327D01*
X116533027Y-92947943D01*
X116470495Y-92868196D01*
X116406421Y-92786228D01*
X116342475Y-92704180D01*
X116280331Y-92624194D01*
X116221661Y-92548411D01*
X116168137Y-92478973D01*
X116121430Y-92418021D01*
X116083214Y-92367696D01*
X116055161Y-92330140D01*
X116038943Y-92307495D01*
X115993635Y-92235212D01*
X115953661Y-92155463D01*
X115932130Y-92087188D01*
X115928827Y-92029844D01*
X115934116Y-91981867D01*
X114802356Y-91982117D01*
X114841867Y-92012722D01*
X114851248Y-92020089D01*
X114914183Y-92074438D01*
X114982997Y-92142259D01*
X115059596Y-92225516D01*
X115145888Y-92326178D01*
X115163052Y-92346847D01*
X115203833Y-92396409D01*
X115253588Y-92457326D01*
X115310955Y-92527898D01*
X115374569Y-92606424D01*
X115443069Y-92691204D01*
X115515090Y-92780537D01*
X115589270Y-92872722D01*
X115604517Y-92891702D01*
X115664246Y-92966060D01*
X115738653Y-93058848D01*
X115811131Y-93149388D01*
X115880314Y-93235978D01*
X115944841Y-93316918D01*
X116003347Y-93390506D01*
X116054470Y-93455044D01*
X116096847Y-93508829D01*
X116129115Y-93550162D01*
X116149910Y-93577342D01*
X116157869Y-93588668D01*
X116156111Y-93592771D01*
X116143230Y-93613334D01*
X116118885Y-93649561D01*
X116084247Y-93699824D01*
X116040486Y-93762492D01*
X115988775Y-93835936D01*
X115930284Y-93918527D01*
X115866184Y-94008636D01*
X115797646Y-94104631D01*
X115725843Y-94204885D01*
X115651944Y-94307768D01*
X115577121Y-94411650D01*
X115502545Y-94514901D01*
X115429387Y-94615892D01*
X115358819Y-94712994D01*
X115292011Y-94804577D01*
X115230135Y-94889011D01*
X115174361Y-94964667D01*
X115125862Y-95029916D01*
X115085807Y-95083128D01*
X115055369Y-95122673D01*
X115034944Y-95148026D01*
X114988899Y-95202295D01*
X114938612Y-95258775D01*
X114891815Y-95308669D01*
X114800651Y-95402400D01*
X114102445Y-95402400D01*
X114171356Y-95402349D01*
X114269607Y-95402091D01*
X114359030Y-95401637D01*
X114437333Y-95401010D01*
X114502223Y-95400235D01*
X114551411Y-95399335D01*
X114582604Y-95398334D01*
X114593511Y-95397257D01*
X114592322Y-95394037D01*
X114582176Y-95376452D01*
X114565040Y-95350158D01*
X114556540Y-95337691D01*
X114547329Y-95323622D01*
X114539233Y-95309351D01*
X114532185Y-95293479D01*
X114526117Y-95274609D01*
X114520961Y-95251341D01*
X114516651Y-95222278D01*
X114513119Y-95186021D01*
X114510297Y-95141170D01*
X114508118Y-95086328D01*
X114506514Y-95020097D01*
X114505419Y-94941077D01*
X114504765Y-94847871D01*
X114504484Y-94739079D01*
X114504509Y-94613303D01*
X114504772Y-94469145D01*
X114505206Y-94305207D01*
X114505745Y-94120089D01*
X114506279Y-93941232D01*
X114506805Y-93782374D01*
X114507350Y-93643316D01*
X114507945Y-93522665D01*
X114508619Y-93419028D01*
X114509403Y-93331011D01*
X114510326Y-93257223D01*
X114511419Y-93196269D01*
X114512712Y-93146757D01*
X114514235Y-93107293D01*
X114516019Y-93076484D01*
X114518092Y-93052938D01*
X114520486Y-93035260D01*
X114523230Y-93022059D01*
X114526356Y-93011940D01*
X114529892Y-93003511D01*
X114533791Y-92995375D01*
X114553438Y-92958544D01*
X114572225Y-92928391D01*
X114573272Y-92926908D01*
X114587602Y-92904659D01*
X114593511Y-92891702D01*
X114592504Y-92891249D01*
X114575305Y-92889803D01*
X114538656Y-92888480D01*
X114484962Y-92887316D01*
X114416630Y-92886347D01*
X114336064Y-92885611D01*
X114245670Y-92885142D01*
X114147853Y-92884978D01*
X113702195Y-92884978D01*
X113699120Y-94061845D01*
X113696045Y-95238711D01*
X113669407Y-95297622D01*
X113657485Y-95322183D01*
X113640246Y-95352434D01*
X113627074Y-95369560D01*
X113619076Y-95377591D01*
X113611378Y-95392493D01*
X113319942Y-95392493D01*
X113319474Y-95300029D01*
X113319050Y-95184617D01*
X113318706Y-95054160D01*
X113318434Y-94907716D01*
X113318227Y-94744344D01*
X113318076Y-94563101D01*
X113317972Y-94363048D01*
X113317908Y-94143241D01*
X113317876Y-93902739D01*
X113317867Y-93640602D01*
X113317867Y-91449031D01*
X113356249Y-91410649D01*
X113383355Y-91386911D01*
X113410253Y-91375111D01*
X113446560Y-91372267D01*
X113498489Y-91372267D01*
X113498489Y-91460206D01*
X113500427Y-91510102D01*
X113519199Y-91620523D01*
X113556217Y-91721987D01*
X113609369Y-91813152D01*
X113676546Y-91892673D01*
X113755638Y-91959205D01*
X113844534Y-92011406D01*
X113941125Y-92047930D01*
X114043300Y-92067434D01*
X114148950Y-92068573D01*
X114255964Y-92050005D01*
X114362232Y-92010384D01*
X114459219Y-91952516D01*
X114544293Y-91877684D01*
X114613015Y-91789615D01*
X114663918Y-91690616D01*
X114695535Y-91582993D01*
X114706400Y-91469054D01*
X114706400Y-91372267D01*
X116326753Y-91372267D01*
X116537897Y-91372280D01*
X116742020Y-91372330D01*
X116925686Y-91372430D01*
X117089991Y-91372592D01*
X117236029Y-91372829D01*
X117364894Y-91373153D01*
X117477683Y-91373575D01*
X117575488Y-91374109D01*
X117659404Y-91374767D01*
X117730527Y-91375561D01*
X117789950Y-91376504D01*
X117838768Y-91377608D01*
X117878077Y-91378884D01*
X117908969Y-91380347D01*
X117932541Y-91382007D01*
X117949886Y-91383878D01*
X117962099Y-91385972D01*
X117970275Y-91388300D01*
X117975508Y-91390876D01*
X117981504Y-91394445D01*
X117988279Y-91397978D01*
X117994478Y-91401488D01*
X118000126Y-91405918D01*
X118005247Y-91412208D01*
X118009869Y-91421301D01*
X118014015Y-91434139D01*
X118017713Y-91451662D01*
X118020987Y-91474813D01*
X118023863Y-91504534D01*
X118026367Y-91541765D01*
X118028524Y-91587449D01*
X118030360Y-91642527D01*
X118031900Y-91707941D01*
X118033170Y-91784633D01*
X118034195Y-91873544D01*
X118035001Y-91975617D01*
X118035034Y-91981867D01*
X118035614Y-92091792D01*
G37*
M02*
