G04 #@! TF.GenerationSoftware,KiCad,Pcbnew,7.0.9*
G04 #@! TF.CreationDate,2024-05-18T22:09:02+10:00*
G04 #@! TF.ProjectId,inchdigits,696e6368-6469-4676-9974-732e6b696361,1*
G04 #@! TF.SameCoordinates,Original*
G04 #@! TF.FileFunction,Legend,Top*
G04 #@! TF.FilePolarity,Positive*
%FSLAX46Y46*%
G04 Gerber Fmt 4.6, Leading zero omitted, Abs format (unit mm)*
G04 Created by KiCad (PCBNEW 7.0.9) date 2024-05-18 22:09:02*
%MOMM*%
%LPD*%
G01*
G04 APERTURE LIST*
%ADD10C,0.150000*%
%ADD11C,0.200000*%
G04 APERTURE END LIST*
D10*
X95758095Y-72154819D02*
X95758095Y-71154819D01*
X95758095Y-71631009D02*
X96329523Y-71631009D01*
X96329523Y-72154819D02*
X96329523Y-71154819D01*
X97329523Y-72154819D02*
X96758095Y-72154819D01*
X97043809Y-72154819D02*
X97043809Y-71154819D01*
X97043809Y-71154819D02*
X96948571Y-71297676D01*
X96948571Y-71297676D02*
X96853333Y-71392914D01*
X96853333Y-71392914D02*
X96758095Y-71440533D01*
X184875995Y-72154819D02*
X184875995Y-71154819D01*
X184875995Y-71631009D02*
X185447423Y-71631009D01*
X185447423Y-72154819D02*
X185447423Y-71154819D01*
X185875995Y-71250057D02*
X185923614Y-71202438D01*
X185923614Y-71202438D02*
X186018852Y-71154819D01*
X186018852Y-71154819D02*
X186256947Y-71154819D01*
X186256947Y-71154819D02*
X186352185Y-71202438D01*
X186352185Y-71202438D02*
X186399804Y-71250057D01*
X186399804Y-71250057D02*
X186447423Y-71345295D01*
X186447423Y-71345295D02*
X186447423Y-71440533D01*
X186447423Y-71440533D02*
X186399804Y-71583390D01*
X186399804Y-71583390D02*
X185828376Y-72154819D01*
X185828376Y-72154819D02*
X186447423Y-72154819D01*
X95758095Y-118092719D02*
X95758095Y-117092719D01*
X95758095Y-117568909D02*
X96329523Y-117568909D01*
X96329523Y-118092719D02*
X96329523Y-117092719D01*
X96710476Y-117092719D02*
X97329523Y-117092719D01*
X97329523Y-117092719D02*
X96996190Y-117473671D01*
X96996190Y-117473671D02*
X97139047Y-117473671D01*
X97139047Y-117473671D02*
X97234285Y-117521290D01*
X97234285Y-117521290D02*
X97281904Y-117568909D01*
X97281904Y-117568909D02*
X97329523Y-117664147D01*
X97329523Y-117664147D02*
X97329523Y-117902242D01*
X97329523Y-117902242D02*
X97281904Y-117997480D01*
X97281904Y-117997480D02*
X97234285Y-118045100D01*
X97234285Y-118045100D02*
X97139047Y-118092719D01*
X97139047Y-118092719D02*
X96853333Y-118092719D01*
X96853333Y-118092719D02*
X96758095Y-118045100D01*
X96758095Y-118045100D02*
X96710476Y-117997480D01*
X184875995Y-118092719D02*
X184875995Y-117092719D01*
X184875995Y-117568909D02*
X185447423Y-117568909D01*
X185447423Y-118092719D02*
X185447423Y-117092719D01*
X186352185Y-117426052D02*
X186352185Y-118092719D01*
X186114090Y-117045100D02*
X185875995Y-117759385D01*
X185875995Y-117759385D02*
X186495042Y-117759385D01*
D11*
X90745000Y-116185000D02*
X97790000Y-116185000D01*
X114995000Y-116185000D02*
X114995000Y-81935000D01*
X90745000Y-81935000D02*
X90745000Y-116185000D01*
X116145000Y-116185000D02*
X123190000Y-116185000D01*
X140395000Y-116185000D02*
X140395000Y-81935000D01*
X116145000Y-81935000D02*
X116145000Y-116185000D01*
X166945000Y-116185000D02*
X173990000Y-116185000D01*
X191195000Y-116185000D02*
X191195000Y-81935000D01*
X166945000Y-81935000D02*
X166945000Y-116185000D01*
X141545000Y-116185000D02*
X148590000Y-116185000D01*
X165795000Y-116185000D02*
X165795000Y-81935000D01*
X141545000Y-81935000D02*
X141545000Y-116185000D01*
M02*
