G04 #@! TF.GenerationSoftware,KiCad,Pcbnew,7.0.9*
G04 #@! TF.CreationDate,2024-05-18T22:09:02+10:00*
G04 #@! TF.ProjectId,inchdigits,696e6368-6469-4676-9974-732e6b696361,1*
G04 #@! TF.SameCoordinates,Original*
G04 #@! TF.FileFunction,Soldermask,Bot*
G04 #@! TF.FilePolarity,Negative*
%FSLAX46Y46*%
G04 Gerber Fmt 4.6, Leading zero omitted, Abs format (unit mm)*
G04 Created by KiCad (PCBNEW 7.0.9) date 2024-05-18 22:09:02*
%MOMM*%
%LPD*%
G01*
G04 APERTURE LIST*
%ADD10R,1.100000X1.100000*%
%ADD11C,1.100000*%
%ADD12C,7.000000*%
%ADD13R,1.700000X1.700000*%
%ADD14O,1.700000X1.700000*%
%ADD15R,0.600000X1.500000*%
G04 APERTURE END LIST*
D10*
X97790000Y-114300000D03*
D11*
X100330000Y-114300000D03*
X102870000Y-114300000D03*
X105410000Y-114300000D03*
X107950000Y-114300000D03*
X107950000Y-83820000D03*
X105410000Y-83820000D03*
X102870000Y-83820000D03*
X100330000Y-83820000D03*
X97790000Y-83820000D03*
D10*
X123190000Y-114300000D03*
D11*
X125730000Y-114300000D03*
X128270000Y-114300000D03*
X130810000Y-114300000D03*
X133350000Y-114300000D03*
X133350000Y-83820000D03*
X130810000Y-83820000D03*
X128270000Y-83820000D03*
X125730000Y-83820000D03*
X123190000Y-83820000D03*
D10*
X173990000Y-114300000D03*
D11*
X176530000Y-114300000D03*
X179070000Y-114300000D03*
X181610000Y-114300000D03*
X184150000Y-114300000D03*
X184150000Y-83820000D03*
X181610000Y-83820000D03*
X179070000Y-83820000D03*
X176530000Y-83820000D03*
X173990000Y-83820000D03*
D12*
X96520000Y-76200000D03*
X185637900Y-76200000D03*
X96520000Y-122137900D03*
X185637900Y-122137900D03*
D10*
X148590000Y-114300000D03*
D11*
X151130000Y-114300000D03*
X153670000Y-114300000D03*
X156210000Y-114300000D03*
X158750000Y-114300000D03*
X158750000Y-83820000D03*
X156210000Y-83820000D03*
X153670000Y-83820000D03*
X151130000Y-83820000D03*
X148590000Y-83820000D03*
G36*
G01*
X172245000Y-101245000D02*
X173195000Y-101245000D01*
G75*
G02*
X173445000Y-101495000I0J-250000D01*
G01*
X173445000Y-102170000D01*
G75*
G02*
X173195000Y-102420000I-250000J0D01*
G01*
X172245000Y-102420000D01*
G75*
G02*
X171995000Y-102170000I0J250000D01*
G01*
X171995000Y-101495000D01*
G75*
G02*
X172245000Y-101245000I250000J0D01*
G01*
G37*
G36*
G01*
X172245000Y-103320000D02*
X173195000Y-103320000D01*
G75*
G02*
X173445000Y-103570000I0J-250000D01*
G01*
X173445000Y-104245000D01*
G75*
G02*
X173195000Y-104495000I-250000J0D01*
G01*
X172245000Y-104495000D01*
G75*
G02*
X171995000Y-104245000I0J250000D01*
G01*
X171995000Y-103570000D01*
G75*
G02*
X172245000Y-103320000I250000J0D01*
G01*
G37*
G36*
G01*
X162085000Y-101245000D02*
X163035000Y-101245000D01*
G75*
G02*
X163285000Y-101495000I0J-250000D01*
G01*
X163285000Y-102170000D01*
G75*
G02*
X163035000Y-102420000I-250000J0D01*
G01*
X162085000Y-102420000D01*
G75*
G02*
X161835000Y-102170000I0J250000D01*
G01*
X161835000Y-101495000D01*
G75*
G02*
X162085000Y-101245000I250000J0D01*
G01*
G37*
G36*
G01*
X162085000Y-103320000D02*
X163035000Y-103320000D01*
G75*
G02*
X163285000Y-103570000I0J-250000D01*
G01*
X163285000Y-104245000D01*
G75*
G02*
X163035000Y-104495000I-250000J0D01*
G01*
X162085000Y-104495000D01*
G75*
G02*
X161835000Y-104245000I0J250000D01*
G01*
X161835000Y-103570000D01*
G75*
G02*
X162085000Y-103320000I250000J0D01*
G01*
G37*
D13*
X185420000Y-102860000D03*
D14*
X185420000Y-100320000D03*
X185420000Y-97780000D03*
X185420000Y-95240000D03*
G36*
G01*
X154490000Y-93650000D02*
X155390000Y-93650000D01*
G75*
G02*
X155640000Y-93900000I0J-250000D01*
G01*
X155640000Y-94600000D01*
G75*
G02*
X155390000Y-94850000I-250000J0D01*
G01*
X154490000Y-94850000D01*
G75*
G02*
X154240000Y-94600000I0J250000D01*
G01*
X154240000Y-93900000D01*
G75*
G02*
X154490000Y-93650000I250000J0D01*
G01*
G37*
G36*
G01*
X154490000Y-95650000D02*
X155390000Y-95650000D01*
G75*
G02*
X155640000Y-95900000I0J-250000D01*
G01*
X155640000Y-96600000D01*
G75*
G02*
X155390000Y-96850000I-250000J0D01*
G01*
X154490000Y-96850000D01*
G75*
G02*
X154240000Y-96600000I0J250000D01*
G01*
X154240000Y-95900000D01*
G75*
G02*
X154490000Y-95650000I250000J0D01*
G01*
G37*
G36*
G01*
X162110000Y-93650000D02*
X163010000Y-93650000D01*
G75*
G02*
X163260000Y-93900000I0J-250000D01*
G01*
X163260000Y-94600000D01*
G75*
G02*
X163010000Y-94850000I-250000J0D01*
G01*
X162110000Y-94850000D01*
G75*
G02*
X161860000Y-94600000I0J250000D01*
G01*
X161860000Y-93900000D01*
G75*
G02*
X162110000Y-93650000I250000J0D01*
G01*
G37*
G36*
G01*
X162110000Y-95650000D02*
X163010000Y-95650000D01*
G75*
G02*
X163260000Y-95900000I0J-250000D01*
G01*
X163260000Y-96600000D01*
G75*
G02*
X163010000Y-96850000I-250000J0D01*
G01*
X162110000Y-96850000D01*
G75*
G02*
X161860000Y-96600000I0J250000D01*
G01*
X161860000Y-95900000D01*
G75*
G02*
X162110000Y-95650000I250000J0D01*
G01*
G37*
D15*
X133985000Y-103810000D03*
X132715000Y-103810000D03*
X131445000Y-103810000D03*
X130175000Y-103810000D03*
X128905000Y-103810000D03*
X127635000Y-103810000D03*
X126365000Y-103810000D03*
X125095000Y-103810000D03*
X123825000Y-103810000D03*
X122555000Y-103810000D03*
X122555000Y-94310000D03*
X123825000Y-94310000D03*
X125095000Y-94310000D03*
X126365000Y-94310000D03*
X127635000Y-94310000D03*
X128905000Y-94310000D03*
X130175000Y-94310000D03*
X131445000Y-94310000D03*
X132715000Y-94310000D03*
X133985000Y-94310000D03*
G36*
G01*
X145575000Y-101245000D02*
X146525000Y-101245000D01*
G75*
G02*
X146775000Y-101495000I0J-250000D01*
G01*
X146775000Y-102170000D01*
G75*
G02*
X146525000Y-102420000I-250000J0D01*
G01*
X145575000Y-102420000D01*
G75*
G02*
X145325000Y-102170000I0J250000D01*
G01*
X145325000Y-101495000D01*
G75*
G02*
X145575000Y-101245000I250000J0D01*
G01*
G37*
G36*
G01*
X145575000Y-103320000D02*
X146525000Y-103320000D01*
G75*
G02*
X146775000Y-103570000I0J-250000D01*
G01*
X146775000Y-104245000D01*
G75*
G02*
X146525000Y-104495000I-250000J0D01*
G01*
X145575000Y-104495000D01*
G75*
G02*
X145325000Y-104245000I0J250000D01*
G01*
X145325000Y-103570000D01*
G75*
G02*
X145575000Y-103320000I250000J0D01*
G01*
G37*
G36*
G01*
X154465000Y-101245000D02*
X155415000Y-101245000D01*
G75*
G02*
X155665000Y-101495000I0J-250000D01*
G01*
X155665000Y-102170000D01*
G75*
G02*
X155415000Y-102420000I-250000J0D01*
G01*
X154465000Y-102420000D01*
G75*
G02*
X154215000Y-102170000I0J250000D01*
G01*
X154215000Y-101495000D01*
G75*
G02*
X154465000Y-101245000I250000J0D01*
G01*
G37*
G36*
G01*
X154465000Y-103320000D02*
X155415000Y-103320000D01*
G75*
G02*
X155665000Y-103570000I0J-250000D01*
G01*
X155665000Y-104245000D01*
G75*
G02*
X155415000Y-104495000I-250000J0D01*
G01*
X154465000Y-104495000D01*
G75*
G02*
X154215000Y-104245000I0J250000D01*
G01*
X154215000Y-103570000D01*
G75*
G02*
X154465000Y-103320000I250000J0D01*
G01*
G37*
D13*
X96450000Y-92710000D03*
D14*
X96450000Y-95250000D03*
X96450000Y-97790000D03*
X96450000Y-100330000D03*
X96450000Y-102870000D03*
X96450000Y-105410000D03*
M02*
